<svg width="225" height="169" viewBox="0 0 225 169" fill="none" xmlns="http://www.w3.org/2000/svg">
<mask id="mask0" mask-type="alpha" maskUnits="userSpaceOnUse" x="0" y="0" width="225" height="169">
<path d="M225 0H0V169H225V0Z" fill="white"/>
</mask>
<g mask="url(#mask0)">
<path d="M225 0H0V169H225V0Z" fill="#ADA7F9"/>
<path d="M219 27H6V163H219V27Z" fill="white"/>
<path d="M153.315 19.8827H71.6856C70.0268 19.8827 68.6816 18.5381 68.6816 16.8798V10.7705C68.6816 9.11223 70.0268 7.76758 71.6856 7.76758H153.315C154.974 7.76758 156.319 9.11223 156.319 10.7705V16.8798C156.319 18.5381 154.974 19.8827 153.315 19.8827Z" fill="white"/>
<path d="M216.506 9.51H200.346C199.897 9.51 199.534 9.14682 199.534 8.6986C199.534 8.25039 199.897 7.88721 200.346 7.88721H216.506C216.954 7.88721 217.318 8.25039 217.318 8.6986C217.318 9.14682 216.954 9.51 216.506 9.51Z" fill="#6459E7"/>
<path d="M216.506 14.3767H200.346C199.897 14.3767 199.534 14.0135 199.534 13.5653C199.534 13.1171 199.897 12.7539 200.346 12.7539H216.506C216.954 12.7539 217.318 13.1171 217.318 13.5653C217.318 14.0135 216.954 14.3767 216.506 14.3767Z" fill="#6459E7"/>
<path d="M216.506 19.2441H200.346C199.897 19.2441 199.534 18.881 199.534 18.4327C199.534 17.9845 199.897 17.6213 200.346 17.6213H216.506C216.954 17.6213 217.318 17.9845 217.318 18.4327C217.318 18.881 216.954 19.2441 216.506 19.2441Z" fill="#6459E7"/>
<path d="M167.778 17.2156C166.409 17.2156 165.124 16.6832 164.157 15.7168C162.16 13.7211 162.16 10.4737 164.157 8.47803C165.124 7.51162 166.409 6.97925 167.778 6.97925C169.145 6.97925 170.431 7.51162 171.398 8.47803C173.394 10.4737 173.394 13.7211 171.398 15.7168C170.431 16.6832 169.145 17.2156 167.778 17.2156ZM167.778 8.74997C166.883 8.74997 166.043 9.09809 165.41 9.72967C164.104 11.0345 164.104 13.1586 165.41 14.4634C166.673 15.7275 168.878 15.7283 170.145 14.4634C171.451 13.1586 171.451 11.0345 170.145 9.72967C169.513 9.09809 168.672 8.74997 167.778 8.74997Z" fill="#6459E7"/>
<path d="M174.424 19.6825C174.197 19.6825 173.971 19.5956 173.798 19.4229L170.282 15.908C169.935 15.5617 169.935 15.001 170.282 14.6555C170.628 14.3092 171.188 14.3092 171.535 14.6555L175.051 18.1704C175.397 18.5167 175.397 19.0775 175.051 19.4229C174.877 19.5965 174.651 19.6825 174.424 19.6825Z" fill="#6459E7"/>
<path d="M14.8038 18.6975C14.6505 18.6975 14.4972 18.6585 14.3607 18.5788L7.0041 14.3331C6.7294 14.1746 6.56104 13.8822 6.56104 13.566C6.56104 13.2498 6.7294 12.9566 7.0041 12.7989L14.3607 8.55325C14.6345 8.39469 14.973 8.39469 15.2468 8.55325C15.5215 8.7118 15.6899 9.00412 15.6899 9.32035V17.8117C15.6899 18.1279 15.5215 18.4211 15.2468 18.5788C15.1104 18.6576 14.9571 18.6975 14.8038 18.6975ZM9.2194 13.566L13.9176 16.2775V10.8546L9.2194 13.566Z" fill="#6459E7"/>
<path d="M25.8523 18.6975C25.699 18.6975 25.5457 18.6585 25.4092 18.5788C25.1345 18.4202 24.9662 18.1279 24.9662 17.8117V9.32035C24.9662 9.00412 25.1345 8.71092 25.4092 8.55325C25.6831 8.39469 26.0216 8.39469 26.2954 8.55325L33.652 12.7989C33.9267 12.9575 34.095 13.2498 34.095 13.566C34.095 13.8822 33.9267 14.1755 33.652 14.3331L26.2954 18.5788C26.158 18.6576 26.0056 18.6975 25.8523 18.6975ZM26.7384 10.8546V16.2775L31.4367 13.566L26.7384 10.8546Z" fill="#6459E7"/>
<path d="M78.937 17.0633H74.2751C74.0305 17.0633 73.832 16.8649 73.832 16.6204C73.832 16.3759 74.0305 16.1775 74.2751 16.1775H78.937C79.1816 16.1775 79.3801 16.3759 79.3801 16.6204C79.3801 16.8649 79.1816 17.0633 78.937 17.0633Z" fill="#6459E7"/>
</g>
<path d="M38.4647 106.369H28.6945V132.774H38.4647V106.369Z" fill="#F9C346"/>
<path d="M52.7449 91.6582H42.9746V132.773H52.7449V91.6582Z" fill="#FF7A00"/>
<path d="M67.0243 95.4299H57.254V132.773H67.0243V95.4299Z" fill="#FF9B21"/>
<path d="M81.305 111.273H71.5347V132.773H81.305V111.273Z" fill="#1FB573"/>
<path d="M95.5842 119.571H85.814V132.773H95.5842V119.571Z" fill="#A5E7CA"/>
<path d="M106.289 139.177H21.7717C21.594 139.177 21.4497 139.032 21.4497 138.854V71.3901C21.4497 71.2117 21.594 71.0669 21.7717 71.0669C21.9495 71.0669 22.0937 71.2117 22.0937 71.3901V138.531H106.289C106.467 138.531 106.611 138.676 106.611 138.854C106.611 139.032 106.467 139.177 106.289 139.177Z" fill="#ADA7F9" stroke="#D7D7D7" stroke-width="3"/>
<path d="M181.189 148.366C180.63 148.366 180.63 148.323 180.028 148.323C179.469 148.323 179.469 148.109 178.867 148.109C178.308 148.109 178.308 148.109 177.706 148.109C177.147 148.109 177.147 148.195 176.545 148.195C175.986 148.195 175.986 148.195 175.384 148.195C174.825 148.195 174.825 148.109 174.223 148.109C173.664 148.109 173.664 148.109 173.062 148.109C172.503 148.109 172.503 148.323 171.901 148.323C171.342 148.323 171.342 148.066 170.74 148.066C170.181 148.066 170.181 148.28 169.579 148.28C169.02 148.28 169.02 148.452 168.418 148.452C167.859 148.452 167.859 148.152 167.257 148.152C166.698 148.152 166.698 148.28 166.096 148.28C165.537 148.28 165.537 148.237 164.935 148.237C164.376 148.237 164.376 148.195 163.774 148.195C163.215 148.195 163.215 148.366 162.613 148.366C162.054 148.366 162.054 148.409 161.452 148.409C160.893 148.409 160.893 148.452 160.291 148.452C159.732 148.452 159.732 148.109 159.13 148.109C158.571 148.109 158.571 148.323 157.969 148.323C157.41 148.323 157.41 148.452 156.808 148.452C156.249 148.452 156.249 148.109 155.647 148.109C155.088 148.109 155.088 148.152 154.486 148.152C153.927 148.152 153.927 148.323 153.325 148.323C152.766 148.323 152.766 148.237 152.164 148.237C151.605 148.237 151.605 148.109 151.003 148.109C150.444 148.109 150.444 148.452 149.842 148.452C149.283 148.452 149.283 148.109 148.681 148.109C148.122 148.109 148.122 148.066 147.52 148.066C146.961 148.066 146.961 148.066 146.359 148.066C145.8 148.066 145.8 148.323 145.198 148.323C144.639 148.323 144.639 148.195 144.037 148.195C143.478 148.195 143.478 148.237 142.876 148.237C142.317 148.237 142.317 148.152 141.715 148.152C141.156 148.152 141.156 148.237 140.554 148.237C139.995 148.237 139.995 148.152 139.393 148.152C138.834 148.152 138.834 148.237 138.232 148.237C137.673 148.237 137.673 148.152 137.071 148.152C136.512 148.152 136.512 148.28 135.91 148.28C135.351 148.28 135.351 148.066 134.749 148.066C134.19 148.066 134.19 148.195 133.588 148.195C133.029 148.195 133.029 148.195 132.427 148.195C131.868 148.195 131.868 148.195 131.266 148.195C130.707 148.195 130.707 148.366 130.105 148.366C129.546 148.366 129.546 148.109 128.944 148.109C128.385 148.109 128.385 148.28 127.783 148.28C127.224 148.28 127.224 148.152 126.622 148.152C126.063 148.152 126.063 148.409 125.461 148.409C124.902 148.409 124.902 148.109 124.3 148.109C123.741 148.109 123.741 148.28 123.139 148.28C122.58 148.28 122.58 148.237 121.978 148.237C121.419 148.237 121.419 148.109 120.817 148.109C120.258 148.109 120.086 148.623 119.656 148.237C119.269 147.852 119.871 147.68 119.871 147.081C119.871 146.524 119.699 146.523 119.699 145.924C119.699 145.367 119.484 145.367 119.484 144.767C119.484 144.21 119.828 144.21 119.828 143.61C119.828 143.053 119.699 143.053 119.699 142.453C119.699 141.896 119.828 141.896 119.828 141.296C119.828 140.739 119.527 140.739 119.527 140.139C119.527 139.582 119.484 139.582 119.484 138.983C119.484 138.426 119.828 138.426 119.828 137.826C119.828 137.269 119.656 137.269 119.656 136.669C119.656 136.112 119.656 136.112 119.656 135.512C119.656 134.955 119.484 134.955 119.484 134.355C119.484 133.798 119.484 133.798 119.484 133.198C119.484 132.641 119.57 132.641 119.57 132.041C119.57 131.484 119.656 131.484 119.656 130.885C119.656 130.328 119.785 130.328 119.785 129.728C119.785 129.171 119.742 129.171 119.742 128.571C119.742 128.014 119.398 128.014 119.398 127.414C119.398 126.857 119.441 126.857 119.441 126.257C119.441 125.7 119.613 125.7 119.613 125.1C119.613 124.543 119.828 124.543 119.828 123.944C119.828 123.387 119.785 123.387 119.785 122.787C119.785 122.23 119.441 122.23 119.441 121.63C119.441 121.073 119.613 121.073 119.613 120.473C119.613 119.916 119.527 119.916 119.527 119.316C119.527 118.759 119.484 118.759 119.484 118.159C119.484 117.602 119.441 117.602 119.441 117.002C119.441 116.445 119.742 116.445 119.742 115.846C119.742 115.289 119.699 115.289 119.699 114.689C119.699 114.132 119.441 114.132 119.441 113.532C119.441 112.975 119.785 112.975 119.785 112.375C119.785 111.818 119.699 111.818 119.699 111.218C119.699 110.661 119.785 110.661 119.785 110.061C119.785 109.504 119.785 109.504 119.785 108.904C119.785 108.347 119.785 108.347 119.785 107.748C119.785 107.191 119.828 107.191 119.828 106.591C119.828 106.034 119.441 106.034 119.441 105.434C119.441 104.877 119.742 104.877 119.742 104.277C119.742 103.72 119.398 103.72 119.398 103.12C119.398 102.563 119.441 102.563 119.441 101.963C119.441 101.406 119.656 101.406 119.656 100.807C119.656 100.25 119.527 100.25 119.527 99.6497C119.527 99.0927 119.656 99.0927 119.656 98.4929C119.656 97.9358 119.484 97.9359 119.484 97.336C119.484 96.779 119.613 96.779 119.613 96.1792C119.613 95.6222 119.699 95.6222 119.699 95.0223C119.699 94.4653 119.613 94.4653 119.613 93.8655C119.613 93.3085 119.613 93.3085 119.613 92.7086C119.613 92.1516 119.57 92.1516 119.57 91.5518C119.57 90.9948 119.57 90.9948 119.57 90.3949C119.57 89.8379 119.355 89.8379 119.355 89.2381C119.355 88.6811 119.613 88.6811 119.613 88.0812C119.613 87.5242 119.699 87.5242 119.699 86.9244C119.699 86.3674 119.699 86.3674 119.699 85.7675C119.699 85.2105 119.484 85.2105 119.484 84.6107C119.484 84.0537 119.355 84.0537 119.355 83.4538C119.355 82.8968 119.699 82.8968 119.699 82.297C119.699 81.74 119.57 81.74 119.57 81.1401C119.57 80.5831 119.656 80.5831 119.656 79.9833C119.656 79.4263 119.699 79.4263 119.699 78.8264C119.699 78.2694 119.656 78.2694 119.656 77.6696C119.656 77.1126 119.699 77.1126 119.699 76.5127C119.699 75.9557 119.398 75.9557 119.398 75.3559C119.398 74.7989 119.699 74.7989 119.699 74.199C119.699 73.642 119.398 73.642 119.398 73.0422C119.398 72.4852 119.527 72.4852 119.527 71.8853C119.527 71.3283 119.484 71.3283 119.484 70.7285C119.484 70.1715 119.398 70.1715 119.398 69.5716C119.398 69.0146 119.613 69.0146 119.613 68.4148C119.613 67.8578 119.828 67.8578 119.828 67.2579C119.828 66.7009 119.785 66.7009 119.785 66.1011C119.785 65.5441 119.527 65.5441 119.527 64.9442C119.527 64.3872 119.828 64.3872 119.828 63.7874C119.828 63.2304 119.484 63.2304 119.484 62.6305C119.484 62.0735 119.785 62.0735 119.785 61.4737C119.785 60.9167 119.527 60.9167 119.527 60.3168C119.527 59.7598 119.484 59.7598 119.484 59.16C119.484 58.603 119.785 58.603 119.785 58.0031C119.785 57.4461 119.613 57.4461 119.613 56.8463C119.613 56.2893 119.785 56.2893 119.785 55.6894C119.785 55.1324 119.527 55.1324 119.527 54.5326C119.527 53.9756 119.527 53.9756 119.527 53.3757C119.527 52.7759 119.484 52.8187 119.484 52.2189C119.484 51.8333 119.656 51.4477 119.699 51.062C119.742 50.6764 119.828 50.2908 119.914 49.948C120 49.5624 120.172 49.2197 120.301 48.8769C120.43 48.5341 120.731 48.2342 120.903 47.8914C121.075 47.5487 120.946 47.0345 121.161 46.7346C121.376 46.4347 121.677 46.1347 121.935 45.8348C122.193 45.5349 122.709 45.5349 122.967 45.2778C123.268 45.0207 123.526 44.7636 123.827 44.5494C124.128 44.3352 124.386 43.9924 124.687 43.821C125.031 43.6496 125.418 43.564 125.762 43.4354C126.106 43.3069 126.45 43.0498 126.837 42.9641C127.224 42.8784 127.568 42.7499 127.955 42.707C128.342 42.6642 128.729 42.5356 129.116 42.5356C129.675 42.5356 129.675 42.8784 130.277 42.8784C131.739 44.2495 131.739 44.0781 132.298 44.0781C132.857 44.0781 132.857 43.8639 133.459 43.8639C134.018 43.8639 134.018 43.9067 134.62 43.9067C135.179 43.9067 135.179 44.0353 135.781 44.0353C136.34 44.0353 136.34 44.0353 136.942 44.0353C137.501 44.0353 137.501 44.2495 138.103 44.2495C138.662 44.2495 138.662 43.9924 139.264 43.9924C139.823 43.9924 139.823 43.9496 140.425 43.9496C140.984 43.9496 140.984 44.2923 141.586 44.2923C142.145 44.2923 142.145 43.9067 142.747 43.9067C143.22 43.8639 143.22 44.0781 143.779 44.0781C144.338 44.0781 144.338 44.1638 144.94 44.1638C145.499 44.1638 145.499 44.121 146.101 44.121C146.66 44.121 146.66 44.0353 147.262 44.0353C147.821 44.0353 147.821 44.121 148.423 44.121C148.982 44.121 148.982 44.1638 149.584 44.1638C150.143 44.1638 150.143 44.1638 150.745 44.1638C151.304 44.1638 151.304 44.1638 151.906 44.1638C152.465 44.1638 152.465 44.0353 153.067 44.0353C153.626 44.0353 153.626 44.121 154.228 44.121C154.787 44.121 154.787 44.121 155.389 44.121C155.948 44.121 155.948 44.1638 156.55 44.1638C157.109 44.1638 157.109 43.9067 157.711 43.9067C158.27 43.9067 158.27 43.9067 158.872 43.9067C159.431 43.9067 159.431 44.0781 160.033 44.0781C160.592 44.0781 160.592 44.2495 161.194 44.2495C161.753 44.2495 161.753 44.121 162.355 44.121C162.914 44.121 162.914 44.1638 163.516 44.1638C164.075 44.1638 164.075 44.1638 164.677 44.1638C165.236 44.1638 165.236 44.1638 165.838 44.1638C166.397 44.1638 166.397 44.2066 166.999 44.2066C167.558 44.2066 167.558 43.9496 168.16 43.9496C168.719 43.9496 168.719 44.2923 169.321 44.2923C169.88 44.2923 169.88 44.2495 170.482 44.2495C171.041 44.2495 171.041 44.2923 171.643 44.2923C172.202 44.2923 172.202 44.2066 172.804 44.2066C173.363 44.2066 173.363 44.1638 173.965 44.1638C174.524 44.1638 174.524 43.9924 175.126 43.9924C175.685 43.9924 175.685 43.9496 176.287 43.9496C176.846 43.9496 176.846 43.9924 177.448 43.9924C178.007 43.9924 178.007 43.9924 178.609 43.9924C179.168 43.9924 179.168 44.0781 179.77 44.0781C180.329 44.0781 180.329 44.3352 180.931 44.3352C181.49 44.3352 181.49 44.0781 182.092 44.0781C182.651 44.0781 182.651 44.0781 183.253 44.0781C183.812 44.0781 183.812 44.2066 184.414 44.2066C184.973 44.2066 184.973 43.9496 185.575 43.9496C186.134 43.9496 186.134 44.2066 186.736 44.2066C187.295 44.2066 187.295 44.2495 187.897 44.2495C188.456 44.2495 188.456 44.2495 189.058 44.2495C189.617 44.2495 189.617 44.2495 190.219 44.2495C190.778 44.2495 190.778 44.121 191.38 44.121C191.939 44.121 191.939 44.0781 192.541 44.0781C193.1 44.0781 193.1 44.378 193.702 44.378C194.261 44.378 194.261 44.121 194.863 44.121C195.422 44.121 195.422 44.2066 196.024 44.2066C196.583 44.2066 196.583 44.121 197.185 44.121C197.744 44.121 197.744 44.378 198.346 44.378C198.905 44.378 198.905 44.0781 199.507 44.0781C200.109 44.0781 200.281 43.7353 200.539 44.2495C200.797 44.7636 200.281 44.6351 199.98 45.1064C199.636 45.5777 199.722 45.6206 199.378 46.0919C199.034 46.5632 198.905 46.4775 198.561 46.9488C198.217 47.4201 198.174 47.3773 197.83 47.8486C197.486 48.3199 197.83 48.5341 197.486 49.0054C197.142 49.4767 196.97 49.3482 196.626 49.8195C196.282 50.2908 196.239 50.248 195.895 50.7193C195.551 51.1906 195.637 51.2334 195.293 51.7047C194.949 52.1761 195.121 52.3046 194.777 52.7759C194.433 53.2472 194.218 53.0758 193.874 53.5471C193.53 54.0184 193.573 54.0613 193.229 54.5326C192.885 55.0039 192.928 55.0039 192.584 55.4752C192.24 55.9465 192.283 55.9894 191.939 56.4607C191.595 56.932 191.337 56.8034 191.165 57.3604C190.993 57.9174 191.294 57.9603 191.294 58.5173C191.294 59.0743 191.208 59.0743 191.208 59.6741C191.208 60.2311 191.036 60.2311 191.036 60.831C191.036 61.388 191.251 61.388 191.251 61.9878C191.251 62.5448 191.294 62.5448 191.294 63.1447C191.294 63.7017 191.423 63.7017 191.423 64.3015C191.423 64.8585 191.294 64.8585 191.294 65.4584C191.294 66.0154 191.294 66.0154 191.294 66.6152C191.294 67.1722 191.079 67.1722 191.079 67.7721C191.079 68.3291 191.38 68.3291 191.38 68.9289C191.38 69.4859 191.036 69.4859 191.036 70.0858C191.036 70.6428 191.079 70.6428 191.079 71.2426C191.079 71.7996 190.993 71.7996 190.993 72.3995C190.993 72.9565 191.337 72.9565 191.337 73.5563C191.337 74.1133 191.165 74.1133 191.165 74.7132C191.165 75.2702 191.079 75.2702 191.079 75.87C191.079 76.427 191.38 76.427 191.38 77.0269C191.38 77.5839 191.38 77.5839 191.38 78.1837C191.38 78.7407 190.993 78.7407 190.993 79.3406C190.993 79.8976 191.423 79.8976 191.423 80.4974C191.423 81.0544 191.079 81.0544 191.079 81.6543C191.079 82.2113 191.036 82.2113 191.036 82.8111C191.036 83.3681 191.337 83.3681 191.337 83.968C191.337 84.525 191.423 84.525 191.423 85.1248C191.423 85.6818 191.122 85.6818 191.122 86.2817C191.122 86.8387 191.251 86.8387 191.251 87.4385C191.251 87.9955 191.38 87.9955 191.38 88.5954C191.38 89.1524 191.165 89.1524 191.165 89.7522C191.165 90.3092 191.423 90.3092 191.423 90.9091C191.423 91.4661 191.122 91.4661 191.122 92.0659C191.122 92.6229 191.423 92.6229 191.423 93.2228C191.423 93.7798 191.337 93.7798 191.337 94.3796C191.337 94.9366 191.509 94.9366 191.509 95.5365C191.509 96.0935 191.122 96.0935 191.122 96.6933C191.122 97.2503 191.294 97.2503 191.294 97.8502C191.294 98.4072 191.423 98.4072 191.423 99.007C191.423 99.564 191.509 99.564 191.509 100.164C191.509 100.721 191.38 100.721 191.38 101.321C191.38 101.878 191.38 101.878 191.38 102.478C191.38 103.035 191.251 103.035 191.251 103.634C191.251 104.191 191.38 104.191 191.38 104.791C191.38 105.348 191.337 105.348 191.337 105.948C191.337 106.505 191.337 106.505 191.337 107.105C191.337 107.662 191.423 107.662 191.423 108.262C191.423 108.819 191.509 108.819 191.509 109.419C191.509 109.976 191.423 109.976 191.423 110.575C191.423 111.132 191.552 111.132 191.552 111.732C191.552 112.289 191.38 112.289 191.38 112.889C191.38 113.446 191.509 113.446 191.509 114.046C191.509 114.603 191.208 114.603 191.208 115.203C191.208 115.76 191.38 115.76 191.38 116.36C191.38 116.917 191.294 116.917 191.294 117.517C191.294 118.074 191.509 118.074 191.509 118.673C191.509 119.23 191.208 119.23 191.208 119.83C191.208 120.387 191.509 120.387 191.509 120.987C191.509 121.544 191.251 121.544 191.251 122.144C191.251 122.701 191.552 122.701 191.552 123.301C191.552 123.858 191.251 123.858 191.251 124.458C191.251 125.015 191.509 125.015 191.509 125.615C191.509 126.172 191.165 126.172 191.165 126.771C191.165 127.328 191.294 127.328 191.294 127.928C191.294 128.485 191.208 128.485 191.208 129.085C191.208 129.642 191.423 129.642 191.423 130.242C191.423 130.799 191.165 130.799 191.165 131.399C191.165 131.956 191.423 131.956 191.423 132.556C191.423 133.113 191.208 133.113 191.208 133.712C191.208 134.269 191.552 134.269 191.552 134.869C191.552 135.426 191.38 135.426 191.38 136.026C191.38 136.583 191.251 136.583 191.251 137.183C191.251 137.74 191.423 137.74 191.423 138.34C191.423 138.94 191.208 138.897 191.208 139.497C191.208 139.882 191.466 140.268 191.423 140.654C191.38 141.039 191.165 141.382 191.079 141.768C190.993 142.153 190.821 142.496 190.692 142.839C190.563 143.181 190.391 143.524 190.219 143.867C190.047 144.21 190.004 144.638 189.789 144.938C189.574 145.238 189.144 145.41 188.886 145.667C188.628 145.966 188.456 146.309 188.155 146.566C187.854 146.823 187.682 147.209 187.381 147.466C187.08 147.68 186.736 147.895 186.392 148.066C186.048 148.237 185.618 148.195 185.231 148.323C184.887 148.452 184.586 148.837 184.199 148.923C183.812 149.009 183.382 148.709 182.995 148.752C181.92 148.066 181.576 148.366 181.189 148.366Z" fill="#A5E7CA"/>
<path d="M140.556 60.0641C140.231 59.7407 139.705 59.7407 139.38 60.0641L132.331 67.091L129.491 64.2599C129.166 63.9365 128.64 63.9365 128.316 64.2599C127.991 64.5833 127.991 65.1077 128.316 65.4311L131.743 68.8479C131.906 69.0096 132.118 69.0905 132.331 69.0905C132.544 69.0905 132.756 69.0096 132.919 68.8479L140.556 61.2353C140.88 60.9117 140.88 60.3875 140.556 60.0641Z" fill="#0C8751"/>
<path d="M140.556 73.65C140.231 73.3266 139.705 73.3266 139.38 73.65L132.331 80.6769L129.491 77.8458C129.166 77.5224 128.64 77.5224 128.316 77.8458C127.991 78.1692 127.991 78.6937 128.316 79.017L131.743 82.4338C131.906 82.5955 132.118 82.6764 132.331 82.6764C132.544 82.6764 132.756 82.5955 132.919 82.4338L140.556 74.8212C140.88 74.4976 140.88 73.9734 140.556 73.65Z" fill="#0C8751"/>
<path d="M140.556 87.236C140.231 86.9126 139.705 86.9126 139.38 87.236L132.331 94.2628L129.491 91.4318C129.166 91.1084 128.64 91.1084 128.316 91.4318C127.991 91.7552 127.991 92.2796 128.316 92.603L131.743 96.0197C131.906 96.1814 132.118 96.2624 132.331 96.2624C132.544 96.2624 132.756 96.1814 132.919 96.0197L140.556 88.4072C140.88 88.0836 140.88 87.5593 140.556 87.236Z" fill="#0C8751"/>
<path d="M140.556 100.822C140.231 100.499 139.705 100.499 139.38 100.822L132.331 107.849L129.491 105.018C129.166 104.695 128.64 104.695 128.316 105.018C127.991 105.341 127.991 105.866 128.316 106.189L131.743 109.606C131.906 109.768 132.118 109.849 132.331 109.849C132.544 109.849 132.756 109.768 132.919 109.606L140.556 101.993C140.88 101.67 140.88 101.146 140.556 100.822Z" fill="#0C8751"/>
<path d="M209.299 63.3306C208.871 63.7186 208.786 63.3306 208.187 63.3306C207.587 63.3306 207.587 63.3306 207.031 63.3306C206.432 63.3306 206.432 63.6324 205.876 63.6324C205.277 63.6324 205.277 63.3306 204.72 63.3306C204.121 63.3306 204.121 63.2444 203.565 63.2444C202.966 63.2444 202.966 63.4168 202.409 63.4168C201.81 63.4168 201.81 63.5461 201.254 63.5461C200.655 63.5461 200.655 63.3737 200.098 63.3737C199.499 63.3737 199.499 63.3306 198.943 63.3306C198.344 63.3306 198.344 63.5892 197.788 63.5892C197.188 63.5892 197.188 63.2444 196.632 63.2444C196.033 63.2444 196.033 63.3737 195.477 63.3737C194.878 63.3737 194.878 63.5461 194.321 63.5461C193.722 63.5461 193.722 63.2875 193.166 63.2875C192.567 63.2875 192.567 63.5461 192.01 63.5461C191.411 63.5461 191.154 63.9772 190.726 63.5461C190.341 63.1582 190.812 62.8996 190.812 62.3392C190.812 61.7789 190.641 61.7789 190.641 61.2616C190.641 60.7013 190.812 60.7013 190.812 60.184C190.812 59.6237 190.898 59.6237 190.898 59.1064C190.898 58.5461 190.812 58.5461 190.812 58.0288C190.812 57.4685 191.026 57.4685 191.026 56.9512C191.026 56.3909 190.94 56.3909 190.94 55.8736C190.94 55.3133 191.069 55.3133 191.069 54.796C191.069 54.2788 190.684 54.2357 190.684 53.7184C190.684 53.3305 190.769 52.9425 190.812 52.5546C190.855 52.1667 191.24 51.8649 191.326 51.477C191.411 51.0891 191.326 50.658 191.454 50.3132C191.582 49.9684 191.839 49.6666 192.01 49.3218C192.181 48.977 192.438 48.6752 192.652 48.3735C192.866 48.0718 192.952 47.6407 193.209 47.339C193.465 47.0373 193.765 46.8218 194.064 46.5631C194.364 46.3045 194.792 46.3045 195.091 46.089C195.391 45.8735 195.605 45.4855 195.947 45.3131C196.29 45.1407 196.632 44.9683 196.974 44.839C197.317 44.7097 197.745 44.7959 198.087 44.6666C198.472 44.5803 198.815 44.5372 199.2 44.4941C199.585 44.451 199.927 44.1924 200.312 44.1924V44.1062C200.698 44.1062 201.083 44.2355 201.468 44.2786C201.853 44.3217 202.238 44.3217 202.623 44.4079C203.008 44.4941 203.308 44.7959 203.65 44.9252C203.993 45.0545 204.335 45.2269 204.677 45.3993C205.02 45.5717 205.448 45.5717 205.747 45.7873C206.047 46.0028 206.389 46.2183 206.689 46.4769C206.988 46.7356 206.946 47.2959 207.202 47.5545C207.459 47.8563 207.844 47.9856 208.058 48.2873C208.272 48.589 208.443 48.9339 208.615 49.2787C208.786 49.6235 209 49.9253 209.128 50.3132C209.256 50.658 209.171 51.0891 209.256 51.477C209.342 51.8649 209.642 52.1667 209.684 52.5546C209.727 52.9425 209.856 53.3305 209.856 53.7184C209.856 54.2788 209.77 54.2788 209.77 54.796C209.77 55.3564 209.642 55.3564 209.642 55.8736C209.642 56.434 209.856 56.434 209.856 56.9512C209.856 57.5116 209.77 57.5116 209.77 58.0288C209.77 58.5892 209.856 58.5892 209.856 59.1064C209.856 59.6668 209.727 59.6668 209.727 60.184C209.727 60.7444 209.813 60.7444 209.813 61.2616C209.813 61.822 209.385 61.8651 209.47 62.3823C209.299 62.8565 209.684 62.9427 209.299 63.3306Z" fill="#0C8751"/>
<path d="M174.464 145.586C174.765 145.886 175.109 146.1 175.41 146.358C175.754 146.615 176.141 146.744 176.485 146.958C176.83 147.173 177.088 147.559 177.475 147.731C177.862 147.902 178.292 147.859 178.722 147.988C179.11 148.074 179.54 148.074 179.927 148.117C180.314 148.16 180.744 148.16 181.131 148.16C180.572 148.16 180.572 148.203 179.97 148.203C179.411 148.203 179.411 148.374 178.808 148.374C178.249 148.374 178.249 148.16 177.647 148.16C177.088 148.16 177.088 148.117 176.485 148.117C175.926 148.117 175.926 148.16 175.324 148.16C174.765 148.16 174.765 148.417 174.163 148.417C173.603 148.417 173.603 148.117 173.001 148.117C172.442 148.117 172.442 148.331 171.84 148.331C171.28 148.331 171.28 148.374 170.678 148.374C170.119 148.374 170.119 148.203 169.517 148.203C168.957 148.203 168.957 148.117 168.355 148.117C167.796 148.117 167.796 148.331 167.194 148.331C166.634 148.331 166.634 148.374 166.032 148.374C165.473 148.374 165.473 148.46 164.871 148.46C164.311 148.46 164.311 148.117 163.709 148.117C163.15 148.117 163.15 148.417 162.548 148.417C161.988 148.417 161.988 148.203 161.386 148.203C160.827 148.203 160.827 148.417 160.225 148.417C159.665 148.417 159.665 148.288 159.063 148.288C158.504 148.288 158.504 148.288 157.902 148.288C157.342 148.288 157.342 148.417 156.74 148.417C156.181 148.417 156.181 148.46 155.579 148.46C155.019 148.46 155.019 148.46 154.417 148.46C153.858 148.46 153.858 148.417 153.256 148.417C152.696 148.417 152.696 148.331 152.094 148.331C151.535 148.331 151.535 148.288 150.933 148.288C150.374 148.288 150.374 148.203 149.771 148.203C149.212 148.203 149.212 148.16 148.61 148.16C148.051 148.16 148.051 148.331 147.448 148.331C146.889 148.331 146.889 148.117 146.287 148.117C145.728 148.117 145.728 148.16 145.125 148.16C144.566 148.16 144.566 148.203 143.964 148.203C143.405 148.203 143.405 148.246 142.802 148.246C142.243 148.246 142.243 148.503 141.641 148.503C141.082 148.503 141.082 148.246 140.479 148.246C139.92 148.246 139.92 148.46 139.318 148.46C138.759 148.46 138.759 148.417 138.156 148.417C137.597 148.417 137.597 148.374 136.995 148.374C136.436 148.374 136.436 148.246 135.833 148.246C135.274 148.246 135.274 148.417 134.672 148.417C134.113 148.417 134.113 148.503 133.51 148.503C132.951 148.503 132.951 148.203 132.349 148.203C131.79 148.203 131.79 148.503 131.187 148.503C130.628 148.503 130.628 148.16 130.026 148.16C129.467 148.16 129.467 148.331 128.864 148.331C128.305 148.331 128.305 148.503 127.703 148.503C127.144 148.503 127.144 148.417 126.542 148.417C125.982 148.417 125.982 148.246 125.38 148.246C124.821 148.246 124.821 148.16 124.219 148.16C123.659 148.16 123.659 148.374 123.057 148.374C122.498 148.374 122.498 148.503 121.896 148.503C121.336 148.503 121.336 148.503 120.734 148.503C120.175 148.503 120.175 148.117 119.573 148.117C119.013 148.117 119.013 148.417 118.411 148.417C117.852 148.417 117.852 148.288 117.25 148.288C116.69 148.288 116.69 148.16 116.088 148.16C115.529 148.16 115.529 148.417 114.927 148.417C114.367 148.417 114.367 148.246 113.765 148.246C113.206 148.246 113.206 148.203 112.604 148.203C112.044 148.203 112.044 148.546 111.442 148.546C110.883 148.546 110.883 148.246 110.281 148.246C109.894 148.246 109.506 148.417 109.119 148.374C108.732 148.331 108.345 148.203 108.001 148.117C107.614 148.031 107.312 147.816 106.925 147.688C106.581 147.559 106.194 147.473 105.85 147.302C105.506 147.13 105.076 147.044 104.774 146.83C104.473 146.615 104.258 146.229 104 145.972C103.699 145.714 103.398 145.5 103.14 145.199C102.882 144.899 102.839 144.47 102.623 144.17C102.408 143.87 102.021 143.655 101.849 143.312C101.677 142.969 101.634 142.582 101.505 142.196C101.376 141.853 101.161 141.51 101.075 141.124C100.989 140.738 100.774 140.395 100.731 140.008C100.688 139.622 100.946 139.236 100.946 138.85C100.946 138.292 100.86 138.292 100.86 137.778C100.86 137.22 100.731 137.22 100.731 136.705C100.731 136.147 100.817 136.147 100.817 135.632C100.817 135.075 100.946 135.075 100.946 134.56C100.946 134.002 100.946 134.002 100.946 133.487C100.946 132.93 100.86 132.93 100.86 132.415C100.86 131.857 100.731 131.857 100.731 131.342C100.731 130.785 100.903 130.785 100.903 130.27C100.903 129.755 100.43 129.497 100.817 129.111C101.247 128.725 101.462 129.026 102.021 129.026C102.58 129.026 102.58 129.326 103.183 129.326C103.742 129.326 103.742 129.197 104.344 129.197C104.903 129.197 104.903 129.111 105.506 129.111C106.065 129.111 106.065 129.197 106.667 129.197C107.226 129.197 107.226 128.983 107.829 128.983C108.388 128.983 108.388 129.24 108.99 129.24C109.549 129.24 109.549 129.24 110.152 129.24C110.711 129.24 110.711 129.111 111.313 129.111C111.872 129.111 111.872 129.24 112.475 129.24C113.034 129.24 113.034 129.068 113.636 129.068C114.195 129.068 114.195 129.197 114.798 129.197C115.357 129.197 115.357 128.983 115.959 128.983C116.518 128.983 116.518 129.026 117.121 129.026C117.68 129.026 117.68 129.154 118.282 129.154C118.841 129.154 118.841 129.068 119.444 129.068C120.003 129.068 120.003 129.154 120.605 129.154C121.164 129.154 121.164 129.111 121.767 129.111C122.326 129.111 122.326 129.283 122.928 129.283C123.487 129.283 123.487 129.111 124.089 129.111C124.649 129.111 124.649 129.068 125.251 129.068C125.81 129.068 125.81 129.068 126.412 129.068C126.972 129.068 126.972 128.94 127.574 128.94C128.133 128.94 128.133 129.24 128.735 129.24C129.295 129.24 129.295 129.111 129.897 129.111C130.456 129.111 130.456 129.154 131.058 129.154C131.618 129.154 131.618 128.983 132.22 128.983C132.779 128.983 132.779 129.283 133.381 129.283C133.941 129.283 133.941 128.94 134.543 128.94C135.102 128.94 135.102 129.24 135.704 129.24C136.264 129.24 136.264 128.983 136.866 128.983C137.425 128.983 137.425 129.369 138.027 129.369C138.587 129.369 138.587 128.94 139.189 128.94C139.748 128.94 139.748 128.983 140.35 128.983C140.91 128.983 140.91 129.197 141.512 129.197C142.071 129.197 142.071 129.111 142.673 129.111C143.233 129.111 143.233 129.068 143.835 129.068C144.394 129.068 144.394 129.197 144.996 129.197C145.556 129.197 145.556 129.24 146.158 129.24C146.717 129.24 146.717 129.026 147.319 129.026C147.878 129.026 147.878 129.24 148.481 129.24C149.04 129.24 149.04 129.283 149.642 129.283C150.201 129.283 150.201 129.326 150.804 129.326C151.363 129.326 151.363 129.197 151.965 129.197C152.524 129.197 152.524 129.068 153.127 129.068C153.686 129.068 153.686 129.326 154.288 129.326C154.847 129.326 154.847 129.068 155.45 129.068C156.009 129.068 156.009 129.326 156.611 129.326C157.17 129.326 157.17 129.412 157.773 129.412C158.332 129.412 158.332 129.24 158.934 129.24C159.493 129.24 159.493 129.283 160.096 129.283C160.655 129.283 160.655 129.24 161.257 129.24C161.816 129.24 161.816 129.412 162.419 129.412C162.978 129.412 162.978 129.24 163.58 129.24C164.139 129.24 164.139 129.283 164.742 129.283C165.301 129.283 165.301 129.412 165.903 129.412C166.462 129.412 166.462 129.154 167.065 129.154C167.624 129.154 167.624 129.154 168.226 129.154C168.785 129.154 168.785 129.412 169.388 129.412C169.947 129.412 169.947 129.026 170.549 129.026C171.151 129.026 171.323 128.768 171.754 129.154C172.141 129.54 171.754 129.755 171.754 130.27C171.754 130.827 171.797 130.827 171.797 131.342C171.797 131.9 171.581 131.9 171.581 132.415C171.581 132.973 171.797 132.973 171.797 133.487C171.797 134.045 171.71 134.045 171.71 134.56C171.71 135.118 171.754 135.118 171.754 135.632C171.754 136.19 171.883 136.19 171.883 136.705C171.883 137.263 171.84 137.263 171.84 137.778C171.84 138.335 171.624 138.335 171.624 138.85C171.624 139.279 171.667 139.665 171.754 140.094C171.797 140.523 172.141 140.866 172.27 141.253C172.356 141.639 172.399 142.068 172.571 142.454C172.743 142.84 173.001 143.14 173.216 143.483C173.431 143.827 173.603 144.213 173.818 144.513C174.033 144.899 174.163 145.285 174.464 145.586Z" fill="#0C8751"/>
<path d="M180.695 69.0534C180.384 69.5016 180.281 68.9638 179.831 68.9638C179.382 68.9638 179.382 69.2775 178.932 69.2775C178.483 69.2775 178.483 69.1431 178.033 69.1431C177.584 69.1431 177.584 68.919 177.135 68.919C176.685 68.919 176.685 68.9638 176.236 68.9638C175.786 68.9638 175.786 68.919 175.337 68.919C174.887 68.919 174.887 69.2775 174.438 69.2775C173.988 69.2775 173.988 69.3223 173.539 69.3223C173.09 69.3223 173.09 69.0086 172.64 69.0086C172.191 69.0086 172.191 69.1879 171.741 69.1879C171.292 69.1879 171.292 69.3672 170.842 69.3672C170.393 69.3672 170.393 69.2775 169.943 69.2775C169.494 69.2775 169.494 69.1431 169.045 69.1431C168.595 69.1431 168.595 69.0534 168.146 69.0534C167.696 69.0534 167.696 69.2775 167.247 69.2775C166.797 69.2775 166.797 69.0983 166.348 69.0983C165.899 69.0983 165.899 69.2327 165.449 69.2327C165 69.2327 165 69.2327 164.55 69.2327C164.101 69.2327 164.101 69.1879 163.651 69.1879C163.202 69.1879 163.202 69.2775 162.752 69.2775C162.303 69.2775 162.303 69.0983 161.854 69.0983C161.404 69.0983 161.404 69.3223 160.955 69.3223C160.505 69.3223 160.505 69.3223 160.056 69.3223C159.606 69.3223 159.606 69.3223 159.157 69.3223C158.707 69.3223 158.707 69.2327 158.258 69.2327C157.809 69.2327 157.809 69.1431 157.359 69.1431C156.91 69.1431 156.91 69.0086 156.46 69.0086C156.011 69.0086 156.011 69.0983 155.561 69.0983C155.112 69.0983 155.112 69.1431 154.662 69.1431C154.213 69.1431 154.213 69.0534 153.764 69.0534C153.314 69.0534 153.314 69.2775 152.865 69.2775C152.415 69.2775 152.415 69.0086 151.966 69.0086C151.516 69.0086 151.516 69.2775 151.067 69.2775C150.618 69.2775 150.618 69.1879 150.168 69.1879C149.719 69.1879 149.719 69.3672 149.269 69.3672C148.82 69.3672 148.82 69.2775 148.37 69.2775C147.921 69.2775 147.921 69.412 147.471 69.412C147.022 69.412 146.953 69.5464 146.642 69.0983C146.296 68.6053 146.331 68.4708 146.676 67.9778C146.987 67.5296 147.022 67.7089 147.471 67.7089C147.921 67.7089 147.921 67.8882 148.37 67.8882C148.82 67.8882 148.82 67.6641 149.269 67.6641C149.719 67.6641 149.719 67.7537 150.168 67.7537C150.618 67.7537 150.618 67.9778 151.067 67.9778C151.516 67.9778 151.516 67.7985 151.966 67.7985C152.415 67.7985 152.415 67.7537 152.865 67.7537C153.314 67.7537 153.314 68.0674 153.764 68.0674C154.213 68.0674 154.213 67.8882 154.662 67.8882C155.112 67.8882 155.112 68.0674 155.561 68.0674C156.011 68.0674 156.011 67.933 156.46 67.933C156.91 67.933 156.91 67.7985 157.359 67.7985C157.809 67.7985 157.809 67.7089 158.258 67.7089C158.707 67.7089 158.707 67.7537 159.157 67.7537C159.606 67.7537 159.606 68.0226 160.056 68.0226C160.505 68.0226 160.505 67.7537 160.955 67.7537C161.404 67.7537 161.404 67.8433 161.854 67.8433C162.303 67.8433 162.303 67.7537 162.752 67.7537C163.202 67.7537 163.202 67.8882 163.651 67.8882C164.101 67.8882 164.101 67.8433 164.55 67.8433C165 67.8433 165 68.0226 165.449 68.0226C165.899 68.0226 165.899 67.7537 166.348 67.7537C166.797 67.7537 166.797 68.0674 167.247 68.0674C167.696 68.0674 167.696 67.8433 168.146 67.8433C168.595 67.8433 168.595 68.1122 169.045 68.1122C169.494 68.1122 169.494 67.933 169.943 67.933C170.393 67.933 170.393 67.8433 170.842 67.8433C171.292 67.8433 171.292 68.0226 171.741 68.0226C172.191 68.0226 172.191 68.1122 172.64 68.1122C173.09 68.1122 173.09 67.7537 173.539 67.7537C173.988 67.7537 173.988 67.8433 174.438 67.8433C174.887 67.8433 174.887 68.0674 175.337 68.0674C175.786 68.0674 175.786 68.1122 176.236 68.1122C176.685 68.1122 176.685 68.1571 177.135 68.1571C177.584 68.1571 177.584 67.8882 178.033 67.8882C178.483 67.8882 178.483 67.7537 178.932 67.7537C179.382 67.7537 179.382 67.7985 179.831 67.7985C180.281 67.7985 180.315 67.7089 180.73 67.9778C181.179 68.1122 181.041 68.5604 180.695 69.0534Z" fill="#0C8751"/>
<path d="M171.961 82.9537C171.649 83.3609 171.442 83.0758 170.992 83.0758C170.542 83.0758 170.542 82.7093 170.058 82.7093C169.608 82.7093 169.608 82.7907 169.124 82.7907C168.674 82.7907 168.674 82.8315 168.19 82.8315C167.74 82.8315 167.74 82.8722 167.255 82.8722C166.806 82.8722 166.806 82.7093 166.321 82.7093C165.872 82.7093 165.872 83.1166 165.387 83.1166C164.937 83.1166 164.937 82.9537 164.453 82.9537C164.003 82.9537 164.003 82.75 163.519 82.75C163.069 82.75 163.069 82.9944 162.585 82.9944C162.135 82.9944 162.135 82.7093 161.651 82.7093C161.201 82.7093 161.201 82.9129 160.716 82.9129C160.267 82.9129 160.267 82.9944 159.782 82.9944C159.333 82.9944 159.333 82.9129 158.848 82.9129C158.398 82.9129 158.398 82.8722 157.914 82.8722C157.464 82.8722 157.464 82.7093 156.98 82.7093C156.53 82.7093 156.53 82.9537 156.046 82.9537C155.596 82.9537 155.596 82.7093 155.112 82.7093C154.662 82.7093 154.662 82.7093 154.177 82.7093C153.728 82.7093 153.728 82.9129 153.243 82.9129C152.794 82.9129 152.794 82.7907 152.309 82.7907C151.859 82.7907 151.859 82.75 151.375 82.75C150.925 82.75 150.925 82.7907 150.441 82.7907C149.991 82.7907 149.991 82.7907 149.507 82.7907C149.057 82.7907 149.057 82.7907 148.573 82.7907C148.123 82.7907 148.123 82.8722 147.639 82.8722C147.189 82.8722 147.189 82.8722 146.704 82.8722C146.255 82.8722 146.047 83.3202 145.736 82.9129C145.39 82.4649 145.459 82.1391 145.805 81.6911C146.116 81.2838 146.22 81.5282 146.704 81.5282C147.154 81.5282 147.154 81.7318 147.639 81.7318C148.088 81.7318 148.088 81.6504 148.573 81.6504C149.022 81.6504 149.022 81.6504 149.507 81.6504C149.957 81.6504 149.957 81.7318 150.441 81.7318C150.891 81.7318 150.891 81.6096 151.375 81.6096C151.825 81.6096 151.825 81.8133 152.309 81.8133C152.759 81.8133 152.759 81.4467 153.243 81.4467C153.693 81.4467 153.693 81.6096 154.177 81.6096C154.627 81.6096 154.627 81.8133 155.112 81.8133C155.561 81.8133 155.561 81.4467 156.046 81.4467C156.496 81.4467 156.496 81.4875 156.98 81.4875C157.43 81.4875 157.43 81.7318 157.914 81.7318C158.364 81.7318 158.364 81.5282 158.848 81.5282C159.298 81.5282 159.298 81.406 159.782 81.406C160.232 81.406 160.232 81.5282 160.716 81.5282C161.166 81.5282 161.166 81.5282 161.651 81.5282C162.1 81.5282 162.1 81.7318 162.585 81.7318C163.035 81.7318 163.035 81.7318 163.519 81.7318C163.969 81.7318 163.969 81.6096 164.453 81.6096C164.903 81.6096 164.903 81.7318 165.387 81.7318C165.837 81.7318 165.837 81.4875 166.321 81.4875C166.771 81.4875 166.771 81.6504 167.255 81.6504C167.705 81.6504 167.705 81.4467 168.19 81.4467C168.639 81.4467 168.639 81.7726 169.124 81.7726C169.573 81.7726 169.573 81.8133 170.058 81.8133C170.508 81.8133 170.508 81.5689 170.992 81.5689C171.442 81.5689 171.442 81.5282 171.857 81.7726C172.376 82.1391 172.307 82.5057 171.961 82.9537Z" fill="#0C8751"/>
<path d="M180.857 96.7861C180.546 97.1956 180.27 96.4995 179.821 96.4995C179.372 96.4995 179.372 96.827 178.924 96.827C178.475 96.827 178.475 96.827 178.026 96.827C177.577 96.827 177.577 96.4585 177.129 96.4585C176.68 96.4585 176.68 96.6223 176.231 96.6223C175.782 96.6223 175.782 96.868 175.333 96.868C174.885 96.868 174.885 96.7042 174.436 96.7042C173.987 96.7042 173.987 96.868 173.538 96.868C173.09 96.868 173.09 96.5814 172.641 96.5814C172.192 96.5814 172.192 96.5404 171.743 96.5404C171.295 96.5404 171.295 96.4995 170.846 96.4995C170.397 96.4995 170.397 96.6632 169.948 96.6632C169.499 96.6632 169.499 96.5404 169.051 96.5404C168.602 96.5404 168.602 96.4995 168.153 96.4995C167.704 96.4995 167.704 96.5404 167.256 96.5404C166.807 96.5404 166.807 96.7042 166.358 96.7042C165.909 96.7042 165.909 96.5404 165.46 96.5404C165.012 96.5404 165.012 96.4585 164.563 96.4585C164.114 96.4585 164.114 96.7861 163.665 96.7861C163.217 96.7861 163.217 96.868 162.768 96.868C162.319 96.868 162.319 96.7042 161.87 96.7042C161.421 96.7042 161.421 96.7861 160.973 96.7861C160.524 96.7861 160.524 96.5404 160.075 96.5404C159.626 96.5404 159.626 96.5404 159.178 96.5404C158.729 96.5404 158.729 96.7042 158.28 96.7042C157.831 96.7042 157.831 96.827 157.383 96.827C156.934 96.827 156.934 96.7861 156.485 96.7861C156.036 96.7861 156.036 96.5404 155.587 96.5404C155.139 96.5404 155.139 96.6632 154.69 96.6632C154.241 96.6632 154.241 96.5404 153.792 96.5404C153.344 96.5404 153.344 96.5404 152.895 96.5404C152.446 96.5404 152.446 96.6223 151.997 96.6223C151.548 96.6223 151.548 96.6632 151.1 96.6632C150.651 96.6632 150.651 96.4176 150.202 96.4176C149.753 96.4176 149.753 96.4176 149.305 96.4176C148.856 96.4176 148.856 96.4585 148.407 96.4585C147.958 96.4585 147.958 96.6632 147.509 96.6632C147.061 96.6632 147.026 96.9089 146.715 96.4995C146.37 96.049 146.267 95.8852 146.612 95.3939C146.923 94.9844 147.061 95.3529 147.509 95.3529C147.958 95.3529 147.958 95.312 148.407 95.312C148.856 95.312 148.856 95.2301 149.305 95.2301C149.753 95.2301 149.753 95.2301 150.202 95.2301C150.651 95.2301 150.651 95.4348 151.1 95.4348C151.548 95.4348 151.548 95.4758 151.997 95.4758C152.446 95.4758 152.446 95.5577 152.895 95.5577C153.344 95.5577 153.344 95.5167 153.792 95.5167C154.241 95.5167 154.241 95.2301 154.69 95.2301C155.139 95.2301 155.139 95.5577 155.587 95.5577C156.036 95.5577 156.036 95.4758 156.485 95.4758C156.934 95.4758 156.934 95.2301 157.383 95.2301C157.831 95.2301 157.831 95.1482 158.28 95.1482C158.729 95.1482 158.729 95.5167 159.178 95.5167C159.626 95.5167 159.626 95.2301 160.075 95.2301C160.524 95.2301 160.524 95.1891 160.973 95.1891C161.421 95.1891 161.421 95.3529 161.87 95.3529C162.319 95.3529 162.319 95.2301 162.768 95.2301C163.217 95.2301 163.217 95.4348 163.665 95.4348C164.114 95.4348 164.114 95.4758 164.563 95.4758C165.012 95.4758 165.012 95.4758 165.46 95.4758C165.909 95.4758 165.909 95.271 166.358 95.271C166.807 95.271 166.807 95.5167 167.256 95.5167C167.704 95.5167 167.704 95.4348 168.153 95.4348C168.602 95.4348 168.602 95.3529 169.051 95.3529C169.499 95.3529 169.499 95.1891 169.948 95.1891C170.397 95.1891 170.397 95.1482 170.846 95.1482C171.295 95.1482 171.295 95.3529 171.743 95.3529C172.192 95.3529 172.192 95.4348 172.641 95.4348C173.09 95.4348 173.09 95.1891 173.538 95.1891C173.987 95.1891 173.987 95.4758 174.436 95.4758C174.885 95.4758 174.885 95.2301 175.333 95.2301C175.782 95.2301 175.782 95.312 176.231 95.312C176.68 95.312 176.68 95.2301 177.129 95.2301C177.577 95.2301 177.577 95.3529 178.026 95.3529C178.475 95.3529 178.475 95.271 178.924 95.271C179.372 95.271 179.372 95.5167 179.821 95.5167C180.27 95.5167 180.339 95.0663 180.753 95.3529C181.306 95.7215 181.202 96.2947 180.857 96.7861Z" fill="#0C8751"/>
<path d="M172.342 110.676C172.03 111.122 171.787 110.586 171.336 110.586C170.885 110.586 170.885 110.408 170.435 110.408C169.984 110.408 169.984 110.676 169.533 110.676C169.082 110.676 169.082 110.72 168.631 110.72C168.181 110.72 168.181 110.631 167.73 110.631C167.279 110.631 167.279 110.72 166.828 110.72C166.377 110.72 166.377 110.765 165.927 110.765C165.476 110.765 165.476 110.452 165.025 110.452C164.574 110.452 164.574 110.765 164.124 110.765C163.673 110.765 163.673 110.631 163.222 110.631C162.771 110.631 162.771 110.363 162.32 110.363C161.87 110.363 161.87 110.542 161.419 110.542C160.968 110.542 160.968 110.72 160.517 110.72C160.066 110.72 160.066 110.497 159.616 110.497C159.165 110.497 159.165 110.319 158.714 110.319C158.263 110.319 158.263 110.676 157.812 110.676C157.362 110.676 157.362 110.497 156.911 110.497C156.46 110.497 156.46 110.542 156.009 110.542C155.559 110.542 155.559 110.408 155.108 110.408C154.657 110.408 154.657 110.631 154.206 110.631C153.755 110.631 153.755 110.631 153.305 110.631C152.854 110.631 152.854 110.452 152.403 110.452C151.952 110.452 151.952 110.586 151.501 110.586C151.051 110.586 151.051 110.363 150.6 110.363C150.149 110.363 150.149 110.408 149.698 110.408C149.248 110.408 149.248 110.676 148.797 110.676C148.346 110.676 148.346 110.586 147.895 110.586C147.444 110.586 147.444 110.274 146.994 110.274C146.543 110.274 146.335 110.943 146.023 110.497C145.676 110.006 145.676 109.56 146.023 109.069C146.335 108.622 146.508 109.337 146.959 109.337C147.41 109.337 147.41 109.113 147.86 109.113C148.311 109.113 148.311 109.158 148.762 109.158C149.213 109.158 149.213 109.024 149.664 109.024C150.114 109.024 150.114 109.292 150.565 109.292C151.016 109.292 151.016 109.113 151.467 109.113C151.918 109.113 151.918 108.935 152.368 108.935C152.819 108.935 152.819 109.113 153.27 109.113C153.721 109.113 153.721 108.89 154.172 108.89C154.622 108.89 154.622 108.935 155.073 108.935C155.524 108.935 155.524 109.158 155.975 109.158C156.425 109.158 156.425 108.979 156.876 108.979C157.327 108.979 157.327 109.247 157.778 109.247C158.229 109.247 158.229 108.935 158.679 108.935C159.13 108.935 159.13 109.247 159.581 109.247C160.032 109.247 160.032 108.979 160.483 108.979C160.933 108.979 160.933 108.979 161.384 108.979C161.835 108.979 161.835 109.158 162.286 109.158C162.736 109.158 162.736 109.024 163.187 109.024C163.638 109.024 163.638 109.292 164.089 109.292C164.54 109.292 164.54 109.247 164.99 109.247C165.441 109.247 165.441 109.337 165.892 109.337C166.343 109.337 166.343 109.247 166.794 109.247C167.244 109.247 167.244 109.069 167.695 109.069C168.146 109.069 168.146 109.337 168.597 109.337C169.048 109.337 169.048 109.158 169.498 109.158C169.949 109.158 169.949 109.158 170.4 109.158C170.851 109.158 170.851 109.024 171.301 109.024C171.752 109.024 171.856 108.756 172.238 109.069C172.793 109.515 172.654 110.185 172.342 110.676Z" fill="#0C8751"/>
</svg>
