<svg xmlns="http://www.w3.org/2000/svg" width="55" height="62" fill="none"><g clip-path="url(#a)" filter="url(#b)"><path fill="#154273" d="M4 27.962c.21-6.442 3.275-12.623 9.298-17.225C19.413 6.07 26.45 5.03 33.817 6.835c4.583 1.124 8.425 3.676 11.539 7.273 5.371 6.209 6.707 13.355 4.86 21.067-1.207 4.994-4.188 9.022-8.332 12.204-2.052 1.583-4.374 2.62-6.695 3.711a13.278 13.278 0 0 0-2.913 2.054c-1.155 1.001-2.177 4.989-3.291 6.014-1.114 1.025-1.702 1.151-2.913.174-1.11-.898-2.15-4.727-3.11-5.78-1.513-1.662-3.436-2.683-5.443-3.585a22.5 22.5 0 0 1-9.874-8.615C5.24 37.601 3.98 33.51 4 27.962Z"/><path fill="#fff" d="M27.515 43.603c8.271 0 14.976-6.725 14.976-15.021 0-8.296-6.705-15.021-14.976-15.021s-14.977 6.725-14.977 15.02c0 8.297 6.706 15.022 14.977 15.022Z"/><path fill="#154273" d="m37.054 23.147-3.15-3.16c-.515-.517-1.271.162-.937.765.389.702.598 1.029.598 1.029l-1.775 1.78s.302.603.823 1.66c.05.102-.009.14-.028.15L29.2 21.973c-.399-.399-1.2.216-.85.839.344.609.831 1.415.831 1.415l-5.864 5.882a1.38 1.38 0 0 0-.377.705l-.615 3.231-3.51 3.642h1.183l3.037-2.926 3.231-.61c.267-.053.513-.185.706-.378l5.863-5.88s.804.488 1.412.832c.62.352 1.234-.452.836-.852l-2.095-2.1 2.28-2.287s.325.21 1.025.6c.602.335 1.278-.423.762-.94Zm-6.498 5.064-.972-.975-.486.975.729.732-.73.731-.971-.975-.486.975.729.732-.73.73-.972-.974-.486.975.73.731-.73.732-1.701-1.707 5.59-5.607 1.702 1.706-1.216 1.22Z"/></g><defs><clipPath id="a"><path fill="#fff" d="M0 0h55v62H0z"/></clipPath><filter id="b" width="55" height="62" x="0" y="0" color-interpolation-filters="sRGB" filterUnits="userSpaceOnUse"><feFlood flood-opacity="0" result="BackgroundImageFix"/><feColorMatrix in="SourceAlpha" result="hardAlpha" values="0 0 0 0 0 0 0 0 0 0 0 0 0 0 0 0 0 0 127 0"/><feOffset dy="-2"/><feGaussianBlur stdDeviation="2"/><feComposite in2="hardAlpha" operator="out"/><feColorMatrix values="0 0 0 0 0 0 0 0 0 0 0 0 0 0 0 0 0 0 0.2 0"/><feBlend in2="BackgroundImageFix" result="effect1_dropShadow_1_2"/><feBlend in="SourceGraphic" in2="effect1_dropShadow_1_2" result="shape"/></filter></defs></svg>