<svg width="28" height="28" viewBox="0 0 28 28" fill="none" xmlns="http://www.w3.org/2000/svg">
<path d="M0 2.82562V24.7901L16.4328 28V0L0 2.82562Z" fill="#DAA503"/>
<path d="M17.4531 13.3294V20.6911H26.7462C26.7462 20.6911 28.1061 20.5027 27.9928 18.7244L28.0003 9.10226L21.193 13.6986C21.193 13.6986 19.2664 15.2508 17.4531 13.3294Z" fill="#DAA503"/>
<path d="M17.4531 5.68139H26.8217C26.8217 5.68139 27.9248 5.60604 27.9248 6.8041L19.4553 12.4327L17.4531 11.1593V5.68139Z" fill="#DAA503"/>
<path d="M8.25746 8.79333C6.19486 8.79333 4.51758 11.0162 4.51758 13.7589C4.51758 16.5016 6.19486 18.7244 8.25746 18.7244C10.3201 18.7244 11.9973 16.5016 11.9973 13.7589C11.9973 11.0162 10.3201 8.79333 8.25746 8.79333ZM8.21213 16.69C7.22238 16.69 6.41396 15.3714 6.41396 13.7438C6.41396 12.1163 7.22238 10.7976 8.21213 10.7976C9.20187 10.7976 10.0103 12.1163 10.0103 13.7438C10.0103 15.3789 9.20187 16.69 8.21213 16.69Z" fill="white"/>
</svg>
