<svg width="152" height="51" fill="none" xmlns="http://www.w3.org/2000/svg"><g clip-path="url(#a)"><path d="M139.251 0H12.716c-.46 0-.918 0-1.377.002-.384.003-.767.01-1.155.016-.845.01-1.687.084-2.522.22a8.383 8.383 0 0 0-2.39.79A8.098 8.098 0 0 0 .97 6.942c-.14.833-.215 1.675-.225 2.519-.013.385-.013.773-.02 1.157v29.077c.007.39.008.767.02 1.16.01.843.085 1.684.226 2.516.138.835.403 1.643.785 2.397a7.808 7.808 0 0 0 1.481 2.027c.595.6 1.282 1.101 2.035 1.483.753.383 1.56.65 2.391.793a17 17 0 0 0 2.522.222c.39.01.77.014 1.155.014.46.002.916.002 1.377.002h126.535c.453 0 .911 0 1.364-.002.383 0 .776-.005 1.16-.012a16.684 16.684 0 0 0 2.515-.224 8.551 8.551 0 0 0 2.4-.793 7.898 7.898 0 0 0 2.034-1.483 8.052 8.052 0 0 0 1.487-2.03c.38-.755.642-1.563.779-2.397.139-.83.217-1.672.232-2.517.005-.39.005-.767.005-1.159.01-.457.01-.912.01-1.376V11.995c0-.46 0-.918-.01-1.373 0-.385 0-.773-.005-1.157a17.157 17.157 0 0 0-.232-2.52 8.343 8.343 0 0 0-.781-2.393 8.129 8.129 0 0 0-3.519-3.522 8.497 8.497 0 0 0-2.4-.788 16.394 16.394 0 0 0-2.515-.223c-.384-.006-.777-.013-1.16-.016C140.162 0 139.703 0 139.251 0Z" fill="#A6A6A6"/><path d="M11.345 49.212c-.383 0-.756-.005-1.136-.013-.788-.01-1.574-.08-2.352-.206a7.397 7.397 0 0 1-2.083-.69 6.8 6.8 0 0 1-1.757-1.278 6.69 6.69 0 0 1-1.283-1.756 7.197 7.197 0 0 1-.684-2.085c-.13-.78-.199-1.568-.209-2.358-.01-.265-.02-1.148-.02-1.148V10.622s.012-.87.02-1.126c.01-.788.079-1.576.207-2.354.12-.728.35-1.433.684-2.091A6.758 6.758 0 0 1 4.01 3.293a7 7 0 0 1 1.762-1.287 7.324 7.324 0 0 1 2.08-.683c.78-.128 1.569-.197 2.36-.207l1.135-.015h129.262l1.149.016c.783.009 1.564.077 2.336.204.732.124 1.44.357 2.103.69a7.036 7.036 0 0 1 3.037 3.043c.327.654.554 1.353.673 2.074.131.785.203 1.578.219 2.373.004.357.004.74.004 1.12.01.471.01.92.01 1.373V38.32c0 .456 0 .903-.01 1.352 0 .409 0 .784-.005 1.17-.015.781-.086 1.56-.215 2.33a7.202 7.202 0 0 1-.679 2.102 6.9 6.9 0 0 1-1.278 1.743 6.811 6.811 0 0 1-1.76 1.285 7.377 7.377 0 0 1-2.099.692c-.777.127-1.562.195-2.351.205-.368.009-.753.014-1.128.014l-1.363.002-127.906-.002Z" fill="#000"/><path d="M31.878 25.534a6.225 6.225 0 0 1 2.963-5.223 6.372 6.372 0 0 0-5.018-2.713c-2.114-.221-4.162 1.265-5.238 1.265-1.096 0-2.754-1.244-4.538-1.206a6.686 6.686 0 0 0-5.626 3.431c-2.433 4.211-.617 10.401 1.712 13.806 1.166 1.667 2.528 3.528 4.312 3.463 1.744-.073 2.396-1.114 4.502-1.114 2.086 0 2.697 1.114 4.516 1.071 1.872-.03 3.051-1.675 4.176-3.358a13.79 13.79 0 0 0 1.912-3.889 6.015 6.015 0 0 1-3.673-5.533Zm-3.436-10.176a6.128 6.128 0 0 0 1.402-4.39c-1.56.164-3 .91-4.035 2.088a5.834 5.834 0 0 0-1.438 4.226 5.157 5.157 0 0 0 4.07-1.924Zm25.49 18.78H47.98l-1.431 4.22h-2.522l5.64-15.62h2.62l5.639 15.62H55.36l-1.43-4.22Zm-5.337-1.95h4.718l-2.326-6.851h-.065l-2.327 6.85Zm21.509.477c0 3.539-1.895 5.811-4.754 5.811a3.86 3.86 0 0 1-3.582-1.99h-.054v5.64h-2.339V26.969h2.265v1.894h.04a4.04 4.04 0 0 1 3.627-2.012c2.89 0 4.796 2.284 4.796 5.813h.002l-.001.002Zm-2.403 0c0-2.305-1.192-3.82-3.008-3.82-1.788 0-2.99 1.546-2.99 3.82 0 2.296 1.202 3.832 2.99 3.832 1.816 0 3.008-1.506 3.008-3.831Zm14.937 0c0 3.539-1.894 5.811-4.753 5.811a3.861 3.861 0 0 1-3.582-1.99h-.054v5.64H71.91V26.969h2.263v1.894h.043a4.04 4.04 0 0 1 3.626-2.012c2.891 0 4.796 2.284 4.796 5.813v.002Zm-2.403 0c0-2.305-1.192-3.82-3.009-3.82-1.787 0-2.988 1.546-2.988 3.82 0 2.296 1.201 3.832 2.988 3.832 1.817 0 3.01-1.506 3.01-3.831Zm10.686 1.34c.173 1.551 1.678 2.567 3.735 2.567 1.97 0 3.387-1.016 3.387-2.413 0-1.214-.854-1.938-2.88-2.436l-2.024-.488c-2.867-.691-4.2-2.033-4.2-4.211 0-2.694 2.349-4.545 5.684-4.545 3.301 0 5.564 1.851 5.64 4.545h-2.36c-.141-1.559-1.428-2.5-3.313-2.5-1.884 0-3.172.953-3.172 2.338 0 1.104.824 1.754 2.837 2.25l1.72.424c3.206.758 4.537 2.045 4.537 4.33 0 2.922-2.328 4.753-6.028 4.753-3.465 0-5.804-1.787-5.955-4.613h2.392Zm14.636-9.73v2.695h2.165v1.851h-2.165V35.1c0 .976.433 1.43 1.386 1.43.257-.004.513-.022.768-.054v1.84c-.428.08-.862.117-1.297.108-2.307 0-3.205-.867-3.205-3.075v-6.527h-1.656V26.97h1.656v-2.694h2.348v-.001Zm3.42 8.39c0-3.583 2.11-5.834 5.401-5.834 3.301 0 5.402 2.251 5.402 5.835 0 3.592-2.089 5.834-5.402 5.834-3.312 0-5.401-2.242-5.401-5.834Zm8.421 0c0-2.458-1.126-3.91-3.02-3.91-1.894 0-3.02 1.463-3.02 3.91 0 2.469 1.126 3.907 3.02 3.907 1.894 0 3.02-1.438 3.02-3.907Zm4.308-5.695h2.231v1.938h.054a2.719 2.719 0 0 1 2.738-2.056c.269 0 .538.028.802.086v2.186a3.273 3.273 0 0 0-1.051-.14 2.353 2.353 0 0 0-2.333 1.617 2.366 2.366 0 0 0-.103 1.003v6.754h-2.338V26.97Zm16.601 8.044c-.314 2.066-2.327 3.485-4.902 3.485-3.314 0-5.371-2.219-5.371-5.78 0-3.572 2.069-5.889 5.271-5.889 3.152 0 5.131 2.164 5.131 5.618v.8h-8.041v.142a2.953 2.953 0 0 0 .804 2.304 2.956 2.956 0 0 0 2.26.92 2.572 2.572 0 0 0 2.628-1.6h2.22Zm-7.901-3.4h5.693a2.738 2.738 0 0 0-1.692-2.684 2.75 2.75 0 0 0-1.101-.206 2.884 2.884 0 0 0-2.682 1.781c-.145.352-.219.73-.218 1.11ZM48.301 10.983a3.321 3.321 0 0 1 3.532 3.73c0 2.396-1.295 3.776-3.532 3.776h-2.71V10.98l2.71.002Zm-1.544 6.444h1.415a2.359 2.359 0 0 0 2.474-2.7 2.367 2.367 0 0 0-2.474-2.684h-1.415v5.384Zm6.392-1.774a2.685 2.685 0 0 1 4.658-2.06 2.683 2.683 0 0 1 .685 2.06 2.685 2.685 0 1 1-5.342 0Zm4.193 0c0-1.227-.551-1.945-1.52-1.945-.972 0-1.517.718-1.517 1.945 0 1.238.545 1.95 1.518 1.95.969 0 1.52-.717 1.52-1.95Zm8.25 2.836h-1.159l-1.17-4.172h-.087l-1.166 4.171H60.86L59.3 12.824h1.135l1.014 4.322h.084l1.164-4.322h1.071l1.166 4.322h.088l1.01-4.322h1.119l-1.557 5.665Zm2.87-5.665h1.075v.9h.083a1.695 1.695 0 0 1 1.69-1.01 1.841 1.841 0 0 1 1.96 2.108v3.667h-1.117V15.1c0-.91-.395-1.363-1.222-1.363a1.298 1.298 0 0 0-1.353 1.436v3.314h-1.117v-5.665Zm6.59-2.21h1.117v7.873h-1.117v-7.874Zm2.672 5.039a2.682 2.682 0 1 1 5.342 0 2.685 2.685 0 1 1-5.342 0Zm4.192 0c0-1.227-.552-1.945-1.52-1.945-.972 0-1.517.718-1.517 1.945 0 1.238.545 1.95 1.517 1.95.97 0 1.52-.717 1.52-1.95Zm2.326 1.233c0-1.019.76-1.607 2.108-1.69l1.534-.089v-.49c0-.596-.395-.935-1.16-.935-.625 0-1.056.229-1.18.63h-1.082c.112-.973 1.028-1.598 2.314-1.598 1.418 0 2.22.708 2.22 1.905v3.87h-1.075v-.796h-.088a1.908 1.908 0 0 1-1.702.888 1.71 1.71 0 0 1-1.887-1.695h-.002Zm3.641-.483v-.475l-1.383.089c-.78.053-1.132.318-1.132.817 0 .51.44.806 1.048.806a1.337 1.337 0 0 0 1.467-1.237Zm2.583-.75c0-1.79.92-2.923 2.352-2.923a1.866 1.866 0 0 1 1.735.994h.085v-3.11h1.116v7.873h-1.07v-.893h-.088a1.966 1.966 0 0 1-1.78.987c-1.44 0-2.35-1.133-2.35-2.927v-.001Zm1.155 0c0 1.202.566 1.925 1.512 1.925.944 0 1.525-.734 1.525-1.92 0-1.18-.59-1.924-1.525-1.924-.94 0-1.512.73-1.512 1.919Zm8.894-4.503a.724.724 0 1 1 .724.681.688.688 0 0 1-.724-.681Zm.165 1.674h1.115v5.665h-1.115v-5.665Zm2.918 0h1.075v.9h.083a1.699 1.699 0 0 1 1.691-1.01 1.846 1.846 0 0 1 1.961 2.108v3.667h-1.118V15.1c0-.91-.395-1.363-1.223-1.363a1.3 1.3 0 0 0-1.352 1.436v3.314h-1.117v-5.665Zm9.331 2.829c0-1.79.92-2.923 2.351-2.923a1.875 1.875 0 0 1 1.736.994h.085v-3.11h1.118v7.873h-1.072v-.893h-.088a1.962 1.962 0 0 1-1.779.987c-1.441 0-2.352-1.133-2.352-2.927h.001v-.001Zm1.155 0c0 1.202.566 1.925 1.514 1.925.942 0 1.525-.734 1.525-1.92 0-1.18-.59-1.924-1.525-1.924-.941 0-1.514.73-1.514 1.919Zm10.757 1.306a2.297 2.297 0 0 1-2.452 1.639 2.57 2.57 0 0 1-2.618-2.925 2.604 2.604 0 0 1 1.525-2.73c.341-.153.712-.23 1.086-.228 1.577 0 2.527 1.076 2.527 2.855v.39h-4v.063a1.49 1.49 0 0 0 .396 1.145 1.493 1.493 0 0 0 1.113.477 1.36 1.36 0 0 0 1.347-.686h1.076Zm-3.932-1.825h2.862a1.358 1.358 0 0 0-.371-1.045 1.373 1.373 0 0 0-1.024-.423 1.454 1.454 0 0 0-1.36.904c-.073.18-.11.371-.107.565v-.001Z" fill="#fff"/></g><defs><clipPath id="a"><path fill="#fff" d="M0 0h151.98v51H0z"/></clipPath></defs></svg>