<svg width="109" height="126" viewBox="0 0 109 126" fill="none" xmlns="http://www.w3.org/2000/svg">
<mask id="mask0" mask-type="alpha" maskUnits="userSpaceOnUse" x="8" y="6" width="101" height="120">
<rect x="8" y="6" width="101" height="120" rx="11" fill="white"/>
</mask>
<g mask="url(#mask0)">
<mask id="mask1" mask-type="alpha" maskUnits="userSpaceOnUse" x="-126" y="-49" width="248" height="194">
<path d="M-126 -49H121.946V145H-126V-49Z" fill="white"/>
</mask>
<g mask="url(#mask1)">
<path d="M-39.0797 91.3127H74.5524C76.2382 91.3127 77.6045 89.8876 77.6045 88.13V47.8561C77.6045 46.0982 76.2378 44.6733 74.5524 44.6733H-39.0797C-40.7655 44.6733 -42.1318 46.0985 -42.1318 47.8561V88.13C-42.1318 89.8879 -40.7655 91.3127 -39.0797 91.3127Z" fill="url(#paint0_linear)"/>
<path d="M89.1783 100.127H80.5789C78.8931 100.127 77.5267 98.7017 77.5267 96.9441V65.7985C77.5267 64.0405 78.8934 62.6157 80.5789 62.6157H89.1783C90.8641 62.6157 92.2305 64.0409 92.2305 65.7985V96.9441C92.2305 98.7017 90.8641 100.127 89.1783 100.127Z" fill="url(#paint1_linear)"/>
<path d="M-38.5757 79.6138H74.0801C76.0271 79.6138 77.6055 81.2597 77.6055 83.2901V96.4501C77.6055 98.4805 76.0271 100.126 74.0801 100.126H-38.5757C-40.5228 100.126 -42.1011 98.4805 -42.1011 96.4501V83.2901C-42.1011 81.2597 -40.5225 79.6138 -38.5757 79.6138Z" fill="url(#paint2_linear)"/>
<path d="M48.3308 59.6166H55.3745C55.46 59.6166 55.5293 59.5443 55.5293 59.4552V53.0894H55.2198V59.2938H48.3308V59.6166Z" fill="white"/>
</g>
<path d="M45.2191 32.0313C43.9935 30.5312 43.164 28.6929 43.3026 26.6329C43.702 20.6976 51.6257 22.0033 53.167 24.9989C54.7083 27.9946 54.5252 35.5932 52.5332 36.1286C51.7387 36.3421 50.0464 35.8191 48.324 34.7366L49.4051 42.7118H43.0215L45.2191 32.0313Z" fill="#F0CCB5"/>
<path d="M44.7747 33.3441C43.9741 29.6276 41.6935 27.0941 42.0418 25.4329C42.274 24.3255 42.8929 23.6368 43.8985 23.3669C44.4186 21.1714 46.096 20.2375 48.9306 20.5654C53.1827 21.0571 55.7779 22.8998 54.6571 26.9545C53.6269 26.9545 52.3832 26.5657 50.6634 27.2318C50.1178 27.4432 49.7275 28.0986 49.4926 29.1981H48.7154C47.9612 27.8933 47.2174 27.4138 46.4843 27.7596C45.7511 28.1055 45.5845 28.9456 45.9843 30.2799L45.6015 33.3441H44.7747Z" fill="#191847"/>
<path d="M78.8898 110.108C75.5085 102.311 73.0632 95.5212 72.0816 91.9389C70.401 85.8052 69.1224 80.4078 68.7993 78.3922C68.0287 73.5857 74.727 73.3058 75.6124 75.6946C76.9525 79.31 79.2919 91.1889 82.1029 109.132L78.8898 110.108ZM39.6683 85.6377C42.7707 84.36 53.635 80.3615 58.8749 79.2304C60.3806 78.9054 61.84 78.6034 63.2121 78.3305C67.2904 77.5193 69.4034 85.1851 65.4755 85.7741C55.6934 87.2409 41.8256 88.7557 40.6388 88.9257C38.9755 89.1639 37.7186 86.4407 39.6683 85.6377Z" fill="#F0CCB5"/>
<path d="M65.7154 76.221L48.9346 67.3206V65.3831H50.9303C67.165 69.6933 75.4609 72.4555 75.818 73.6698C75.8218 73.6829 75.8254 73.696 75.8286 73.7091C75.8367 73.7202 75.8448 73.7315 75.8527 73.7428C79.07 78.353 80.9969 100.861 81.6294 102.546L75.4641 103.504C73.1058 94.3925 65.5605 88.0449 65.7609 77.1319C65.7068 76.8118 65.6931 76.5082 65.7154 76.221Z" fill="#EE9E2F"/>
<path d="M50.3275 81.507C48.7921 81.1867 47.3781 80.9009 46.1683 80.6798C38.3532 79.2516 36.0743 74.893 37.4217 65.3831H51.8208C54.1729 66.087 66.3968 71.4281 72.7391 74.2688C76.9367 76.149 75.6135 82.9269 73.2363 84.6908C73.2234 84.799 73.1806 84.8725 73.1045 84.9054C60.3172 90.4273 50.2013 87.53 46.822 88.4557L45.259 83.3184L50.3275 81.507Z" fill="#F9C346"/>
<path d="M41.391 85.0795C40.4307 85.321 39.7396 85.5656 39.3177 85.8134C38.8046 86.1149 38.0856 86.624 37.1607 87.3407C37.3675 87.8227 39.2259 92.1546 42.7359 100.336C44.2595 99.8642 44.9201 99.232 44.7179 98.4398C44.5157 97.6476 44.3556 96.9849 44.2378 96.4516L44.9716 88.4577C44.9857 88.3039 44.8628 88.2056 44.6971 88.2381C44.6942 88.2386 44.6914 88.2392 44.6885 88.2398L43.359 88.5348C42.6819 88.0893 42.2531 87.6559 42.0724 87.2348C41.9256 86.8926 41.8935 86.3199 41.9762 85.5165L41.9762 85.5165C42.0079 85.2082 41.7651 85.0083 41.4339 85.0701C41.4196 85.0728 41.4053 85.0759 41.391 85.0795Z" fill="#191847"/>
<path d="M77.3511 108.663C77.0558 109.484 76.9082 110.098 76.9082 110.506C76.9082 111.002 76.9875 111.725 77.146 112.677C77.6981 112.677 82.6596 112.677 92.0306 112.677C92.4174 111.344 92.1942 110.625 91.3608 110.519C90.5274 110.412 89.8351 110.317 89.2839 110.231L82.3657 107.018C82.2326 106.956 82.0766 107.018 82.0172 107.157C82.0162 107.159 82.0152 107.161 82.0143 107.164L81.5696 108.288C80.7981 108.663 80.1712 108.85 79.6889 108.85C79.297 108.85 78.7558 108.685 78.0653 108.356L78.0653 108.356C77.8003 108.229 77.487 108.35 77.3655 108.626C77.3603 108.638 77.3555 108.65 77.3511 108.663Z" fill="#191847"/>
<path d="M65.2963 57.8538L74.8587 53.4784C76.5338 51.7392 78.1513 50.4174 79.7113 49.5128C80.1778 49.3581 80.9748 49.3113 80.1245 50.6053C79.2742 51.8993 78.4357 53.3002 78.7754 53.7537C79.1152 54.2072 80.0994 53.7066 80.4882 54.4441C80.7474 54.9357 79.0884 55.5238 75.5113 56.2084L68.3496 61.9294L65.2963 57.8538ZM26.6367 59.059L32.0445 60.1769C26.606 70.7369 23.6894 76.3337 23.2948 76.9673C22.4069 78.3929 23.2353 81.0057 23.5414 82.3816C21.6215 82.8472 22.3786 79.8365 19.9491 80.4651C17.7315 81.0389 15.8512 82.5114 13.7834 80.5255C13.5292 80.2813 13.3431 79.5182 14.2099 79.1267C16.3694 78.1516 19.5598 76.3256 20.0771 75.6167C20.7826 74.6499 22.9691 69.1307 26.6367 59.059Z" fill="#F0CCB5"/>
<path d="M46.7426 37.9781L49.0246 37.5703C53.995 42.5939 56.0233 54.6629 59.3358 56.2605C62.4675 57.7709 66.9071 56.3093 72.1841 54.3357L73.8002 58.0978C69.0055 63.5024 58.7909 68.0685 54.6505 65.4619C48.0308 61.2943 46.5026 46.4089 46.7426 37.9781Z" fill="#0C8751"/>
<path d="M36.7949 67.8578C45.9449 67.8578 52.6754 67.8578 56.9865 67.8578C57.9092 67.8578 57.7353 66.4696 57.602 65.7692C56.0626 57.6852 50.0538 48.971 50.0538 37.4637L44.2295 36.5121C39.4122 44.5845 37.7462 54.5233 36.7949 67.8578Z" fill="white"/>
<path d="M34.7809 59.673C30.6647 67.409 27.2048 72.9785 24.4013 76.3816L20.1689 75.5179C22.8952 57.9016 30.7901 44.8996 43.8537 36.5121H43.9202H46.1598C51.3884 55.0822 52.8298 67.4555 50.4841 73.632H32.3085C32.596 69.1125 33.5181 64.3331 34.7809 59.673H34.7809Z" fill="#1FB573"/>
<path d="M54.8035 66.5732H68.2939V68.6184H54.8035V66.5732Z" fill="#191847"/>
<path d="M87 54.1782H70.2355L66.3703 68.6182H83.1349L87 54.1782Z" fill="#191847"/>
</g>
<defs>
<linearGradient id="paint0_linear" x1="77.6044" y1="67.9931" x2="-42.1318" y2="67.9931" gradientUnits="userSpaceOnUse">
<stop stop-color="#6A72FE"/>
<stop offset="1" stop-color="#5015AA"/>
</linearGradient>
<linearGradient id="paint1_linear" x1="87.0472" y1="77.7997" x2="75.17" y2="80.805" gradientUnits="userSpaceOnUse">
<stop stop-color="#B3B7FE"/>
<stop offset="1" stop-color="#686FFE"/>
</linearGradient>
<linearGradient id="paint2_linear" x1="123.7" y1="89.8172" x2="-94.6053" y2="94.8345" gradientUnits="userSpaceOnUse">
<stop stop-color="#B3B7FE"/>
<stop offset="1" stop-color="#6A71FD"/>
</linearGradient>
</defs>
</svg>
