<svg width="194" height="160" viewBox="0 0 194 160" fill="none" xmlns="http://www.w3.org/2000/svg">
<path d="M178.84 66.7404H175.52V74.2542H178.84V66.7404Z" fill="#1FB573"/>
<path d="M185.922 34.4075L183.823 37.1271L143.868 3.97791H149.134L185.922 34.4075Z" fill="#1FB573"/>
<path d="M178.771 65.1933H175.52L183.556 36.6851H186.808L178.771 65.1933Z" fill="#1FB573"/>
<path d="M156.263 14.3646C156.263 14.3087 156.263 14.3087 156.263 14.2528C156.263 6.37185 149.837 -1.52588e-05 141.959 -1.52588e-05C134.08 -1.52588e-05 127.71 6.37185 127.71 14.2528C127.71 14.3087 127.71 14.3087 127.71 14.3646L156.263 14.3646Z" fill="#6459E7"/>
<path d="M162.46 77.5691H104.95L104.913 75.8011H162.424L162.46 77.5691Z" fill="#23286B"/>
<path d="M80.7871 64.9724H68.835V76.0221H80.7871V64.9724Z" fill="url(#paint0_linear)"/>
<path d="M90.0837 76.0221H60.4248V77.79H90.0837V76.0221Z" fill="#6459E7"/>
<path d="M177.179 67.8454C178.34 67.8454 179.282 66.9054 179.282 65.7459C179.282 64.5864 178.34 63.6465 177.179 63.6465C176.018 63.6465 175.076 64.5864 175.076 65.7459C175.076 66.9054 176.018 67.8454 177.179 67.8454Z" fill="url(#paint1_linear)"/>
<path d="M185.147 38.011C186.308 38.011 187.249 37.0711 187.249 35.9116C187.249 34.7521 186.308 33.8121 185.147 33.8121C183.985 33.8121 183.044 34.7521 183.044 35.9116C183.044 37.0711 183.985 38.011 185.147 38.011Z" fill="url(#paint2_linear)"/>
<path d="M193.669 77.5691H0V86.6298H193.669V77.5691Z" fill="url(#paint3_linear)"/>
<path d="M189.02 86.6299H2.87695V89.5028H189.02V86.6299Z" fill="#23286B"/>
<path d="M16.3788 89.5028L3.69725 159.779H0L12.7185 89.5028H16.3788Z" fill="url(#paint4_linear)"/>
<path d="M191.013 159.779H187.315L174.634 89.5028H178.294L191.013 159.779Z" fill="url(#paint5_linear)"/>
<path d="M162.518 75.8012H123.948L129.978 54.5857H168.658L162.518 75.8012Z" fill="url(#paint6_linear)"/>
<path d="M104.913 27.4033H44.2666V64.9724H104.913V27.4033Z" fill="url(#paint7_linear)"/>
<path d="M167.73 74.2542H182.166C184.118 74.2542 185.701 75.8379 185.701 77.7901H164.231C164.231 75.8379 165.778 74.2542 167.73 74.2542Z" fill="url(#paint8_linear)"/>
<path d="M156.409 58.8899L131.578 58.8172L131.872 57.9091L156.703 57.9817L156.409 58.8899Z" fill="white"/>
<path d="M155.821 60.9605L130.99 60.9242L131.248 60.016L156.079 60.0523L155.821 60.9605Z" fill="white"/>
<path d="M155.195 63.0312L130.364 62.9949L130.622 62.0867L155.453 62.1593L155.195 63.0312Z" fill="white"/>
<path d="M154.57 65.1746L129.739 65.1019L129.997 64.1937L154.828 64.2664L154.57 65.1746Z" fill="white"/>
<path d="M60.0095 153.709C60.3804 141.201 61.3876 130.642 62.3422 125.277C63.9766 116.091 65.6895 108.142 66.5408 105.276C68.5708 98.443 77.9353 102.548 77.6153 106.279C77.131 111.927 72.7104 129.106 65.0425 154.571L60.0095 153.709Z" fill="#F0CCB5"/>
<path d="M59.7577 151.271C59.3072 152.472 59.082 153.37 59.082 153.967C59.082 154.692 59.203 155.75 59.4449 157.142C60.2871 157.142 67.8563 157.142 82.1526 157.142C82.7427 155.193 82.402 154.141 81.1307 153.985C79.8593 153.83 78.8032 153.69 77.9622 153.564L67.4079 148.864C67.2048 148.774 66.9668 148.865 66.8763 149.068C66.8747 149.071 66.8732 149.075 66.8718 149.078L66.1933 150.722C65.0164 151.271 64.06 151.545 63.3242 151.545C62.7263 151.545 61.9007 151.304 60.8473 150.822C60.443 150.636 59.9651 150.814 59.7797 151.218C59.7717 151.235 59.7644 151.253 59.7577 151.271Z" fill="#191847"/>
<path d="M58.2171 159.722C60.4339 159.722 62.231 157.928 62.231 155.715C62.231 153.502 60.4339 151.708 58.2171 151.708C56.0002 151.708 54.2031 153.502 54.2031 155.715C54.2031 157.928 56.0002 159.722 58.2171 159.722Z" fill="url(#paint9_linear)"/>
<path d="M37.8779 107.747H57.06C57.06 109.442 55.6705 110.79 54.0109 110.79H40.9656C39.2288 110.79 37.8779 109.442 37.8779 107.747Z" fill="url(#paint10_linear)"/>
<path d="M39.499 87.3648C39.499 87.3648 43.7831 97.2283 56.6355 98.5768C69.4878 99.9253 64.2774 112.987 63.1581 115.029C62.0389 117.071 60.6494 118.843 59.8389 122.002C59.0284 125.162 60.1863 129.246 58.9126 131.558C57.639 133.869 52.2742 141.652 53.9338 146.777H72.7298C72.7298 146.777 83.5752 104.163 82.8419 99.9638C82.1086 95.7642 83.305 92.3736 71.9965 87.1337C60.688 81.8937 53.0847 78.6188 53.0847 78.6188L39.499 87.3648Z" fill="#005E35"/>
<path d="M49.8034 110.752H45.0947V119.344H49.8034V110.752Z" fill="url(#paint11_linear)"/>
<path d="M73.9263 97.9988H21.0889V107.747H73.9263V97.9988Z" fill="url(#paint12_linear)"/>
<path d="M46.9478 118.419H47.9899C49.6881 118.419 51.0775 119.806 51.0775 121.502V146.622H43.8602V121.502C43.8216 119.806 45.211 118.419 46.9478 118.419Z" fill="url(#paint13_linear)"/>
<path d="M47.4883 146.622H65.2423C67.4422 146.622 69.179 148.395 69.179 150.552V151.824H67.9054V151.554V151.015C67.9054 149.281 66.5159 147.894 64.7791 147.894H47.4883V146.622Z" fill="url(#paint14_linear)"/>
<path d="M47.4883 146.622H54.9758C57.1758 146.622 58.9126 148.395 58.9126 150.552V151.824H57.6389V151.554V151.015C57.6389 149.281 56.2495 147.894 54.5127 147.894H47.4883V146.622Z" fill="#23286B"/>
<path d="M47.5648 146.622H29.8108C27.6108 146.622 25.874 148.395 25.874 150.552V151.824H27.1477V151.554V151.015C27.1477 149.281 28.5371 147.894 30.2739 147.894H47.5648V146.622Z" fill="url(#paint15_linear)"/>
<path d="M47.5649 146.622H40.0774C37.8774 146.622 36.1406 148.395 36.1406 150.552V151.824H37.4143V151.554V151.015C37.4143 149.281 38.8037 147.894 40.5405 147.894H47.5649V146.622Z" fill="#23286B"/>
<path d="M36.7581 159.722C38.9749 159.722 40.772 157.928 40.772 155.715C40.772 153.502 38.9749 151.708 36.7581 151.708C34.5412 151.708 32.7441 153.502 32.7441 155.715C32.7441 157.928 34.5412 159.722 36.7581 159.722Z" fill="url(#paint16_linear)"/>
<path d="M68.5608 159.722C70.7777 159.722 72.5748 157.928 72.5748 155.715C72.5748 153.502 70.7777 151.708 68.5608 151.708C66.344 151.708 64.5469 153.502 64.5469 155.715C64.5469 157.928 66.344 159.722 68.5608 159.722Z" fill="url(#paint17_linear)"/>
<path d="M26.4925 159.722C28.7093 159.722 30.5064 157.928 30.5064 155.715C30.5064 153.502 28.7093 151.708 26.4925 151.708C24.2756 151.708 22.4785 153.502 22.4785 155.715C22.4785 157.928 24.2756 159.722 26.4925 159.722Z" fill="url(#paint18_linear)"/>
<path d="M41.0684 45.9961C41.0684 45.9961 27.7718 65.0018 32.1782 84.3931C32.1782 84.3931 46.5957 91.3708 59.5058 78.9188C59.5058 78.9188 47.6007 55.6724 46.9436 49.0802L41.0684 45.9961Z" fill="url(#paint19_linear)"/>
<path d="M75.276 51.1235H83.4317V57.0604C83.4317 59.2964 81.615 61.1468 79.3345 61.1468C77.0926 61.1468 75.2373 59.3349 75.2373 57.0604L75.276 51.1235Z" fill="white"/>
<path d="M78.91 53.5908H80.1083C80.6107 53.5908 81.0359 54.0149 81.0359 54.516V60.6071H78.021V54.516C77.9823 54.0149 78.4075 53.5908 78.91 53.5908Z" fill="#D6D7D8"/>
<path d="M74.3096 62.1106C74.3096 62.1106 76.6288 57.6387 77.9816 56.7906C77.9816 56.7906 77.9816 59.8746 79.3731 59.8361C80.9965 59.7975 81.0738 56.9833 80.9965 55.634C80.9579 54.6702 80.8419 54.7473 81.7309 55.0172C82.3107 55.21 85.6349 56.8291 84.9778 61.301C84.3207 65.773 77.711 65.8115 76.822 66.3513C76.4355 66.5826 76.049 66.8139 75.6624 67.0452L74.3096 62.1106Z" fill="#FFDDC8"/>
<path d="M42.3048 39.799C40.3135 37.4739 38.9658 34.6244 39.191 31.4315C39.8399 22.2319 52.7132 24.2557 55.2173 28.8989C57.7214 33.5421 57.4239 45.3199 54.1875 46.1498C52.8969 46.4807 50.1474 45.67 47.3491 43.9921L49.1055 56.3536H38.7344L42.3048 39.799Z" fill="#FFDDC8"/>
<path d="M51.1217 23.928C49.7093 23.4993 47.6589 23.3539 46.7964 23.4523C47.2871 22.2822 47.4818 20.9786 47.323 19.7093C47.1688 18.4759 46.6151 17.4257 46.103 16.3253C45.867 15.818 45.5995 15.3136 45.2006 14.9256C44.7944 14.5303 44.2801 14.2694 43.7408 14.1449C43.1889 14.0175 42.6119 14.0281 42.0591 14.1437C41.8146 14.1949 41.5952 14.3062 41.3554 14.368C41.1099 14.4314 40.9907 14.2784 40.8125 14.1247C40.383 13.7542 39.7532 13.5713 39.2098 13.5059C38.6001 13.4325 37.9675 13.524 37.386 13.7235C36.82 13.9177 36.2763 14.2331 35.8671 14.6926C35.6849 14.8971 35.5195 15.1299 35.412 15.3869C35.3679 15.4923 35.3606 15.5548 35.2549 15.5934C35.1571 15.6292 35.0427 15.6302 34.9418 15.6643C33.9659 15.9933 33.1315 16.7438 32.6772 17.7074C32.4122 18.2696 32.2866 19.2594 32.321 20.3689C32.3554 21.4783 33.3618 24.3731 34.3031 25.4289C35.1433 26.3714 36.3783 26.9933 37.5702 27.2656C36.7791 28.1656 36.2525 29.2903 35.863 30.4342C35.44 31.6767 35.1783 32.9678 35.0816 34.2832C34.9898 35.533 34.9812 36.8547 35.2756 38.0779C35.551 39.2217 36.1399 40.1601 37.123 40.7553C37.5733 41.028 38.0578 41.2329 38.5451 41.4201C39.0254 41.6046 39.5071 41.784 40.0102 41.8876C40.9623 42.0834 42.0593 42.0498 42.7928 41.2955C43.0571 41.0235 43.3478 40.6818 43.5406 40.3496C43.61 40.2302 43.6518 40.152 43.5675 40.0353C43.4666 39.8954 43.3034 39.7882 43.1737 39.6788C42.4344 39.055 41.9768 38.2223 41.8614 37.2326C41.7444 36.2284 42.0154 34.9324 42.9962 34.4941C44.2069 33.9532 45.5403 34.5741 46.6164 35.1529C47.0737 33.5462 48.0128 32.0996 49.4851 31.3626C51.1139 30.5473 52.9829 30.4519 54.6567 29.7524C55.0929 29.5701 55.5372 29.3631 55.8583 28.9917C55.9925 28.8365 56.1499 28.6351 56.2035 28.4298C56.2739 28.1601 56.0992 27.934 55.9642 27.7237C55.2484 26.6089 52.5342 24.3567 51.1217 23.928Z" fill="#FF7A00"/>
<path d="M41.0688 45.9961C41.0688 45.9961 47.6398 46.4202 50.2682 54.7087C52.8966 62.9972 53.515 69.3196 59.081 68.2401C64.6471 67.1607 70.8315 64.2308 74.1943 61.6093L77.905 75.7576C77.905 75.7576 74.5036 80.8464 69.556 81.309C64.6084 81.7716 60.8977 84.7015 57.9988 85.9351C55.0998 87.1688 48.4515 89.1734 45.2046 84.5473C41.9578 79.9212 36.701 65.156 37.4741 52.2028C38.5177 50.0825 39.7159 48.0008 41.0688 45.9961Z" fill="#F9C346"/>
<path d="M70.4118 155.919C70.7827 143.411 71.7899 132.852 72.7445 127.487C74.379 118.301 76.0919 110.352 76.9432 107.486C78.9732 100.653 88.3376 104.758 88.0176 108.489C87.5333 114.137 83.1128 131.316 75.4448 156.781L70.4118 155.919Z" fill="#F0CCB5"/>
<path d="M70.16 153.481C69.7096 154.682 69.4844 155.58 69.4844 156.177C69.4844 156.902 69.6053 157.96 69.8472 159.352C70.6894 159.352 78.2587 159.352 92.5549 159.352C93.145 157.403 92.8044 156.351 91.533 156.195C90.2616 156.04 89.2055 155.9 88.3646 155.774L77.8103 151.074C77.6072 150.984 77.3691 151.075 77.2786 151.278C77.2771 151.281 77.2756 151.285 77.2741 151.288L76.5957 152.932C75.4187 153.481 74.4623 153.755 73.7265 153.755C73.1286 153.755 72.303 153.514 71.2496 153.031H71.2496C70.8453 152.846 70.3674 153.024 70.1821 153.427C70.1741 153.445 70.1667 153.463 70.16 153.481Z" fill="#191847"/>
<path d="M43.0007 85.0485C43.0007 85.0485 41.8025 96.1127 56.6452 98.5029C71.4879 100.893 72.145 102.705 72.2609 106.483C72.3769 110.261 71.256 112.497 69.8645 116.391C68.473 120.284 68.4343 125.643 69.1687 128.766C69.9031 131.888 66.6563 135.782 65.1488 139.444C64.2211 141.796 63.8733 144.34 64.1438 146.846H84.4753C84.4753 146.846 89.9253 110.261 90.3119 104.864C90.6984 99.4667 92.4378 93.9539 85.4029 90.3301C78.3681 86.7062 63.2935 80.0754 63.2935 80.0754L43.0007 85.0485Z" fill="url(#paint20_linear)"/>
<path d="M56.4134 107.717H20.814L11.8466 59.9902C11.1895 56.4435 13.5086 53.0125 17.1034 52.3571C17.4899 52.28 17.9151 52.2415 18.3016 52.2415H40.527C43.6966 52.2415 46.4023 54.4774 46.9821 57.5615L56.4134 107.717Z" fill="url(#paint21_linear)"/>
<defs>
<linearGradient id="paint0_linear" x1="74.9136" y1="63.5102" x2="74.7383" y2="76.1421" gradientUnits="userSpaceOnUse">
<stop stop-color="#3F19A3"/>
<stop offset="1" stop-color="#6358E6"/>
</linearGradient>
<linearGradient id="paint1_linear" x1="175.091" y1="65.759" x2="179.266" y2="65.759" gradientUnits="userSpaceOnUse">
<stop stop-color="#23286B"/>
<stop offset="1" stop-color="#151A4F"/>
</linearGradient>
<linearGradient id="paint2_linear" x1="183.055" y1="35.9092" x2="187.229" y2="35.9092" gradientUnits="userSpaceOnUse">
<stop stop-color="#23286B"/>
<stop offset="1" stop-color="#151A4F"/>
</linearGradient>
<linearGradient id="paint3_linear" x1="0.0147984" y1="82.1116" x2="193.692" y2="82.1116" gradientUnits="userSpaceOnUse">
<stop offset="0.08983" stop-color="#EEEEEE"/>
<stop offset="0.8178" stop-color="#D6D7D8"/>
</linearGradient>
<linearGradient id="paint4_linear" x1="0.00369725" y1="124.63" x2="16.3862" y2="124.63" gradientUnits="userSpaceOnUse">
<stop stop-color="#23286B"/>
<stop offset="1" stop-color="#151A4F"/>
</linearGradient>
<linearGradient id="paint5_linear" x1="182.769" y1="120.538" x2="177.821" y2="99.949" gradientUnits="userSpaceOnUse">
<stop stop-color="#23286B"/>
<stop offset="1" stop-color="#151A4F"/>
</linearGradient>
<linearGradient id="paint6_linear" x1="156.14" y1="61.485" x2="143.837" y2="82.0013" gradientUnits="userSpaceOnUse">
<stop stop-color="#23286B"/>
<stop offset="1" stop-color="#151A4F"/>
</linearGradient>
<linearGradient id="paint7_linear" x1="66.8635" y1="41.6321" x2="92.4068" y2="80.8836" gradientUnits="userSpaceOnUse">
<stop stop-color="#23286B"/>
<stop offset="1" stop-color="#151A4F"/>
</linearGradient>
<linearGradient id="paint8_linear" x1="164.216" y1="76.0068" x2="185.693" y2="76.0068" gradientUnits="userSpaceOnUse">
<stop stop-color="#23286B"/>
<stop offset="1" stop-color="#151A4F"/>
</linearGradient>
<linearGradient id="paint9_linear" x1="60.2194" y1="152.903" x2="53.0863" y2="163.03" gradientUnits="userSpaceOnUse">
<stop offset="0.08983" stop-color="#EEEEEE"/>
<stop offset="0.8178" stop-color="#D6D7D8"/>
</linearGradient>
<linearGradient id="paint10_linear" x1="46.9357" y1="109.366" x2="46.9693" y2="109.018" gradientUnits="userSpaceOnUse">
<stop stop-color="#23286B"/>
<stop offset="1" stop-color="#151A4F"/>
</linearGradient>
<linearGradient id="paint11_linear" x1="42.6173" y1="105.966" x2="51.6622" y2="111.071" gradientUnits="userSpaceOnUse">
<stop stop-color="#23286B"/>
<stop offset="1" stop-color="#151A4F"/>
</linearGradient>
<linearGradient id="paint12_linear" x1="46.0387" y1="103.295" x2="46.1488" y2="101.97" gradientUnits="userSpaceOnUse">
<stop stop-color="#23286B"/>
<stop offset="1" stop-color="#151A4F"/>
</linearGradient>
<linearGradient id="paint13_linear" x1="47.4764" y1="129.24" x2="46.6737" y2="156.893" gradientUnits="userSpaceOnUse">
<stop stop-color="#23286B"/>
<stop offset="1" stop-color="#151A4F"/>
</linearGradient>
<linearGradient id="paint14_linear" x1="59.8141" y1="149.165" x2="47.3636" y2="145.507" gradientUnits="userSpaceOnUse">
<stop stop-color="#23286B"/>
<stop offset="1" stop-color="#151A4F"/>
</linearGradient>
<linearGradient id="paint15_linear" x1="24.3249" y1="148.58" x2="30.5457" y2="154.205" gradientUnits="userSpaceOnUse">
<stop stop-color="#23286B"/>
<stop offset="1" stop-color="#151A4F"/>
</linearGradient>
<linearGradient id="paint16_linear" x1="39.2309" y1="153.736" x2="26.7588" y2="163.781" gradientUnits="userSpaceOnUse">
<stop offset="0.08983" stop-color="#EEEEEE"/>
<stop offset="0.8178" stop-color="#D6D7D8"/>
</linearGradient>
<linearGradient id="paint17_linear" x1="71.8101" y1="152.26" x2="62.2347" y2="162.482" gradientUnits="userSpaceOnUse">
<stop offset="0.08983" stop-color="#EEEEEE"/>
<stop offset="0.8178" stop-color="#D6D7D8"/>
</linearGradient>
<linearGradient id="paint18_linear" x1="29.1182" y1="152.065" x2="21.5336" y2="162.734" gradientUnits="userSpaceOnUse">
<stop offset="0.08983" stop-color="#EEEEEE"/>
<stop offset="0.8178" stop-color="#D6D7D8"/>
</linearGradient>
<linearGradient id="paint19_linear" x1="31.2917" y1="66.1764" x2="59.5177" y2="66.1764" gradientUnits="userSpaceOnUse">
<stop stop-color="#A1C3FC"/>
<stop offset="0.6955" stop-color="#81AEF2"/>
<stop offset="1" stop-color="#78A9EF"/>
</linearGradient>
<linearGradient id="paint20_linear" x1="71.7265" y1="119.571" x2="37.7971" y2="95.1364" gradientUnits="userSpaceOnUse">
<stop stop-color="#1FB573"/>
<stop offset="1" stop-color="#151A4F"/>
</linearGradient>
<linearGradient id="paint21_linear" x1="37.1908" y1="72.4897" x2="13.5223" y2="121.635" gradientUnits="userSpaceOnUse">
<stop stop-color="#A6ABFE"/>
<stop offset="1" stop-color="#645BE9"/>
</linearGradient>
</defs>
</svg>
