<svg width="375" height="432" viewBox="0 0 375 432" fill="none" xmlns="http://www.w3.org/2000/svg">
<mask id="mask0" mask-type="alpha" maskUnits="userSpaceOnUse" x="0" y="0" width="375" height="432">
<rect width="375" height="432" fill="#C4C4C4"/>
</mask>
<g mask="url(#mask0)">
<mask id="mask1" mask-type="alpha" maskUnits="userSpaceOnUse" x="-21" y="-138" width="845" height="636">
<path d="M824 -138H-21V497.357H824V-138Z" fill="white"/>
</mask>
<g mask="url(#mask1)">
<path d="M527.776 321.529H140.519C134.773 321.529 130.117 316.862 130.117 311.105V179.207C130.117 173.45 134.774 168.783 140.519 168.783H527.776C533.522 168.783 538.178 173.451 538.178 179.207V311.105C538.178 316.863 533.522 321.529 527.776 321.529Z" fill="url(#paint0_linear)"/>
<path d="M90.6729 350.395H119.98C125.725 350.395 130.382 345.728 130.382 339.971V237.968C130.382 232.211 125.724 227.545 119.98 227.545H90.6729C84.9277 227.545 80.2712 232.212 80.2712 237.968V339.971C80.2712 345.728 84.9277 350.395 90.6729 350.395Z" fill="url(#paint1_linear)"/>
<path d="M526.06 283.215H142.129C135.494 283.215 130.115 288.606 130.115 295.255V338.355C130.115 345.004 135.494 350.395 142.129 350.395H526.06C532.696 350.395 538.075 345.004 538.075 338.355V295.255C538.075 288.606 532.695 283.215 526.06 283.215Z" fill="url(#paint2_linear)"/>
<path d="M229.883 217.724H205.878C205.587 217.724 205.351 217.487 205.351 217.195V196.347H206.406V216.667H229.883V217.724Z" fill="white"/>
</g>
<path d="M70.225 131.185C100.673 131.185 125.355 106.484 125.355 76.0123C125.355 45.5411 100.673 20.8392 70.225 20.8392C39.7775 20.8392 15.0948 45.5411 15.0948 76.0123C15.0948 106.484 39.7775 131.185 70.225 131.185Z" fill="white"/>
<path d="M70.2258 35.684C72.0008 35.684 73.4397 34.244 73.4397 32.4677C73.4397 30.6913 72.0008 29.2513 70.2258 29.2513C68.4509 29.2513 67.012 30.6913 67.012 32.4677C67.012 34.244 68.4509 35.684 70.2258 35.684Z" fill="black" fill-opacity="0.15"/>
<path d="M26.7144 79.2288C28.4893 79.2288 29.9282 77.7887 29.9282 76.0124C29.9282 74.236 28.4893 72.796 26.7144 72.796C24.9394 72.796 23.5005 74.236 23.5005 76.0124C23.5005 77.7887 24.9394 79.2288 26.7144 79.2288Z" fill="black" fill-opacity="0.15"/>
<path d="M113.735 79.2288C115.51 79.2288 116.949 77.7887 116.949 76.0124C116.949 74.236 115.51 72.796 113.735 72.796C111.96 72.796 110.521 74.236 110.521 76.0124C110.521 77.7887 111.96 79.2288 113.735 79.2288Z" fill="black" fill-opacity="0.15"/>
<path d="M70.2258 122.774C72.0008 122.774 73.4397 121.333 73.4397 119.557C73.4397 117.781 72.0008 116.341 70.2258 116.341C68.4509 116.341 67.012 117.781 67.012 119.557C67.012 121.333 68.4509 122.774 70.2258 122.774Z" fill="black" fill-opacity="0.15"/>
<path d="M70.4728 38.653L72.4505 75.2702H68.495L70.4728 38.653Z" fill="#9EA9B6"/>
<path d="M88.6334 94.4366L69.5097 78.2424L72.4519 75.298L88.6334 94.4366Z" fill="#9EA9B6"/>
<path d="M70.2256 80.2185C72.5467 80.2185 74.4283 78.3354 74.4283 76.0125C74.4283 73.6896 72.5467 71.8065 70.2256 71.8065C67.9045 71.8065 66.0228 73.6896 66.0228 76.0125C66.0228 78.3354 67.9045 80.2185 70.2256 80.2185Z" fill="#C5CFD6"/>
<path d="M240.485 127.38C244.662 122.468 247.489 116.447 247.017 109.7C245.656 90.2621 218.652 94.5383 213.399 104.349C208.146 114.16 208.77 139.046 215.559 140.799C218.266 141.498 224.034 139.785 229.904 136.24L226.219 162.359H247.975L240.485 127.38Z" fill="#F0CCB5"/>
<path d="M242 131.68C244.728 119.508 252.501 111.211 251.314 105.771C250.522 102.144 248.413 99.8884 244.986 99.0044C243.213 91.8139 237.497 88.7555 227.836 89.8292C213.345 91.4397 204.501 97.4745 208.32 110.754C211.831 110.754 216.07 109.48 221.931 111.662C223.791 112.354 225.121 114.501 225.921 118.102H228.57C231.14 113.828 233.675 112.258 236.173 113.391C238.672 114.523 239.24 117.275 237.877 121.645L239.182 131.68H242Z" fill="#191847"/>
<path d="M125.738 383.086C137.262 357.549 145.595 335.312 148.94 323.58C154.668 303.492 159.025 285.816 160.127 279.214C162.753 263.473 139.925 262.556 136.907 270.379C132.34 282.22 124.368 321.124 114.788 379.887L125.738 383.086ZM259.405 302.944C248.832 298.759 211.806 285.664 193.949 281.96C188.817 280.895 183.844 279.906 179.168 279.012C165.269 276.355 158.068 301.461 171.454 303.39C204.791 308.194 252.053 313.155 256.097 313.712C261.766 314.492 266.05 305.573 259.405 302.944Z" fill="#F0CCB5"/>
<path d="M170.638 272.103L227.827 242.954V236.609H221.025C165.697 250.725 137.425 259.771 136.208 263.748C136.195 263.791 136.183 263.834 136.172 263.877C136.144 263.913 136.117 263.95 136.09 263.987C125.125 279.086 118.558 352.799 116.403 358.318L137.414 361.457C145.451 331.616 171.166 310.827 170.483 275.087C170.667 274.038 170.714 273.044 170.638 272.103Z" fill="#EE9E2F"/>
<path d="M223.073 289.415C228.306 288.366 233.125 287.43 237.248 286.706C263.882 282.029 271.648 267.754 267.056 236.609H217.984C209.968 238.914 168.309 256.406 146.695 265.71C132.389 271.867 136.899 294.065 145 299.842C145.044 300.196 145.19 300.437 145.449 300.545C189.028 318.63 223.503 309.141 235.02 312.172L240.347 295.348L223.073 289.415Z" fill="#F9C346"/>
<path d="M255.875 300.254C258.715 300.512 260.729 300.93 261.919 301.509C263.366 302.212 265.358 303.482 267.895 305.319C267.066 307.015 259.611 322.256 245.532 351.043C241.063 350.341 239.3 348.635 240.242 345.924C241.184 343.213 241.944 340.951 242.522 339.136L243.54 313.325C243.56 312.828 243.976 312.437 244.47 312.452C244.479 312.452 244.487 312.453 244.496 312.453L248.443 312.681C250.697 310.844 252.186 309.184 252.91 307.702C253.499 306.498 253.831 304.602 253.906 302.013L253.906 302.013C253.935 301.019 254.76 300.229 255.748 300.247C255.79 300.248 255.833 300.25 255.875 300.254Z" fill="#191847"/>
<path d="M130.982 378.351C131.988 381.04 132.491 383.052 132.491 384.388C132.491 386.011 132.221 388.381 131.681 391.496C129.799 391.496 112.891 391.496 80.9542 391.496C79.636 387.133 80.3969 384.777 83.237 384.429C86.0771 384.082 88.4364 383.767 90.315 383.487L113.892 372.963C114.346 372.761 114.878 372.965 115.08 373.419C115.083 373.427 115.087 373.434 115.09 373.442L116.605 377.123C119.235 378.351 121.371 378.966 123.015 378.966C124.351 378.966 126.195 378.426 128.548 377.345L128.548 377.345C129.451 376.931 130.519 377.328 130.933 378.232C130.951 378.271 130.967 378.311 130.982 378.351Z" fill="#191847"/>
<path d="M172.063 211.95L139.475 197.62C133.766 191.925 128.253 187.595 122.937 184.633C121.347 184.126 118.631 183.973 121.529 188.211C124.427 192.449 127.284 197.037 126.126 198.522C124.968 200.007 121.614 198.368 120.289 200.783C119.406 202.393 125.06 204.319 137.251 206.561L161.658 225.298L172.063 211.95ZM303.815 215.897L285.385 219.558C303.92 254.143 313.859 272.472 315.204 274.548C318.23 279.216 315.407 287.773 314.364 292.279C320.907 293.804 318.327 283.944 326.607 286.003C334.164 287.882 340.572 292.704 347.619 286.201C348.485 285.401 349.12 282.902 346.166 281.62C338.806 278.426 327.933 272.446 326.17 270.124C323.766 266.958 316.314 248.882 303.815 215.897Z" fill="#F0CCB5"/>
<path d="M235.294 146.857L227.517 145.521C210.577 161.974 203.665 201.5 192.376 206.732C181.703 211.679 166.573 206.892 148.589 200.429L143.081 212.749C159.422 230.45 194.233 245.404 208.344 236.867C230.903 223.218 236.111 174.468 235.294 146.857Z" fill="#0C8751"/>
<path d="M269.196 244.713C238.013 244.713 215.075 244.713 200.383 244.713C197.239 244.713 197.831 240.167 198.286 237.873C203.532 211.398 224.01 182.859 224.01 145.172L243.859 142.055C260.277 168.493 265.954 201.043 269.196 244.713Z" fill="white"/>
<path d="M276.06 217.908C290.088 243.244 301.879 261.484 311.434 272.629L325.857 269.801C316.566 212.106 289.66 169.525 245.14 142.055H244.913H237.28C219.461 202.873 214.549 243.396 222.543 263.624H284.486C283.506 248.823 280.364 233.17 276.06 217.908H276.06Z" fill="#1FB573"/>
<path d="M207.822 240.506H161.847V247.204H207.822V240.506Z" fill="#191847"/>
<path d="M98.0952 199.912H155.229L168.401 247.203H111.268L98.0952 199.912Z" fill="#191847"/>
</g>
<defs>
<linearGradient id="paint0_linear" x1="130.117" y1="245.156" x2="538.178" y2="245.156" gradientUnits="userSpaceOnUse">
<stop stop-color="#6A72FE"/>
<stop offset="1" stop-color="#5015AA"/>
</linearGradient>
<linearGradient id="paint1_linear" x1="97.9358" y1="277.273" x2="138.213" y2="287.878" gradientUnits="userSpaceOnUse">
<stop stop-color="#B3B7FE"/>
<stop offset="1" stop-color="#686FFE"/>
</linearGradient>
<linearGradient id="paint2_linear" x1="-26.9766" y1="316.632" x2="716.976" y2="334.424" gradientUnits="userSpaceOnUse">
<stop stop-color="#B3B7FE"/>
<stop offset="1" stop-color="#6A71FD"/>
</linearGradient>
</defs>
</svg>
