<svg width="181" height="164" viewBox="0 0 181 164" fill="none" xmlns="http://www.w3.org/2000/svg">
<path d="M137.453 138.689V163.467H110.853V138.689H137.453ZM124.742 0C141.753 0 155.302 4.98091 165.388 14.9427C175.428 24.8814 180.457 36.4707 180.474 49.7107C180.474 57.0083 178.601 63.941 174.925 70.4567C171.214 76.9725 163.313 85.8628 151.221 97.1278C144.944 102.966 141.077 107.64 139.551 111.202C138.008 114.746 137.314 121.071 137.47 130.228H110.558C110.49 125.954 110.455 123.365 110.454 122.348L110.454 122.287C110.454 112.54 111.893 104.524 114.772 98.2398C117.667 91.9152 123.459 84.8608 132.095 76.9551C140.747 69.0841 145.932 63.941 147.579 61.4911C150.17 57.7536 151.545 53.3054 151.516 48.755C151.516 42.3088 149.215 36.7777 144.614 32.1616C140.002 27.5572 133.811 25.2636 125.991 25.2636C118.465 25.2636 112.159 27.6672 107.073 32.4744C102.026 37.27 98.5411 44.5849 96.6163 54.4194L69.4268 50.6315C70.1897 36.5228 75.5479 24.5571 85.5012 14.7342C95.4719 4.89983 108.512 0 124.742 0Z" fill="#6459E7"/>
<path d="M42.0262 53.8876C40.367 52.8877 39.201 51.4148 39.272 49.3711C39.4765 43.4825 49.7638 41.828 51.9083 44.1584C54.0529 46.4887 54.2143 53.9067 51.6733 55.1581C50.6599 55.6572 48.45 55.7743 46.172 55.3613L47.9836 62.6782L39.7509 65.0286L42.0262 53.8876Z" fill="#DFB995"/>
<path d="M46.5265 39.6011C45.5333 39.6582 42.8809 40.0758 42.3932 40.1696C42.0815 40.2295 41.7485 40.3526 41.5444 40.1541C41.3773 39.9916 41.4057 39.6569 41.3421 39.4432C41.2682 39.195 41.1725 38.9544 41.0761 38.7145C40.8016 38.0321 40.4204 37.4059 39.9134 36.8466C38.962 35.7974 37.6372 35.0868 36.0185 34.8363C34.231 34.5597 32.2542 34.7975 30.3965 35.2803C28.4085 35.7968 26.6438 36.6839 24.7987 37.5543C23.0403 38.3836 21.1723 38.936 19.2715 39.0612C17.3564 39.1874 15.8543 38.6228 14.1893 38.1329C12.4847 37.6314 10.5699 37.4571 8.6454 37.9515C6.84892 38.4131 5.23515 39.3425 3.80957 40.4438C2.47578 41.4742 1.39922 42.6123 0.855763 44.0275C0.27112 45.5499 0.398635 47.0731 1.65227 48.0783C3.46937 49.5354 6.60615 49.3998 9.18016 48.8588C10.669 48.546 12.1149 48.0421 13.4889 47.3669C15.3213 46.4664 16.8674 45.2397 18.562 44.1599C19.3572 43.6532 20.1854 43.2034 21.0612 42.8258C21.9111 42.4592 22.7571 42.2034 23.5773 42.4806C24.445 42.7739 25.2259 43.0757 26.199 43.1766C27.1326 43.2735 28.1101 43.2402 29.0801 43.0476C30.9674 42.6728 32.7888 41.8342 34.5959 41.1597C36.0696 40.6097 37.6479 40.0404 39.1937 40C39.8387 39.9831 40.7861 40.0221 41.0609 40.5184C37.2411 41.8346 36.0477 46.0364 37.3771 48.6973C38.0946 50.1334 41.7828 51.2648 43.0903 50.1861C43.9187 49.5027 43.3333 48.9269 42.9537 48.5455C42.2268 47.8152 41.9108 46.7583 43.0743 45.929C44.0779 45.2137 45.2798 46.2234 45.3006 46.218C45.5866 46.1443 47.9761 44.5179 49.5487 42.5123C51.2446 42.2696 51.425 41.3099 50.9597 40.6428C50.4943 39.9758 47.8989 39.5224 46.5265 39.6011Z" fill="#191847"/>
<path d="M44.0342 89.8819L55.2072 128.499L60.4624 157.493H65.737L60.4718 89.8819H44.0342Z" fill="#DFB995"/>
<path d="M39.013 89.8819C39.7926 109.943 39.4851 120.885 39.3106 122.708C39.1361 124.531 38.1456 136.738 31.3955 158.105H36.8816C45.8209 137.607 48.9416 125.4 49.9669 122.708C50.9921 120.016 54.0202 109.074 58.4411 89.8819H39.013Z" fill="#DFB995"/>
<path d="M43.7939 89.8819C46.7002 103.17 51.7268 124.382 58.8737 153.516H66.5885C67.1583 123.612 64.7343 103.931 60.5366 89.8819H43.7939Z" fill="#4A2CB1"/>
<path d="M38.9735 89.8819C39.737 109.943 37.7583 129.708 31.6289 153.829H39.8601C48.8159 133.636 55.2348 113.969 59.6217 89.8819H38.9735Z" fill="#ADA7F9"/>
<path d="M30.6133 162.082L30.916 157.187C32.6883 157.707 34.9081 157.503 37.5755 156.576C40.4435 158.613 44.0541 160.005 48.407 160.75V160.75C48.7392 160.807 48.9624 161.123 48.9058 161.456C48.9021 161.477 48.8973 161.499 48.8913 161.52L48.4728 163H37.5755H31.2187L30.6133 162.082Z" fill="#191847"/>
<path d="M59.2852 162.082L59.5879 157.187C61.3602 157.707 63.58 157.503 66.2474 156.576C69.1154 158.613 72.7259 160.005 77.0789 160.75V160.75C77.411 160.807 77.6343 161.123 77.5776 161.456C77.574 161.477 77.5691 161.499 77.5632 161.52L77.1447 163H66.2474H59.8906L59.2852 162.082Z" fill="#191847"/>
<path d="M70.5591 84.5352L81.1739 87.5903C83.9279 87.4604 86.2584 87.5794 88.1655 87.9474C88.6293 88.1366 89.2216 88.6086 87.4456 88.9557C85.6696 89.3028 83.8033 89.7305 83.6204 90.2554C83.4376 90.7803 84.5762 91.0604 84.166 91.8106C83.8926 92.3107 82.2083 91.6637 79.1131 89.8697L68.9157 89.2528L70.5591 84.5352ZM32.6255 94.4504L39.1049 92.8111C36.401 103.771 34.9294 109.596 34.6899 110.286C34.151 111.837 35.9403 113.532 36.7352 114.485C34.7163 115.754 34.5901 113.001 32.0481 114.639C29.7279 116.133 28.0823 118.187 25.0963 117.571C24.7292 117.496 24.2698 116.975 25.1221 116.257C27.2457 114.47 30.2573 111.522 30.611 110.715C31.0932 109.614 31.7647 104.193 32.6255 94.4504Z" fill="#DFB995"/>
<path d="M45.4837 64.0679L48.2685 62.9174C59.6899 67.4182 65.7536 80.3183 79.5644 84.3128L76.8475 88.2412C54.2156 91.9994 46.5454 76.3378 45.4837 64.0679Z" fill="#0C8751"/>
<path d="M37.6618 94.9994C49.0944 91.8412 57.5039 89.518 62.8904 88.03C64.0432 87.7115 63.6601 86.3848 63.4097 85.7311C60.5201 78.1866 51.9706 71.5553 50.5951 60.0595L43.2043 61.1192C38.1501 70.8463 37.2566 81.3501 37.6618 94.9994Z" fill="white"/>
<path d="M36.2242 70.7833C35.1195 70.8231 34.1973 70.4592 33.4574 69.6916C30.2682 66.3826 30.9763 63.8806 33.7764 62.3495C36.5765 60.8183 39.3335 61.619 43.9351 60.3487C44.1854 60.2796 44.4162 60.2294 44.6275 60.198L46.9554 59.6688C55.8427 76.5517 59.173 88.5332 56.9461 95.6133L36.7702 101.183C35.853 103.831 34.9432 106.097 34.0407 107.981L28.5431 109.498C26.3562 95.7301 28.9166 82.8251 36.2242 70.7833Z" fill="#1FB573"/>
<path d="M41.0852 91.0366C42.2371 95.2391 43.6379 98.1331 45.2878 99.7186L37.878 101.766C38.9371 98.7045 40.0062 95.1281 41.0852 91.0366Z" fill="black" fill-opacity="0.1"/>
<path d="M31.4533 18.1746C32.3819 18.1758 33.265 18.5796 33.8765 19.2827L36.5936 22.4662C36.5974 22.4706 36.6011 22.4751 36.6047 22.4797C36.6121 22.4893 36.6235 22.4949 36.6355 22.495C36.65 22.4966 36.6646 22.4936 36.6772 22.4864C36.6943 22.4694 36.7068 22.4484 36.7135 22.4252V17.3937C36.7077 16.5953 37.0037 15.8244 37.5415 15.2372C38.9971 13.6255 39.8004 11.5242 39.7937 9.3467C39.7882 4.46305 35.8543 0.505448 30.9999 0.499939H20.285C15.4283 0.499939 11.4912 4.46077 11.4912 9.3467C11.4912 14.2326 15.4283 18.1935 20.285 18.1935H30.9999C31.0925 18.1958 31.1852 18.1919 31.2773 18.1818C31.2938 18.1795 31.3104 18.1778 31.3269 18.1771C31.3694 18.1755 31.4116 18.1746 31.4533 18.1746Z" fill="#A5E7CA"/>
<path d="M29.5548 10.831C30.3363 10.831 30.9699 10.1969 30.9699 9.41467C30.9699 8.63243 30.3363 7.99829 29.5548 7.99829C28.7732 7.99829 28.1396 8.63243 28.1396 9.41467C28.1396 10.1969 28.7732 10.831 29.5548 10.831Z" fill="#191847"/>
<path d="M25.5587 10.831C26.3402 10.831 26.9738 10.1969 26.9738 9.41467C26.9738 8.63243 26.3402 7.99829 25.5587 7.99829C24.7771 7.99829 24.1436 8.63243 24.1436 9.41467C24.1436 10.1969 24.7771 10.831 25.5587 10.831Z" fill="#191847"/>
<path d="M21.7296 10.831C22.5111 10.831 23.1447 10.1969 23.1447 9.41467C23.1447 8.63243 22.5111 7.99829 21.7296 7.99829C20.948 7.99829 20.3145 8.63243 20.3145 9.41467C20.3145 10.1969 20.948 10.831 21.7296 10.831Z" fill="#191847"/>
</svg>
