<svg width="292" height="156" viewBox="0 0 292 156" fill="none" xmlns="http://www.w3.org/2000/svg">
<path d="M167.819 73.6963C145.014 84.2149 120.202 84.8448 97.4463 74.1227C76.7129 64.3599 48.8199 61.9229 20.2024 92.6598C14.0661 99.2442 7.22294 104.414 0 108.203H262.35C255.127 104.414 248.281 99.2442 242.144 92.6598C214.575 63.0421 189.02 63.919 167.819 73.6963Z" fill="url(#paint0_linear)"/>
<path fill-rule="evenodd" clip-rule="evenodd" d="M71.4705 81.31C71.3094 81.7219 69.4138 83.4557 67.8877 84.413L68.3734 89.6245C70.364 87.4559 72.723 84.5294 74.0221 82.0321C74.0221 82.0321 70.7896 78.5205 71.4705 81.31Z" fill="#F0CCB5"/>
<path fill-rule="evenodd" clip-rule="evenodd" d="M21.2656 81.1932L14.2536 76.7996C14.0308 76.66 13.7882 76.9474 13.9654 77.1418C14.6204 77.8619 15.2938 78.6524 15.2612 78.8267C14.9429 80.5394 16.9638 81.0363 16.9638 81.0363C18.1915 82.5432 19.6322 84.2034 21.2656 85.9497V81.1932Z" fill="#F0CCB5"/>
<path fill-rule="evenodd" clip-rule="evenodd" d="M40.0781 113.753C40.0781 113.753 41.5127 133.72 42.23 134.958C42.9474 136.197 56.7202 142.992 56.7202 142.992L59.2034 140.116L47.7131 132.055L49.6663 120.668L58.0425 132.554L65.1783 146.584L68.9101 144.949L63.53 130.523L55.0702 111.877L40.0781 113.753Z" fill="#F0CCB5"/>
<path fill-rule="evenodd" clip-rule="evenodd" d="M39.5288 113.924C39.4219 114.458 39.4812 132.834 39.4812 132.834C42.7982 134.126 54.7223 133.048 63.3892 126.638L55.2573 109.223L39.5288 113.924Z" fill="#F9C346"/>
<mask id="mask0" mask-type="alpha" maskUnits="userSpaceOnUse" x="39" y="109" width="25" height="25">
<path d="M39.3017 113.942C39.1941 114.475 39.2538 132.818 39.2538 132.818C42.5933 134.109 54.5981 133.032 63.3237 126.633L55.1367 109.25L39.3017 113.942Z" fill="white"/>
</mask>
<g mask="url(#mask0)">
<path d="M65.2431 131.129H36.5557M43.1435 109.25V137.651V109.25ZM48.3142 109.25V137.651V109.25ZM53.4846 109.25V137.651V109.25ZM58.6553 109.25V137.651V109.25ZM65.2431 115.772H36.5557H65.2431ZM65.2431 120.891H36.5557H65.2431ZM65.2431 126.01H36.5557H65.2431Z" stroke="#6459E7" stroke-width="3.435"/>
</g>
<path fill-rule="evenodd" clip-rule="evenodd" d="M68.1495 83.014L71.1592 87.7126L55.0472 101.833L60.1298 118.621C58.269 122.181 43.5201 125.314 36.9332 121.042L37.1793 100.985L17.585 84.0976L21.1977 79.825L41.3677 92.7604L48.9615 93.3241L68.1495 83.014Z" fill="#4A2CB1"/>
<path fill-rule="evenodd" clip-rule="evenodd" d="M42.9033 77.5792C37.5036 79.527 33.8096 86.9028 35.6486 91.2585C35.6486 91.2585 38.1246 92.6868 41.3434 92.6868C46.6047 92.6868 42.9033 77.5792 42.9033 77.5792Z" fill="#FF7A00"/>
<path fill-rule="evenodd" clip-rule="evenodd" d="M42.2658 78.6001C39.6035 79.843 34.904 87.6502 38.547 92.4222C42.1897 97.1943 48.2073 90.3668 48.2073 90.3668C48.2073 90.3668 51.25 90.5003 50.8847 88.1021C50.5192 85.7045 48.2073 87.5692 48.2073 87.5692L42.2658 78.6001Z" fill="#F0CCB5"/>
<path fill-rule="evenodd" clip-rule="evenodd" d="M65.0987 146.586C65.0987 146.586 64.7734 149.217 65.4843 149.36C66.1952 149.502 73.1613 149.645 73.5878 148.078C74.0144 146.51 68.7967 144.951 68.7967 144.951L65.0987 146.586Z" fill="#1FB573"/>
<path fill-rule="evenodd" clip-rule="evenodd" d="M59.2287 140.255C59.2287 140.255 61.3442 141.404 61.3442 142.463C61.3442 143.521 58.2224 148.347 56.5195 148.215C54.8169 148.082 56.7726 143.132 56.7726 143.132L59.2287 140.255Z" fill="#1FB573"/>
<path fill-rule="evenodd" clip-rule="evenodd" d="M39.7009 79.7542C38.9111 80.5373 37.6814 82.0553 38.1283 83.0806C38.8984 84.8479 42.3674 86.0073 45.2623 85.6464C45.2623 85.6464 43.6193 97.7615 47.7782 95.7219C51.9371 93.6822 58.1429 91.812 55.9983 88.8557C54.6402 85.9248 47.6711 71.8509 39.7009 79.7542Z" fill="#FF7A00"/>
<path fill-rule="evenodd" clip-rule="evenodd" d="M82.2257 35.54C82.6508 28.6514 89.9429 27.5636 91.6147 21.3358C94.1398 11.9314 100.63 8.70285 105.542 9.80061C110.454 10.8981 111.274 14.4163 111.851 17.2948L98.5742 42.5018C89.6671 50.9499 81.7016 44.0315 82.2257 35.54Z" fill="#191847"/>
<path fill-rule="evenodd" clip-rule="evenodd" d="M107.762 28.4066V39.1979H101.423V24.0903" fill="#B28B67"/>
<path fill-rule="evenodd" clip-rule="evenodd" d="M108.611 13.8935C112.977 14.1031 115.024 28.7148 109.658 30.0149C104.292 31.315 101.806 25.8545 101.806 25.8545C99.9908 26.3938 97.7338 21.1991 101.152 22.0544C101.152 22.0544 101.156 13.5355 108.611 13.8935Z" fill="#B28B67"/>
<path fill-rule="evenodd" clip-rule="evenodd" d="M94.6748 144.747H97.9465V140.051H94.6748V144.747Z" fill="#B28B67"/>
<path fill-rule="evenodd" clip-rule="evenodd" d="M109.397 144.747H112.669V140.051H109.397V144.747Z" fill="#B28B67"/>
<path fill-rule="evenodd" clip-rule="evenodd" d="M126.768 29.599L132.069 29.2405C132.93 29.1822 133.581 28.4405 133.523 27.5839L132.545 13.2901C132.486 12.4338 131.74 11.7866 130.878 11.8447L125.578 12.2032C124.716 12.2615 124.065 13.0029 124.124 13.8597L125.102 28.1533C125.16 29.0101 125.906 29.6573 126.768 29.599Z" fill="#AAA3F6"/>
<path fill-rule="evenodd" clip-rule="evenodd" d="M131.29 38.8004C133.517 31.9979 131.721 24.7029 131.721 24.7029C131.721 24.7029 128.962 21.9413 127.913 18.7248C126.864 15.5086 133.513 18.3116 134.226 23.3702C136.964 29.8204 137.494 35.3676 136.608 40.0146L131.29 38.8004Z" fill="#B28B67"/>
<path fill-rule="evenodd" clip-rule="evenodd" d="M118.599 68.3148C118.599 68.3148 115.581 134.285 113.133 140.173C112.772 141.043 109.134 140.173 109.134 140.173L103.979 92.9684C103.979 92.9684 99.1697 133.045 98.6369 140.173C98.5543 141.277 94.2072 140.173 94.2072 140.173C94.2072 140.173 86.1526 84.6802 90.8058 70.5608C92.9354 64.0978 118.599 68.3148 118.599 68.3148Z" fill="#A5E7CA"/>
<path fill-rule="evenodd" clip-rule="evenodd" d="M98.5599 42.4029C92.2883 51.74 82.9574 68.3938 76.8189 76.1682C76.4448 79.008 75.4561 81.1778 75.0793 81.4725C71.7955 84.2882 67.2796 79.1151 74.0998 74.8915C77.3533 68.828 91.8422 40.3521 95.6545 37.5647L98.5599 42.4029Z" fill="#B28B67"/>
<path fill-rule="evenodd" clip-rule="evenodd" d="M79.8146 76.7726C77.6491 76.1759 72.1988 74.01 72.3907 73.2351C76.8806 55.1083 91.3158 33.6386 101.31 33.2731C101.31 36.9836 107.57 36.9836 107.57 33.2731C123.012 33.4905 131.585 43.4604 130.384 28.3984C130.328 27.6854 137.06 25.0891 137.342 27.0623C138.188 32.9821 137.874 47.9705 124.244 47.9705C117.335 47.9705 122.353 76.3096 118.565 80.0899C114.285 84.3614 93.5735 84.7601 89.2934 80.4886C86.5355 77.7361 86.5355 70.1313 89.2934 57.6741C86.1114 62.8953 81.4173 77.2146 79.8146 76.7726Z" fill="url(#paint1_linear)"/>
<path fill-rule="evenodd" clip-rule="evenodd" d="M108.404 141.888C109.161 141.888 109.774 142.495 109.774 143.244V143.249C109.774 143.74 110.177 144.139 110.674 144.139C111.17 144.139 111.574 143.74 111.574 143.249V143.244C111.574 142.495 112.187 141.888 112.944 141.888H114.572C114.572 141.888 122.014 148.764 116.665 149.557C111.317 150.35 108.375 145.591 108.375 145.591V141.888H108.404Z" fill="#4A2CB1"/>
<path fill-rule="evenodd" clip-rule="evenodd" d="M93.4473 141.888C94.2502 141.888 94.9014 142.527 94.9014 143.315V143.321C94.9014 143.838 95.3291 144.257 95.8562 144.257C96.3828 144.257 96.8101 143.838 96.8101 143.321V143.315C96.8101 142.527 97.4617 141.888 98.2647 141.888H99.961C99.961 141.888 107.918 149.126 102.243 149.961C96.5684 150.796 93.4473 145.785 93.4473 145.785V141.888Z" fill="#4A2CB1"/>
<path fill-rule="evenodd" clip-rule="evenodd" d="M75.7742 79.7594C77.0566 80.6991 76.5056 81.8461 74.7376 82.2497C73.3086 82.576 72.3265 79.6354 72.6541 78.5551C72.9816 77.475 73.3315 77.9692 75.7742 79.7594Z" fill="#F0CCB5"/>
<path fill-rule="evenodd" clip-rule="evenodd" d="M244.62 105.011C245.649 103.288 244.384 101.039 241.007 98.5107C233.73 93.0634 233.03 101.919 232.804 104.38L232.495 108.611C232.495 108.611 239.103 108.075 239.618 108.454C240.133 108.834 244.62 105.011 244.62 105.011Z" fill="#4A2CB1"/>
<path fill-rule="evenodd" clip-rule="evenodd" d="M237.392 103.098C237.032 102.814 237.388 101.846 236.779 100.93C235.054 98.3326 237.391 97.026 239.249 97.8151C241.702 98.8569 244.116 100.915 244.486 101.963C244.855 103.01 245.295 103.681 244.607 104.546L243.122 105.344L237.392 103.098Z" fill="#212B37"/>
<path fill-rule="evenodd" clip-rule="evenodd" d="M238.059 99.4238C238.095 99.63 235.862 104.328 235.768 104.392C235.674 104.456 242.371 106.365 242.371 106.365L243.741 102.602L238.059 99.4238Z" fill="#B28B67"/>
<path fill-rule="evenodd" clip-rule="evenodd" d="M238.174 95.7261C237.104 99.3589 238.485 102.955 241.258 103.758C244.032 104.56 249.14 102.312 249.057 96.7405C249.002 92.9562 247.907 91.4036 245.133 90.6011C242.36 89.7985 239.244 92.0928 238.174 95.7261Z" fill="#B28B67"/>
<path fill-rule="evenodd" clip-rule="evenodd" d="M249.751 97.9189C249.514 98.4055 247.365 96.7915 246.288 96.1431C243.475 94.4497 242.706 96.7551 241.997 96.4889C241.288 96.2228 242.204 95.0271 241.522 94.8278C239.954 94.3695 239.454 99.7782 237.949 98.9239C236.83 98.2881 236.242 88.4469 241.58 89.4528C244.401 88.0164 253.645 89.9007 249.751 97.9189Z" fill="#191847"/>
<path fill-rule="evenodd" clip-rule="evenodd" d="M211.612 89.4203L205.913 82.8144L209.544 81.254L214.706 86.7091L211.612 89.4203Z" fill="#B28B67"/>
<path fill-rule="evenodd" clip-rule="evenodd" d="M259.419 120.181C260.291 120.758 267.565 122.694 266.791 124.145C266.004 125.624 262.41 125.729 258.727 122.655C254.547 119.167 259.419 120.181 259.419 120.181Z" fill="#B28B67"/>
<path fill-rule="evenodd" clip-rule="evenodd" d="M213.567 84.1123L208.979 88.0073C208.979 88.0073 223.604 107.509 223.604 108.098C223.604 108.687 218.663 121.663 218.663 121.663L239.177 123.906L243.887 117.624L258.71 124.127L260.509 119.784L244.475 107.024L244.485 105.639C244.485 105.639 243.73 104.697 243.4 104.474C239.668 104.938 237.997 102.393 237.997 102.393L234.467 102.509L213.567 84.1123Z" fill="#4A2CB1"/>
<path fill-rule="evenodd" clip-rule="evenodd" d="M252.8 140.803C252.944 141.23 256.259 142.935 254.84 144.429C254.389 144.904 249.098 143.757 248.751 143.358C247.943 142.43 248.258 141.118 248.582 140.803C248.906 140.489 252.8 140.803 252.8 140.803Z" fill="#191847"/>
<path fill-rule="evenodd" clip-rule="evenodd" d="M233.557 141.888C232.788 142.843 232.39 144.062 232.992 144.678C234.349 146.068 238.537 146.536 239.471 146.582C240.711 146.643 241.854 145.346 238.229 142.565L233.557 141.888Z" fill="#191847"/>
<path fill-rule="evenodd" clip-rule="evenodd" d="M247.627 124.948L240.578 121.881C240.578 121.881 236.921 129.872 237.215 130.067C237.509 130.263 247.627 134.335 247.627 134.335V124.948Z" fill="#0C8751"/>
<path fill-rule="evenodd" clip-rule="evenodd" d="M235.282 132.701C219.841 132.552 215.338 126.255 219.841 119.839L241.084 122.658L235.282 132.701Z" fill="#1FB573"/>
<path fill-rule="evenodd" clip-rule="evenodd" d="M241.188 122.732C248.739 123.81 238.394 142.705 238.394 142.705L233.723 142.027C233.723 142.027 236.186 121.753 241.188 122.732Z" fill="#1FB573"/>
<path fill-rule="evenodd" clip-rule="evenodd" d="M248.062 140.868H253.148C253.148 140.868 251.458 124.464 246.929 124.954C242.4 125.444 248.062 140.868 248.062 140.868Z" fill="#0C8751"/>
<path fill-rule="evenodd" clip-rule="evenodd" d="M240.47 121.999L219.817 119.839L241.083 122.698L240.47 121.999Z" fill="#332538"/>
<path fill-rule="evenodd" clip-rule="evenodd" d="M217.568 121.733C217.566 121.746 217.608 121.758 217.691 121.77C218.188 121.842 218.697 121.736 219.127 121.477C223.446 118.875 240.675 122.085 240.675 122.085L223.639 108.203C223.639 108.203 218.866 116.215 217.568 121.733Z" fill="#4A2CB1"/>
<path fill-rule="evenodd" clip-rule="evenodd" d="M238.016 102.52C238.016 102.52 237.671 103.903 237.342 103.689C237.013 103.474 235.548 102.326 235.199 101.687C234.85 101.049 236.631 101.057 236.631 101.057L238.016 102.52Z" fill="#35455E"/>
<path fill-rule="evenodd" clip-rule="evenodd" d="M243.522 104.528C243.389 104.71 242.843 105.761 243.322 105.753C243.8 105.744 244.598 105.694 244.598 105.694C244.598 105.694 244.901 104.553 244.969 103.915C244.969 103.915 244.689 104.406 243.522 104.528Z" fill="#35455E"/>
<path fill-rule="evenodd" clip-rule="evenodd" d="M207.826 72.5489C214.9 79.05 210.733 86.0876 206.534 82.5534C206.265 81.7463 204.229 80.0579 205.524 77.4771C204.944 76.2298 204.487 75.7169 203.873 74.9536C203.715 74.7582 207.618 71.9935 207.826 72.5489Z" fill="#F0CCB5"/>
<path d="M175.649 142.501H170.946V147.401H175.649V142.501Z" fill="#F0CCB5"/>
<path d="M197.741 137.31L193.889 140.003L196.703 144.017L200.556 141.324L197.741 137.31Z" fill="#F0CCB5"/>
<path d="M176.876 151.4L176.571 145.276H170.165C167.127 147.317 163.162 148.97 158.268 150.234V151.4H169.86L173.826 150.817V151.4H176.876Z" fill="#191847"/>
<path d="M203.984 144.879L200.743 139.67L195.14 142.771C193.475 146.027 190.809 149.392 187.143 152.866L187.709 153.886L197.847 148.276L201.033 145.846L201.316 146.356L203.984 144.879Z" fill="#191847"/>
<path fill-rule="evenodd" clip-rule="evenodd" d="M205.434 80.0679C204.141 80.9882 204.572 83.2892 206.354 83.6843C207.794 84.0037 209.263 80.3481 208.933 79.2903C208.603 78.2326 207.896 78.3146 205.434 80.0679Z" fill="#B28B67"/>
<path fill-rule="evenodd" clip-rule="evenodd" d="M269.303 144.724C269.303 148.883 275.125 149.85 281.279 149.85C287.433 149.85 291.591 148.883 291.591 144.724C291.591 143.689 291.285 142.703 290.726 141.811C290.265 141.073 289.642 140.391 288.871 139.796C288.215 139.282 287.466 138.835 286.63 138.457C285.736 138.054 284.753 137.732 283.697 137.521C282.818 137.335 281.885 137.224 280.923 137.205C280.768 137.193 280.605 137.193 280.451 137.193C279.463 137.193 278.501 137.279 277.59 137.44C272.819 138.296 269.303 141.234 269.303 144.724Z" fill="#ACADA9"/>
<path fill-rule="evenodd" clip-rule="evenodd" d="M266.439 138.315C266.439 135.779 268.5 133.722 271.042 133.722C273.584 133.722 275.641 135.779 275.641 138.315C275.641 140.852 273.584 142.909 271.042 142.909C268.5 142.909 266.439 140.852 266.439 138.315Z" fill="#ACADA9"/>
<path fill-rule="evenodd" clip-rule="evenodd" d="M286.069 146.584C286.868 145.235 288.866 142.818 290.568 141.527C290.107 140.762 289.485 140.055 288.715 139.438C286.663 141.456 286.069 144.515 286.069 146.584Z" fill="#797A76"/>
<path fill-rule="evenodd" clip-rule="evenodd" d="M282.311 146.38C282.895 143.818 285.107 140.383 286.683 138.522C285.816 138.126 284.862 137.809 283.838 137.601C281.318 140.804 281.507 144.934 282.311 146.38Z" fill="#797A76"/>
<path fill-rule="evenodd" clip-rule="evenodd" d="M277.265 144.747C277.903 141.67 279.505 138.466 280.753 136.797C280.6 136.784 280.441 136.784 280.288 136.784C279.317 136.784 278.371 136.873 277.474 137.038C276.237 139.563 276.623 143.319 277.265 144.747Z" fill="#797A76"/>
<path fill-rule="evenodd" clip-rule="evenodd" d="M269.921 135.106C269.817 135.125 271.429 132.31 272.439 132.507C273.073 132.631 272.625 136.58 272.625 136.58C272.625 136.58 271.157 134.877 269.921 135.106Z" fill="#797A76"/>
<path fill-rule="evenodd" clip-rule="evenodd" d="M268.79 144.137C267.706 144.21 266.386 148.914 272.575 148.612C272.983 148.592 273.549 147.427 272.876 146.956C272.203 146.485 269.477 147.303 269.681 144.911C269.745 144.19 269.08 144.117 268.79 144.137Z" fill="#ACADA9"/>
<path fill-rule="evenodd" clip-rule="evenodd" d="M291.255 143.113C291.984 145.32 293.581 152.06 287.492 152.362C282.642 152.603 285.373 154.547 285.837 155.01C286.302 155.473 285.322 156.398 284.601 155.755C283.239 154.545 279.772 152.185 287.181 150.615C291.062 149.792 288.417 146.916 289.897 147.569" fill="#ACADA9"/>
<path fill-rule="evenodd" clip-rule="evenodd" d="M152.702 47.0042L157.652 49.4057L158.268 45.1732C158.268 45.1732 154.122 42.6432 153.938 42.5303C150.589 40.4681 151.529 37.4944 150.607 37.7891C148.715 38.3936 151.193 41.2121 148.628 42.084C148.214 42.2245 146.403 41.008 145.72 41.008C142.488 41.008 145.656 43.9519 148.699 46.8121C150.303 48.3196 152.702 47.0042 152.702 47.0042Z" fill="#F0CCB5"/>
<path fill-rule="evenodd" clip-rule="evenodd" d="M141.28 37.0149C143.111 38.4848 149.633 44.1369 151.863 45.9967C152.165 46.2482 152.617 46.1558 152.8 45.8068L153.288 44.8799C153.429 44.6129 153.36 44.2824 153.125 44.0952L142.44 35.4273C142.212 35.2464 141.881 35.2976 141.718 35.5392L141.179 36.3347C141.032 36.5535 141.075 36.8501 141.28 37.0149Z" fill="black"/>
<path fill-rule="evenodd" clip-rule="evenodd" d="M154.179 49.557C154.176 50.0818 161.359 57.572 161.359 57.572C161.359 57.572 166.574 49.5998 166.227 49.5567C165.879 49.5134 156.101 42.8728 156.101 42.8728C156.101 42.8728 154.186 48.3901 154.179 49.557Z" fill="#F9C346"/>
<path fill-rule="evenodd" clip-rule="evenodd" d="M174.562 113.769C175.867 118.393 175.996 144.134 175.996 144.134H170.468C170.468 144.134 161.323 119.444 160.376 113.752C159.425 108.06 161.317 67.9839 161.317 67.9839L186.282 69.8055L186.278 69.8124C186.106 70.4211 173.375 109.562 174.562 113.769Z" fill="#4A2CB1"/>
<path fill-rule="evenodd" clip-rule="evenodd" d="M199.37 139.566L194.695 141.276C194.695 141.276 174.862 118.989 171.863 109.729C168.707 99.9772 169.969 68.5043 169.969 68.5043C169.969 68.5043 188.845 67.0694 188.872 70.3134C188.872 70.3134 185.881 99.9321 186.253 108.443C186.467 113.408 199.37 139.566 199.37 139.566Z" fill="#6459E7"/>
<path fill-rule="evenodd" clip-rule="evenodd" d="M176.651 16.1713C177.499 18.1832 180.776 22.2936 180.776 22.2936C181.473 24.0599 184.391 30.9795 182.221 31.9106C180.04 32.8472 169.671 34.5491 168.71 31.708C167.749 28.8687 169.482 22.6557 169.311 22.6317L169.05 21.4876C166.852 21.4022 163.325 18.1607 163.325 18.1607C163.325 18.1607 163.056 17.3727 162.732 16.2101C162.689 16.0631 162.647 15.9114 162.605 15.7519C161.956 13.3422 161.39 7.91317 162.015 6.05351C163.007 3.10681 168.316 2.85815 168.316 2.85815L171.995 8.01158L173.997 4.82046C173.997 4.82046 177.981 8.98875 178.109 9.34778C178.231 9.69559 175.802 14.1589 176.651 16.1713Z" fill="#F0CCB5"/>
<path fill-rule="evenodd" clip-rule="evenodd" d="M175.615 2.58754C175.615 2.58754 172.558 -0.989586 168.21 0.26794C165.073 1.17511 162.034 4.00999 161.336 7.01229C164.798 6.01077 169.922 4.53177 169.765 5.31606C169.59 6.18194 169.534 8.98629 171.029 9.16047C171.507 9.21602 171.784 9.77434 171.941 10.5083C172.355 12.4526 171.573 14.4686 170 15.6903C168.915 16.576 163.497 15.4524 162.829 16.3152C162.829 16.3152 163.609 23.5551 167.373 22.3141C172.337 20.6774 174.86 18.3088 174.471 15.7149C174.083 13.1212 174.219 10.3216 174.618 9.81813C175.017 9.31437 176.541 8.57938 177.098 10.4623C177.397 11.4708 176.98 12.1477 176.528 12.5584C176.106 12.9418 175.547 13.4193 176.673 15.9381C179.916 13.5995 180.31 2.38134 175.615 2.58754Z" fill="#FF7A00"/>
<path fill-rule="evenodd" clip-rule="evenodd" d="M168.344 25.5195C172.974 31.0658 181.756 25.5195 181.756 25.5195L181.871 61.0168L184.647 72.4754L162.79 70.5802C162.79 70.5802 162.097 32.9244 168.344 25.5195Z" fill="white"/>
<path fill-rule="evenodd" clip-rule="evenodd" d="M180.714 22.2529L178.101 29.8247C178.101 29.8247 171.725 82.4603 174.158 84.1988C176.592 85.937 188.736 80.1692 190.006 77.9568C191.275 75.7444 191.189 34.1047 191.189 34.1047L180.714 22.2529Z" fill="#F9C346"/>
<path fill-rule="evenodd" clip-rule="evenodd" d="M169.311 22.6614L169.117 25.3092C169.117 25.3092 165.073 80.6628 163.369 80.6417C159.929 80.5988 157.983 73.5109 158.303 70.8253C158.622 68.1391 163.095 36.0682 163.095 36.0682L169.311 22.6614Z" fill="#F9C346"/>
<path fill-rule="evenodd" clip-rule="evenodd" d="M191.28 34.2982L210.411 72.6536L202.97 76.5585C201.388 74.671 188.009 51.6224 187.336 50.4848C183.32 43.6964 187.326 35.0745 191.28 34.2982Z" fill="#F9C346"/>
<path fill-rule="evenodd" clip-rule="evenodd" d="M179.235 20.0073C179.311 20.1192 176.371 25.0061 176.47 26.4668C176.569 27.9273 178.129 29.8068 178.129 29.8068L180.762 22.2528L179.235 20.0073Z" fill="#F9C346"/>
<defs>
<linearGradient id="paint0_linear" x1="131.175" y1="67.5757" x2="131.175" y2="108.203" gradientUnits="userSpaceOnUse">
<stop stop-color="#CAC4FD"/>
<stop offset="1" stop-color="#F5F5FF"/>
</linearGradient>
<linearGradient id="paint1_linear" x1="105.001" y1="26.3362" x2="105.001" y2="83.4998" gradientUnits="userSpaceOnUse">
<stop stop-color="#42DBAB"/>
<stop offset="1" stop-color="#0C8751"/>
</linearGradient>
</defs>
</svg>
