<svg width="264" height="160" viewBox="0 0 264 160" fill="none" xmlns="http://www.w3.org/2000/svg">
<path fill-rule="evenodd" clip-rule="evenodd" d="M27.4219 18.2532V117.889C27.4219 122.893 31.4869 126.949 36.5008 126.949H91.6142C96.6281 126.949 100.693 122.893 100.693 117.889V18.2532C100.693 13.2491 96.6281 9.19287 91.6142 9.19287H36.5008C31.4869 9.19287 27.4219 13.2491 27.4219 18.2532Z" fill="#EEEEEE"/>
<path fill-rule="evenodd" clip-rule="evenodd" d="M64.0573 119.508C63.2094 119.508 62.5215 118.797 62.5215 117.92V18.6597C62.5215 17.783 63.2094 17.0725 64.0573 17.0725C64.9052 17.0725 65.5927 17.783 65.5927 18.6597V117.92C65.5927 118.797 64.9052 119.508 64.0573 119.508Z" fill="#C7C2FF"/>
<path fill-rule="evenodd" clip-rule="evenodd" d="M39.2603 40.0546C37.562 40.0546 35.9659 39.3952 34.7648 38.1975C32.2867 35.7248 32.2867 31.7017 34.7648 29.2294L47.0659 16.9597C48.2665 15.762 49.8627 15.1025 51.561 15.1025C53.2593 15.1025 54.8555 15.762 56.0561 16.9597C58.5346 19.4324 58.5346 23.455 56.0561 25.9273L43.7555 38.1971C42.5548 39.3952 40.9587 40.0546 39.2603 40.0546Z" fill="#C7C2FF"/>
<path fill-rule="evenodd" clip-rule="evenodd" d="M36.4572 36.2929C37.9744 37.8066 40.4342 37.8066 41.9518 36.2929L48.0479 30.2103L54.1449 24.1276C55.6616 22.6139 55.6616 20.1593 54.1449 18.6455C52.6273 17.1318 50.1675 17.1318 48.6503 18.6455L42.5538 24.7282L36.4572 30.8108C34.94 32.3245 34.94 34.7792 36.4572 36.2929Z" fill="#5FE6EF"/>
<path fill-rule="evenodd" clip-rule="evenodd" d="M39.2596 60.6294C37.5615 60.6294 35.9655 59.9699 34.7646 58.7722C32.2868 56.2999 32.2868 52.2771 34.7646 49.8044L47.0647 37.5344C48.2647 36.3367 49.8607 35.6772 51.5588 35.6772C53.257 35.6772 54.8529 36.3367 56.0534 37.5348C57.2539 38.7321 57.915 40.3242 57.915 42.0183C57.915 43.712 57.2539 45.3041 56.0534 46.5022L43.7542 58.7722C42.5537 59.9699 40.9577 60.6294 39.2596 60.6294Z" fill="#C7C2FF"/>
<path fill-rule="evenodd" clip-rule="evenodd" d="M54.1446 39.2201C52.6274 37.7064 50.1677 37.7064 48.6501 39.2201L42.5541 45.3028L36.4572 51.3854C34.94 52.8991 34.94 55.3538 36.4572 56.8675C37.9744 58.3812 40.4346 58.3812 41.9517 56.8675L48.0482 50.7848L54.1446 44.7022C55.6617 43.1881 55.6617 40.7339 54.1446 39.2201Z" fill="#5FE6EF"/>
<path fill-rule="evenodd" clip-rule="evenodd" d="M39.2596 80.985C37.5615 80.985 35.9655 80.3255 34.7646 79.1283C32.2868 76.6556 32.2868 72.6325 34.7646 70.1602L47.0642 57.89C48.2647 56.6923 49.8607 56.0328 51.5588 56.0328C53.257 56.0328 54.8529 56.6923 56.0534 57.8904C57.2539 59.088 57.915 60.6801 57.915 62.3742C57.915 64.0679 57.2539 65.66 56.053 66.8581L43.7542 79.1278C42.5537 80.3255 40.9577 80.985 39.2596 80.985Z" fill="#C7C2FF"/>
<path fill-rule="evenodd" clip-rule="evenodd" d="M48.6503 59.5759L42.5538 65.6585L36.4572 71.7412C34.94 73.2549 34.94 75.7091 36.4572 77.2228C37.9744 78.737 40.4342 78.737 41.9518 77.2228L48.0479 71.1402L54.1449 65.058C55.6616 63.5438 55.6616 61.0896 54.1449 59.5759C52.6273 58.0621 50.1675 58.0621 48.6503 59.5759Z" fill="#5FE6EF"/>
<path fill-rule="evenodd" clip-rule="evenodd" d="M39.2596 101.341C37.5615 101.341 35.9655 100.681 34.7646 99.483C32.2868 97.0107 32.2868 92.988 34.7646 90.5153L47.0642 78.2451C48.2647 77.0479 49.8611 76.3884 51.5588 76.3884C53.2565 76.3884 54.8529 77.0479 56.0534 78.2451C57.2539 79.4432 57.915 81.0357 57.915 82.7289C57.915 84.423 57.2539 86.0156 56.0534 87.2128L43.7542 99.483C42.5537 100.681 40.9577 101.341 39.2596 101.341Z" fill="#C7C2FF"/>
<path fill-rule="evenodd" clip-rule="evenodd" d="M48.6503 79.9314L42.5538 86.0145L36.4572 92.0967C34.94 93.6104 34.94 96.0646 36.4572 97.5788C37.9744 99.0925 40.4342 99.0925 41.9518 97.5788L48.0479 91.4961L54.1449 85.4135C55.6616 83.8998 55.6616 81.4452 54.1449 79.9314C52.6273 78.4177 50.1675 78.4177 48.6503 79.9314Z" fill="#5FE6EF"/>
<path fill-rule="evenodd" clip-rule="evenodd" d="M39.2596 121.915C37.5614 121.915 35.9659 121.257 34.765 120.059C32.2867 117.586 32.2867 113.563 34.7645 111.091L47.0642 98.8207C48.2647 97.6226 49.8607 96.9631 51.5588 96.9631C53.257 96.9631 54.8529 97.6226 56.0534 98.8207C57.2539 100.018 57.915 101.611 57.915 103.305C57.915 104.998 57.2539 106.591 56.0534 107.788L43.7542 120.059C42.5532 121.257 40.9573 121.915 39.2596 121.915Z" fill="#C7C2FF"/>
<path fill-rule="evenodd" clip-rule="evenodd" d="M48.6503 100.725L42.5538 106.808L36.4572 112.89C34.94 114.404 34.94 116.859 36.4572 118.372C37.9744 119.886 40.4342 119.886 41.9518 118.372L48.0479 112.29L54.1449 106.207C55.6616 104.693 55.6616 102.239 54.1449 100.725C52.6273 99.2112 50.1675 99.2112 48.6503 100.725Z" fill="#5FE6EF"/>
<path fill-rule="evenodd" clip-rule="evenodd" d="M42.3398 24.8497L47.9266 30.4241L54.1259 24.239C55.6687 22.6994 55.6687 20.2039 54.1259 18.6647C52.5831 17.1255 50.0819 17.1255 48.5391 18.6647L42.3398 24.8497Z" fill="#FECF51"/>
<path fill-rule="evenodd" clip-rule="evenodd" d="M36.2567 36.7116C37.7994 38.2508 40.3007 38.2508 41.8439 36.7116L48.0427 30.5265L42.456 24.9521L36.2567 31.1372C34.7139 32.6764 34.7139 35.1723 36.2567 36.7116Z" fill="#1FB573"/>
<path fill-rule="evenodd" clip-rule="evenodd" d="M42.3398 45.2054L47.9266 50.7798L54.1259 44.5943C55.6687 43.0551 55.6687 40.5596 54.1259 39.0204C52.5831 37.4812 50.0819 37.4812 48.5391 39.0204L42.3398 45.2054Z" fill="#FECF51"/>
<path fill-rule="evenodd" clip-rule="evenodd" d="M36.2567 57.0671C37.7994 58.6064 40.3007 58.6064 41.8439 57.0671L48.0427 50.8819L42.456 45.3077L36.2567 51.493C34.7139 53.0322 34.7139 55.5278 36.2567 57.0671Z" fill="#1FB573"/>
<path fill-rule="evenodd" clip-rule="evenodd" d="M42.3398 65.7804L47.9266 71.3544L54.1259 65.1693C55.6687 63.6301 55.6687 61.1345 54.1259 59.5953C52.5831 58.0556 50.0819 58.0556 48.5391 59.5953L42.3398 65.7804Z" fill="#FECF51"/>
<path fill-rule="evenodd" clip-rule="evenodd" d="M41.8439 77.4225L48.0427 71.2374L42.456 65.6635L36.2567 71.8485C34.7139 73.3878 34.7139 75.8833 36.2567 77.4225C37.7994 78.9622 40.3007 78.9622 41.8439 77.4225Z" fill="#1FB573"/>
<path fill-rule="evenodd" clip-rule="evenodd" d="M42.3398 86.1358L47.9266 91.7099L54.1259 85.5247C55.6687 83.9855 55.6687 81.4901 54.1259 79.9505C52.5831 78.4114 50.0819 78.4114 48.5391 79.9505L42.3398 86.1358Z" fill="#FECF51"/>
<path fill-rule="evenodd" clip-rule="evenodd" d="M36.2567 97.9974C37.7994 99.5367 40.3007 99.5367 41.8439 97.9974L48.0427 91.8122L42.456 86.238L36.2567 92.4228C34.7139 93.9621 34.7139 96.4577 36.2567 97.9974Z" fill="#1FB573"/>
<path fill-rule="evenodd" clip-rule="evenodd" d="M42.3398 106.491L47.9266 112.066L54.1259 105.88C55.6687 104.341 55.6687 101.846 54.1259 100.307C52.5831 98.767 50.0819 98.767 48.5391 100.307L42.3398 106.491Z" fill="#FECF51"/>
<path fill-rule="evenodd" clip-rule="evenodd" d="M36.2567 118.353C37.7994 119.892 40.3007 119.892 41.8439 118.353L48.0427 112.168L42.456 106.594L36.2567 112.779C34.7139 114.318 34.7139 116.814 36.2567 118.353Z" fill="#1FB573"/>
<path fill-rule="evenodd" clip-rule="evenodd" d="M43.2983 29.9834C42.8908 29.9834 42.4833 29.8287 42.1723 29.5196C41.5507 28.9005 41.5507 27.8973 42.1723 27.2786L49.4252 20.0607C50.0468 19.442 51.0552 19.442 51.6768 20.0607C52.2984 20.6793 52.2984 21.6825 51.6768 22.3016L44.4239 29.5196C44.1133 29.8287 43.7058 29.9834 43.2983 29.9834Z" fill="white"/>
<path fill-rule="evenodd" clip-rule="evenodd" d="M43.2983 50.4126C42.8908 50.4126 42.4833 50.2574 42.1723 49.9483C41.5507 49.3297 41.5507 48.326 42.1723 47.7074L49.4252 40.489C50.0468 39.8704 51.0552 39.8704 51.6768 40.489C52.2984 41.1077 52.2984 42.1113 51.6768 42.7299L44.4239 49.9483C44.1133 50.2574 43.7058 50.4126 43.2983 50.4126Z" fill="white"/>
<path fill-rule="evenodd" clip-rule="evenodd" d="M43.2983 70.8409C42.8908 70.8409 42.4833 70.6857 42.1723 70.3765C41.5507 69.757 41.5507 68.7538 42.1723 68.1356L49.4252 60.9176C50.0468 60.2994 51.0552 60.2994 51.6768 60.9176C52.2984 61.5371 52.2984 62.5404 51.6768 63.159L44.4239 70.3765C44.1133 70.6857 43.7058 70.8409 43.2983 70.8409Z" fill="white"/>
<path fill-rule="evenodd" clip-rule="evenodd" d="M43.2983 91.2695C42.8908 91.2695 42.4833 91.1147 42.1723 90.8052C41.5507 90.187 41.5507 89.1829 42.1723 88.5642L49.4252 81.3463C50.0468 80.7272 51.0552 80.7272 51.6768 81.3463C52.2984 81.9645 52.2984 82.9686 51.6768 83.5868L44.4239 90.8052C44.1133 91.1147 43.7058 91.2695 43.2983 91.2695Z" fill="white"/>
<path fill-rule="evenodd" clip-rule="evenodd" d="M43.2983 111.698C42.8908 111.698 42.4833 111.543 42.1723 111.233C41.5507 110.614 41.5507 109.611 42.1723 108.992L49.4252 101.775C50.0468 101.156 51.0552 101.156 51.6768 101.775C52.2984 102.394 52.2984 103.397 51.6768 104.016L44.4239 111.233C44.1133 111.543 43.7058 111.698 43.2983 111.698Z" fill="white"/>
<path fill-rule="evenodd" clip-rule="evenodd" d="M76.7728 40.0546C75.0745 40.0546 73.4783 39.3952 72.2777 38.1975C69.7992 35.7248 69.7996 31.7017 72.2777 29.2294L84.5785 16.9597C85.7796 15.762 87.3757 15.1025 89.0736 15.1025C90.772 15.1025 92.3681 15.762 93.5688 16.9597C96.0473 19.4324 96.0473 23.455 93.5688 25.9273L81.2684 38.1971C80.0673 39.3952 78.4712 40.0546 76.7728 40.0546Z" fill="#C7C2FF"/>
<path fill-rule="evenodd" clip-rule="evenodd" d="M74.1896 36.2929C75.7068 37.8066 78.167 37.8066 79.6842 36.2929L85.7806 30.2103L91.877 24.1276C93.3942 22.6139 93.3942 20.1593 91.877 18.6455C90.3599 17.1318 87.8997 17.1318 86.3825 18.6455L80.2861 24.7282L74.1896 30.8108C72.6725 32.3245 72.6725 34.7792 74.1896 36.2929Z" fill="#5FE6EF"/>
<path fill-rule="evenodd" clip-rule="evenodd" d="M76.7721 60.6294C75.0739 60.6294 73.478 59.9699 72.2775 58.7722C69.7997 56.2999 69.7992 52.2771 72.2775 49.8044L84.5772 37.5344C85.7778 36.3367 87.3737 35.6772 89.0715 35.6772C90.7696 35.6772 92.3656 36.3367 93.5661 37.5348C94.7666 38.7321 95.4277 40.3242 95.4277 42.0183C95.4277 43.712 94.7666 45.3041 93.5661 46.5022L81.2672 58.7722C80.0662 59.9699 78.4703 60.6294 76.7721 60.6294Z" fill="#C7C2FF"/>
<path fill-rule="evenodd" clip-rule="evenodd" d="M91.877 39.2201C90.3599 37.7064 87.8997 37.7064 86.3825 39.2201L80.2861 45.3028L74.1896 51.3854C72.6725 52.8991 72.6725 55.3538 74.1896 56.8675C75.7068 58.3812 78.167 58.3812 79.6842 56.8675L85.7806 50.7848L91.877 44.7022C93.3942 43.1881 93.3942 40.7339 91.877 39.2201Z" fill="#5FE6EF"/>
<path fill-rule="evenodd" clip-rule="evenodd" d="M76.772 80.985C75.0738 80.985 73.4778 80.3255 72.2773 79.1283C69.7995 76.6556 69.7995 72.6325 72.2773 70.1602L84.5767 57.89C85.7777 56.6923 87.3737 56.0328 89.0714 56.0328C90.7696 56.0328 92.3656 56.6923 93.5661 57.8904C94.7666 59.088 95.4277 60.6801 95.4277 62.3742C95.4277 64.0679 94.7666 65.66 93.5661 66.8581L81.2671 79.1278C80.0661 80.3255 78.4702 80.985 76.772 80.985Z" fill="#ACACAE"/>
<path fill-rule="evenodd" clip-rule="evenodd" d="M86.3827 59.5759L80.2862 65.6585L74.1896 71.7412C72.6725 73.2549 72.6725 75.7091 74.1896 77.2228C75.7068 78.737 78.1666 78.737 79.6843 77.2228L85.7804 71.1402L91.8773 65.058C93.3941 63.5438 93.3941 61.0896 91.8773 59.5759C90.3597 58.0621 87.8999 58.0621 86.3827 59.5759Z" fill="#5FE6EF"/>
<path fill-rule="evenodd" clip-rule="evenodd" d="M76.772 101.341C75.0738 101.341 73.4778 100.681 72.2773 99.483C69.7995 97.0107 69.7995 92.988 72.2773 90.5153L84.5767 78.2451C85.7777 77.0479 87.3737 76.3884 89.0714 76.3884C90.7692 76.3884 92.3656 77.0479 93.5661 78.2451C94.7666 79.4432 95.4277 81.0357 95.4277 82.7289C95.4277 84.423 94.7666 86.0156 93.5661 87.2128L81.2671 99.483C80.0661 100.681 78.4702 101.341 76.772 101.341Z" fill="#ACACAE"/>
<path fill-rule="evenodd" clip-rule="evenodd" d="M86.3827 79.9314L80.2862 86.0145L74.1896 92.0967C72.6725 93.6104 72.6725 96.0646 74.1896 97.5788C75.7068 99.0925 78.1666 99.0925 79.6843 97.5788L85.7804 91.4961L91.8773 85.4135C93.3941 83.8998 93.3941 81.4452 91.8773 79.9314C90.3597 78.4177 87.8999 78.4177 86.3827 79.9314Z" fill="#5FE6EF"/>
<path fill-rule="evenodd" clip-rule="evenodd" d="M76.772 121.915C75.0742 121.915 73.4783 121.257 72.2773 120.059C69.7995 117.586 69.7995 113.563 72.2773 111.091L84.5767 98.8207C85.7777 97.6226 87.3737 96.9631 89.0714 96.9631C90.7696 96.9631 92.3656 97.6226 93.5661 98.8207C94.7666 100.018 95.4277 101.611 95.4277 103.305C95.4277 104.998 94.7666 106.591 93.5661 107.788L81.2671 120.059C80.0657 121.257 78.4697 121.915 76.772 121.915Z" fill="#ACACAE"/>
<path fill-rule="evenodd" clip-rule="evenodd" d="M86.3827 100.725L80.2862 106.808L74.1896 112.89C72.6725 114.404 72.6725 116.859 74.1896 118.372C75.7068 119.886 78.1666 119.886 79.6843 118.372L85.7804 112.29L91.8773 106.207C93.3941 104.693 93.3941 102.239 91.8773 100.725C90.3597 99.2112 87.8999 99.2112 86.3827 100.725Z" fill="#5FE6EF"/>
<path fill-rule="evenodd" clip-rule="evenodd" d="M80.0723 24.8497L85.6593 30.4241L91.8584 24.239C93.4011 22.6994 93.4011 20.2039 91.8584 18.6647C90.3152 17.1255 87.814 17.1255 86.2713 18.6647L80.0723 24.8497Z" fill="#FECF51"/>
<path fill-rule="evenodd" clip-rule="evenodd" d="M73.9891 36.7116C75.5318 38.2508 78.0334 38.2508 79.5761 36.7116L85.7752 30.5265L80.1881 24.9521L73.9891 31.1372C72.4464 32.6764 72.4464 35.1723 73.9891 36.7116Z" fill="#1FB573"/>
<path fill-rule="evenodd" clip-rule="evenodd" d="M80.0723 45.2054L85.6593 50.7798L91.8584 44.5943C93.4011 43.0551 93.4011 40.5596 91.8584 39.0204C90.3152 37.4812 87.814 37.4812 86.2713 39.0204L80.0723 45.2054Z" fill="#FECF51"/>
<path fill-rule="evenodd" clip-rule="evenodd" d="M73.9891 57.0671C75.5318 58.6064 78.0334 58.6064 79.5761 57.0671L85.7752 50.8819L80.1881 45.3077L73.9891 51.493C72.4464 53.0322 72.4464 55.5278 73.9891 57.0671Z" fill="#F95C68"/>
<path fill-rule="evenodd" clip-rule="evenodd" d="M80.0723 65.7804L85.6593 71.3544L91.8584 65.1693C93.4011 63.6301 93.4011 61.1345 91.8584 59.5953C90.3152 58.0556 87.814 58.0556 86.2713 59.5953L80.0723 65.7804Z" fill="#FECF51"/>
<path fill-rule="evenodd" clip-rule="evenodd" d="M73.9891 77.4225C75.5318 78.9622 78.0334 78.9622 79.5761 77.4225L85.7752 71.2374L80.1881 65.6635L73.9891 71.8485C72.4464 73.3878 72.4464 75.8833 73.9891 77.4225Z" fill="#F95C68"/>
<path fill-rule="evenodd" clip-rule="evenodd" d="M80.0723 86.1358L85.6593 91.7099L91.8584 85.5247C93.4011 83.9855 93.4011 81.4901 91.8584 79.9505C90.3152 78.4114 87.814 78.4114 86.2713 79.9505L80.0723 86.1358Z" fill="#FECF51"/>
<path fill-rule="evenodd" clip-rule="evenodd" d="M73.9891 97.9974C75.5318 99.5367 78.0334 99.5367 79.5761 97.9974L85.7752 91.8122L80.1881 86.238L73.9891 92.4228C72.4464 93.9621 72.4464 96.4577 73.9891 97.9974Z" fill="#F95C68"/>
<path fill-rule="evenodd" clip-rule="evenodd" d="M80.0723 106.491L85.6593 112.066L91.8584 105.88C93.4011 104.341 93.4011 101.846 91.8584 100.307C90.3152 98.767 87.814 98.767 86.2713 100.307L80.0723 106.491Z" fill="#FECF51"/>
<path fill-rule="evenodd" clip-rule="evenodd" d="M73.9891 118.353C75.5318 119.892 78.0334 119.892 79.5761 118.353L85.7752 112.168L80.1881 106.594L73.9891 112.779C72.4464 114.318 72.4464 116.814 73.9891 118.353Z" fill="#F95C68"/>
<path fill-rule="evenodd" clip-rule="evenodd" d="M80.8896 29.9834C80.4811 29.9834 80.0726 29.8287 79.7613 29.5196C79.1382 28.9005 79.1382 27.8973 79.7613 27.2786L87.0317 20.0607C87.6548 19.442 88.6657 19.442 89.2888 20.0607C89.9119 20.6793 89.9119 21.6825 89.2888 22.3016L82.0184 29.5196C81.707 29.8287 81.2981 29.9834 80.8896 29.9834Z" fill="white"/>
<path fill-rule="evenodd" clip-rule="evenodd" d="M80.8896 50.4126C80.4811 50.4126 80.0726 50.2574 79.7613 49.9483C79.1382 49.3297 79.1382 48.326 79.7613 47.7074L87.0317 40.489C87.6548 39.8704 88.6657 39.8704 89.2888 40.489C89.9119 41.1077 89.9119 42.1113 89.2888 42.7299L82.0184 49.9483C81.707 50.2574 81.2981 50.4126 80.8896 50.4126Z" fill="white"/>
<path fill-rule="evenodd" clip-rule="evenodd" d="M80.8896 70.8409C80.4811 70.8409 80.0726 70.6857 79.7613 70.3765C79.1382 69.757 79.1382 68.7538 79.7613 68.1356L87.0317 60.9176C87.6548 60.2994 88.6657 60.2994 89.2888 60.9176C89.9119 61.5371 89.9119 62.5404 89.2888 63.159L82.0184 70.3765C81.707 70.6857 81.2981 70.8409 80.8896 70.8409Z" fill="white"/>
<path fill-rule="evenodd" clip-rule="evenodd" d="M80.8896 91.2695C80.4811 91.2695 80.0726 91.1147 79.7613 90.8052C79.1382 90.187 79.1382 89.1829 79.7613 88.5642L87.0317 81.3463C87.6548 80.7272 88.6657 80.7272 89.2888 81.3463C89.9119 81.9645 89.9119 82.9686 89.2888 83.5868L82.0184 90.8052C81.707 91.1147 81.2981 91.2695 80.8896 91.2695Z" fill="white"/>
<path fill-rule="evenodd" clip-rule="evenodd" d="M80.8896 111.698C80.4811 111.698 80.0726 111.543 79.7613 111.233C79.1382 110.614 79.1382 109.611 79.7613 108.992L87.0317 101.775C87.6548 101.156 88.6657 101.156 89.2888 101.775C89.9119 102.394 89.9119 103.397 89.2888 104.016L82.0184 111.233C81.707 111.543 81.2981 111.698 80.8896 111.698Z" fill="white"/>
<path fill-rule="evenodd" clip-rule="evenodd" d="M76.3335 39.8358V48.9733L71.5087 54.3244C68.6885 57.4523 67.1289 61.5034 67.1289 65.7014V120.199C67.1289 123.927 70.173 126.949 73.9282 126.949H103.986C107.741 126.949 110.785 123.927 110.785 120.199V65.7014C110.785 61.5034 109.225 57.4523 106.405 54.3244L101.58 48.9733V39.8358H76.3335Z" fill="#4A2CB1"/>
<path fill-rule="evenodd" clip-rule="evenodd" d="M67.1289 107.469H110.785V72.2299H67.1289V107.469Z" fill="white"/>
<path fill-rule="evenodd" clip-rule="evenodd" d="M67.1289 102.435H110.785V77.2639H67.1289V102.435Z" fill="white"/>
<path fill-rule="evenodd" clip-rule="evenodd" d="M104.733 86.0191H73.1798C71.7762 86.0191 70.6387 84.8923 70.6387 83.502C70.6387 82.1117 71.7762 80.9849 73.1798 80.9849H104.733C106.137 80.9849 107.274 82.1117 107.274 83.502C107.274 84.8923 106.137 86.0191 104.733 86.0191Z" fill="#FECF51"/>
<path fill-rule="evenodd" clip-rule="evenodd" d="M95.2858 94.3364H85.9175C84.5062 94.3364 83.3623 93.2096 83.3623 91.8193C83.3623 90.429 84.5062 89.3022 85.9175 89.3022H95.2858C96.6972 89.3022 97.841 90.429 97.841 91.8193C97.841 93.2096 96.6972 94.3364 95.2858 94.3364Z" fill="#FECF51"/>
<path fill-rule="evenodd" clip-rule="evenodd" d="M76.123 40.7114H101.79L100.015 4.51339C99.9447 3.08887 98.7734 1.96997 97.3519 1.96997H80.5611C79.1396 1.96997 77.9683 3.08887 77.8984 4.51339L76.123 40.7114Z" fill="#1FB573"/>
<path fill-rule="evenodd" clip-rule="evenodd" d="M76.5161 40.7115H101.397C102.584 40.7115 103.545 39.7336 103.545 38.5278V32.389C103.545 31.1832 102.584 30.2053 101.397 30.2053H76.5161C75.3296 30.2053 74.3682 31.1832 74.3682 32.389V38.5278C74.3682 39.7336 75.3296 40.7115 76.5161 40.7115Z" fill="#A5E7CA"/>
<path fill-rule="evenodd" clip-rule="evenodd" d="M92.9472 9.41175H89.7919C88.5429 9.41175 87.5303 8.38301 87.5303 7.11353C87.5303 5.84449 88.5429 4.81531 89.7919 4.81531H92.9472C94.1962 4.81531 95.2084 5.84449 95.2084 7.11353C95.2084 8.38301 94.1962 9.41175 92.9472 9.41175Z" fill="#5FE6EF"/>
<path fill-rule="evenodd" clip-rule="evenodd" d="M69.7617 117.866C69.7617 122.641 73.6412 126.512 78.4273 126.512C83.2128 126.512 87.0924 122.641 87.0924 117.866C87.0924 113.091 83.2128 109.22 78.4273 109.22C73.6412 109.22 69.7617 113.091 69.7617 117.866Z" fill="#A5E7CA"/>
<path fill-rule="evenodd" clip-rule="evenodd" d="M72.1306 123.666L70.6387 121.636L84.7228 111.628L86.2143 113.658L72.1306 123.666Z" fill="#1FB573"/>
<path fill-rule="evenodd" clip-rule="evenodd" d="M135.501 99.5896H172.282C175.277 99.5896 177.752 97.2636 177.927 94.286L182.959 8.31738H124.824L129.856 94.286C130.031 97.2636 132.506 99.5896 135.501 99.5896Z" fill="#0C8751"/>
<path fill-rule="evenodd" clip-rule="evenodd" d="M138.104 91.71H169.679C170.401 91.71 171.014 91.1823 171.117 90.4708L182.959 8.53625H124.824L136.666 90.4708C136.769 91.1823 137.382 91.71 138.104 91.71Z" fill="#1FB573"/>
<path fill-rule="evenodd" clip-rule="evenodd" d="M133.16 44.9794C133.16 56.6447 142.638 66.1012 154.33 66.1012C166.022 66.1012 175.5 56.6447 175.5 44.9794C175.5 33.3141 166.022 23.8577 154.33 23.8577C142.638 23.8577 133.16 33.3141 133.16 44.9794Z" fill="#FECF51"/>
<path fill-rule="evenodd" clip-rule="evenodd" d="M162.857 38.5226H146.901C145.612 38.5226 144.568 37.4448 144.568 36.1149C144.568 34.7855 145.612 33.7073 146.901 33.7073H162.857C164.146 33.7073 165.19 34.7855 165.19 36.1149C165.19 37.4448 164.146 38.5226 162.857 38.5226Z" fill="white"/>
<path fill-rule="evenodd" clip-rule="evenodd" d="M162.857 47.4966H146.901C145.612 47.4966 144.568 46.4188 144.568 45.0889C144.568 43.759 145.612 42.6813 146.901 42.6813H162.857C164.146 42.6813 165.19 43.759 165.19 45.0889C165.19 46.4188 164.146 47.4966 162.857 47.4966Z" fill="white"/>
<path fill-rule="evenodd" clip-rule="evenodd" d="M162.857 56.4706H146.901C145.612 56.4706 144.568 55.3928 144.568 54.0629C144.568 52.7335 145.612 51.6553 146.901 51.6553H162.857C164.146 51.6553 165.19 52.7335 165.19 54.0629C165.19 55.3928 164.146 56.4706 162.857 56.4706Z" fill="white"/>
<path fill-rule="evenodd" clip-rule="evenodd" d="M58.1348 139.258L58.1814 148.4L68.2979 148.348C70.8151 148.334 72.8457 146.278 72.8329 143.754C72.82 141.23 70.7689 139.194 68.2512 139.207L58.1348 139.258Z" fill="#F2662F"/>
<path fill-rule="evenodd" clip-rule="evenodd" d="M43.4932 143.858C43.5061 146.379 45.5553 148.412 48.0696 148.4L58.1742 148.348L58.1276 139.219L48.0234 139.271C45.5087 139.283 43.4805 141.338 43.4932 143.858Z" fill="#4A2CB1"/>
<path fill-rule="evenodd" clip-rule="evenodd" d="M68.8354 143.956C68.6875 144 68.5308 144.022 68.3685 144.022L52.7089 143.939C51.8233 143.934 51.1095 143.214 51.1143 142.331C51.1191 141.446 51.8407 140.732 52.7267 140.739L68.3859 140.822C69.2711 140.827 69.9853 141.547 69.9805 142.43C69.9766 143.153 69.4945 143.76 68.8354 143.956Z" fill="white"/>
<path fill-rule="evenodd" clip-rule="evenodd" d="M93.0145 159.913L92.9363 150.807L82.8314 150.894C80.3164 150.915 78.2948 152.971 78.3166 155.486C78.338 158 80.3942 160.022 82.9092 160L93.0145 159.913Z" fill="#F9C346"/>
<path fill-rule="evenodd" clip-rule="evenodd" d="M107.713 155.322C107.691 152.807 105.635 150.786 103.12 150.807L93.0146 150.894L93.0929 160L103.198 159.914C105.712 159.892 107.734 157.836 107.713 155.322Z" fill="#1FB573"/>
<path fill-rule="evenodd" clip-rule="evenodd" d="M89.7055 155.976C89.0833 155.765 88.6331 155.181 88.627 154.49C88.6193 153.616 89.3269 152.901 90.207 152.894L103.911 152.777C104.792 152.771 105.511 153.473 105.519 154.347C105.526 155.221 104.819 155.936 103.939 155.944L90.2346 156.06C90.0492 156.062 89.8715 156.032 89.7055 155.976Z" fill="white"/>
<path fill-rule="evenodd" clip-rule="evenodd" d="M124.824 8.31737H182.959V0H124.824V8.31737Z" fill="#A5E7CA"/>
<path fill-rule="evenodd" clip-rule="evenodd" d="M140.853 127.168H167.149C170.307 127.168 172.867 124.604 172.867 121.44V99.5896H135.135V121.44C135.135 124.604 137.695 127.168 140.853 127.168Z" fill="#F9C346"/>
<path fill-rule="evenodd" clip-rule="evenodd" d="M161.986 114.911H158.74C157.455 114.911 156.414 113.833 156.414 112.503C156.414 111.173 157.455 110.096 158.74 110.096H161.986C163.27 110.096 164.312 111.173 164.312 112.503C164.312 113.833 163.27 114.911 161.986 114.911Z" fill="#E2E2E2"/>
<path fill-rule="evenodd" clip-rule="evenodd" d="M161.986 123.228H158.74C157.455 123.228 156.414 122.151 156.414 120.821C156.414 119.491 157.455 118.413 158.74 118.413H161.986C163.27 118.413 164.312 119.491 164.312 120.821C164.312 122.151 163.27 123.228 161.986 123.228Z" fill="#E2E2E2"/>
<path fill-rule="evenodd" clip-rule="evenodd" d="M112.714 45.9644V54.4824L108.253 59.4701C105.645 62.386 104.203 66.1618 104.203 70.0754V120.876C104.203 124.351 107.018 127.168 110.49 127.168H138.281C141.753 127.168 144.568 124.351 144.568 120.876V70.0754C144.568 66.1618 143.126 62.386 140.518 59.4701L136.057 54.4824V45.9644H112.714Z" fill="white"/>
<path fill-rule="evenodd" clip-rule="evenodd" d="M112.759 54.5006H136.013V45.9644H112.759V54.5006Z" fill="#A5E7CA"/>
<path fill-rule="evenodd" clip-rule="evenodd" d="M104.203 114.692H144.568V73.9808H104.203V114.692Z" fill="#1FB573"/>
<path fill-rule="evenodd" clip-rule="evenodd" d="M104.203 103.748H144.568V78.5773H104.203V103.748Z" fill="#6459E7"/>
<path fill-rule="evenodd" clip-rule="evenodd" d="M133.035 112.066H115.517C114.115 112.066 112.979 110.939 112.979 109.548C112.979 108.158 114.115 107.031 115.517 107.031H133.035C134.437 107.031 135.574 108.158 135.574 109.548C135.574 110.939 134.437 112.066 133.035 112.066Z" fill="#A5E7CA"/>
<path fill-rule="evenodd" clip-rule="evenodd" d="M138.08 117.52C138.08 119.638 136.363 121.355 134.245 121.355H114.525C112.408 121.355 110.692 119.638 110.692 117.52V71.0966C110.692 68.1317 111.776 65.2698 113.74 63.0492L114.049 62.6996C114.442 62.2555 114.791 61.7815 115.12 61.295V61.316H133.665C133.99 61.7948 134.335 62.262 134.722 62.6996L135.031 63.0492C136.996 65.2698 138.08 68.1317 138.08 71.0966V117.52ZM144.568 70.0901C144.568 66.1776 143.125 62.4023 140.516 59.4876L136.052 54.5007H112.719L108.255 59.4876C105.646 62.4023 104.203 66.1776 104.203 70.0901V120.877C104.203 121.039 104.216 121.196 104.227 121.355H104.203C104.448 124.605 107.157 127.168 110.47 127.168H138.302C141.615 127.168 144.324 124.605 144.568 121.355H144.544C144.556 121.196 144.568 121.039 144.568 120.877V70.0901Z" fill="#A5E7CA"/>
<path fill-rule="evenodd" clip-rule="evenodd" d="M129.668 21.2341L128.396 6.12866H120.061L118.779 21.1365C118.463 24.8378 116.327 28.1486 113.066 29.992L112.32 42.0247H136.452L135.721 30.2866L135.643 30.245C132.238 28.4346 129.989 25.0438 129.668 21.2341Z" fill="#8A81F6"/>
<path fill-rule="evenodd" clip-rule="evenodd" d="M112.52 50.342H136.251C137.21 50.342 137.987 49.5678 137.987 48.6128V36.312C137.987 35.357 137.21 34.5828 136.251 34.5828H112.52C111.561 34.5828 110.784 35.357 110.784 36.312V48.6128C110.784 49.5678 111.561 50.342 112.52 50.342Z" fill="#4A2CB1"/>
<path opacity="0.599019" fill-rule="evenodd" clip-rule="evenodd" d="M130.286 33.2695H126.821C125.597 33.2695 124.604 32.2408 124.604 30.9713C124.604 29.7023 125.597 28.6731 126.821 28.6731H130.286C131.509 28.6731 132.502 29.7023 132.502 30.9713C132.502 32.2408 131.509 33.2695 130.286 33.2695Z" fill="white"/>
<path opacity="0.599019" fill-rule="evenodd" clip-rule="evenodd" d="M132.704 40.9302H125.719C124.498 40.9302 123.508 39.9015 123.508 38.632C123.508 37.3625 124.498 36.3337 125.719 36.3337H132.704C133.925 36.3337 134.915 37.3625 134.915 38.632C134.915 39.9015 133.925 40.9302 132.704 40.9302Z" fill="#E2E2E2"/>
<path fill-rule="evenodd" clip-rule="evenodd" d="M124.386 101.56C120.394 101.56 117.146 98.293 117.146 94.2786C117.146 91.2018 120.753 85.6183 122.303 83.3608L124.386 80.3284L126.469 83.3608C128.019 85.6183 131.625 91.2018 131.625 94.2786C131.625 98.293 128.378 101.56 124.386 101.56Z" fill="white"/>
<path fill-rule="evenodd" clip-rule="evenodd" d="M156.634 54.7196V120.395C156.634 124.135 159.678 127.168 163.433 127.168H193.49C197.245 127.168 200.289 124.135 200.289 120.395V54.7196H156.634Z" fill="#FF7A00"/>
<path fill-rule="evenodd" clip-rule="evenodd" d="M159.705 107.469H196.779V72.2299H159.705V107.469Z" fill="#4A2CB1"/>
<path fill-rule="evenodd" clip-rule="evenodd" d="M189.84 83.8303H167.083C165.674 83.8303 164.531 82.7035 164.531 81.3132C164.531 79.9229 165.674 78.7961 167.083 78.7961H189.84C191.249 78.7961 192.392 79.9229 192.392 81.3132C192.392 82.7035 191.249 83.8303 189.84 83.8303Z" fill="#1FB573"/>
<path fill-rule="evenodd" clip-rule="evenodd" d="M186.137 92.1477H170.566C169.171 92.1477 168.041 91.0209 168.041 89.6306C168.041 88.2403 169.171 87.1135 170.566 87.1135H186.137C187.532 87.1135 188.662 88.2403 188.662 89.6306C188.662 91.0209 187.532 92.1477 186.137 92.1477Z" fill="#1FB573"/>
<path fill-rule="evenodd" clip-rule="evenodd" d="M190.077 100.246H166.846C165.446 100.246 164.312 99.1194 164.312 97.7291C164.312 96.3388 165.446 95.212 166.846 95.212H190.077C191.476 95.212 192.611 96.3388 192.611 97.7291C192.611 99.1194 191.476 100.246 190.077 100.246Z" fill="#1FB573"/>
<path fill-rule="evenodd" clip-rule="evenodd" d="M156.766 55.8139H199.937C201.222 55.8139 202.263 54.7993 202.263 53.5473V51.2953C202.263 50.0433 201.222 49.0287 199.937 49.0287H156.766C155.481 49.0287 154.439 50.0433 154.439 51.2953V53.5473C154.439 54.7993 155.481 55.8139 156.766 55.8139Z" fill="#4A2CB1"/>
<path fill-rule="evenodd" clip-rule="evenodd" d="M182.41 116.881C181.138 116.881 180.106 115.886 180.106 114.658V63.2894C180.106 62.0616 181.138 61.067 182.41 61.067C183.681 61.067 184.713 62.0616 184.713 63.2894V114.658C184.713 115.886 183.681 116.881 182.41 116.881Z" fill="white" fill-opacity="0.5"/>
<path fill-rule="evenodd" clip-rule="evenodd" d="M204.423 121.577L192.465 47.6164C191.966 44.5284 194.064 42.0247 197.152 42.0247H224.541C227.628 42.0247 230.537 44.528 231.036 47.6159L242.994 121.577C243.493 124.665 241.394 127.168 238.306 127.168H210.918C207.83 127.168 204.922 124.665 204.423 121.577Z" fill="#CEC8FE"/>
<path fill-rule="evenodd" clip-rule="evenodd" d="M210.618 49.0998L222.07 119.875C222.193 120.639 222.914 121.259 223.679 121.259C224.444 121.259 224.964 120.639 224.841 119.875L213.388 49.0998C213.265 48.3353 212.544 47.7155 211.779 47.7155C211.015 47.7155 210.494 48.3353 210.618 49.0998Z" fill="#ADA7F9"/>
<path fill-rule="evenodd" clip-rule="evenodd" d="M214.863 51.8773C215.18 53.8321 216.289 55.7549 217.906 57.1356C219.518 58.5227 221.577 59.316 223.541 59.316C225.51 59.316 227.305 58.5227 228.474 57.1356C229.642 55.7549 230.126 53.8321 229.809 51.8773C229.491 49.9161 228.382 47.9937 226.765 46.6135C225.147 45.226 223.094 44.4323 221.125 44.4323C219.161 44.4323 217.36 45.226 216.198 46.6135C215.031 48.0001 214.545 49.9161 214.863 51.8773Z" fill="#ADA7F9"/>
<path fill-rule="evenodd" clip-rule="evenodd" d="M221.728 95.6233C221.053 91.5009 223.885 88.1614 228.054 88.1614C232.223 88.1614 236.152 91.5009 236.826 95.6233C237.499 99.7457 234.664 103.092 230.494 103.092C226.326 103.092 222.402 99.7457 221.728 95.6233ZM218.158 73.7884C217.484 69.666 220.314 66.3201 224.482 66.3201C228.652 66.3201 232.582 69.666 233.256 73.7884C233.93 77.9108 231.092 81.2502 226.924 81.2502C222.755 81.2502 218.832 77.9108 218.158 73.7884Z" fill="#ADA7F9"/>
<path fill-rule="evenodd" clip-rule="evenodd" d="M225.174 117.535C225.492 119.496 226.6 121.412 228.219 122.799C229.83 124.186 231.889 124.979 233.852 124.979C235.822 124.979 237.617 124.186 238.785 122.799C239.954 121.418 240.439 119.496 240.12 117.535C239.803 115.58 238.694 113.657 237.077 112.276C235.459 110.889 233.406 110.096 231.436 110.096C229.473 110.096 227.672 110.889 226.51 112.276C225.342 113.657 224.857 115.58 225.174 117.535Z" fill="#ADA7F9"/>
<path fill-rule="evenodd" clip-rule="evenodd" d="M195.34 51.8773C195.657 53.8321 196.766 55.7549 198.383 57.1356C199.995 58.5227 202.054 59.316 204.018 59.316C205.987 59.316 207.782 58.5227 208.95 57.1356C210.118 55.7549 210.603 53.8321 210.286 51.8773C209.968 49.9161 208.86 48.0001 207.242 46.6135C205.623 45.226 203.571 44.4323 201.601 44.4323C199.638 44.4323 197.836 45.226 196.675 46.6135C195.506 47.9937 195.021 49.9161 195.34 51.8773Z" fill="#ADA7F9"/>
<path fill-rule="evenodd" clip-rule="evenodd" d="M202.423 95.6233C201.749 91.5009 204.58 88.1614 208.749 88.1614C212.924 88.1614 216.847 91.5009 217.521 95.6233C218.195 99.7457 215.365 103.092 211.189 103.092C207.021 103.092 203.097 99.7457 202.423 95.6233ZM198.853 73.7884C198.179 69.666 201.009 66.3201 205.178 66.3201C209.353 66.3201 213.277 69.666 213.951 73.7884C214.625 77.9108 211.794 81.2502 207.619 81.2502C203.45 81.2502 199.527 77.9108 198.853 73.7884Z" fill="#ADA7F9"/>
<path fill-rule="evenodd" clip-rule="evenodd" d="M206.088 117.535C206.406 119.496 207.514 121.412 209.133 122.799C210.744 124.186 212.798 124.979 214.767 124.979C216.737 124.979 218.532 124.186 219.7 122.799C220.867 121.412 221.353 119.496 221.035 117.535C220.718 115.58 219.608 113.657 217.991 112.276C216.373 110.889 214.32 110.096 212.351 110.096C210.381 110.096 208.585 110.889 207.424 112.276C206.255 113.657 205.771 115.58 206.088 117.535Z" fill="#ADA7F9"/>
<path fill-rule="evenodd" clip-rule="evenodd" d="M217.249 51.8774C217.474 53.2559 218.264 54.6095 219.411 55.5932C220.564 56.5705 222.021 57.1272 223.414 57.1272C224.812 57.1272 226.087 56.5705 226.915 55.5932C227.741 54.6095 228.089 53.2559 227.864 51.8774C227.638 50.4925 226.848 49.1397 225.702 48.1624C224.555 47.1843 223.097 46.6211 221.698 46.6211C220.306 46.6211 219.032 47.1843 218.198 48.1624C217.371 49.1397 217.023 50.4925 217.249 51.8774Z" fill="#279AB3"/>
<path fill-rule="evenodd" clip-rule="evenodd" d="M224.532 95.4207C224.06 92.517 226.04 90.1578 228.958 90.1578C231.882 90.1578 234.628 92.517 235.1 95.4207C235.571 98.3244 233.591 100.684 230.667 100.684C227.75 100.684 225.003 98.3244 224.532 95.4207ZM220.98 73.5529C220.508 70.6496 222.489 68.29 225.406 68.29C228.33 68.29 231.077 70.6496 231.548 73.5529C232.02 76.4571 230.038 78.8094 227.114 78.8094C224.197 78.8094 221.451 76.4571 220.98 73.5529Z" fill="#279AB3"/>
<path fill-rule="evenodd" clip-rule="evenodd" d="M227.998 117.316C228.224 118.701 229.014 120.054 230.16 121.031C231.313 122.009 232.771 122.572 234.163 122.572C235.562 122.572 236.835 122.009 237.663 121.031C238.49 120.054 238.839 118.701 238.612 117.316C238.387 115.937 237.598 114.584 236.45 113.6C235.303 112.622 233.847 112.066 232.448 112.066C231.056 112.066 229.774 112.622 228.947 113.6C228.12 114.584 227.772 115.937 227.998 117.316Z" fill="#279AB3"/>
<path fill-rule="evenodd" clip-rule="evenodd" d="M197.944 51.8774C198.17 53.2559 198.954 54.6159 200.101 55.5932C201.255 56.5705 202.713 57.1272 204.106 57.1272C205.505 57.1272 206.78 56.5705 207.608 55.5932C208.436 54.6159 208.783 53.2559 208.558 51.8774C208.332 50.4925 207.542 49.1397 206.395 48.1624C205.246 47.1779 203.789 46.6211 202.39 46.6211C200.996 46.6211 199.721 47.1843 198.887 48.1624C198.06 49.1397 197.718 50.4925 197.944 51.8774Z" fill="#279AB3"/>
<path fill-rule="evenodd" clip-rule="evenodd" d="M205.007 95.4207C204.535 92.517 206.516 90.1578 209.433 90.1578C212.357 90.1578 215.104 92.517 215.575 95.4207C216.048 98.3309 214.066 100.684 211.142 100.684C208.225 100.684 205.48 98.3309 205.007 95.4207ZM201.455 73.5529C200.984 70.6496 202.964 68.29 205.881 68.29C208.805 68.29 211.552 70.6496 212.023 73.5529C212.495 76.4571 210.514 78.8158 207.591 78.8158C204.674 78.8158 201.926 76.4571 201.455 73.5529Z" fill="#279AB3"/>
<path fill-rule="evenodd" clip-rule="evenodd" d="M208.474 117.316C208.7 118.701 209.484 120.054 210.631 121.031C211.784 122.009 213.244 122.572 214.636 122.572C216.036 122.572 217.311 122.015 218.138 121.038C218.966 120.054 219.314 118.701 219.088 117.316C218.862 115.937 218.072 114.577 216.924 113.6C215.777 112.622 214.32 112.066 212.921 112.066C211.528 112.066 210.251 112.622 209.417 113.6C208.59 114.577 208.249 115.937 208.474 117.316Z" fill="#279AB3"/>
<path fill-rule="evenodd" clip-rule="evenodd" d="M218.346 50.783C218.571 52.1615 219.361 53.5151 220.508 54.4988C221.661 55.4761 223.118 56.0329 224.51 56.0329C225.909 56.0329 227.184 55.4761 228.012 54.4988C228.838 53.5151 229.186 52.1615 228.961 50.783C228.735 49.3981 227.945 48.0454 226.799 47.0681C225.651 46.09 224.194 45.5267 222.795 45.5267C221.403 45.5267 220.129 46.09 219.295 47.0681C218.467 48.0454 218.12 49.3981 218.346 50.783Z" fill="#F9C346"/>
<path fill-rule="evenodd" clip-rule="evenodd" d="M225.189 94.5455C224.718 91.6414 226.698 89.2826 229.616 89.2826C232.54 89.2826 235.287 91.6414 235.758 94.5455C236.23 97.4488 234.249 99.8084 231.325 99.8084C228.408 99.8084 225.661 97.4488 225.189 94.5455ZM221.638 72.6773C221.166 69.774 223.146 67.4144 226.064 67.4144C228.988 67.4144 231.735 69.774 232.206 72.6773C232.678 75.5815 230.696 77.9342 227.773 77.9342C224.855 77.9342 222.109 75.5815 221.638 72.6773Z" fill="#F9C346"/>
<path fill-rule="evenodd" clip-rule="evenodd" d="M228.656 116.659C228.882 118.044 229.672 119.397 230.818 120.375C231.972 121.352 233.429 121.915 234.821 121.915C236.22 121.915 237.494 121.352 238.322 120.375C239.149 119.397 239.497 118.044 239.271 116.659C239.046 115.28 238.256 113.927 237.109 112.943C235.962 111.966 234.505 111.409 233.106 111.409C231.714 111.409 230.432 111.966 229.605 112.943C228.779 113.927 228.431 115.28 228.656 116.659Z" fill="#F9C346"/>
<path fill-rule="evenodd" clip-rule="evenodd" d="M198.822 50.783C199.047 52.1615 199.832 53.5215 200.979 54.4988C202.132 55.4761 203.591 56.0329 204.983 56.0329C206.382 56.0329 207.658 55.4761 208.486 54.4988C209.314 53.5215 209.661 52.1615 209.436 50.783C209.21 49.3981 208.42 48.0454 207.272 47.0681C206.124 46.0835 204.667 45.5267 203.268 45.5267C201.875 45.5267 200.599 46.09 199.765 47.0681C198.938 48.0454 198.596 49.3981 198.822 50.783Z" fill="#F9C346"/>
<path fill-rule="evenodd" clip-rule="evenodd" d="M205.885 94.5455C205.413 91.6414 207.394 89.2826 210.311 89.2826C213.234 89.2826 215.982 91.6414 216.454 94.5455C216.926 97.4557 214.944 99.8084 212.021 99.8084C209.103 99.8084 206.358 97.4557 205.885 94.5455ZM202.333 72.6773C201.861 69.774 203.842 67.4144 206.759 67.4144C209.683 67.4144 212.43 69.774 212.901 72.6773C213.373 75.5815 211.392 77.9406 208.469 77.9406C205.551 77.9406 202.804 75.5815 202.333 72.6773Z" fill="#F9C346"/>
<path fill-rule="evenodd" clip-rule="evenodd" d="M209.571 116.659C209.797 118.044 210.581 119.397 211.727 120.375C212.881 121.352 214.34 121.915 215.733 121.915C217.132 121.915 218.408 121.358 219.236 120.381C220.063 119.397 220.411 118.044 220.185 116.659C219.96 115.28 219.169 113.92 218.021 112.943C216.874 111.966 215.416 111.409 214.017 111.409C212.625 111.409 211.348 111.966 210.514 112.943C209.687 113.92 209.345 115.28 209.571 116.659Z" fill="#F9C346"/>
<path fill-rule="evenodd" clip-rule="evenodd" d="M225.098 48.2626C225.16 48.6417 225.363 49.001 225.672 49.2665C225.986 49.5325 226.362 49.6853 226.74 49.6853C227.112 49.6853 227.452 49.5325 227.674 49.2665C228.121 48.7412 227.967 47.7905 227.35 47.2586C227.049 46.9922 226.653 46.8398 226.281 46.8398C225.903 46.8398 225.577 46.9922 225.348 47.2586C225.125 47.5241 225.037 47.883 225.098 48.2626Z" fill="white"/>
<path fill-rule="evenodd" clip-rule="evenodd" d="M232.375 92.2937C232.251 91.5254 232.768 90.9011 233.535 90.9011C234.302 90.9011 235.027 91.5254 235.151 92.2937C235.275 93.0554 234.751 93.6798 233.984 93.6798C233.217 93.6798 232.498 93.0554 232.375 92.2937ZM228.826 70.3326C228.702 69.5644 229.22 68.9465 229.987 68.9465C230.754 68.9465 231.479 69.5644 231.603 70.3326C231.727 71.1005 231.204 71.7248 230.436 71.7248C229.669 71.7248 228.95 71.1005 228.826 70.3326Z" fill="white"/>
<path fill-rule="evenodd" clip-rule="evenodd" d="M235.627 113.93C235.689 114.309 235.891 114.662 236.201 114.935C236.515 115.201 236.89 115.349 237.269 115.349C237.641 115.349 237.981 115.201 238.204 114.935C238.65 114.409 238.496 113.449 237.88 112.923C237.572 112.657 237.182 112.503 236.81 112.503C236.432 112.503 236.105 112.65 235.877 112.923C235.654 113.19 235.566 113.55 235.627 113.93Z" fill="white"/>
<path fill-rule="evenodd" clip-rule="evenodd" d="M205.574 48.2626C205.635 48.6417 205.839 49.001 206.147 49.2665C206.462 49.5325 206.838 49.6853 207.217 49.6853C207.588 49.6853 207.929 49.5325 208.151 49.2665C208.596 48.7346 208.443 47.7839 207.827 47.2586C207.525 46.9922 207.129 46.8398 206.757 46.8398C206.379 46.8398 206.045 46.9922 205.823 47.2586C205.601 47.5241 205.512 47.883 205.574 48.2626Z" fill="white"/>
<path fill-rule="evenodd" clip-rule="evenodd" d="M212.849 92.288C212.725 91.52 213.243 90.9018 214.011 90.9018C214.779 90.9018 215.503 91.52 215.627 92.288C215.752 93.0621 215.227 93.6798 214.46 93.6798C213.693 93.6798 212.975 93.0621 212.849 92.288ZM209.302 70.3392C209.178 69.5711 209.694 68.9465 210.461 68.9465C211.229 68.9465 211.954 69.5711 212.078 70.3392C212.202 71.1063 211.679 71.731 210.912 71.731C210.144 71.731 209.426 71.1063 209.302 70.3392Z" fill="white"/>
<path fill-rule="evenodd" clip-rule="evenodd" d="M216.323 113.93C216.384 114.309 216.587 114.662 216.897 114.935C217.204 115.201 217.586 115.349 217.964 115.349C218.336 115.349 218.677 115.201 218.9 114.935C219.345 114.403 219.191 113.449 218.576 112.923C218.268 112.657 217.878 112.503 217.506 112.503C217.128 112.503 216.793 112.65 216.572 112.923C216.349 113.19 216.262 113.55 216.323 113.93Z" fill="white"/>
<path fill-rule="evenodd" clip-rule="evenodd" d="M262.422 130.355H1.48661C0.665264 130.355 0 129.571 0 128.604C0 127.637 0.665264 126.853 1.48661 126.853H262.422C263.243 126.853 263.908 127.637 263.908 128.604C263.908 129.571 263.243 130.355 262.422 130.355Z" fill="#191847"/>
</svg>
