<svg width="225" height="169" viewBox="0 0 225 169" fill="none" xmlns="http://www.w3.org/2000/svg">
<mask id="mask0" mask-type="alpha" maskUnits="userSpaceOnUse" x="0" y="0" width="225" height="169">
<path d="M225 0H0V169H225V0Z" fill="white"/>
</mask>
<g mask="url(#mask0)">
<path d="M225 0H0V169H225V0Z" fill="#ADA7F9"/>
<path d="M219 27H6V163H219V27Z" fill="white"/>
<path d="M153.315 19.8827H71.6856C70.0268 19.8827 68.6816 18.5381 68.6816 16.8798V10.7705C68.6816 9.11223 70.0268 7.76758 71.6856 7.76758H153.315C154.974 7.76758 156.319 9.11223 156.319 10.7705V16.8798C156.319 18.5381 154.974 19.8827 153.315 19.8827Z" fill="white"/>
<path d="M216.506 9.51H200.346C199.897 9.51 199.534 9.14682 199.534 8.6986C199.534 8.25039 199.897 7.88721 200.346 7.88721H216.506C216.954 7.88721 217.318 8.25039 217.318 8.6986C217.318 9.14682 216.954 9.51 216.506 9.51Z" fill="#6459E7"/>
<path d="M216.506 14.3767H200.346C199.897 14.3767 199.534 14.0135 199.534 13.5653C199.534 13.1171 199.897 12.7539 200.346 12.7539H216.506C216.954 12.7539 217.318 13.1171 217.318 13.5653C217.318 14.0135 216.954 14.3767 216.506 14.3767Z" fill="#6459E7"/>
<path d="M216.506 19.2441H200.346C199.897 19.2441 199.534 18.881 199.534 18.4327C199.534 17.9845 199.897 17.6213 200.346 17.6213H216.506C216.954 17.6213 217.318 17.9845 217.318 18.4327C217.318 18.881 216.954 19.2441 216.506 19.2441Z" fill="#6459E7"/>
<path d="M167.777 17.2156C166.409 17.2156 165.123 16.6832 164.157 15.7168C162.16 13.7211 162.16 10.4737 164.157 8.47803C165.123 7.51162 166.409 6.97925 167.777 6.97925C169.144 6.97925 170.43 7.51162 171.398 8.47803C173.393 10.4737 173.393 13.7211 171.398 15.7168C170.43 16.6832 169.144 17.2156 167.777 17.2156ZM167.777 8.74997C166.882 8.74997 166.042 9.09809 165.409 9.72967C164.103 11.0345 164.103 13.1586 165.409 14.4634C166.673 15.7275 168.878 15.7283 170.145 14.4634C171.45 13.1586 171.45 11.0345 170.145 9.72967C169.512 9.09809 168.671 8.74997 167.777 8.74997Z" fill="#6459E7"/>
<path d="M174.424 19.6825C174.197 19.6825 173.97 19.5956 173.797 19.4229L170.281 15.908C169.935 15.5617 169.935 15.001 170.281 14.6555C170.628 14.3092 171.188 14.3092 171.534 14.6555L175.05 18.1704C175.397 18.5167 175.397 19.0775 175.05 19.4229C174.877 19.5965 174.651 19.6825 174.424 19.6825Z" fill="#6459E7"/>
<path d="M14.8033 18.6975C14.65 18.6975 14.4967 18.6585 14.3602 18.5788L7.00361 14.3331C6.72891 14.1746 6.56055 13.8822 6.56055 13.566C6.56055 13.2498 6.72891 12.9566 7.00361 12.7989L14.3602 8.55325C14.634 8.39469 14.9725 8.39469 15.2463 8.55325C15.521 8.7118 15.6894 9.00412 15.6894 9.32035V17.8117C15.6894 18.1279 15.521 18.4211 15.2463 18.5788C15.1099 18.6576 14.9566 18.6975 14.8033 18.6975ZM9.21892 13.566L13.9171 16.2775V10.8546L9.21892 13.566Z" fill="#6459E7"/>
<path d="M25.8519 18.6975C25.6986 18.6975 25.5453 18.6585 25.4089 18.5788C25.1342 18.4202 24.9658 18.1279 24.9658 17.8117V9.32035C24.9658 9.00412 25.1342 8.71092 25.4089 8.55325C25.6827 8.39469 26.0212 8.39469 26.295 8.55325L33.6516 12.7989C33.9263 12.9575 34.0947 13.2498 34.0947 13.566C34.0947 13.8822 33.9263 14.1755 33.6516 14.3331L26.295 18.5788C26.1577 18.6576 26.0052 18.6975 25.8519 18.6975ZM26.7381 10.8546V16.2775L31.4363 13.566L26.7381 10.8546Z" fill="#6459E7"/>
<path d="M78.937 17.0633H74.2751C74.0305 17.0633 73.832 16.8649 73.832 16.6204C73.832 16.3759 74.0305 16.1775 74.2751 16.1775H78.937C79.1816 16.1775 79.3801 16.3759 79.3801 16.6204C79.3801 16.8649 79.1816 17.0633 78.937 17.0633Z" fill="#6459E7"/>
</g>
<path d="M38.4646 106.369H28.6943V132.774H38.4646V106.369Z" fill="#F9C346"/>
<path d="M52.7439 91.6582H42.9736V132.773H52.7439V91.6582Z" fill="#FF7A00"/>
<path d="M67.0242 95.4299H57.2539V132.773H67.0242V95.4299Z" fill="#FF9B21"/>
<path d="M81.3045 111.273H71.5342V132.773H81.3045V111.273Z" fill="#1FB573"/>
<path d="M95.5837 119.571H85.8135V132.773H95.5837V119.571Z" fill="#A5E7CA"/>
<path d="M106.289 139.177H21.7712C21.5935 139.177 21.4492 139.032 21.4492 138.854V71.3901C21.4492 71.2117 21.5935 71.0669 21.7712 71.0669C21.949 71.0669 22.0932 71.2117 22.0932 71.3901V138.531H106.289C106.467 138.531 106.611 138.676 106.611 138.854C106.611 139.032 106.467 139.177 106.289 139.177Z" fill="#ADA7F9" stroke="#D7D7D7" stroke-width="3"/>
<path d="M181.188 148.366C180.629 148.366 180.629 148.323 180.027 148.323C179.468 148.323 179.468 148.109 178.866 148.109C178.307 148.109 178.307 148.109 177.705 148.109C177.146 148.109 177.146 148.195 176.544 148.195C175.985 148.195 175.985 148.195 175.383 148.195C174.824 148.195 174.824 148.109 174.222 148.109C173.663 148.109 173.663 148.109 173.061 148.109C172.502 148.109 172.502 148.323 171.9 148.323C171.341 148.323 171.341 148.066 170.739 148.066C170.18 148.066 170.18 148.28 169.578 148.28C169.019 148.28 169.019 148.452 168.417 148.452C167.858 148.452 167.858 148.152 167.256 148.152C166.697 148.152 166.697 148.28 166.095 148.28C165.536 148.28 165.536 148.237 164.934 148.237C164.375 148.237 164.375 148.195 163.773 148.195C163.214 148.195 163.214 148.366 162.612 148.366C162.053 148.366 162.053 148.409 161.451 148.409C160.892 148.409 160.892 148.452 160.29 148.452C159.731 148.452 159.731 148.109 159.129 148.109C158.57 148.109 158.57 148.323 157.968 148.323C157.409 148.323 157.409 148.452 156.807 148.452C156.248 148.452 156.248 148.109 155.646 148.109C155.087 148.109 155.087 148.152 154.485 148.152C153.926 148.152 153.926 148.323 153.324 148.323C152.765 148.323 152.765 148.237 152.163 148.237C151.604 148.237 151.604 148.109 151.002 148.109C150.443 148.109 150.443 148.452 149.841 148.452C149.282 148.452 149.282 148.109 148.68 148.109C148.121 148.109 148.121 148.066 147.519 148.066C146.96 148.066 146.96 148.066 146.358 148.066C145.799 148.066 145.799 148.323 145.197 148.323C144.638 148.323 144.638 148.195 144.036 148.195C143.477 148.195 143.477 148.237 142.875 148.237C142.316 148.237 142.316 148.152 141.714 148.152C141.155 148.152 141.155 148.237 140.553 148.237C139.994 148.237 139.994 148.152 139.392 148.152C138.833 148.152 138.833 148.237 138.231 148.237C137.672 148.237 137.672 148.152 137.07 148.152C136.511 148.152 136.511 148.28 135.909 148.28C135.35 148.28 135.35 148.066 134.748 148.066C134.189 148.066 134.189 148.195 133.587 148.195C133.028 148.195 133.028 148.195 132.426 148.195C131.867 148.195 131.867 148.195 131.265 148.195C130.706 148.195 130.706 148.366 130.104 148.366C129.545 148.366 129.545 148.109 128.943 148.109C128.384 148.109 128.384 148.28 127.782 148.28C127.223 148.28 127.223 148.152 126.621 148.152C126.062 148.152 126.062 148.409 125.46 148.409C124.901 148.409 124.901 148.109 124.299 148.109C123.74 148.109 123.74 148.28 123.138 148.28C122.579 148.28 122.579 148.237 121.977 148.237C121.418 148.237 121.418 148.109 120.816 148.109C120.257 148.109 120.085 148.623 119.655 148.237C119.268 147.852 119.87 147.68 119.87 147.081C119.87 146.524 119.698 146.523 119.698 145.924C119.698 145.367 119.483 145.367 119.483 144.767C119.483 144.21 119.827 144.21 119.827 143.61C119.827 143.053 119.698 143.053 119.698 142.453C119.698 141.896 119.827 141.896 119.827 141.296C119.827 140.739 119.526 140.739 119.526 140.139C119.526 139.582 119.483 139.582 119.483 138.983C119.483 138.426 119.827 138.426 119.827 137.826C119.827 137.269 119.655 137.269 119.655 136.669C119.655 136.112 119.655 136.112 119.655 135.512C119.655 134.955 119.483 134.955 119.483 134.355C119.483 133.798 119.483 133.798 119.483 133.198C119.483 132.641 119.569 132.641 119.569 132.041C119.569 131.484 119.655 131.484 119.655 130.885C119.655 130.328 119.784 130.328 119.784 129.728C119.784 129.171 119.741 129.171 119.741 128.571C119.741 128.014 119.397 128.014 119.397 127.414C119.397 126.857 119.44 126.857 119.44 126.257C119.44 125.7 119.612 125.7 119.612 125.1C119.612 124.543 119.827 124.543 119.827 123.944C119.827 123.387 119.784 123.387 119.784 122.787C119.784 122.23 119.44 122.23 119.44 121.63C119.44 121.073 119.612 121.073 119.612 120.473C119.612 119.916 119.526 119.916 119.526 119.316C119.526 118.759 119.483 118.759 119.483 118.159C119.483 117.602 119.44 117.602 119.44 117.002C119.44 116.445 119.741 116.445 119.741 115.846C119.741 115.289 119.698 115.289 119.698 114.689C119.698 114.132 119.44 114.132 119.44 113.532C119.44 112.975 119.784 112.975 119.784 112.375C119.784 111.818 119.698 111.818 119.698 111.218C119.698 110.661 119.784 110.661 119.784 110.061C119.784 109.504 119.784 109.504 119.784 108.904C119.784 108.347 119.784 108.347 119.784 107.748C119.784 107.191 119.827 107.191 119.827 106.591C119.827 106.034 119.44 106.034 119.44 105.434C119.44 104.877 119.741 104.877 119.741 104.277C119.741 103.72 119.397 103.72 119.397 103.12C119.397 102.563 119.44 102.563 119.44 101.963C119.44 101.406 119.655 101.406 119.655 100.807C119.655 100.25 119.526 100.25 119.526 99.6497C119.526 99.0927 119.655 99.0927 119.655 98.4929C119.655 97.9358 119.483 97.9359 119.483 97.336C119.483 96.779 119.612 96.779 119.612 96.1792C119.612 95.6222 119.698 95.6222 119.698 95.0223C119.698 94.4653 119.612 94.4653 119.612 93.8655C119.612 93.3085 119.612 93.3085 119.612 92.7086C119.612 92.1516 119.569 92.1516 119.569 91.5518C119.569 90.9948 119.569 90.9948 119.569 90.3949C119.569 89.8379 119.354 89.8379 119.354 89.2381C119.354 88.6811 119.612 88.6811 119.612 88.0812C119.612 87.5242 119.698 87.5242 119.698 86.9244C119.698 86.3674 119.698 86.3674 119.698 85.7675C119.698 85.2105 119.483 85.2105 119.483 84.6107C119.483 84.0537 119.354 84.0537 119.354 83.4538C119.354 82.8968 119.698 82.8968 119.698 82.297C119.698 81.74 119.569 81.74 119.569 81.1401C119.569 80.5831 119.655 80.5831 119.655 79.9833C119.655 79.4263 119.698 79.4263 119.698 78.8264C119.698 78.2694 119.655 78.2694 119.655 77.6696C119.655 77.1126 119.698 77.1126 119.698 76.5127C119.698 75.9557 119.397 75.9557 119.397 75.3559C119.397 74.7989 119.698 74.7989 119.698 74.199C119.698 73.642 119.397 73.642 119.397 73.0422C119.397 72.4852 119.526 72.4852 119.526 71.8853C119.526 71.3283 119.483 71.3283 119.483 70.7285C119.483 70.1715 119.397 70.1715 119.397 69.5716C119.397 69.0146 119.612 69.0146 119.612 68.4148C119.612 67.8578 119.827 67.8578 119.827 67.2579C119.827 66.7009 119.784 66.7009 119.784 66.1011C119.784 65.5441 119.526 65.5441 119.526 64.9442C119.526 64.3872 119.827 64.3872 119.827 63.7874C119.827 63.2304 119.483 63.2304 119.483 62.6305C119.483 62.0735 119.784 62.0735 119.784 61.4737C119.784 60.9167 119.526 60.9167 119.526 60.3168C119.526 59.7598 119.483 59.7598 119.483 59.16C119.483 58.603 119.784 58.603 119.784 58.0031C119.784 57.4461 119.612 57.4461 119.612 56.8463C119.612 56.2893 119.784 56.2893 119.784 55.6894C119.784 55.1324 119.526 55.1324 119.526 54.5326C119.526 53.9756 119.526 53.9756 119.526 53.3757C119.526 52.7759 119.483 52.8187 119.483 52.2189C119.483 51.8333 119.655 51.4477 119.698 51.062C119.741 50.6764 119.827 50.2908 119.913 49.948C119.999 49.5624 120.171 49.2197 120.3 48.8769C120.429 48.5341 120.73 48.2342 120.902 47.8914C121.074 47.5487 120.945 47.0345 121.16 46.7346C121.375 46.4347 121.676 46.1347 121.934 45.8348C122.192 45.5349 122.708 45.5349 122.966 45.2778C123.267 45.0207 123.525 44.7636 123.826 44.5494C124.127 44.3352 124.385 43.9924 124.686 43.821C125.03 43.6496 125.417 43.564 125.761 43.4354C126.105 43.3069 126.449 43.0498 126.836 42.9641C127.223 42.8784 127.567 42.7499 127.954 42.707C128.341 42.6642 128.728 42.5356 129.115 42.5356C129.674 42.5356 129.674 42.8784 130.276 42.8784C131.738 44.2495 131.738 44.0781 132.297 44.0781C132.856 44.0781 132.856 43.8639 133.458 43.8639C134.017 43.8639 134.017 43.9067 134.619 43.9067C135.178 43.9067 135.178 44.0353 135.78 44.0353C136.339 44.0353 136.339 44.0353 136.941 44.0353C137.5 44.0353 137.5 44.2495 138.102 44.2495C138.661 44.2495 138.661 43.9924 139.263 43.9924C139.822 43.9924 139.822 43.9496 140.424 43.9496C140.983 43.9496 140.983 44.2923 141.585 44.2923C142.144 44.2923 142.144 43.9067 142.746 43.9067C143.219 43.8639 143.219 44.0781 143.778 44.0781C144.337 44.0781 144.337 44.1638 144.939 44.1638C145.498 44.1638 145.498 44.121 146.1 44.121C146.659 44.121 146.659 44.0353 147.261 44.0353C147.82 44.0353 147.82 44.121 148.422 44.121C148.981 44.121 148.981 44.1638 149.583 44.1638C150.142 44.1638 150.142 44.1638 150.744 44.1638C151.303 44.1638 151.303 44.1638 151.905 44.1638C152.464 44.1638 152.464 44.0353 153.066 44.0353C153.625 44.0353 153.625 44.121 154.227 44.121C154.786 44.121 154.786 44.121 155.388 44.121C155.947 44.121 155.947 44.1638 156.549 44.1638C157.108 44.1638 157.108 43.9067 157.71 43.9067C158.269 43.9067 158.269 43.9067 158.871 43.9067C159.43 43.9067 159.43 44.0781 160.032 44.0781C160.591 44.0781 160.591 44.2495 161.193 44.2495C161.752 44.2495 161.752 44.121 162.354 44.121C162.913 44.121 162.913 44.1638 163.515 44.1638C164.074 44.1638 164.074 44.1638 164.676 44.1638C165.235 44.1638 165.235 44.1638 165.837 44.1638C166.396 44.1638 166.396 44.2066 166.998 44.2066C167.557 44.2066 167.557 43.9496 168.159 43.9496C168.718 43.9496 168.718 44.2923 169.32 44.2923C169.879 44.2923 169.879 44.2495 170.481 44.2495C171.04 44.2495 171.04 44.2923 171.642 44.2923C172.201 44.2923 172.201 44.2066 172.803 44.2066C173.362 44.2066 173.362 44.1638 173.964 44.1638C174.523 44.1638 174.523 43.9924 175.125 43.9924C175.684 43.9924 175.684 43.9496 176.286 43.9496C176.845 43.9496 176.845 43.9924 177.447 43.9924C178.006 43.9924 178.006 43.9924 178.608 43.9924C179.167 43.9924 179.167 44.0781 179.769 44.0781C180.328 44.0781 180.328 44.3352 180.93 44.3352C181.489 44.3352 181.489 44.0781 182.091 44.0781C182.65 44.0781 182.65 44.0781 183.252 44.0781C183.811 44.0781 183.811 44.2066 184.413 44.2066C184.972 44.2066 184.972 43.9496 185.574 43.9496C186.133 43.9496 186.133 44.2066 186.735 44.2066C187.294 44.2066 187.294 44.2495 187.896 44.2495C188.455 44.2495 188.455 44.2495 189.057 44.2495C189.616 44.2495 189.616 44.2495 190.218 44.2495C190.777 44.2495 190.777 44.121 191.379 44.121C191.938 44.121 191.938 44.0781 192.54 44.0781C193.099 44.0781 193.099 44.378 193.701 44.378C194.26 44.378 194.26 44.121 194.862 44.121C195.421 44.121 195.421 44.2066 196.023 44.2066C196.582 44.2066 196.582 44.121 197.184 44.121C197.743 44.121 197.743 44.378 198.345 44.378C198.904 44.378 198.904 44.0781 199.506 44.0781C200.108 44.0781 200.28 43.7353 200.538 44.2495C200.796 44.7636 200.28 44.6351 199.979 45.1064C199.635 45.5777 199.721 45.6206 199.377 46.0919C199.033 46.5632 198.904 46.4775 198.56 46.9488C198.216 47.4201 198.173 47.3773 197.829 47.8486C197.485 48.3199 197.829 48.5341 197.485 49.0054C197.141 49.4767 196.969 49.3482 196.625 49.8195C196.281 50.2908 196.238 50.248 195.894 50.7193C195.55 51.1906 195.636 51.2334 195.292 51.7047C194.948 52.1761 195.12 52.3046 194.776 52.7759C194.432 53.2472 194.217 53.0758 193.873 53.5471C193.529 54.0184 193.572 54.0613 193.228 54.5326C192.884 55.0039 192.927 55.0039 192.583 55.4752C192.239 55.9465 192.282 55.9894 191.938 56.4607C191.594 56.932 191.336 56.8034 191.164 57.3604C190.992 57.9174 191.293 57.9603 191.293 58.5173C191.293 59.0743 191.207 59.0743 191.207 59.6741C191.207 60.2311 191.035 60.2311 191.035 60.831C191.035 61.388 191.25 61.388 191.25 61.9878C191.25 62.5448 191.293 62.5448 191.293 63.1447C191.293 63.7017 191.422 63.7017 191.422 64.3015C191.422 64.8585 191.293 64.8585 191.293 65.4584C191.293 66.0154 191.293 66.0154 191.293 66.6152C191.293 67.1722 191.078 67.1722 191.078 67.7721C191.078 68.3291 191.379 68.3291 191.379 68.9289C191.379 69.4859 191.035 69.4859 191.035 70.0858C191.035 70.6428 191.078 70.6428 191.078 71.2426C191.078 71.7996 190.992 71.7996 190.992 72.3995C190.992 72.9565 191.336 72.9565 191.336 73.5563C191.336 74.1133 191.164 74.1133 191.164 74.7132C191.164 75.2702 191.078 75.2702 191.078 75.87C191.078 76.427 191.379 76.427 191.379 77.0269C191.379 77.5839 191.379 77.5839 191.379 78.1837C191.379 78.7407 190.992 78.7407 190.992 79.3406C190.992 79.8976 191.422 79.8976 191.422 80.4974C191.422 81.0544 191.078 81.0544 191.078 81.6543C191.078 82.2113 191.035 82.2113 191.035 82.8111C191.035 83.3681 191.336 83.3681 191.336 83.968C191.336 84.525 191.422 84.525 191.422 85.1248C191.422 85.6818 191.121 85.6818 191.121 86.2817C191.121 86.8387 191.25 86.8387 191.25 87.4385C191.25 87.9955 191.379 87.9955 191.379 88.5954C191.379 89.1524 191.164 89.1524 191.164 89.7522C191.164 90.3092 191.422 90.3092 191.422 90.9091C191.422 91.4661 191.121 91.4661 191.121 92.0659C191.121 92.6229 191.422 92.6229 191.422 93.2228C191.422 93.7798 191.336 93.7798 191.336 94.3796C191.336 94.9366 191.508 94.9366 191.508 95.5365C191.508 96.0935 191.121 96.0935 191.121 96.6933C191.121 97.2503 191.293 97.2503 191.293 97.8502C191.293 98.4072 191.422 98.4072 191.422 99.007C191.422 99.564 191.508 99.564 191.508 100.164C191.508 100.721 191.379 100.721 191.379 101.321C191.379 101.878 191.379 101.878 191.379 102.478C191.379 103.035 191.25 103.035 191.25 103.634C191.25 104.191 191.379 104.191 191.379 104.791C191.379 105.348 191.336 105.348 191.336 105.948C191.336 106.505 191.336 106.505 191.336 107.105C191.336 107.662 191.422 107.662 191.422 108.262C191.422 108.819 191.508 108.819 191.508 109.419C191.508 109.976 191.422 109.976 191.422 110.575C191.422 111.132 191.551 111.132 191.551 111.732C191.551 112.289 191.379 112.289 191.379 112.889C191.379 113.446 191.508 113.446 191.508 114.046C191.508 114.603 191.207 114.603 191.207 115.203C191.207 115.76 191.379 115.76 191.379 116.36C191.379 116.917 191.293 116.917 191.293 117.517C191.293 118.074 191.508 118.074 191.508 118.673C191.508 119.23 191.207 119.23 191.207 119.83C191.207 120.387 191.508 120.387 191.508 120.987C191.508 121.544 191.25 121.544 191.25 122.144C191.25 122.701 191.551 122.701 191.551 123.301C191.551 123.858 191.25 123.858 191.25 124.458C191.25 125.015 191.508 125.015 191.508 125.615C191.508 126.172 191.164 126.172 191.164 126.771C191.164 127.328 191.293 127.328 191.293 127.928C191.293 128.485 191.207 128.485 191.207 129.085C191.207 129.642 191.422 129.642 191.422 130.242C191.422 130.799 191.164 130.799 191.164 131.399C191.164 131.956 191.422 131.956 191.422 132.556C191.422 133.113 191.207 133.113 191.207 133.712C191.207 134.269 191.551 134.269 191.551 134.869C191.551 135.426 191.379 135.426 191.379 136.026C191.379 136.583 191.25 136.583 191.25 137.183C191.25 137.74 191.422 137.74 191.422 138.34C191.422 138.94 191.207 138.897 191.207 139.497C191.207 139.882 191.465 140.268 191.422 140.654C191.379 141.039 191.164 141.382 191.078 141.768C190.992 142.153 190.82 142.496 190.691 142.839C190.562 143.181 190.39 143.524 190.218 143.867C190.046 144.21 190.003 144.638 189.788 144.938C189.573 145.238 189.143 145.41 188.885 145.667C188.627 145.966 188.455 146.309 188.154 146.566C187.853 146.823 187.681 147.209 187.38 147.466C187.079 147.68 186.735 147.895 186.391 148.066C186.047 148.237 185.617 148.195 185.23 148.323C184.886 148.452 184.585 148.837 184.198 148.923C183.811 149.009 183.381 148.709 182.994 148.752C181.919 148.066 181.575 148.366 181.188 148.366Z" fill="#A5E7CA"/>
<path d="M140.555 60.0641C140.231 59.7407 139.705 59.7407 139.38 60.0641L132.331 67.091L129.491 64.2599C129.166 63.9365 128.64 63.9365 128.316 64.2599C127.991 64.5833 127.991 65.1077 128.316 65.4311L131.743 68.8479C131.905 69.0096 132.118 69.0905 132.331 69.0905C132.544 69.0905 132.756 69.0096 132.918 68.8479L140.556 61.2353C140.88 60.9117 140.88 60.3875 140.555 60.0641Z" fill="#0C8751"/>
<path d="M140.555 73.65C140.231 73.3266 139.705 73.3266 139.38 73.65L132.331 80.6769L129.491 77.8458C129.166 77.5224 128.64 77.5224 128.316 77.8458C127.991 78.1692 127.991 78.6937 128.316 79.017L131.743 82.4338C131.905 82.5955 132.118 82.6764 132.331 82.6764C132.544 82.6764 132.756 82.5955 132.918 82.4338L140.556 74.8212C140.88 74.4976 140.88 73.9734 140.555 73.65Z" fill="#0C8751"/>
<path d="M140.555 87.236C140.231 86.9126 139.705 86.9126 139.38 87.236L132.331 94.2628L129.491 91.4318C129.166 91.1084 128.64 91.1084 128.316 91.4318C127.991 91.7552 127.991 92.2796 128.316 92.603L131.743 96.0197C131.905 96.1814 132.118 96.2624 132.331 96.2624C132.544 96.2624 132.756 96.1814 132.918 96.0197L140.556 88.4072C140.88 88.0836 140.88 87.5593 140.555 87.236Z" fill="#0C8751"/>
<path d="M140.555 100.822C140.231 100.499 139.705 100.499 139.38 100.822L132.331 107.849L129.491 105.018C129.166 104.695 128.64 104.695 128.316 105.018C127.991 105.341 127.991 105.866 128.316 106.189L131.743 109.606C131.905 109.768 132.118 109.849 132.331 109.849C132.544 109.849 132.756 109.768 132.918 109.606L140.556 101.993C140.88 101.67 140.88 101.146 140.555 100.822Z" fill="#0C8751"/>
<path d="M209.298 63.3306C208.871 63.7186 208.785 63.3306 208.186 63.3306C207.587 63.3306 207.587 63.3306 207.03 63.3306C206.431 63.3306 206.431 63.6324 205.875 63.6324C205.276 63.6324 205.276 63.3306 204.719 63.3306C204.12 63.3306 204.12 63.2444 203.564 63.2444C202.965 63.2444 202.965 63.4168 202.409 63.4168C201.809 63.4168 201.809 63.5461 201.253 63.5461C200.654 63.5461 200.654 63.3737 200.098 63.3737C199.499 63.3737 199.499 63.3306 198.942 63.3306C198.343 63.3306 198.343 63.5892 197.787 63.5892C197.188 63.5892 197.188 63.2444 196.631 63.2444C196.032 63.2444 196.032 63.3737 195.476 63.3737C194.877 63.3737 194.877 63.5461 194.32 63.5461C193.721 63.5461 193.721 63.2875 193.165 63.2875C192.566 63.2875 192.566 63.5461 192.01 63.5461C191.41 63.5461 191.154 63.9772 190.726 63.5461C190.341 63.1582 190.811 62.8996 190.811 62.3392C190.811 61.7789 190.64 61.7789 190.64 61.2616C190.64 60.7013 190.811 60.7013 190.811 60.184C190.811 59.6237 190.897 59.6237 190.897 59.1064C190.897 58.5461 190.811 58.5461 190.811 58.0288C190.811 57.4685 191.025 57.4685 191.025 56.9512C191.025 56.3909 190.94 56.3909 190.94 55.8736C190.94 55.3133 191.068 55.3133 191.068 54.796C191.068 54.2788 190.683 54.2357 190.683 53.7184C190.683 53.3305 190.769 52.9425 190.811 52.5546C190.854 52.1667 191.239 51.8649 191.325 51.477C191.41 51.0891 191.325 50.658 191.453 50.3132C191.582 49.9684 191.838 49.6666 192.01 49.3218C192.181 48.977 192.437 48.6752 192.651 48.3735C192.865 48.0718 192.951 47.6407 193.208 47.339C193.465 47.0373 193.764 46.8218 194.064 46.5631C194.363 46.3045 194.791 46.3045 195.091 46.089C195.39 45.8735 195.604 45.4855 195.947 45.3131C196.289 45.1407 196.631 44.9683 196.974 44.839C197.316 44.7097 197.744 44.7959 198.086 44.6666C198.472 44.5803 198.814 44.5372 199.199 44.4941C199.584 44.451 199.927 44.1924 200.312 44.1924V44.1062C200.697 44.1062 201.082 44.2355 201.467 44.2786C201.852 44.3217 202.237 44.3217 202.623 44.4079C203.008 44.4941 203.307 44.7959 203.65 44.9252C203.992 45.0545 204.334 45.2269 204.677 45.3993C205.019 45.5717 205.447 45.5717 205.747 45.7873C206.046 46.0028 206.388 46.2183 206.688 46.4769C206.988 46.7356 206.945 47.2959 207.202 47.5545C207.458 47.8563 207.843 47.9856 208.057 48.2873C208.271 48.589 208.443 48.9339 208.614 49.2787C208.785 49.6235 208.999 49.9253 209.127 50.3132C209.256 50.658 209.17 51.0891 209.256 51.477C209.341 51.8649 209.641 52.1667 209.684 52.5546C209.726 52.9425 209.855 53.3305 209.855 53.7184C209.855 54.2788 209.769 54.2788 209.769 54.796C209.769 55.3564 209.641 55.3564 209.641 55.8736C209.641 56.434 209.855 56.434 209.855 56.9512C209.855 57.5116 209.769 57.5116 209.769 58.0288C209.769 58.5892 209.855 58.5892 209.855 59.1064C209.855 59.6668 209.726 59.6668 209.726 60.184C209.726 60.7444 209.812 60.7444 209.812 61.2616C209.812 61.822 209.384 61.8651 209.47 62.3823C209.299 62.8565 209.684 62.9427 209.298 63.3306Z" fill="#0C8751"/>
<path d="M174.463 145.586C174.764 145.886 175.109 146.1 175.41 146.358C175.754 146.615 176.141 146.744 176.485 146.958C176.829 147.173 177.087 147.559 177.475 147.731C177.862 147.902 178.292 147.859 178.722 147.988C179.109 148.074 179.539 148.074 179.927 148.117C180.314 148.16 180.744 148.16 181.131 148.16C180.572 148.16 180.572 148.203 179.97 148.203C179.41 148.203 179.41 148.374 178.808 148.374C178.249 148.374 178.249 148.16 177.647 148.16C177.087 148.16 177.087 148.117 176.485 148.117C175.926 148.117 175.926 148.16 175.324 148.16C174.764 148.16 174.764 148.417 174.162 148.417C173.603 148.417 173.603 148.117 173.001 148.117C172.441 148.117 172.441 148.331 171.839 148.331C171.28 148.331 171.28 148.374 170.678 148.374C170.118 148.374 170.118 148.203 169.516 148.203C168.957 148.203 168.957 148.117 168.355 148.117C167.795 148.117 167.795 148.331 167.193 148.331C166.634 148.331 166.634 148.374 166.032 148.374C165.473 148.374 165.472 148.46 164.87 148.46C164.311 148.46 164.311 148.117 163.709 148.117C163.15 148.117 163.15 148.417 162.547 148.417C161.988 148.417 161.988 148.203 161.386 148.203C160.827 148.203 160.827 148.417 160.224 148.417C159.665 148.417 159.665 148.288 159.063 148.288C158.504 148.288 158.504 148.288 157.901 148.288C157.342 148.288 157.342 148.417 156.74 148.417C156.181 148.417 156.181 148.46 155.578 148.46C155.019 148.46 155.019 148.46 154.417 148.46C153.858 148.46 153.858 148.417 153.255 148.417C152.696 148.417 152.696 148.331 152.094 148.331C151.535 148.331 151.535 148.288 150.932 148.288C150.373 148.288 150.373 148.203 149.771 148.203C149.212 148.203 149.212 148.16 148.609 148.16C148.05 148.16 148.05 148.331 147.448 148.331C146.889 148.331 146.889 148.117 146.286 148.117C145.727 148.117 145.727 148.16 145.125 148.16C144.566 148.16 144.566 148.203 143.963 148.203C143.404 148.203 143.404 148.246 142.802 148.246C142.243 148.246 142.243 148.503 141.64 148.503C141.081 148.503 141.081 148.246 140.479 148.246C139.92 148.246 139.92 148.46 139.318 148.46C138.758 148.46 138.758 148.417 138.156 148.417C137.597 148.417 137.597 148.374 136.995 148.374C136.435 148.374 136.435 148.246 135.833 148.246C135.274 148.246 135.274 148.417 134.672 148.417C134.112 148.417 134.112 148.503 133.51 148.503C132.951 148.503 132.951 148.203 132.349 148.203C131.789 148.203 131.789 148.503 131.187 148.503C130.628 148.503 130.628 148.16 130.026 148.16C129.466 148.16 129.466 148.331 128.864 148.331C128.305 148.331 128.305 148.503 127.703 148.503C127.143 148.503 127.143 148.417 126.541 148.417C125.982 148.417 125.982 148.246 125.38 148.246C124.82 148.246 124.82 148.16 124.218 148.16C123.659 148.16 123.659 148.374 123.057 148.374C122.497 148.374 122.497 148.503 121.895 148.503C121.336 148.503 121.336 148.503 120.734 148.503C120.174 148.503 120.174 148.117 119.572 148.117C119.013 148.117 119.013 148.417 118.411 148.417C117.852 148.417 117.852 148.288 117.249 148.288C116.69 148.288 116.69 148.16 116.088 148.16C115.529 148.16 115.529 148.417 114.926 148.417C114.367 148.417 114.367 148.246 113.765 148.246C113.206 148.246 113.206 148.203 112.603 148.203C112.044 148.203 112.044 148.546 111.442 148.546C110.883 148.546 110.883 148.246 110.28 148.246C109.893 148.246 109.506 148.417 109.119 148.374C108.732 148.331 108.345 148.203 108 148.117C107.613 148.031 107.312 147.816 106.925 147.688C106.581 147.559 106.194 147.473 105.849 147.302C105.505 147.13 105.075 147.044 104.774 146.83C104.473 146.615 104.258 146.229 104 145.972C103.699 145.714 103.397 145.5 103.139 145.199C102.881 144.899 102.838 144.47 102.623 144.17C102.408 143.87 102.021 143.655 101.849 143.312C101.677 142.969 101.634 142.582 101.505 142.196C101.376 141.853 101.16 141.51 101.074 141.124C100.988 140.738 100.773 140.395 100.73 140.008C100.687 139.622 100.945 139.236 100.945 138.85C100.945 138.292 100.859 138.292 100.859 137.778C100.859 137.22 100.73 137.22 100.73 136.705C100.73 136.147 100.816 136.147 100.816 135.632C100.816 135.075 100.945 135.075 100.945 134.56C100.945 134.002 100.945 134.002 100.945 133.487C100.945 132.93 100.859 132.93 100.859 132.415C100.859 131.857 100.73 131.857 100.73 131.342C100.73 130.785 100.902 130.785 100.902 130.27C100.902 129.755 100.429 129.497 100.816 129.111C101.247 128.725 101.462 129.026 102.021 129.026C102.58 129.026 102.58 129.326 103.182 129.326C103.742 129.326 103.742 129.197 104.344 129.197C104.903 129.197 104.903 129.111 105.505 129.111C106.065 129.111 106.065 129.197 106.667 129.197C107.226 129.197 107.226 128.983 107.828 128.983C108.388 128.983 108.388 129.24 108.99 129.24C109.549 129.24 109.549 129.24 110.151 129.24C110.711 129.24 110.711 129.111 111.313 129.111C111.872 129.111 111.872 129.24 112.474 129.24C113.033 129.24 113.033 129.068 113.636 129.068C114.195 129.068 114.195 129.197 114.797 129.197C115.356 129.197 115.356 128.983 115.959 128.983C116.518 128.983 116.518 129.026 117.12 129.026C117.679 129.026 117.679 129.154 118.282 129.154C118.841 129.154 118.841 129.068 119.443 129.068C120.002 129.068 120.002 129.154 120.605 129.154C121.164 129.154 121.164 129.111 121.766 129.111C122.325 129.111 122.325 129.283 122.928 129.283C123.487 129.283 123.487 129.111 124.089 129.111C124.648 129.111 124.648 129.068 125.251 129.068C125.81 129.068 125.81 129.068 126.412 129.068C126.971 129.068 126.971 128.94 127.574 128.94C128.133 128.94 128.133 129.24 128.735 129.24C129.294 129.24 129.294 129.111 129.897 129.111C130.456 129.111 130.456 129.154 131.058 129.154C131.617 129.154 131.617 128.983 132.22 128.983C132.779 128.983 132.779 129.283 133.381 129.283C133.94 129.283 133.94 128.94 134.543 128.94C135.102 128.94 135.102 129.24 135.704 129.24C136.263 129.24 136.263 128.983 136.865 128.983C137.425 128.983 137.425 129.369 138.027 129.369C138.586 129.369 138.586 128.94 139.188 128.94C139.748 128.94 139.748 128.983 140.35 128.983C140.909 128.983 140.909 129.197 141.511 129.197C142.071 129.197 142.071 129.111 142.673 129.111C143.232 129.111 143.232 129.068 143.834 129.068C144.394 129.068 144.394 129.197 144.996 129.197C145.555 129.197 145.555 129.24 146.157 129.24C146.717 129.24 146.717 129.026 147.319 129.026C147.878 129.026 147.878 129.24 148.48 129.24C149.04 129.24 149.04 129.283 149.642 129.283C150.201 129.283 150.201 129.326 150.803 129.326C151.363 129.326 151.363 129.197 151.965 129.197C152.524 129.197 152.524 129.068 153.126 129.068C153.686 129.068 153.686 129.326 154.288 129.326C154.847 129.326 154.847 129.068 155.449 129.068C156.009 129.068 156.009 129.326 156.611 129.326C157.17 129.326 157.17 129.412 157.772 129.412C158.332 129.412 158.331 129.24 158.934 129.24C159.493 129.24 159.493 129.283 160.095 129.283C160.654 129.283 160.654 129.24 161.257 129.24C161.816 129.24 161.816 129.412 162.418 129.412C162.977 129.412 162.977 129.24 163.58 129.24C164.139 129.24 164.139 129.283 164.741 129.283C165.3 129.283 165.3 129.412 165.903 129.412C166.462 129.412 166.462 129.154 167.064 129.154C167.623 129.154 167.623 129.154 168.226 129.154C168.785 129.154 168.785 129.412 169.387 129.412C169.946 129.412 169.946 129.026 170.549 129.026C171.151 129.026 171.323 128.768 171.753 129.154C172.14 129.54 171.753 129.755 171.753 130.27C171.753 130.827 171.796 130.827 171.796 131.342C171.796 131.9 171.581 131.9 171.581 132.415C171.581 132.973 171.796 132.973 171.796 133.487C171.796 134.045 171.71 134.045 171.71 134.56C171.71 135.118 171.753 135.118 171.753 135.632C171.753 136.19 171.882 136.19 171.882 136.705C171.882 137.263 171.839 137.263 171.839 137.778C171.839 138.335 171.624 138.335 171.624 138.85C171.624 139.279 171.667 139.665 171.753 140.094C171.796 140.523 172.14 140.866 172.269 141.253C172.355 141.639 172.398 142.068 172.57 142.454C172.743 142.84 173.001 143.14 173.216 143.483C173.431 143.827 173.603 144.213 173.818 144.513C174.033 144.899 174.162 145.285 174.463 145.586Z" fill="#0C8751"/>
<path d="M180.695 69.0534C180.384 69.5016 180.28 68.9638 179.831 68.9638C179.381 68.9638 179.381 69.2775 178.932 69.2775C178.482 69.2775 178.482 69.1431 178.033 69.1431C177.583 69.1431 177.583 68.919 177.134 68.919C176.684 68.919 176.684 68.9638 176.235 68.9638C175.786 68.9638 175.786 68.919 175.336 68.919C174.887 68.919 174.887 69.2775 174.437 69.2775C173.988 69.2775 173.988 69.3223 173.538 69.3223C173.089 69.3223 173.089 69.0086 172.64 69.0086C172.19 69.0086 172.19 69.1879 171.741 69.1879C171.291 69.1879 171.291 69.3672 170.842 69.3672C170.392 69.3672 170.392 69.2775 169.943 69.2775C169.493 69.2775 169.493 69.1431 169.044 69.1431C168.595 69.1431 168.595 69.0534 168.145 69.0534C167.696 69.0534 167.696 69.2775 167.246 69.2775C166.797 69.2775 166.797 69.0983 166.347 69.0983C165.898 69.0983 165.898 69.2327 165.448 69.2327C164.999 69.2327 164.999 69.2327 164.55 69.2327C164.1 69.2327 164.1 69.1879 163.651 69.1879C163.201 69.1879 163.201 69.2775 162.752 69.2775C162.302 69.2775 162.302 69.0983 161.853 69.0983C161.403 69.0983 161.403 69.3223 160.954 69.3223C160.505 69.3223 160.505 69.3223 160.055 69.3223C159.606 69.3223 159.606 69.3223 159.156 69.3223C158.707 69.3223 158.707 69.2327 158.257 69.2327C157.808 69.2327 157.808 69.1431 157.359 69.1431C156.909 69.1431 156.909 69.0086 156.46 69.0086C156.01 69.0086 156.01 69.0983 155.561 69.0983C155.111 69.0983 155.111 69.1431 154.662 69.1431C154.212 69.1431 154.212 69.0534 153.763 69.0534C153.314 69.0534 153.314 69.2775 152.864 69.2775C152.415 69.2775 152.415 69.0086 151.965 69.0086C151.516 69.0086 151.516 69.2775 151.066 69.2775C150.617 69.2775 150.617 69.1879 150.167 69.1879C149.718 69.1879 149.718 69.3672 149.269 69.3672C148.819 69.3672 148.819 69.2775 148.37 69.2775C147.92 69.2775 147.92 69.412 147.471 69.412C147.021 69.412 146.952 69.5464 146.641 69.0983C146.295 68.6053 146.33 68.4708 146.676 67.9778C146.987 67.5296 147.021 67.7089 147.471 67.7089C147.92 67.7089 147.92 67.8882 148.37 67.8882C148.819 67.8882 148.819 67.6641 149.269 67.6641C149.718 67.6641 149.718 67.7537 150.167 67.7537C150.617 67.7537 150.617 67.9778 151.066 67.9778C151.516 67.9778 151.516 67.7985 151.965 67.7985C152.415 67.7985 152.415 67.7537 152.864 67.7537C153.314 67.7537 153.314 68.0674 153.763 68.0674C154.212 68.0674 154.212 67.8882 154.662 67.8882C155.111 67.8882 155.111 68.0674 155.561 68.0674C156.01 68.0674 156.01 67.933 156.46 67.933C156.909 67.933 156.909 67.7985 157.359 67.7985C157.808 67.7985 157.808 67.7089 158.257 67.7089C158.707 67.7089 158.707 67.7537 159.156 67.7537C159.606 67.7537 159.606 68.0226 160.055 68.0226C160.505 68.0226 160.505 67.7537 160.954 67.7537C161.403 67.7537 161.403 67.8433 161.853 67.8433C162.302 67.8433 162.302 67.7537 162.752 67.7537C163.201 67.7537 163.201 67.8882 163.651 67.8882C164.1 67.8882 164.1 67.8433 164.55 67.8433C164.999 67.8433 164.999 68.0226 165.448 68.0226C165.898 68.0226 165.898 67.7537 166.347 67.7537C166.797 67.7537 166.797 68.0674 167.246 68.0674C167.696 68.0674 167.696 67.8433 168.145 67.8433C168.595 67.8433 168.595 68.1122 169.044 68.1122C169.493 68.1122 169.493 67.933 169.943 67.933C170.392 67.933 170.392 67.8433 170.842 67.8433C171.291 67.8433 171.291 68.0226 171.741 68.0226C172.19 68.0226 172.19 68.1122 172.64 68.1122C173.089 68.1122 173.089 67.7537 173.538 67.7537C173.988 67.7537 173.988 67.8433 174.437 67.8433C174.887 67.8433 174.887 68.0674 175.336 68.0674C175.786 68.0674 175.786 68.1122 176.235 68.1122C176.684 68.1122 176.684 68.1571 177.134 68.1571C177.583 68.1571 177.583 67.8882 178.033 67.8882C178.482 67.8882 178.482 67.7537 178.932 67.7537C179.381 67.7537 179.381 67.7985 179.831 67.7985C180.28 67.7985 180.315 67.7089 180.729 67.9778C181.179 68.1122 181.041 68.5604 180.695 69.0534Z" fill="#0C8751"/>
<path d="M171.96 82.9537C171.649 83.3609 171.441 83.0758 170.992 83.0758C170.542 83.0758 170.542 82.7093 170.057 82.7093C169.608 82.7093 169.608 82.7907 169.123 82.7907C168.674 82.7907 168.674 82.8315 168.189 82.8315C167.739 82.8315 167.739 82.8722 167.255 82.8722C166.805 82.8722 166.805 82.7093 166.321 82.7093C165.871 82.7093 165.871 83.1166 165.387 83.1166C164.937 83.1166 164.937 82.9537 164.453 82.9537C164.003 82.9537 164.003 82.75 163.519 82.75C163.069 82.75 163.069 82.9944 162.584 82.9944C162.135 82.9944 162.135 82.7093 161.65 82.7093C161.2 82.7093 161.2 82.9129 160.716 82.9129C160.266 82.9129 160.266 82.9944 159.782 82.9944C159.332 82.9944 159.332 82.9129 158.848 82.9129C158.398 82.9129 158.398 82.8722 157.914 82.8722C157.464 82.8722 157.464 82.7093 156.98 82.7093C156.53 82.7093 156.53 82.9537 156.045 82.9537C155.596 82.9537 155.596 82.7093 155.111 82.7093C154.661 82.7093 154.661 82.7093 154.177 82.7093C153.727 82.7093 153.727 82.9129 153.243 82.9129C152.793 82.9129 152.793 82.7907 152.309 82.7907C151.859 82.7907 151.859 82.75 151.375 82.75C150.925 82.75 150.925 82.7907 150.441 82.7907C149.991 82.7907 149.991 82.7907 149.506 82.7907C149.057 82.7907 149.057 82.7907 148.572 82.7907C148.123 82.7907 148.123 82.8722 147.638 82.8722C147.188 82.8722 147.188 82.8722 146.704 82.8722C146.254 82.8722 146.047 83.3202 145.735 82.9129C145.389 82.4649 145.458 82.1391 145.804 81.6911C146.116 81.2838 146.22 81.5282 146.704 81.5282C147.154 81.5282 147.154 81.7318 147.638 81.7318C148.088 81.7318 148.088 81.6504 148.572 81.6504C149.022 81.6504 149.022 81.6504 149.506 81.6504C149.956 81.6504 149.956 81.7318 150.441 81.7318C150.89 81.7318 150.89 81.6096 151.375 81.6096C151.824 81.6096 151.824 81.8133 152.309 81.8133C152.759 81.8133 152.759 81.4467 153.243 81.4467C153.693 81.4467 153.693 81.6096 154.177 81.6096C154.627 81.6096 154.627 81.8133 155.111 81.8133C155.561 81.8133 155.561 81.4467 156.045 81.4467C156.495 81.4467 156.495 81.4875 156.98 81.4875C157.429 81.4875 157.429 81.7318 157.914 81.7318C158.363 81.7318 158.363 81.5282 158.848 81.5282C159.298 81.5282 159.298 81.406 159.782 81.406C160.232 81.406 160.232 81.5282 160.716 81.5282C161.166 81.5282 161.166 81.5282 161.65 81.5282C162.1 81.5282 162.1 81.7318 162.584 81.7318C163.034 81.7318 163.034 81.7318 163.519 81.7318C163.968 81.7318 163.968 81.6096 164.453 81.6096C164.902 81.6096 164.902 81.7318 165.387 81.7318C165.837 81.7318 165.837 81.4875 166.321 81.4875C166.771 81.4875 166.771 81.6504 167.255 81.6504C167.705 81.6504 167.705 81.4467 168.189 81.4467C168.639 81.4467 168.639 81.7726 169.123 81.7726C169.573 81.7726 169.573 81.8133 170.057 81.8133C170.507 81.8133 170.507 81.5689 170.992 81.5689C171.441 81.5689 171.441 81.5282 171.857 81.7726C172.376 82.1391 172.306 82.5057 171.96 82.9537Z" fill="#0C8751"/>
<path d="M180.856 96.7861C180.546 97.1956 180.269 96.4995 179.821 96.4995C179.372 96.4995 179.372 96.827 178.923 96.827C178.474 96.827 178.474 96.827 178.026 96.827C177.577 96.827 177.577 96.4585 177.128 96.4585C176.679 96.4585 176.679 96.6223 176.23 96.6223C175.782 96.6223 175.782 96.868 175.333 96.868C174.884 96.868 174.884 96.7042 174.435 96.7042C173.987 96.7042 173.987 96.868 173.538 96.868C173.089 96.868 173.089 96.5814 172.64 96.5814C172.191 96.5814 172.191 96.5404 171.743 96.5404C171.294 96.5404 171.294 96.4995 170.845 96.4995C170.396 96.4995 170.396 96.6632 169.948 96.6632C169.499 96.6632 169.499 96.5404 169.05 96.5404C168.601 96.5404 168.601 96.4995 168.152 96.4995C167.704 96.4995 167.704 96.5404 167.255 96.5404C166.806 96.5404 166.806 96.7042 166.357 96.7042C165.909 96.7042 165.909 96.5404 165.46 96.5404C165.011 96.5404 165.011 96.4585 164.562 96.4585C164.114 96.4585 164.114 96.7861 163.665 96.7861C163.216 96.7861 163.216 96.868 162.767 96.868C162.318 96.868 162.318 96.7042 161.87 96.7042C161.421 96.7042 161.421 96.7861 160.972 96.7861C160.523 96.7861 160.523 96.5404 160.075 96.5404C159.626 96.5404 159.626 96.5404 159.177 96.5404C158.728 96.5404 158.728 96.7042 158.279 96.7042C157.831 96.7042 157.831 96.827 157.382 96.827C156.933 96.827 156.933 96.7861 156.484 96.7861C156.036 96.7861 156.036 96.5404 155.587 96.5404C155.138 96.5404 155.138 96.6632 154.689 96.6632C154.24 96.6632 154.24 96.5404 153.792 96.5404C153.343 96.5404 153.343 96.5404 152.894 96.5404C152.445 96.5404 152.445 96.6223 151.997 96.6223C151.548 96.6223 151.548 96.6632 151.099 96.6632C150.65 96.6632 150.65 96.4176 150.202 96.4176C149.753 96.4176 149.753 96.4176 149.304 96.4176C148.855 96.4176 148.855 96.4585 148.406 96.4585C147.958 96.4585 147.958 96.6632 147.509 96.6632C147.06 96.6632 147.026 96.9089 146.715 96.4995C146.37 96.049 146.266 95.8852 146.611 95.3939C146.922 94.9844 147.06 95.3529 147.509 95.3529C147.958 95.3529 147.958 95.312 148.406 95.312C148.855 95.312 148.855 95.2301 149.304 95.2301C149.753 95.2301 149.753 95.2301 150.202 95.2301C150.65 95.2301 150.65 95.4348 151.099 95.4348C151.548 95.4348 151.548 95.4758 151.997 95.4758C152.445 95.4758 152.445 95.5577 152.894 95.5577C153.343 95.5577 153.343 95.5167 153.792 95.5167C154.24 95.5167 154.24 95.2301 154.689 95.2301C155.138 95.2301 155.138 95.5577 155.587 95.5577C156.036 95.5577 156.036 95.4758 156.484 95.4758C156.933 95.4758 156.933 95.2301 157.382 95.2301C157.831 95.2301 157.831 95.1482 158.279 95.1482C158.728 95.1482 158.728 95.5167 159.177 95.5167C159.626 95.5167 159.626 95.2301 160.075 95.2301C160.523 95.2301 160.523 95.1891 160.972 95.1891C161.421 95.1891 161.421 95.3529 161.87 95.3529C162.318 95.3529 162.318 95.2301 162.767 95.2301C163.216 95.2301 163.216 95.4348 163.665 95.4348C164.114 95.4348 164.114 95.4758 164.562 95.4758C165.011 95.4758 165.011 95.4758 165.46 95.4758C165.909 95.4758 165.909 95.271 166.357 95.271C166.806 95.271 166.806 95.5167 167.255 95.5167C167.704 95.5167 167.704 95.4348 168.152 95.4348C168.601 95.4348 168.601 95.3529 169.05 95.3529C169.499 95.3529 169.499 95.1891 169.948 95.1891C170.396 95.1891 170.396 95.1482 170.845 95.1482C171.294 95.1482 171.294 95.3529 171.743 95.3529C172.191 95.3529 172.191 95.4348 172.64 95.4348C173.089 95.4348 173.089 95.1891 173.538 95.1891C173.987 95.1891 173.987 95.4758 174.435 95.4758C174.884 95.4758 174.884 95.2301 175.333 95.2301C175.782 95.2301 175.782 95.312 176.23 95.312C176.679 95.312 176.679 95.2301 177.128 95.2301C177.577 95.2301 177.577 95.3529 178.026 95.3529C178.474 95.3529 178.474 95.271 178.923 95.271C179.372 95.271 179.372 95.5167 179.821 95.5167C180.269 95.5167 180.338 95.0663 180.753 95.3529C181.305 95.7215 181.201 96.2947 180.856 96.7861Z" fill="#0C8751"/>
<path d="M172.341 110.676C172.029 111.122 171.786 110.586 171.335 110.586C170.885 110.586 170.885 110.408 170.434 110.408C169.983 110.408 169.983 110.676 169.532 110.676C169.081 110.676 169.081 110.72 168.631 110.72C168.18 110.72 168.18 110.631 167.729 110.631C167.278 110.631 167.278 110.72 166.827 110.72C166.377 110.72 166.377 110.765 165.926 110.765C165.475 110.765 165.475 110.452 165.024 110.452C164.573 110.452 164.573 110.765 164.123 110.765C163.672 110.765 163.672 110.631 163.221 110.631C162.77 110.631 162.77 110.363 162.32 110.363C161.869 110.363 161.869 110.542 161.418 110.542C160.967 110.542 160.967 110.72 160.516 110.72C160.066 110.72 160.066 110.497 159.615 110.497C159.164 110.497 159.164 110.319 158.713 110.319C158.262 110.319 158.262 110.676 157.812 110.676C157.361 110.676 157.361 110.497 156.91 110.497C156.459 110.497 156.459 110.542 156.008 110.542C155.558 110.542 155.558 110.408 155.107 110.408C154.656 110.408 154.656 110.631 154.205 110.631C153.755 110.631 153.755 110.631 153.304 110.631C152.853 110.631 152.853 110.452 152.402 110.452C151.951 110.452 151.951 110.586 151.501 110.586C151.05 110.586 151.05 110.363 150.599 110.363C150.148 110.363 150.148 110.408 149.697 110.408C149.247 110.408 149.247 110.676 148.796 110.676C148.345 110.676 148.345 110.586 147.894 110.586C147.444 110.586 147.444 110.274 146.993 110.274C146.542 110.274 146.334 110.943 146.022 110.497C145.675 110.006 145.675 109.56 146.022 109.069C146.334 108.622 146.507 109.337 146.958 109.337C147.409 109.337 147.409 109.113 147.86 109.113C148.31 109.113 148.31 109.158 148.761 109.158C149.212 109.158 149.212 109.024 149.663 109.024C150.114 109.024 150.114 109.292 150.564 109.292C151.015 109.292 151.015 109.113 151.466 109.113C151.917 109.113 151.917 108.935 152.368 108.935C152.818 108.935 152.818 109.113 153.269 109.113C153.72 109.113 153.72 108.89 154.171 108.89C154.621 108.89 154.621 108.935 155.072 108.935C155.523 108.935 155.523 109.158 155.974 109.158C156.425 109.158 156.425 108.979 156.875 108.979C157.326 108.979 157.326 109.247 157.777 109.247C158.228 109.247 158.228 108.935 158.679 108.935C159.129 108.935 159.129 109.247 159.58 109.247C160.031 109.247 160.031 108.979 160.482 108.979C160.932 108.979 160.932 108.979 161.383 108.979C161.834 108.979 161.834 109.158 162.285 109.158C162.736 109.158 162.736 109.024 163.186 109.024C163.637 109.024 163.637 109.292 164.088 109.292C164.539 109.292 164.539 109.247 164.99 109.247C165.44 109.247 165.44 109.337 165.891 109.337C166.342 109.337 166.342 109.247 166.793 109.247C167.244 109.247 167.244 109.069 167.694 109.069C168.145 109.069 168.145 109.337 168.596 109.337C169.047 109.337 169.047 109.158 169.497 109.158C169.948 109.158 169.948 109.158 170.399 109.158C170.85 109.158 170.85 109.024 171.301 109.024C171.751 109.024 171.855 108.756 172.237 109.069C172.792 109.515 172.653 110.185 172.341 110.676Z" fill="#0C8751"/>
</svg>
