<svg width="162" height="189" viewBox="0 0 162 189" fill="none" xmlns="http://www.w3.org/2000/svg">
<mask id="mask0" mask-type="alpha" maskUnits="userSpaceOnUse" x="0" y="0" width="162" height="189">
<rect width="162" height="189" fill="#C4C4C4"/>
</mask>
<g mask="url(#mask0)">
<mask id="mask1" mask-type="alpha" maskUnits="userSpaceOnUse" x="-10" y="-64" width="388" height="292">
<path d="M377.117 -63.1579H-9.61099V227.623H377.117V-63.1579Z" fill="white"/>
</mask>
<g mask="url(#mask1)">
<path d="M241.545 147.153H64.3105C61.6812 147.153 59.5501 145.017 59.5501 142.382V82.0169C59.5501 79.382 61.6817 77.2464 64.3105 77.2464H241.545C244.175 77.2464 246.306 79.3825 246.306 82.0169V142.382C246.306 145.017 244.175 147.153 241.545 147.153Z" fill="url(#paint0_linear)"/>
<path d="M41.4979 160.364H54.9107C57.5401 160.364 59.6712 158.228 59.6712 155.593V108.91C59.6712 106.275 57.5396 104.139 54.9107 104.139H41.4979C38.8685 104.139 36.7374 106.276 36.7374 108.91V155.593C36.7374 158.228 38.8685 160.364 41.4979 160.364Z" fill="url(#paint1_linear)"/>
<path d="M240.76 129.618H65.0478C62.0109 129.618 59.5491 132.085 59.5491 135.128V154.853C59.5491 157.897 62.0109 160.364 65.0478 160.364H240.76C243.797 160.364 246.258 157.897 246.258 154.853V135.128C246.258 132.085 243.796 129.618 240.76 129.618Z" fill="url(#paint2_linear)"/>
<path d="M105.21 99.6448H94.2234C94.0902 99.6448 93.982 99.5364 93.982 99.4028V89.8613H94.4648V99.1609H105.21V99.6448Z" fill="white"/>
</g>
<path d="M32.1396 60.0391C46.0744 60.0391 57.3708 48.7339 57.3708 34.7883C57.3708 20.8426 46.0744 9.53741 32.1396 9.53741C18.2048 9.53741 6.90839 20.8426 6.90839 34.7883C6.90839 48.7339 18.2048 60.0391 32.1396 60.0391Z" fill="white"/>
<path d="M32.14 16.3314C32.9523 16.3314 33.6109 15.6723 33.6109 14.8593C33.6109 14.0464 32.9523 13.3873 32.14 13.3873C31.3276 13.3873 30.6691 14.0464 30.6691 14.8593C30.6691 15.6723 31.3276 16.3314 32.14 16.3314Z" fill="black" fill-opacity="0.15"/>
<path d="M12.2263 36.2603C13.0386 36.2603 13.6971 35.6013 13.6971 34.7883C13.6971 33.9753 13.0386 33.3163 12.2263 33.3163C11.4139 33.3163 10.7554 33.9753 10.7554 34.7883C10.7554 35.6013 11.4139 36.2603 12.2263 36.2603Z" fill="black" fill-opacity="0.15"/>
<path d="M52.0526 36.2603C52.865 36.2603 53.5235 35.6013 53.5235 34.7883C53.5235 33.9753 52.865 33.3163 52.0526 33.3163C51.2403 33.3163 50.5818 33.9753 50.5818 34.7883C50.5818 35.6013 51.2403 36.2603 52.0526 36.2603Z" fill="black" fill-opacity="0.15"/>
<path d="M32.14 56.1892C32.9523 56.1892 33.6109 55.5302 33.6109 54.7172C33.6109 53.9042 32.9523 53.2452 32.14 53.2452C31.3276 53.2452 30.6691 53.9042 30.6691 54.7172C30.6691 55.5302 31.3276 56.1892 32.14 56.1892Z" fill="black" fill-opacity="0.15"/>
<path d="M32.253 17.6902L33.1581 34.4486H31.3478L32.253 17.6902Z" fill="#9EA9B6"/>
<path d="M40.5645 43.2204L31.8122 35.8089L33.1588 34.4613L40.5645 43.2204Z" fill="#9EA9B6"/>
<path d="M32.1399 36.7133C33.2022 36.7133 34.0633 35.8514 34.0633 34.7883C34.0633 33.7252 33.2022 32.8634 32.1399 32.8634C31.0776 32.8634 30.2164 33.7252 30.2164 34.7883C30.2164 35.8514 31.0776 36.7133 32.1399 36.7133Z" fill="#C5CFD6"/>
<path d="M110.062 58.2977C111.974 56.0492 113.267 53.2937 113.051 50.2061C112.428 41.3099 100.069 43.2669 97.6654 47.757C95.2613 52.2471 95.547 63.6365 98.654 64.439C99.8931 64.759 102.533 63.9751 105.219 62.3525L103.533 74.3063H113.49L110.062 58.2977Z" fill="#F0CCB5"/>
<path d="M110.755 60.2655C112.004 54.6948 115.561 50.8975 115.018 48.4076C114.655 46.7477 113.69 45.7155 112.122 45.3109C111.31 42.0201 108.694 40.6204 104.273 41.1118C97.6409 41.8488 93.5931 44.6108 95.3411 50.6882C96.948 50.6882 98.8878 50.1054 101.57 51.1039C102.421 51.4207 103.03 52.4031 103.396 54.0512H104.609C105.785 52.0954 106.945 51.3767 108.089 51.8951C109.232 52.4135 109.492 53.6726 108.868 55.6726L109.465 60.2655H110.755Z" fill="#191847"/>
<path d="M57.546 175.325C62.8199 163.638 66.634 153.461 68.165 148.092C70.7863 138.898 72.7805 130.808 73.2845 127.787C74.4864 120.583 64.0388 120.163 62.6579 123.743C60.5677 129.163 56.9188 146.967 52.5344 173.861L57.546 175.325ZM118.721 138.647C113.882 136.732 96.9365 130.739 88.7638 129.043C86.4153 128.556 84.139 128.103 81.9989 127.694C75.6379 126.478 72.3422 137.968 78.4687 138.851C93.7261 141.05 115.356 143.32 117.207 143.575C119.801 143.932 121.762 139.85 118.721 138.647Z" fill="#F0CCB5"/>
<path d="M78.095 124.532L104.268 111.192V108.288H101.156C75.8341 114.748 62.8947 118.888 62.3377 120.709C62.3317 120.728 62.3262 120.748 62.3212 120.767C62.3085 120.784 62.296 120.801 62.2836 120.818C57.2654 127.728 54.26 161.464 53.2736 163.99L62.8897 165.426C66.5681 151.769 78.3367 142.255 78.0241 125.898C78.1085 125.418 78.1298 124.963 78.095 124.532Z" fill="#EE9E2F"/>
<path d="M102.093 132.455C104.488 131.975 106.693 131.547 108.58 131.216C120.77 129.075 124.324 122.542 122.223 108.288H99.7638C96.0952 109.343 77.0294 117.348 67.1372 121.606C60.59 124.424 62.6539 134.584 66.3615 137.227C66.3817 137.39 66.4484 137.5 66.5672 137.549C86.5118 145.826 102.29 141.483 107.561 142.871L109.999 135.17L102.093 132.455Z" fill="#F9C346"/>
<path d="M117.105 137.416C118.405 137.534 119.327 137.726 119.871 137.99C120.534 138.312 121.445 138.893 122.607 139.734C122.227 140.51 118.815 147.486 112.371 160.66C110.326 160.339 109.519 159.558 109.95 158.318C110.382 157.077 110.73 156.042 110.994 155.211L111.46 143.398C111.469 143.171 111.66 142.992 111.886 142.999C111.89 142.999 111.893 142.999 111.897 142.999L113.704 143.104C114.735 142.262 115.417 141.503 115.748 140.825C116.018 140.274 116.17 139.406 116.204 138.221L116.204 138.221C116.217 137.766 116.595 137.404 117.047 137.413C117.066 137.413 117.086 137.414 117.105 137.416Z" fill="#191847"/>
<path d="M59.9461 173.158C60.4066 174.389 60.6368 175.31 60.6368 175.921C60.6368 176.664 60.5132 177.749 60.2658 179.175C59.4048 179.175 51.6661 179.175 37.05 179.175C36.4467 177.178 36.7949 176.1 38.0947 175.94C39.3946 175.781 40.4743 175.637 41.3341 175.509L52.1246 170.692C52.3322 170.6 52.5756 170.693 52.6681 170.901C52.6697 170.905 52.6713 170.908 52.6727 170.912L53.3663 172.596C54.5696 173.159 55.5474 173.44 56.2997 173.44C56.911 173.44 57.7551 173.192 58.8321 172.698L58.8321 172.698C59.2454 172.508 59.734 172.69 59.9235 173.104C59.9317 173.122 59.9392 173.14 59.9461 173.158Z" fill="#191847"/>
<path d="M78.7475 97.0024L63.8328 90.4442C61.2201 87.8373 58.6972 85.8561 56.264 84.5003C55.5364 84.2684 54.2934 84.1983 55.6196 86.1378C56.9458 88.0773 58.2536 90.177 57.7237 90.8567C57.1938 91.5365 55.6588 90.7862 55.0523 91.8916C54.648 92.6285 57.2355 93.51 62.8149 94.5361L73.9852 103.111L78.7475 97.0024ZM139.046 98.8087L130.611 100.484C139.094 116.312 143.643 124.701 144.258 125.651C145.643 127.788 144.351 131.704 143.874 133.766C146.868 134.464 145.687 129.952 149.477 130.894C152.936 131.754 155.868 133.961 159.093 130.984C159.49 130.618 159.78 129.474 158.428 128.888C155.06 127.426 150.084 124.689 149.277 123.627C148.177 122.178 144.766 113.905 139.046 98.8087Z" fill="#F0CCB5"/>
<path d="M107.686 67.2114L104.127 66.6001C96.3741 74.1298 93.2104 92.2198 88.0439 94.6143C83.1592 96.8782 76.2348 94.6874 68.004 91.7293L65.4834 97.3682C72.9619 105.469 88.8938 112.313 95.3517 108.406C105.677 102.159 108.06 79.848 107.686 67.2114Z" fill="#0C8751"/>
<path d="M123.202 111.997C108.931 111.997 98.4327 111.997 91.7086 111.997C90.2695 111.997 90.5407 109.916 90.7487 108.866C93.1496 96.7496 102.522 83.6882 102.522 66.4401L111.606 65.0138C119.12 77.1134 121.718 92.0104 123.202 111.997Z" fill="white"/>
<path d="M126.343 99.7291C132.763 111.324 138.16 119.672 142.533 124.773L149.134 123.479C144.882 97.0739 132.568 77.5857 112.192 65.0138H112.088H108.595C100.44 92.848 98.1918 111.394 101.85 120.652H130.199C129.751 113.878 128.313 106.714 126.343 99.7291H126.343Z" fill="#1FB573"/>
<path d="M95.1131 110.071H74.0717V113.137H95.1131V110.071Z" fill="#191847"/>
<path d="M44.8948 91.4928H71.0429L77.0715 113.136H50.9234L44.8948 91.4928Z" fill="#191847"/>
</g>
<defs>
<linearGradient id="paint0_linear" x1="59.5502" y1="112.2" x2="246.306" y2="112.2" gradientUnits="userSpaceOnUse">
<stop stop-color="#6A72FE"/>
<stop offset="1" stop-color="#5015AA"/>
</linearGradient>
<linearGradient id="paint1_linear" x1="44.8218" y1="126.898" x2="63.2552" y2="131.752" gradientUnits="userSpaceOnUse">
<stop stop-color="#B3B7FE"/>
<stop offset="1" stop-color="#686FFE"/>
</linearGradient>
<linearGradient id="paint2_linear" x1="-12.3463" y1="144.912" x2="328.136" y2="153.054" gradientUnits="userSpaceOnUse">
<stop stop-color="#B3B7FE"/>
<stop offset="1" stop-color="#6A71FD"/>
</linearGradient>
</defs>
</svg>
