<svg width="157" height="188" viewBox="0 0 157 188" fill="none" xmlns="http://www.w3.org/2000/svg">
<mask id="mask0" mask-type="alpha" maskUnits="userSpaceOnUse" x="0" y="0" width="157" height="188">
<rect width="157" height="188" fill="#C4C4C4"/>
</mask>
<g mask="url(#mask0)">
<path d="M144.453 160.689V185.467H117.853V160.689H144.453ZM131.742 22C148.753 22 162.302 26.9809 172.388 36.9427C182.428 46.8814 187.457 58.4707 187.474 71.7107C187.474 79.0083 185.601 85.941 181.925 92.4567C178.214 98.9725 170.313 107.863 158.221 119.128C151.944 124.966 148.077 129.64 146.551 133.202C145.008 136.746 144.314 143.071 144.47 152.228H117.558C117.49 147.954 117.455 145.365 117.454 144.348L117.454 144.287C117.454 134.54 118.893 126.524 121.772 120.24C124.667 113.915 130.459 106.861 139.095 98.9551C147.747 91.0841 152.932 85.941 154.579 83.4911C157.17 79.7536 158.545 75.3054 158.516 70.755C158.516 64.3088 156.215 58.7777 151.614 54.1616C147.002 49.5572 140.811 47.2636 132.991 47.2636C125.465 47.2636 119.159 49.6672 114.073 54.4744C109.026 59.27 105.541 66.5849 103.616 76.4194L76.4268 72.6315C77.1897 58.5228 82.5479 46.5571 92.5012 36.7342C102.472 26.8998 115.512 22 131.742 22Z" fill="#6459E7"/>
<path d="M49.0262 75.8876C47.367 74.8877 46.201 73.4148 46.272 71.371C46.4765 65.4824 56.7638 63.828 58.9083 66.1583C61.0529 68.4887 61.2143 75.9067 58.6733 77.1581C57.6599 77.6572 55.45 77.7743 53.172 77.3613L54.9836 84.6781L46.7509 87.0286L49.0262 75.8876Z" fill="#DFB995"/>
<path d="M53.5265 61.6011C52.5332 61.6582 49.8809 62.0758 49.3931 62.1696C49.0814 62.2295 48.7485 62.3526 48.5444 62.1541C48.3773 61.9916 48.4057 61.6569 48.342 61.4432C48.2681 61.195 48.1725 60.9544 48.076 60.7146C47.8016 60.0321 47.4204 59.4059 46.9134 58.8466C45.962 57.7974 44.6372 57.0869 43.0185 56.8363C41.231 56.5597 39.2542 56.7975 37.3965 57.2803C35.4084 57.7968 33.6438 58.6839 31.7986 59.5543C30.0403 60.3836 28.1723 60.936 26.2715 61.0612C24.3563 61.1874 22.8543 60.6228 21.1892 60.1329C19.4847 59.6314 17.5699 59.4571 15.6454 59.9515C13.8489 60.4131 12.2351 61.3425 10.8096 62.4438C9.47578 63.4742 8.39922 64.6123 7.85576 66.0275C7.27112 67.5499 7.39863 69.0731 8.65227 70.0783C10.4694 71.5354 13.6061 71.3998 16.1802 70.8588C17.669 70.546 19.1149 70.0421 20.4889 69.3669C22.3213 68.4664 23.8674 67.2397 25.562 66.1599C26.3572 65.6532 27.1853 65.2034 28.0612 64.8258C28.9111 64.4592 29.757 64.2034 30.5773 64.4806C31.445 64.7739 32.2258 65.0757 33.199 65.1766C34.1326 65.2735 35.1101 65.2402 36.0801 65.0476C37.9674 64.6728 39.7888 63.8342 41.5959 63.1597C43.0695 62.6097 44.6479 62.0404 46.1936 62C46.8386 61.9831 47.7861 62.0221 48.0609 62.5184C44.241 63.8346 43.0477 68.0364 44.3771 70.6973C45.0946 72.1334 48.7828 73.2648 50.0903 72.1861C50.9187 71.5027 50.3332 70.9269 49.9537 70.5455C49.2267 69.8152 48.9108 68.7583 50.0743 67.929C51.0779 67.2137 52.2798 68.2234 52.3005 68.2181C52.5866 68.1443 54.976 66.5179 56.5486 64.5123C58.2446 64.2696 58.425 63.3099 57.9596 62.6428C57.4943 61.9758 54.8988 61.5224 53.5265 61.6011Z" fill="#191847"/>
<path d="M51.0342 111.882L62.2072 150.499L67.4624 179.493H72.737L67.4718 111.882H51.0342Z" fill="#DFB995"/>
<path d="M46.013 111.882C46.7926 131.943 46.4851 142.885 46.3106 144.708C46.1361 146.531 45.1456 158.738 38.3955 180.105H43.8816C52.8209 159.607 55.9416 147.4 56.9669 144.708C57.9921 142.016 61.0202 131.074 65.4411 111.882H46.013Z" fill="#DFB995"/>
<path d="M50.7939 111.882C53.7002 125.17 58.7268 146.382 65.8737 175.516H73.5885C74.1583 145.612 71.7343 125.931 67.5366 111.882H50.7939Z" fill="#4A2CB1"/>
<path d="M45.9735 111.882C46.737 131.943 44.7583 151.708 38.6289 175.829H46.8601C55.8159 155.636 62.2348 135.969 66.6217 111.882H45.9735Z" fill="#ADA7F9"/>
<path d="M37.6133 184.082L37.916 179.187C39.6883 179.707 41.9081 179.503 44.5755 178.576C47.4435 180.613 51.0541 182.005 55.407 182.75V182.75C55.7392 182.807 55.9624 183.123 55.9058 183.456C55.9021 183.477 55.8973 183.499 55.8913 183.52L55.4728 185H44.5755H38.2187L37.6133 184.082Z" fill="#191847"/>
<path d="M66.2852 184.082L66.5879 179.187C68.3602 179.707 70.58 179.503 73.2474 178.576C76.1154 180.613 79.7259 182.005 84.0789 182.75V182.75C84.411 182.807 84.6343 183.123 84.5776 183.456C84.574 183.477 84.5691 183.499 84.5632 183.52L84.1447 185H73.2474H66.8906L66.2852 184.082Z" fill="#191847"/>
<path d="M77.5591 106.535L88.1739 109.59C90.9279 109.46 93.2584 109.579 95.1655 109.947C95.6293 110.137 96.2216 110.609 94.4456 110.956C92.6696 111.303 90.8033 111.73 90.6204 112.255C90.4376 112.78 91.5762 113.06 91.166 113.811C90.8926 114.311 89.2083 113.664 86.1131 111.87L75.9157 111.253L77.5591 106.535ZM39.6255 116.45L46.1049 114.811C43.401 125.771 41.9294 131.596 41.6899 132.286C41.151 133.837 42.9403 135.532 43.7352 136.485C41.7163 137.754 41.5901 135.001 39.0481 136.639C36.7279 138.133 35.0823 140.187 32.0963 139.571C31.7292 139.496 31.2698 138.975 32.1221 138.257C34.2457 136.47 37.2573 133.522 37.611 132.715C38.0932 131.614 38.7647 126.193 39.6255 116.45Z" fill="#DFB995"/>
<path d="M52.4837 86.0679L55.2685 84.9174C66.6899 89.4182 72.7536 102.318 86.5644 106.313L83.8475 110.241C61.2156 113.999 53.5454 98.3378 52.4837 86.0679Z" fill="#0C8751"/>
<path d="M44.6618 116.999C56.0944 113.841 64.5039 111.518 69.8904 110.03C71.0432 109.711 70.6601 108.385 70.4097 107.731C67.5201 100.187 58.9706 93.5553 57.5951 82.0595L50.2043 83.1192C45.1501 92.8463 44.2566 103.35 44.6618 116.999Z" fill="white"/>
<path d="M43.2242 92.7833C42.1195 92.8231 41.1973 92.4592 40.4574 91.6916C37.2683 88.3826 37.9763 85.8806 40.7764 84.3495C43.5765 82.8183 46.3335 83.619 50.9351 82.3487C51.1854 82.2796 51.4162 82.2294 51.6275 82.198L53.9554 81.6688C62.8428 98.5517 66.173 110.533 63.9461 117.613L43.7702 123.183C42.853 125.831 41.9432 128.097 41.0407 129.981L35.5431 131.498C33.3562 117.73 35.9166 104.825 43.2242 92.7833Z" fill="#1FB573"/>
<path d="M48.0843 113.037C49.2361 117.239 50.637 120.133 52.2869 121.719L44.877 123.766C45.9361 120.705 47.0052 117.128 48.0843 113.037Z" fill="black" fill-opacity="0.1"/>
<path d="M38.4533 40.1746C39.3819 40.1758 40.265 40.5796 40.8765 41.2827L43.5936 44.4662C43.5974 44.4706 43.6011 44.4751 43.6047 44.4797C43.6121 44.4893 43.6235 44.4949 43.6355 44.495C43.65 44.4966 43.6646 44.4936 43.6772 44.4864C43.6943 44.4694 43.7068 44.4484 43.7135 44.4252V39.3937C43.7077 38.5953 44.0037 37.8244 44.5415 37.2372C45.9971 35.6255 46.8004 33.5242 46.7937 31.3467C46.7882 26.4631 42.8543 22.5054 37.9999 22.4999H27.285C22.4283 22.4999 18.4912 26.4608 18.4912 31.3467C18.4912 36.2326 22.4283 40.1935 27.285 40.1935H37.9999C38.0925 40.1958 38.1852 40.1919 38.2773 40.1818C38.2938 40.1795 38.3104 40.1778 38.3269 40.1771C38.3694 40.1755 38.4116 40.1746 38.4533 40.1746Z" fill="#A5E7CA"/>
<path d="M36.5548 32.831C37.3363 32.831 37.9699 32.1969 37.9699 31.4147C37.9699 30.6324 37.3363 29.9983 36.5548 29.9983C35.7732 29.9983 35.1396 30.6324 35.1396 31.4147C35.1396 32.1969 35.7732 32.831 36.5548 32.831Z" fill="#191847"/>
<path d="M32.5587 32.831C33.3402 32.831 33.9738 32.1969 33.9738 31.4147C33.9738 30.6324 33.3402 29.9983 32.5587 29.9983C31.7771 29.9983 31.1436 30.6324 31.1436 31.4147C31.1436 32.1969 31.7771 32.831 32.5587 32.831Z" fill="#191847"/>
<path d="M28.7296 32.831C29.5111 32.831 30.1447 32.1969 30.1447 31.4147C30.1447 30.6324 29.5111 29.9983 28.7296 29.9983C27.948 29.9983 27.3145 30.6324 27.3145 31.4147C27.3145 32.1969 27.948 32.831 28.7296 32.831Z" fill="#191847"/>
</g>
</svg>
