<svg width="204" height="180" xmlns="http://www.w3.org/2000/svg" xmlns:xlink="http://www.w3.org/1999/xlink"><defs><path d="M140.302 0c34.927 0 63.24 28.314 63.24 63.24 0 30.683-21.85 56.262-50.84 62.026C142.76 156.986 113.135 180 78.134 180 34.982 180 0 145.018 0 101.867c0-43.152 34.982-78.134 78.133-78.134 4.101 0 8.129.316 12.059.925C101.753 9.662 119.899 0 140.302 0z" id="a"/></defs><g fill="none" fill-rule="evenodd"><mask id="b" fill="#fff"><use xlink:href="#a"/></mask><use fill="#FFF" xlink:href="#a"/><g mask="url(#b)"><path fill="#D2FCEA" d="M-.286 176.616H211.55V-8.435H-.286z"/><path fill="#6459E7" d="M-.286 12.677v179.38h226.988L211.166 23.875l-106.032 89.85L27.16 76.264z"/><path d="M74.65 94.479c1.76-1.975 6.067-5.602 8.956-4.214 3.54 1.702-.04 7.86-1.525 9.88M84.093 100.144c7.638-8.386 13.015-3.4 8.551 4.378M93.767 105.19c3.03-2.29 6.52-2.44 5.125 3.05" fill="#F0CCB5"/><path d="M76.343 92.829a18.423 18.423 0 00-1.694 1.65l7.432 5.665c.747-1.015 2.024-3.078 2.658-5.094-1.799 2.633-7.275-1.455-8.396-2.221zM94.086 100.936c-1.802 2.562-6.578-1.177-8.295-2.476a22.272 22.272 0 00-1.698 1.684l8.551 4.378c.74-1.288 1.209-2.5 1.442-3.586M93.767 105.19l5.125 3.05c.23-.907.326-1.659.314-2.274-.562.596-3.403-1.026-4.122-1.62-.438.23-.882.515-1.317.844" fill="#E3B090"/><path d="M51.629 97.304S26.01 81.51 24.534 80.616c-1.256-.759-1.217-1.752-.983-2.648.346-1.326.564-1.783.701-2.104.234-.545.643-.954 2.888-1.088 0 0 12.127-.771 13.08-.778 1.13-.008 2.41-.016 3.982.8l.04.022 59.665 35.496.044.027c.673.413 2.072 1.27 2.116 2.648.028.896-.528 1.752-1.654 2.543l-4.5 2.168h-6.146L51.629 97.304z" fill="#191847"/><path d="M57.194 95.24L28.099 77.322c-1.088-.73-1.587-1.716.36-1.846 6.907-.46 10.883-.692 11.767-.698 1.117-.007 2.234-.006 3.617.712l59.656 35.491c.881.541 3.27 1.944.466 3.917-2.805 1.974-8.416.935-8.416.935l-20.882-8.881-17.473-11.71z" fill="#FFF"/><path d="M66.138 131.757c.113 4.02 6.347 7.137 9.464 9.007 2.024 1.214 14.622 8.466 27.902 15.06 7.172 3.562 38.577 20.775 38.577 20.775h21.555V155.45c-10.813-5.68-36.915-12.67-39.1-19.361-9.974-30.54-34.597-22.127-50.18-30.853-3.536-1.979-9.98-7.156-13.715-8.835-8.188-3.68-10.993-.409-7.604 5.317 1.365 2.307 3.496 5.118 6.012 8.066l.384.449c0 11.99-1.223 15.874 6.615 21.46l.09.064z" fill="#F0CCB5"/><path d="M59.433 110.233c0 3.634-.112 6.524-.05 8.942 2.054-4.052 11.763 3.808 17.224 7.7M124.217 72.105l-.1-.003c-.497-.015-.997-.03-1.499-.042l-.174-.004a366.849 366.849 0 00-5.734-.105l-.12-.002-1.584-.012c-.298-2.657-3.563-6.25-5.917-7.142 8.748.437 14.092 4.078 15.128 7.31M115.42 91.542c2.97 1.457 1.871 5.256-4.27 3.888h-.001c-.377-1.327-1.223-2.93-2.676-4.695-1.188-1.441-2.999-5.401-3.059-7.95a164.56 164.56 0 008.675 1.642c-4.628 2.707-1.64 5.658 1.33 7.115" fill="#E3B090"/><path d="M111.15 95.43c.815 2.864-.546 4.44-2.677 3.557-10.789-4.475-11.582-14-12-16.504.771-1.595 1.222-1.85 1.222-1.85 1.63.691 4.534 1.454 7.719 2.152.06 2.549 1.871 6.509 3.059 7.95 1.453 1.764 2.299 3.368 2.676 4.695z" fill="#E3B090"/><path d="M115.006 71.937c-7.033-.03-13.332.21-15.925 1.02-6.65 2.077-5.818 5.794-1.386 7.675 0 0-.451.256-1.222 1.851-.587 1.212-1.358 3.198-2.255 6.434-2.08 7.494-7.466 6.978-7.66 3.495-.93-16.612 7.807-24.943 14.072-27.262 2.698-.34 5.52-.502 8.46-.355 2.353.891 5.618 4.485 5.916 7.142" fill="#E3B090"/><path d="M100.924 70.717c.259-1.675-.635-3.05-2.331-3.307a7.015 7.015 0 00-2.108.006c-5.1 3.718-10.16 11.12-9.99 23.175.243.08.435.128.559.133 2.632.102 3.897-2.331 4.72-4.453.992-2.563 1.81-4.996 3.448-7.22-1.938-1.952-1.232-4.503 3.859-6.093.324-.101.705-.194 1.14-.278.324-.624.596-1.27.703-1.963" fill="#F0CCB5"/><path d="M123.021 72.071c-9.838-.266-20.381-.225-23.94.887-6.65 2.076-5.818 5.792-1.385 7.674 4.433 1.882 18.285 4.292 21.61 4.472 3.325.18 9.425 13.558 27.43 15.068 4.155.349 30.543 26.31 30.543 26.31 15.202-7.038 22.802-13.582 22.802-19.632 0-.898-12.148-9.749-36.445-26.552-11.362-11.52-36.572-27.647-41.502-27.681-6.217-.044-30.119.046-47.251 11.844-2.642 1.82-3.088 5.976 4.634 5.086 7.722-.891 17.67-5.345 29.572-4.752 8.748.437 14.092 4.078 15.128 7.31l-1.196-.034z" fill="#F0CCB5"/><path d="M97.696 80.632c-4.433-1.881-5.265-5.598 1.385-7.674 3.559-1.112 14.102-1.153 23.94-.887l19.851.887-6.725 5.862-22.072 3.965" fill="#F0CCB5"/></g></g></svg>