<svg width="303" height="150" viewBox="0 0 303 150" fill="none" xmlns="http://www.w3.org/2000/svg">
<path fill-rule="evenodd" clip-rule="evenodd" d="M251.623 53.7158C253.108 52.0415 254.103 49.9052 254.339 47.4934C254.89 41.833 250.844 36.5388 245.206 35.5447C238.956 34.4427 233.085 38.7128 232.211 44.8993C231.898 47.1212 232.279 49.2781 233.183 51.1637C233.57 51.9697 233.431 52.9527 232.835 53.6234C231.444 55.1883 230.48 57.1578 230.166 59.3805C229.852 61.6041 230.233 63.7618 231.138 65.6474C231.527 66.4594 231.376 67.4424 230.778 68.1174C229.294 69.7926 228.299 71.9289 228.063 74.3416C227.511 80.0011 231.557 85.2953 237.197 86.2895C243.447 87.3914 249.316 83.1213 250.19 76.9348C250.504 74.7121 250.124 72.5552 249.219 70.6704C248.832 69.8636 248.971 68.8815 249.566 68.2107C250.958 66.6459 251.921 64.6764 252.236 62.4528C252.55 60.2301 252.169 58.0723 251.264 56.1867C250.874 55.3748 251.025 54.3917 251.623 53.7158Z" fill="#1FB573"/>
<path fill-rule="evenodd" clip-rule="evenodd" d="M269.488 61.7629C272.059 61.0263 274.437 59.5119 276.233 57.2309C280.446 51.8807 279.817 43.9498 274.81 39.3311C269.261 34.2118 260.619 34.7518 255.742 40.4265C253.99 42.4663 252.976 44.8839 252.663 47.3641C252.529 48.4244 251.755 49.3266 250.725 49.6203C248.318 50.3045 246.079 51.6721 244.328 53.711C242.574 55.7508 241.562 58.1701 241.248 60.6512C241.114 61.7192 240.326 62.6129 239.291 62.9099C236.72 63.6465 234.342 65.1609 232.545 67.442C228.333 72.7922 228.962 80.7239 233.969 85.3418C239.519 90.4602 248.159 89.921 253.036 84.2463C254.788 82.2074 255.802 79.789 256.115 77.3096C256.249 76.2485 257.024 75.3462 258.053 75.0535C260.459 74.3675 262.699 73.0008 264.451 70.9618C266.204 68.922 267.217 66.5028 267.53 64.0217C267.665 62.9537 268.452 62.06 269.488 61.7629Z" fill="#A5E7CA"/>
<path fill-rule="evenodd" clip-rule="evenodd" d="M258.258 59.4632L267.698 59.0303C268.339 59.0011 268.836 58.4548 268.807 57.8097C268.779 57.1638 268.234 56.6648 267.592 56.6948L260.338 57.0272L262.804 54.1378L272.245 53.7049C272.887 53.6757 273.382 53.1294 273.353 52.4843C273.325 51.8384 272.781 51.3402 272.139 51.3686L264.884 51.7018L270.467 45.1619C270.885 44.6723 270.829 43.9345 270.342 43.5136C269.854 43.0927 269.119 43.1494 268.702 43.639L253.768 61.1321L252.995 53.8723C252.926 53.2307 252.352 52.7652 251.714 52.8348C251.075 52.9035 250.613 53.4798 250.681 54.1214L251.688 63.568L240.378 76.8171L239.373 66.7461C239.308 66.1045 238.737 65.6355 238.099 65.699C237.46 65.7643 236.994 66.3364 237.058 66.9797L238.284 79.2694L227.64 91.7368C227.221 92.2273 227.278 92.9651 227.765 93.386C228.253 93.8069 228.987 93.7502 229.405 93.2606L258.258 59.4632Z" fill="#1FB573"/>
<path fill-rule="evenodd" clip-rule="evenodd" d="M287.186 80.8218C290.271 80.939 293.427 80.1257 296.219 78.2534C302.772 73.8618 304.939 64.859 301.11 57.9334C296.866 50.2583 287.189 47.7217 279.793 52.2322C277.135 53.8538 275.152 56.1611 273.914 58.7916C273.385 59.9168 272.21 60.6337 270.974 60.5846C268.087 60.47 265.137 61.1713 262.479 62.792C259.821 64.4135 257.837 66.7217 256.599 69.3531C256.067 70.4861 254.88 71.19 253.636 71.1435C250.551 71.0254 247.395 71.8397 244.602 73.7119C238.05 78.1043 235.883 87.1063 239.713 94.0319C243.957 101.707 253.634 104.244 261.03 99.7322C263.687 98.1116 265.67 95.8042 266.908 93.1737C267.437 92.0476 268.613 91.3316 269.848 91.3807C272.735 91.4953 275.686 90.7931 278.343 89.1725C281.002 87.5518 282.986 85.2427 284.223 82.6114C284.756 81.4792 285.942 80.7744 287.186 80.8218Z" fill="#1FB573"/>
<path fill-rule="evenodd" clip-rule="evenodd" d="M278.468 86.5069C278.67 85.7872 278.247 85.0444 277.522 84.8443L264.72 81.3089L275.731 74.6944L286.385 77.6349C287.109 77.8358 287.859 77.4144 288.061 76.6964C288.263 75.9792 287.84 75.2338 287.115 75.0338L278.929 72.7737L294.496 63.4221C295.139 63.0357 295.344 62.2057 294.955 61.5681C294.566 60.9304 293.729 60.7261 293.086 61.1124L270.134 74.9004L271.908 66.6558C272.065 65.9267 271.597 65.2095 270.861 65.0539C270.126 64.8992 269.403 65.3634 269.246 66.0925L266.937 76.8203L249.553 87.2634L252.091 75.8501C252.252 75.1235 251.787 74.4021 251.055 74.2414C250.32 74.0807 249.594 74.5405 249.432 75.2697L246.337 89.1961L229.977 99.0238C229.334 99.4093 229.128 100.239 229.517 100.878C229.907 101.516 230.744 101.719 231.387 101.333L261.523 83.2296L276.792 87.4455C277.516 87.6447 278.266 87.225 278.468 86.5069Z" fill="#0C8751"/>
<path fill-rule="evenodd" clip-rule="evenodd" d="M173.956 62.3623C174.605 63.744 176.234 69.0283 178.247 75.927C178.43 76.5597 178.619 77.2044 178.814 77.8611C180.357 83.2084 182.093 89.3366 183.761 95.3053C183.937 95.9552 184.122 96.6093 184.302 97.2506C185.301 100.838 186.265 104.319 187.141 107.497C187.944 110.405 184.085 112.23 182.361 109.759C182.149 109.454 181.934 109.142 181.713 108.835C182.639 108.259 183.237 107.165 182.87 105.848C182.259 103.638 181.61 101.284 180.93 98.846C180.75 98.2047 180.574 97.554 180.396 96.8972C180.287 96.5206 180.184 96.1405 180.076 95.7638C179.775 94.6838 179.47 93.597 179.168 92.5015C178.638 90.6268 178.106 88.7307 177.579 86.862C177.322 85.9588 177.068 85.0624 176.817 84.172C176.359 82.5611 175.905 80.9795 175.466 79.4445C175.284 78.7817 175.096 78.137 174.913 77.5043C174.176 74.9479 173.474 72.5432 172.83 70.3936C172.753 70.1169 172.67 69.8428 172.587 69.5842C172.186 68.2448 171.814 67.014 171.476 65.9211C171.412 65.7212 171.355 65.535 171.291 65.3506C171.191 65.023 171.09 64.711 170.996 64.4128C170.959 64.2844 170.918 64.1663 170.877 64.0474C170.644 63.3242 170.437 62.7036 170.252 62.1796C170.023 61.5159 169.828 61.0195 169.685 60.7126C169.623 60.5816 169.564 60.4567 169.493 60.3377C169.399 60.1524 169.298 59.9705 169.185 59.7947C169.084 59.6129 168.975 59.4439 168.851 59.2802C168.762 59.1388 168.66 59.0035 168.556 58.8768L168.409 58.6949C168.31 58.5656 168.208 58.445 168.103 58.3346C167.98 58.1864 167.844 58.0442 167.705 57.9106C167.277 57.4865 166.815 57.1013 166.323 56.7686C168.318 57.0409 170.206 57.9132 171.706 59.2905C172.21 59.7482 172.67 60.2722 173.069 60.848C173.403 61.316 173.703 61.8245 173.956 62.3623Z" fill="#E05829"/>
<path fill-rule="evenodd" clip-rule="evenodd" d="M170.585 23.4319L132.13 23.4308L143.52 9.47241H181.981L170.585 23.4319Z" fill="#D0FFEA"/>
<path fill-rule="evenodd" clip-rule="evenodd" d="M192.699 121.396L170.27 121.397L170.266 23.4319H192.699V121.396Z" fill="#1FB573"/>
<path fill-rule="evenodd" clip-rule="evenodd" d="M181.203 9.47241L176.746 14.8823L192.698 23.4319L181.203 9.47241Z" fill="#0C8751"/>
<path fill-rule="evenodd" clip-rule="evenodd" d="M192.699 23.4319L177.135 14.7073L170.266 23.4319H192.699Z" fill="#54DB9F"/>
<path fill-rule="evenodd" clip-rule="evenodd" d="M177.378 0H148.198C145.656 0 143.596 2.11231 143.596 4.71776V9.47248H181.981V4.71776C181.981 2.11231 179.92 0 177.378 0Z" fill="#0C8751"/>
<path fill-rule="evenodd" clip-rule="evenodd" d="M170.266 23.4453L170.261 121.395L131.883 121.397L131.881 23.4319L170.266 23.4453Z" fill="#A5E7CA"/>
<path fill-rule="evenodd" clip-rule="evenodd" d="M164.284 76.777C164.284 84.0721 158.369 89.9887 151.074 89.9887C143.778 89.9887 137.863 84.0721 137.863 76.777C137.863 69.4798 143.778 63.5654 151.074 63.5654C158.369 63.5654 164.284 69.4798 164.284 76.777Z" fill="#FFFFFE"/>
<path fill-rule="evenodd" clip-rule="evenodd" d="M156.359 56.8349H146.037C144.968 56.8349 144.095 55.9377 144.095 54.8406C144.095 53.7435 144.968 52.8464 146.037 52.8464H156.359C157.428 52.8464 158.302 53.7435 158.302 54.8406C158.302 55.9377 157.428 56.8349 156.359 56.8349Z" fill="#0C8751"/>
<path fill-rule="evenodd" clip-rule="evenodd" d="M161.85 49.3566H140.545C139.482 49.3566 138.61 48.5155 138.61 47.487C138.61 46.4585 139.482 45.6174 140.545 45.6174H161.85C162.915 45.6174 163.785 46.4585 163.785 47.487C163.785 48.5155 162.915 49.3566 161.85 49.3566Z" fill="#0C8751"/>
<path fill-rule="evenodd" clip-rule="evenodd" d="M185.604 51.8495H177.11C175.675 51.8495 174.503 50.7003 174.503 49.2958V36.7035C174.503 35.299 175.675 34.1509 177.11 34.1509H185.604C187.038 34.1509 188.212 35.299 188.212 36.7035V49.2958C188.212 50.7003 187.038 51.8495 185.604 51.8495Z" fill="white"/>
<path fill-rule="evenodd" clip-rule="evenodd" d="M185.604 97.4669H177.11C175.675 97.4669 174.503 96.2846 174.503 94.8396V59.9608C174.503 58.5158 175.675 57.3335 177.11 57.3335H185.604C187.038 57.3335 188.212 58.5158 188.212 59.9608V94.8396C188.212 96.2846 187.038 97.4669 185.604 97.4669Z" fill="#6AABD2"/>
<path fill-rule="evenodd" clip-rule="evenodd" d="M117.938 91.372H6.46875V71.6246C6.46875 62.5759 13.7868 55.2402 22.815 55.2402H101.592C110.62 55.2402 117.938 62.5759 117.938 71.6246V91.372Z" fill="#ADA7F9"/>
<path fill-rule="evenodd" clip-rule="evenodd" d="M10.6992 95.6081V72.0373C10.6992 65.5237 15.997 60.2239 22.5094 60.2239H101.648C108.161 60.2239 113.46 65.5237 113.46 72.0373V95.6081H10.6992Z" fill="#6459E7"/>
<path fill-rule="evenodd" clip-rule="evenodd" d="M25.3311 78.9744C26.1368 80.8679 26.6088 83.0735 26.6088 85.4399C26.6088 92.4119 22.5911 98.0634 17.634 98.0634C15.5991 98.0634 13.7287 97.0991 12.2227 95.4933C13.7902 99.1767 16.6462 101.65 19.9197 101.65C24.8756 101.65 28.8933 95.9987 28.8933 89.0266C28.8933 84.9181 27.4914 81.2801 25.3311 78.9744Z" fill="#D6CBAE"/>
<path fill-rule="evenodd" clip-rule="evenodd" d="M18.1752 98.0998C22.9788 98.0998 26.8721 92.3782 26.8721 85.3195C26.8721 82.9238 26.4147 80.6907 25.634 78.7737C24.1757 77.1478 22.362 76.1716 20.3901 76.1716C15.5877 76.1716 11.6943 81.8933 11.6943 88.9508C11.6943 91.3477 12.1506 93.5807 12.9314 95.4978C14.3908 97.1236 16.2033 98.0998 18.1752 98.0998Z" fill="#F2EDDE"/>
<path fill-rule="evenodd" clip-rule="evenodd" d="M16.0318 83.3976C15.8224 83.4036 15.6095 83.3485 15.4215 83.2265C14.923 82.9047 14.779 82.2383 15.0991 81.737C16.5327 79.4961 18.4661 78.2279 20.5434 78.1657C21.1347 78.1477 21.6285 78.6167 21.6463 79.2113C21.663 79.8059 21.1978 80.3025 20.6065 80.3192C19.2573 80.3599 17.9414 81.2775 16.9015 82.9035C16.7029 83.2133 16.3733 83.3868 16.0318 83.3976Z" fill="#FFFFFE"/>
<path fill-rule="evenodd" clip-rule="evenodd" d="M109.991 78.756C110.796 80.6495 111.268 82.8551 111.268 85.2215C111.268 92.1935 107.251 97.845 102.294 97.845C100.258 97.845 98.3878 96.8808 96.8818 95.2749C98.4505 98.9583 101.305 101.432 104.578 101.432C109.535 101.432 113.553 95.7803 113.553 88.8082C113.553 84.6998 112.151 81.0618 109.991 78.756Z" fill="#D6CBAE"/>
<path fill-rule="evenodd" clip-rule="evenodd" d="M102.524 98.0998C107.328 98.0998 111.221 92.3782 111.221 85.3195C111.221 82.9238 110.763 80.6907 109.983 78.7737C108.523 77.1478 106.711 76.1716 104.738 76.1716C99.936 76.1716 96.043 81.8933 96.043 88.9508C96.043 91.3477 96.5004 93.5807 97.2799 95.4978C98.7392 97.1236 100.552 98.0998 102.524 98.0998Z" fill="#F2EDDE"/>
<path fill-rule="evenodd" clip-rule="evenodd" d="M100.878 83.3976C100.669 83.4036 100.456 83.3485 100.267 83.2265C99.7697 82.9047 99.6257 82.2383 99.9458 81.737C101.38 79.4961 103.313 78.2279 105.391 78.1657C105.982 78.1477 106.476 78.6167 106.493 79.2113C106.511 79.8059 106.046 80.3025 105.454 80.3192C104.105 80.3599 102.789 81.2775 101.749 82.9035C101.55 83.2133 101.219 83.3868 100.878 83.3976Z" fill="#FFFFFE"/>
<path fill-rule="evenodd" clip-rule="evenodd" d="M88.7493 79.411C89.555 81.3045 90.0258 83.5102 90.0258 85.8765C90.0258 92.8486 86.0081 98.5 81.0522 98.5C79.0173 98.5 77.1457 97.5358 75.6396 95.9299C77.2072 99.6133 80.0632 102.087 83.3367 102.087C88.2938 102.087 92.3104 96.4353 92.3104 89.4633C92.3104 85.3548 90.9096 81.7168 88.7493 79.411Z" fill="#D6CBAE"/>
<path fill-rule="evenodd" clip-rule="evenodd" d="M81.3756 98.0998C86.178 98.0998 90.0713 92.3782 90.0713 85.3195C90.0713 82.9238 89.6151 80.6907 88.8343 78.7737C87.3749 77.1478 85.5624 76.1716 83.5893 76.1716C78.7869 76.1716 74.8936 81.8933 74.8936 88.9508C74.8936 91.3477 75.351 93.5807 76.1306 95.4978C77.59 97.1236 79.4037 98.0998 81.3756 98.0998Z" fill="#F2EDDE"/>
<path fill-rule="evenodd" clip-rule="evenodd" d="M79.9772 83.3976C79.7689 83.4036 79.5559 83.3485 79.3667 83.2265C78.8693 82.9047 78.7253 82.2383 79.0454 81.737C80.4781 79.4961 82.413 78.2279 84.4895 78.1657C85.082 78.1477 85.5759 78.6167 85.5925 79.2113C85.6104 79.8059 85.1451 80.3025 84.5537 80.3192C83.2031 80.3599 81.8882 81.2775 80.847 82.9035C80.6483 83.2133 80.3187 83.3868 79.9772 83.3976Z" fill="#FFFFFE"/>
<path fill-rule="evenodd" clip-rule="evenodd" d="M67.1956 78.756C68.0013 80.6495 68.4721 82.8551 68.4721 85.2215C68.4721 92.1935 64.4544 97.845 59.4985 97.845C57.4636 97.845 55.592 96.8808 54.0859 95.2749C55.6535 98.9583 58.5095 101.432 61.783 101.432C66.7389 101.432 70.7566 95.7803 70.7566 88.8082C70.7566 84.6998 69.3559 81.0618 67.1956 78.756Z" fill="#D6CBAE"/>
<path fill-rule="evenodd" clip-rule="evenodd" d="M59.9771 98.0998C64.7796 98.0998 68.6729 92.3782 68.6729 85.3195C68.6729 82.9238 68.2166 80.6907 67.4359 78.7737C65.9765 77.1478 64.1639 76.1716 62.1909 76.1716C57.3884 76.1716 53.4951 81.8933 53.4951 88.9508C53.4951 91.3477 53.9514 93.5807 54.7321 95.4978C56.1916 97.1236 58.0052 98.0998 59.9771 98.0998Z" fill="#F2EDDE"/>
<path fill-rule="evenodd" clip-rule="evenodd" d="M58.0807 83.3976C57.8724 83.4036 57.6594 83.3485 57.4702 83.2265C56.9728 82.9047 56.8289 82.2383 57.1489 81.737C58.5817 79.4961 60.5165 78.2279 62.593 78.1657C63.1844 78.1477 63.6782 78.6167 63.6961 79.2113C63.7139 79.8059 63.2487 80.3025 62.6572 80.3192C61.3067 80.3599 59.9906 81.2775 58.9505 82.9035C58.753 83.2133 58.4222 83.3868 58.0807 83.3976Z" fill="#FFFFFE"/>
<path fill-rule="evenodd" clip-rule="evenodd" d="M46.2315 78.9744C47.0384 80.8679 47.5092 83.0735 47.5092 85.4399C47.5092 92.4119 43.4915 98.0634 38.5356 98.0634C36.4995 98.0634 34.6291 97.0991 33.123 95.4933C34.6906 99.1767 37.5466 101.65 40.8201 101.65C45.776 101.65 49.7937 95.9987 49.7937 89.0266C49.7937 84.9181 48.393 81.2801 46.2315 78.9744Z" fill="#D6CBAE"/>
<path fill-rule="evenodd" clip-rule="evenodd" d="M39.0767 98.0998C43.8792 98.0998 47.7725 92.3782 47.7725 85.3195C47.7725 82.9238 47.3162 80.6907 46.5344 78.7737C45.0761 77.1478 43.2624 76.1716 41.2905 76.1716C36.4881 76.1716 32.5947 81.8933 32.5947 88.9508C32.5947 91.3477 33.051 93.5807 33.8317 95.4978C35.2912 97.1236 37.1037 98.0998 39.0767 98.0998Z" fill="#F2EDDE"/>
<path fill-rule="evenodd" clip-rule="evenodd" d="M37.1807 83.3976C36.9713 83.4036 36.7595 83.3485 36.5703 83.2265C36.073 82.9047 35.9278 82.2383 36.2491 81.737C37.6817 79.4961 39.6164 78.2279 41.6927 78.1657C42.284 78.1477 42.7778 78.6167 42.7957 79.2113C42.8135 79.8059 42.3471 80.3025 41.7557 80.3192C40.4064 80.3599 39.0905 81.2775 38.0517 82.9035C37.8518 83.2133 37.5222 83.3868 37.1807 83.3976Z" fill="#FFFFFE"/>
<mask id="mask0" mask-type="alpha" maskUnits="userSpaceOnUse" x="0" y="90" width="125" height="33">
<path d="M0.0703125 90.819H124.789V122.135H0.0703125V90.819Z" fill="white"/>
</mask>
<g mask="url(#mask0)">
<path fill-rule="evenodd" clip-rule="evenodd" d="M119.033 96.4956L118.584 97.7898L117.004 102.328L116.154 104.748L111.987 116.714C110.858 119.957 107.785 122.135 104.335 122.135H97.0462C93.3901 122.135 90.39 119.158 90.39 115.505C90.39 114.682 89.9032 113.884 89.1141 113.654C87.8511 113.266 86.6849 114.198 86.6849 115.408V115.505C86.6849 119.158 83.6965 122.135 80.0275 122.135H70.8931C67.2241 122.135 64.2474 119.171 64.2474 115.518V115.505C64.2474 114.585 63.6158 113.738 62.7053 113.593C61.5508 113.399 60.5434 114.283 60.5434 115.408V115.505C60.5434 119.158 57.555 122.135 53.886 122.135H44.7516C41.0826 122.135 38.107 119.171 38.107 115.518C38.107 114.598 37.4743 113.738 36.5638 113.593C35.3976 113.399 34.3891 114.283 34.3891 115.408V115.505C34.3891 119.158 31.4018 122.135 27.7329 122.135H20.3961C16.9466 122.135 13.873 119.957 12.743 116.702L7.76195 102.328L6.20705 97.7898L5.75879 96.4956H119.033Z" fill="#C4C4D7"/>
<path fill-rule="evenodd" clip-rule="evenodd" d="M121.293 97.784H3.49619C1.56541 97.784 0 96.2247 0 94.3015C0 92.3783 1.56541 90.819 3.49619 90.819H121.293C123.224 90.819 124.789 92.3783 124.789 94.3015C124.789 96.2247 123.224 97.784 121.293 97.784Z" fill="#C4C4D7"/>
</g>
<path fill-rule="evenodd" clip-rule="evenodd" d="M118.934 96.3556L118.485 97.6511L116.906 102.194L116.057 104.616L111.892 116.595C110.764 119.841 107.692 122.022 104.244 122.022H96.9594C93.3053 122.022 90.3069 119.042 90.3069 115.385C90.3069 114.56 89.8204 113.762 89.0317 113.531C87.7693 113.144 86.6038 114.076 86.6038 115.288V115.385C86.6038 119.042 83.617 122.022 79.9501 122.022H70.8207C67.1538 122.022 64.1787 119.055 64.1787 115.397V115.385C64.1787 114.464 63.5475 113.616 62.6375 113.471C61.4837 113.277 60.4768 114.161 60.4768 115.288V115.385C60.4768 119.042 57.4901 122.022 53.8231 122.022H44.6938C41.0268 122.022 38.0529 119.055 38.0529 115.397C38.0529 114.477 37.4206 113.616 36.5106 113.471C35.345 113.277 34.337 114.161 34.337 115.288V115.385C34.337 119.042 31.3514 122.022 27.6845 122.022H20.3518C16.9043 122.022 13.8324 119.841 12.703 116.583L7.7247 102.194L6.17067 97.6511L5.72266 96.3556H118.934Z" fill="#CEC8FE"/>
<path fill-rule="evenodd" clip-rule="evenodd" d="M121.406 97.8507H3.49946C1.56687 97.8507 0 96.2887 0 94.3621C0 92.4355 1.56687 90.8735 3.49946 90.8735H121.406C123.339 90.8735 124.906 92.4355 124.906 94.3621C124.906 96.2887 123.339 97.8507 121.406 97.8507Z" fill="#CEC8FE"/>
<path fill-rule="evenodd" clip-rule="evenodd" d="M118.934 97.8506L117.353 102.336H8.02487L6.46875 97.8506H118.934Z" fill="#ADA7F9"/>
<path fill-rule="evenodd" clip-rule="evenodd" d="M189.814 43.9841H189.271L190.691 42.581C191.044 42.2322 191.044 41.6674 190.691 41.3194C190.339 40.9714 189.767 40.9714 189.415 41.3194L187.995 42.7233V42.1868C187.995 41.6939 187.59 41.2945 187.092 41.2945C186.593 41.2945 186.189 41.6939 186.189 42.1868V44.5069L184.702 45.9768V41.6339L187.433 38.935C188.012 38.3624 188.012 37.4334 187.433 36.8608C186.853 36.2874 185.913 36.2874 185.333 36.8608L184.702 37.4839V34.2184C184.702 33.4085 184.037 32.7511 183.217 32.7511C182.397 32.7511 181.732 33.4085 181.732 34.2184V37.4848L181.101 36.8608C180.521 36.2874 179.581 36.2874 179.002 36.8608C178.422 37.4334 178.422 38.3624 179.002 38.935L181.732 41.6339V45.9768L180.245 44.5069V42.1868C180.245 41.6939 179.841 41.2945 179.342 41.2945C178.844 41.2945 178.44 41.6939 178.44 42.1868V42.7233L177.019 41.3194C176.666 40.9714 176.096 40.9714 175.743 41.3194C175.39 41.6674 175.39 42.2322 175.743 42.581L177.163 43.9841H176.62C176.122 43.9841 175.718 44.3835 175.718 44.8763C175.718 45.3683 176.122 45.7677 176.62 45.7677H178.968L181.732 48.4992V48.9114L179.131 51.4818L180.407 52.7435L181.732 51.4338V57.8603H184.702V51.4338L186.027 52.7435L187.304 51.4818L184.702 48.9114V48.4992L187.466 45.7677H189.814C190.312 45.7677 190.716 45.3683 190.716 44.8763C190.716 44.3835 190.312 43.9841 189.814 43.9841Z" fill="#8BC156"/>
<path fill-rule="evenodd" clip-rule="evenodd" d="M192.917 58.3267C192.911 61.4041 192.248 64.5818 191.807 67.6141C191.185 71.8917 190.524 76.1631 189.848 80.4311C189.152 84.8227 188.436 89.2109 187.72 93.5991C187.365 95.7815 187.006 97.9631 186.644 100.145C186.478 101.141 186.313 102.139 186.146 103.135C186.006 103.973 185.968 104.957 185.606 105.733C185.083 106.855 183.833 107.401 182.672 107.142C181.037 106.777 180.75 105.328 180.492 103.853C182.26 103.639 182.673 102.139 182.931 100.58C183.252 98.6332 183.573 96.686 183.893 94.7379C184.569 90.6229 184.909 86.4224 185.569 82.3048C186.778 74.7693 188.372 67.3202 189.347 59.7483C189.569 58.0258 189.906 56.2343 189.808 54.4919C189.719 52.9027 189.268 51.3783 188.498 50C191.206 51.8132 192.917 54.9857 192.917 58.3267Z" fill="#E05829"/>
<path fill-rule="evenodd" clip-rule="evenodd" d="M190.084 54.8708C190.084 57.83 189.415 60.8801 188.987 63.7996C188.484 67.2267 185.069 87.9469 183.895 94.8841C183.574 96.7797 183.248 98.6762 182.926 100.572C182.666 102.093 182.187 103.506 180.426 103.712C178.627 93.2428 174.414 67.3616 174.07 64.8987C173.765 62.716 173.331 60.4754 173.3 58.2676C173.245 54.3225 175.706 50.6316 179.32 49.0664C181.788 47.9975 184.662 47.9828 187.144 49.0205C187.72 49.2618 188.708 49.8516 188.708 49.8516C189.042 50.3177 189.372 51.1513 189.551 51.6866C189.895 52.7088 190.084 53.7906 190.084 54.8708Z" fill="#E77C3B"/>
<path fill-rule="evenodd" clip-rule="evenodd" d="M179.184 62.5507C179.184 63.092 178.733 63.5371 178.184 63.5371H173.997C173.93 63.0775 173.87 62.6477 173.817 62.2401C173.787 62.0095 173.757 61.7873 173.734 61.572H178.184C178.733 61.572 179.184 62.0171 179.184 62.5507Z" fill="#E05829"/>
<path fill-rule="evenodd" clip-rule="evenodd" d="M183.326 68.6643C183.326 69.2055 182.892 69.6506 182.362 69.6506H174.909C174.835 69.2055 174.769 68.7681 174.702 68.3451C174.666 68.123 174.636 67.9 174.606 67.6855H182.362C182.892 67.6855 183.326 68.123 183.326 68.6643Z" fill="#E05829"/>
<path fill-rule="evenodd" clip-rule="evenodd" d="M187.904 92.1396C187.789 92.7952 187.682 93.4559 187.574 94.1047H181.46C180.929 94.1047 180.492 93.6609 180.492 93.1226C180.492 92.5835 180.929 92.1396 181.46 92.1396H187.904Z" fill="#E05829"/>
<path fill-rule="evenodd" clip-rule="evenodd" d="M192.917 56.7685H185.884C185.317 56.7685 184.852 56.3311 184.852 55.7898C184.852 55.2486 185.317 54.8035 185.884 54.8035H192.327C192.599 55.4264 192.801 56.086 192.917 56.7685Z" fill="#E05829"/>
<path fill-rule="evenodd" clip-rule="evenodd" d="M171.175 58.1668L170.689 58.3944L171.362 56.5286C171.529 56.0656 171.288 55.5555 170.823 55.3894C170.359 55.2234 169.847 55.4639 169.681 55.9261L169.008 57.7927L168.779 57.3075C168.569 56.8633 168.037 56.6715 167.59 56.8821C167.144 57.0918 166.952 57.6224 167.163 58.0675L167.931 59.6911L168.153 60.1635L167.449 62.1166L165.594 58.1941L166.887 54.6072C167.162 53.8454 166.765 53.0067 166.001 52.7328C165.237 52.4598 164.396 52.8543 164.122 53.6169L163.822 54.4454L162.428 51.4961C162.082 50.7643 161.206 50.4502 160.472 50.7951C159.738 51.14 159.423 52.013 159.769 52.7448L161.164 55.695L160.332 55.3971C159.568 55.1233 158.727 55.5187 158.452 56.2804C158.178 57.0421 158.575 57.8809 159.338 58.1539L162.126 59.1527L162.936 59.4429L164.791 63.3662L162.832 62.6635L162.607 62.192L161.84 60.5684C161.63 60.1233 161.097 59.9324 160.652 60.1421C160.205 60.3518 160.014 60.8825 160.224 61.3275L160.454 61.8119L158.581 61.1418C158.118 60.9757 157.606 61.2163 157.438 61.6793C157.272 62.1415 157.513 62.6516 157.978 62.8185L159.849 63.4886L159.363 63.7171C158.917 63.9268 158.725 64.4575 158.936 64.9025C159.146 65.3476 159.678 65.5376 160.125 65.3279L161.753 64.5627L162.227 64.3402L165.868 65.6446L166.044 66.016L164.813 69.4335L166.494 70.0361L167.121 68.2952L169.865 74.0998L172.524 72.851L169.779 67.0465L171.526 67.6713L172.13 65.9955L168.702 64.7673L168.527 64.3958L169.835 60.7652L171.938 59.7775C172.384 59.5678 172.575 59.0372 172.364 58.5921C172.154 58.1471 171.622 57.9562 171.175 58.1668Z" fill="#8BC156"/>
<path fill-rule="evenodd" clip-rule="evenodd" d="M176.268 67.641C176.412 67.9462 176.608 68.44 176.838 69.1001C177.825 71.8707 179.55 77.5653 181.529 84.3417C181.714 84.9709 181.903 85.6121 182.086 86.2714C183.691 91.7782 185.419 97.8672 187.047 103.63C187.227 104.283 187.404 104.93 187.585 105.568C188.269 107.993 188.922 110.334 189.537 112.532C189.906 113.842 189.305 114.93 188.373 115.502C184.92 110.607 180.942 104.947 177.151 99.5045C176.763 98.9473 176.382 98.4038 176.008 97.8569C173.072 93.6479 170.308 89.6249 168.042 86.2748C167.655 85.7022 167.283 85.1467 166.923 84.6152C166.048 83.3053 165.275 82.1309 164.622 81.1288C164.215 80.4979 163.859 79.927 163.557 79.4375C163.07 78.6531 162.73 78.0676 162.555 77.6999C160.501 73.376 161.891 68.3166 165.616 65.5725C166.139 65.1902 166.706 64.849 167.315 64.5653C167.816 64.3304 168.326 64.1452 168.842 64.0038C170.185 63.6189 171.555 63.5332 172.884 63.7183C174.185 64.5996 175.3 65.798 176.075 67.2682C176.146 67.3865 176.205 67.5107 176.268 67.641Z" fill="#E77C3B"/>
<path fill-rule="evenodd" clip-rule="evenodd" d="M177.89 84.152C178.123 84.6494 177.908 85.2518 177.413 85.4862L169.865 89.0645C169.459 88.4256 169.103 87.8474 168.802 87.3517L176.563 83.6719C177.058 83.4375 177.657 83.6545 177.89 84.152Z" fill="#E05829"/>
<path fill-rule="evenodd" clip-rule="evenodd" d="M177.64 90.8852C177.872 91.3858 177.665 91.9884 177.175 92.223L173.38 94.0527C172.997 93.4701 172.63 92.905 172.275 92.3643L176.337 90.4073C176.827 90.1718 177.41 90.3855 177.64 90.8852Z" fill="#E05829"/>
<path fill-rule="evenodd" clip-rule="evenodd" d="M192.917 58.0786V58.1007C192.917 58.4931 192.864 59.1535 192.764 60.0437H187.615C187.056 60.0437 186.596 59.5986 186.596 59.0573C186.596 58.5229 187.056 58.0786 187.615 58.0786H192.917Z" fill="#E05829"/>
<path fill-rule="evenodd" clip-rule="evenodd" d="M236.078 67.1393C236.078 77.329 227.832 85.5895 217.659 85.5895C207.485 85.5895 199.238 77.329 199.238 67.1393C199.238 56.9496 207.485 48.6899 217.659 48.6899C227.832 48.6899 236.078 56.9496 236.078 67.1393Z" fill="#046D3F"/>
<path fill-rule="evenodd" clip-rule="evenodd" d="M251.281 78.5655C255.117 98.9901 243.073 119.495 223.39 126.016C216.057 128.444 208.606 128.742 201.653 127.28C197.582 126.425 196.55 121.098 200.067 118.872C201.746 117.81 202.552 115.786 202.065 113.856L200.534 107.795C200.047 105.868 200.852 103.845 202.527 102.782L207.771 99.456C209.449 98.3917 210.253 96.367 209.764 94.4378L208.224 88.3716C207.734 86.4432 208.538 84.4168 210.216 83.3533L215.455 80.0288C217.132 78.9653 217.936 76.9398 217.448 75.0114L215.909 68.9451C215.42 67.0168 216.224 64.9912 217.9 63.9278L223.141 60.6032C224.818 59.5388 225.621 57.5133 225.132 55.5849L225.122 55.548C224.114 51.5752 228.429 48.3254 231.923 50.4567C241.647 56.3897 248.974 66.2817 251.281 78.5655Z" fill="#0C8751"/>
<path fill-rule="evenodd" clip-rule="evenodd" d="M184.254 78.5655C180.418 98.9901 192.463 119.495 212.144 126.016C219.479 128.444 226.928 128.742 233.882 127.28C237.953 126.425 238.985 121.098 235.468 118.872C233.789 117.81 232.983 115.786 233.47 113.856L235.001 107.795C235.488 105.868 234.683 103.845 233.007 102.782L227.763 99.456C226.086 98.3917 225.282 96.367 225.772 94.4378L227.312 88.3716C227.801 86.4432 226.997 84.4168 225.32 83.3533L220.08 80.0288C218.402 78.9653 217.598 76.9398 218.088 75.0114L219.626 68.9451C220.115 67.0168 219.311 64.9912 217.634 63.9278L212.395 60.6032C210.718 59.5388 209.913 57.5133 210.404 55.5849L210.412 55.548C211.422 51.5752 207.106 48.3254 203.613 50.4567C193.889 56.3897 186.561 66.2817 184.254 78.5655Z" fill="#1FB573"/>
<path fill-rule="evenodd" clip-rule="evenodd" d="M259.369 94.9921C257.167 115.272 240.262 131.164 220 132.241C219.605 132.272 219.195 132.287 218.8 132.303C218.694 132.303 218.573 132.318 218.466 132.303C217.752 132.318 217.038 132.318 216.324 132.303C215.595 132.272 214.866 132.227 214.153 132.167C208.153 131.681 202.518 129.92 197.552 127.187C194.179 125.351 194.377 120.615 197.566 119.036C197.84 118.869 198.144 118.763 198.462 118.671C198.553 118.656 198.63 118.626 198.706 118.581C199.085 118.474 199.419 118.308 199.739 118.111C200.969 117.321 201.758 115.969 201.835 114.452L201.849 114.072V114.012L202.138 108.213C202.23 106.224 203.581 104.525 205.51 103.993L211.51 102.324C213.424 101.792 214.791 100.092 214.882 98.1035L215.155 91.8497C215.23 90.2867 216.096 88.8897 217.388 88.1164C217.737 87.8884 218.117 87.7215 218.527 87.6149L224.527 85.9607C225.317 85.7482 226 85.3379 226.516 84.7908C227.23 84.1077 227.701 83.2277 227.838 82.2411C227.868 82.0742 227.883 81.9073 227.898 81.7404L228.187 75.4866C228.279 73.4978 229.63 71.7825 231.559 71.2517L235.599 70.1429L237.558 69.5967C239.472 69.0659 240.839 67.3652 240.93 65.3773V65.3317C241.021 63.3282 242.297 61.8555 243.892 61.2336C245.532 60.5953 247.537 60.8843 248.935 62.4473C256.559 70.9481 260.721 82.5602 259.369 94.9921Z" fill="#77E0B2"/>
<path fill-rule="evenodd" clip-rule="evenodd" d="M253.893 77.7799L252.244 76.079C252.052 75.8787 251.78 75.765 251.497 75.7642C251.215 75.7642 250.944 75.877 250.75 76.0756C249.854 76.9914 245.427 81.9022 246.194 88.6344C246.252 89.1394 246.693 89.5196 247.216 89.5196H247.23L248.226 89.5077C248.498 89.5035 248.758 89.3948 248.948 89.2056C249.138 89.0171 249.243 88.7625 249.239 88.4986C249.215 86.7459 249.61 84.9797 250.382 83.3909C251.166 81.7817 252.341 80.3473 253.782 79.2406C254.007 79.0674 254.147 78.8111 254.168 78.5336C254.189 78.2569 254.089 77.9836 253.893 77.7799Z" fill="#191847"/>
<path fill-rule="evenodd" clip-rule="evenodd" d="M251.14 97.38H244.777C241.671 97.38 239.13 94.8747 239.13 91.8119C239.13 88.75 241.671 86.2446 244.777 86.2446H251.14C254.246 86.2446 256.787 88.75 256.787 91.8119C256.787 94.8747 254.246 97.38 251.14 97.38Z" fill="#191847"/>
<path fill-rule="evenodd" clip-rule="evenodd" d="M241.868 119.58C245.966 119.053 249.106 115.67 249.34 111.532L250.012 99.6476C250.395 92.8871 244.564 87.4376 237.87 88.2995C231.175 89.1607 226.904 95.9092 228.975 102.354L232.614 113.684C233.882 117.629 237.771 120.107 241.868 119.58Z" fill="#6459E7"/>
<path fill-rule="evenodd" clip-rule="evenodd" d="M253.832 119.58C249.735 119.053 246.594 115.67 246.361 111.532L245.688 99.6476C245.306 92.8871 251.135 87.4376 257.83 88.2995C264.525 89.1607 268.796 95.9092 266.725 102.354L263.086 113.684C261.819 117.629 257.929 120.107 253.832 119.58Z" fill="#4A2CB1"/>
<path fill-rule="evenodd" clip-rule="evenodd" d="M247.741 121.397C243.359 121.397 239.601 118.268 238.798 113.953L236.494 101.557C235.182 94.5048 240.582 87.9912 247.741 87.9912C254.899 87.9912 260.3 94.5048 258.988 101.557L256.683 113.953C255.881 118.268 252.122 121.397 247.741 121.397Z" fill="#A7A5E5"/>
<path fill-rule="evenodd" clip-rule="evenodd" d="M240.199 97.8166C240.063 97.8166 239.924 97.7953 239.788 97.7495C239.115 97.5254 238.753 96.8029 238.98 96.1364C239.348 95.0574 239.909 94.0641 240.648 93.1828C241.526 92.1377 242.597 91.3142 243.832 90.7352C244.473 90.4321 245.241 90.7046 245.545 91.3414C245.85 91.9764 245.575 92.7362 244.933 93.0368C244.039 93.4562 243.264 94.053 242.627 94.8112C242.091 95.4496 241.685 96.1695 241.419 96.9506C241.238 97.4821 240.736 97.8166 240.199 97.8166Z" fill="white"/>
<path fill-rule="evenodd" clip-rule="evenodd" d="M256.983 129.385C242.583 134.273 225.135 132.71 212.717 123.404C209.26 120.819 205.588 117.688 203.295 113.935C203.144 113.69 203.026 113.427 202.937 113.161C202.532 111.997 202.729 110.72 203.373 109.79C204.202 110.836 205.13 111.834 206.115 112.782L206.128 112.786C207.752 114.369 209.537 115.799 211.27 117.1C223.675 126.401 241.123 127.964 255.536 123.081C267.797 118.915 279.219 109.417 283.65 96.966C284.714 96.5824 285.789 96.2023 286.869 95.8516C285.036 111.925 271.598 124.432 256.983 129.385Z" fill="#D99D1B"/>
<path fill-rule="evenodd" clip-rule="evenodd" d="M283.818 97.3799C279.377 109.642 267.933 118.995 255.647 123.098C241.206 127.906 223.724 126.367 211.293 117.208C209.557 115.927 207.769 114.518 206.142 112.959L206.129 112.955C205.142 112.022 204.212 111.039 203.381 110.009C204.051 109.02 205.2 108.398 206.671 108.607C207.486 108.677 208.32 108.739 209.135 108.81C221.921 109.789 234.579 110.058 247.322 108.034C254.283 106.927 261.021 105.145 267.782 103.179C273.254 101.599 278.475 99.3051 283.818 97.3799Z" fill="#F9C346"/>
<path fill-rule="evenodd" clip-rule="evenodd" d="M285.021 101.528L283.817 97.0971L287.483 93.2333C288.621 92.0329 290.532 92.0729 291.62 93.3194C292.729 94.5928 292.489 96.5564 291.106 97.5186L285.021 101.528Z" fill="#F7C032"/>
<path fill-rule="evenodd" clip-rule="evenodd" d="M208.62 110.028C208.185 111.368 207.17 112.359 205.873 112.879L205.86 112.874C204.918 113.266 203.839 113.408 202.717 113.264C202.317 112.068 202.512 110.756 203.148 109.801C203.809 108.769 204.944 108.121 206.396 108.339C207.2 108.412 208.023 108.477 208.828 108.55C208.845 109.04 208.777 109.542 208.62 110.028Z" fill="#191847"/>
<path fill-rule="evenodd" clip-rule="evenodd" d="M285.29 105.078C286.378 101.03 285.596 96.9197 283.496 93.6681C280.06 95.3805 277.33 98.5148 276.242 102.563C275.153 106.611 275.935 110.722 278.035 113.974C281.471 112.261 284.2 109.126 285.29 105.078Z" fill="#8AC36B"/>
<path fill-rule="evenodd" clip-rule="evenodd" d="M282.209 104.882C279.776 106.486 278.306 108.992 277.932 111.666C280.541 112.371 283.428 112.007 285.861 110.403C288.295 108.799 289.765 106.292 290.139 103.618C287.53 102.913 284.643 103.277 282.209 104.882Z" fill="#50A051"/>
<path fill-rule="evenodd" clip-rule="evenodd" d="M278.504 104.148C279.689 105.453 280.66 106.999 281.321 108.763C284.079 116.135 280.476 124.399 273.273 127.222C270.016 128.498 266.586 128.433 263.545 127.309C267.31 131.451 273.287 133.077 278.765 130.93C285.969 128.107 289.572 119.843 286.814 112.473C285.302 108.432 282.19 105.51 278.504 104.148Z" fill="#E05829"/>
<path fill-rule="evenodd" clip-rule="evenodd" d="M281.573 109.139C280.905 107.389 279.924 105.855 278.728 104.561C275.657 103.447 272.192 103.382 268.904 104.648C261.629 107.448 257.99 115.646 260.775 122.958C261.442 124.708 262.423 126.242 263.62 127.534C266.691 128.65 270.156 128.714 273.444 127.448C280.719 124.648 284.359 116.451 281.573 109.139Z" fill="#FF7A00"/>
<path fill-rule="evenodd" clip-rule="evenodd" d="M265.715 112.445C265.433 112.445 265.149 112.356 264.91 112.169C264.347 111.728 264.252 110.921 264.698 110.365C266.033 108.695 267.814 107.406 269.846 106.637C270.516 106.38 271.267 106.715 271.524 107.376C271.781 108.039 271.446 108.781 270.776 109.035C269.178 109.64 267.782 110.651 266.735 111.958C266.478 112.279 266.099 112.445 265.715 112.445Z" fill="#F2B183"/>
<path fill-rule="evenodd" clip-rule="evenodd" d="M274.203 122.707C274.022 123.96 272.862 124.829 271.611 124.649C270.36 124.468 269.492 123.306 269.672 122.052C269.852 120.8 271.013 119.93 272.264 120.111C273.515 120.292 274.383 121.453 274.203 122.707Z" fill="#E05829"/>
<path fill-rule="evenodd" clip-rule="evenodd" d="M280.096 115.502C279.976 116.337 279.202 116.917 278.368 116.796C277.534 116.677 276.956 115.901 277.075 115.066C277.196 114.231 277.97 113.651 278.803 113.771C279.637 113.892 280.215 114.667 280.096 115.502Z" fill="#E05829"/>
<path fill-rule="evenodd" clip-rule="evenodd" d="M273.562 112.913C273.484 113.45 272.987 113.823 272.452 113.745C271.915 113.668 271.544 113.17 271.62 112.633C271.698 112.095 272.195 111.723 272.732 111.801C273.267 111.877 273.639 112.375 273.562 112.913Z" fill="#E05829"/>
<path fill-rule="evenodd" clip-rule="evenodd" d="M197.926 121.546L189.43 119.202V115.296L197.926 112.952C199.135 112.618 200.329 113.528 200.329 114.781V119.717C200.329 120.97 199.135 121.88 197.926 121.546Z" fill="#DE4B3B"/>
<path fill-rule="evenodd" clip-rule="evenodd" d="M176.832 97.3799L138.369 97.4212L130.573 127.074L184.307 126.962C188.333 126.962 192.084 125.728 195.204 123.622C195.967 121.536 196.405 119.298 196.405 116.957C196.405 106.19 187.597 97.3799 176.832 97.3799Z" fill="#DE4B3B"/>
<path fill-rule="evenodd" clip-rule="evenodd" d="M184.202 126.884L130.473 126.995L127.958 136.463L176.728 136.351C185.152 136.351 192.355 131.005 195.098 123.581C191.978 125.664 188.227 126.884 184.202 126.884Z" fill="#B43C35"/>
<path fill-rule="evenodd" clip-rule="evenodd" d="M165.797 107.205H143.525C142.635 107.205 141.909 106.468 141.909 105.568C141.909 104.668 142.635 103.93 143.525 103.93H165.797C166.686 103.93 167.413 104.668 167.413 105.568C167.413 106.468 166.686 107.205 165.797 107.205Z" fill="#E77A6B"/>
<path fill-rule="evenodd" clip-rule="evenodd" d="M144.93 122.013C140.569 132.586 131.825 138.976 125.402 136.284C118.978 133.593 117.306 122.839 121.666 112.267C126.028 101.693 134.771 95.3031 141.195 97.9955C147.618 100.687 149.292 111.44 144.93 122.013Z" fill="#EC9898"/>
<path fill-rule="evenodd" clip-rule="evenodd" d="M139.934 122.656C139.782 124.276 138.347 125.466 136.729 125.314C135.112 125.161 133.923 123.725 134.075 122.104C134.226 120.483 135.661 119.293 137.28 119.445C138.898 119.598 140.087 121.035 139.934 122.656Z" fill="#F4C4B7"/>
<path fill-rule="evenodd" clip-rule="evenodd" d="M143.861 112.114C143.742 113.374 142.626 114.301 141.368 114.182C140.11 114.064 139.184 112.945 139.303 111.685C139.421 110.424 140.538 109.499 141.796 109.617C143.055 109.736 143.978 110.854 143.861 112.114Z" fill="#F4C4B7"/>
<path fill-rule="evenodd" clip-rule="evenodd" d="M126.64 120.848C126.521 122.108 125.405 123.034 124.147 122.915C122.889 122.797 121.964 121.679 122.083 120.42C122.2 119.159 123.317 118.233 124.575 118.351C125.834 118.47 126.758 119.588 126.64 120.848Z" fill="#F4C4B7"/>
<path fill-rule="evenodd" clip-rule="evenodd" d="M134.708 104.629C134.623 105.53 133.827 106.191 132.927 106.106C132.029 106.022 131.369 105.223 131.452 104.324C131.537 103.422 132.335 102.761 133.233 102.846C134.133 102.931 134.792 103.729 134.708 104.629Z" fill="#F4C4B7"/>
<path fill-rule="evenodd" clip-rule="evenodd" d="M127.079 128.865C126.994 129.766 126.197 130.426 125.298 130.342C124.398 130.257 123.739 129.458 123.824 128.559C123.908 127.659 124.705 126.997 125.603 127.081C126.503 127.166 127.163 127.964 127.079 128.865Z" fill="#F4C4B7"/>
<path fill-rule="evenodd" clip-rule="evenodd" d="M107.763 107.599C110.773 104.418 114.858 102.909 118.898 103.068C119.248 107.128 117.946 111.314 114.936 114.495C111.926 117.676 107.841 119.185 103.799 119.026C103.451 114.965 104.753 110.781 107.763 107.599Z" fill="#0C8751"/>
<path fill-rule="evenodd" clip-rule="evenodd" d="M104.507 119.287C105.063 119.274 105.502 118.817 105.49 118.268C105.318 111.09 99.2719 105.388 92.0113 105.557C91.4558 105.571 91.015 106.028 91.0286 106.577C91.0413 107.125 91.5031 107.561 92.0586 107.548C98.2082 107.405 103.331 112.234 103.477 118.315C103.49 118.863 103.953 119.299 104.507 119.287Z" fill="#873325"/>
<mask id="mask1" mask-type="alpha" maskUnits="userSpaceOnUse" x="86" y="115" width="35" height="33">
<path d="M86.6035 115.619H120.444V147.619H86.6035V115.619Z" fill="white"/>
</mask>
<g mask="url(#mask1)">
<path fill-rule="evenodd" clip-rule="evenodd" d="M117.995 116.691C115.046 115.158 110.679 115.129 104.561 117.529C80.4415 109.368 84.219 136.305 94.6189 146.226C108.112 154 127.282 127.165 117.995 116.691Z" fill="#1FB573"/>
</g>
<path fill-rule="evenodd" clip-rule="evenodd" d="M90.6347 128.776H90.6209C89.7369 128.768 89.0247 128.073 89.0333 127.224C89.0472 125.661 89.3013 124.272 89.7881 123.097C90.0646 122.431 90.9049 120.406 93.7053 119.601C94.553 119.36 95.4445 119.82 95.6975 120.634C95.9516 121.448 95.4701 122.305 94.6224 122.55C93.5302 122.863 93.0903 123.449 92.7636 124.236C92.4241 125.055 92.2469 126.069 92.2362 127.25C92.2277 128.096 91.5134 128.776 90.6347 128.776Z" fill="white"/>
<path fill-rule="evenodd" clip-rule="evenodd" d="M117.952 116.79C126.787 127.659 107.451 153.049 94.7686 146.474C97.0532 148.681 99.6591 150.036 102.357 149.999L108.54 149.841C120.205 149.232 128.831 122.523 117.952 116.79Z" fill="#0C8751"/>
</svg>
