<svg width="292" height="160" viewBox="0 0 292 160" fill="none" xmlns="http://www.w3.org/2000/svg">
<path fill-rule="evenodd" clip-rule="evenodd" d="M250.291 71.6323C250.755 69.0673 250.999 66.4258 250.999 63.7269C250.999 39.4017 231.303 19.6821 207.008 19.6821C203.491 19.6821 200.071 20.0979 196.792 20.8786C182.393 8.02233 162.009 0 139.404 0C107.462 0 79.9498 16.017 67.5037 39.0611C65.1772 38.7888 62.8118 38.6441 60.4123 38.6441C27.0476 38.6441 0 65.7249 0 99.1307C0 132.536 27.0476 159.617 60.4123 159.617H247.283C271.578 159.617 291.274 139.898 291.274 115.572C291.274 92.2598 273.183 73.1804 250.291 71.6323Z" fill="url(#paint0_linear)"/>
<path fill-rule="evenodd" clip-rule="evenodd" d="M108.08 159.521H135.029V116.65H108.08V159.521Z" fill="#6459E7"/>
<path fill-rule="evenodd" clip-rule="evenodd" d="M81.7539 159.521H161.547C161.89 159.521 162.169 159.242 162.169 158.898V155.742C162.169 155.398 161.89 155.119 161.547 155.119H81.7539C81.4103 155.119 81.1318 155.398 81.1318 155.742V158.898C81.1318 159.242 81.4103 159.521 81.7539 159.521Z" fill="#6459E7"/>
<path fill-rule="evenodd" clip-rule="evenodd" d="M45.2156 137.129H197.894C200.33 137.129 202.305 135.15 202.305 132.71V35.901C202.305 33.4608 200.33 31.4827 197.894 31.4827H45.2156C42.7795 31.4827 40.8047 33.4608 40.8047 35.901V132.71C40.8047 135.15 42.7795 137.129 45.2156 137.129Z" fill="#858DFD"/>
<path d="M193.092 129.856H50.017C48.9403 129.856 48.0674 128.982 48.0674 127.903V40.708C48.0674 39.6297 48.9403 38.7554 50.017 38.7554H193.092C194.169 38.7554 195.042 39.6297 195.042 40.708V127.903C195.042 128.982 194.169 129.856 193.092 129.856Z" fill="url(#paint1_linear)"/>
<path fill-rule="evenodd" clip-rule="evenodd" d="M193.092 129.856H191.732V38.7554H193.092C194.169 38.7554 195.042 39.6297 195.042 40.708V127.903C195.042 128.982 194.169 129.856 193.092 129.856Z" fill="#13113C"/>
<path fill-rule="evenodd" clip-rule="evenodd" d="M85.957 88.8695C85.957 88.8695 86.9127 87.3851 87.8853 87.1801C90.175 86.6972 97.8265 88.1493 100.057 89.3522C101.624 90.1971 101.624 92.7315 101.624 92.7315L85.957 88.8695Z" fill="#191847"/>
<path fill-rule="evenodd" clip-rule="evenodd" d="M102.679 92.3767C102.679 92.3767 98.8522 88.9903 89.8136 88.3868C80.7749 87.7834 77.28 91.2831 64.0234 91.766V132.073C64.0234 132.073 68.4262 132.114 69.2979 132.878C70.1696 133.642 102.679 92.3767 102.679 92.3767Z" fill="url(#paint2_linear)"/>
<path fill-rule="evenodd" clip-rule="evenodd" d="M88.6679 139.495C88.6679 139.495 92.8256 149.814 99.213 156.21C105.269 162.274 113.007 159.66 115.663 154.46C119.7 146.555 119.52 124.048 113.012 108.963C113.012 108.963 87.1012 118.135 88.6679 139.495Z" fill="url(#paint3_linear)"/>
<path fill-rule="evenodd" clip-rule="evenodd" d="M113.012 108.963C113.358 109.896 113.647 110.85 113.915 111.809C114.181 112.77 114.411 113.741 114.621 114.717C115.022 116.673 115.322 118.657 115.439 120.665C115.501 121.669 115.522 122.677 115.482 123.688C115.445 124.699 115.348 125.712 115.177 126.718C115.096 127.22 114.981 127.726 114.86 128.216C114.738 128.702 114.609 129.186 114.477 129.668C114.209 130.631 113.923 131.585 113.635 132.537L112.762 135.379C112.472 136.323 112.196 137.269 111.942 138.217C111.686 139.165 111.461 140.117 111.276 141.073L111.15 141.792C111.116 142.032 111.077 142.272 111.046 142.512C110.985 142.992 110.932 143.474 110.91 143.955C110.858 144.918 110.894 145.882 111.05 146.827C111.207 147.771 111.494 148.693 111.918 149.557C112.331 150.418 112.938 151.185 113.65 151.851C114.005 152.185 114.39 152.492 114.792 152.776C115.193 153.064 115.615 153.322 116.047 153.569C115.585 153.385 115.135 153.17 114.696 152.93C114.259 152.687 113.836 152.413 113.434 152.107C112.632 151.495 111.925 150.729 111.398 149.839C110.882 148.954 110.51 147.982 110.275 146.981C110.22 146.731 110.17 146.478 110.128 146.225L110.077 145.843C110.058 145.716 110.043 145.588 110.034 145.461C110.013 145.205 109.988 144.95 109.983 144.694L109.969 144.31L109.97 143.928C109.97 143.417 110 142.908 110.042 142.402C110.061 142.148 110.096 141.897 110.123 141.645L110.229 140.892C110.383 139.892 110.598 138.908 110.835 137.933C111.073 136.958 111.344 135.995 111.621 135.038C111.903 134.082 112.195 133.132 112.483 132.183C112.775 131.237 113.061 130.291 113.333 129.344C113.47 128.87 113.604 128.397 113.731 127.922C113.854 127.45 113.965 126.989 114.056 126.514C114.42 124.618 114.523 122.66 114.502 120.701C114.491 119.721 114.43 118.74 114.356 117.758C114.281 116.776 114.172 115.795 114.041 114.816C113.785 112.857 113.441 110.905 113.012 108.963Z" fill="#191847"/>
<path fill-rule="evenodd" clip-rule="evenodd" d="M95.719 90.9211C86.1345 90.9211 78.6059 98.0982 78.6059 107.696C78.6059 110.766 78.7724 113.896 77.1597 116.264C75.352 118.919 68.7236 121.212 68.7236 128.936C68.7236 135.934 74.0275 142.09 81.0162 142.09C88.0048 142.09 93.0412 137.086 94.1524 129.298C94.5138 126.763 96.1833 124.652 98.4909 123.988C107.288 121.453 113.073 117.897 113.073 108.299C113.073 98.7016 105.303 90.9211 95.719 90.9211Z" fill="#1FB573"/>
<path fill-rule="evenodd" clip-rule="evenodd" d="M89.8133 128.996C89.8133 133.228 86.387 136.659 82.1604 136.659C77.9341 136.659 74.5078 133.228 74.5078 128.996C74.5078 124.764 77.9341 121.333 82.1604 121.333C86.387 121.333 89.8133 124.764 89.8133 128.996Z" fill="white"/>
<path fill-rule="evenodd" clip-rule="evenodd" d="M101.021 115.359C101.021 117.725 99.106 119.643 96.7432 119.643C94.3803 119.643 92.4648 117.725 92.4648 115.359C92.4648 112.993 94.3803 111.075 96.7432 111.075C99.106 111.075 101.021 112.993 101.021 115.359Z" fill="white"/>
<path fill-rule="evenodd" clip-rule="evenodd" d="M101.021 97.981C101.021 100.347 99.106 102.265 96.7432 102.265C94.3803 102.265 92.4648 100.347 92.4648 97.981C92.4648 95.615 94.3803 93.6968 96.7432 93.6968C99.106 93.6968 101.021 95.615 101.021 97.981Z" fill="white"/>
<path fill-rule="evenodd" clip-rule="evenodd" d="M110.181 106.791C110.181 109.157 108.265 111.075 105.902 111.075C103.539 111.075 101.624 109.157 101.624 106.791C101.624 104.425 103.539 102.507 105.902 102.507C108.265 102.507 110.181 104.425 110.181 106.791Z" fill="white"/>
<path fill-rule="evenodd" clip-rule="evenodd" d="M90.8975 106.791C90.8975 109.157 88.982 111.075 86.6191 111.075C84.2563 111.075 82.3408 109.157 82.3408 106.791C82.3408 104.425 84.2563 102.507 86.6191 102.507C88.982 102.507 90.8975 104.425 90.8975 106.791Z" fill="white"/>
<path fill-rule="evenodd" clip-rule="evenodd" d="M42.1991 88.8695C42.1991 88.8695 41.2435 87.3851 40.2708 87.1801C37.9812 86.6972 30.3297 88.1493 28.0989 89.3522C26.5322 90.1971 26.5322 92.7315 26.5322 92.7315L42.1991 88.8695Z" fill="#191847"/>
<path fill-rule="evenodd" clip-rule="evenodd" d="M25.4766 92.3767C25.4766 92.3767 29.3034 88.9903 38.3421 88.3868C47.3808 87.7834 50.8757 91.2831 64.1323 91.766V132.073C64.1323 132.073 59.7295 132.114 58.8578 132.878C57.9861 133.642 25.4766 92.3767 25.4766 92.3767Z" fill="url(#paint4_linear)"/>
<path fill-rule="evenodd" clip-rule="evenodd" d="M39.4871 139.495C39.4871 139.495 35.3294 149.814 28.942 156.21C22.8863 162.274 15.1478 159.66 12.4918 154.46C8.45443 146.555 8.63524 124.048 15.143 108.963C15.143 108.963 41.0538 118.135 39.4871 139.495Z" fill="url(#paint5_linear)"/>
<path fill-rule="evenodd" clip-rule="evenodd" d="M15.1245 108.963C14.696 110.905 14.3512 112.857 14.0953 114.816C13.9652 115.795 13.856 116.776 13.7809 117.758C13.7064 118.74 13.6452 119.721 13.6343 120.701C13.6141 122.66 13.7165 124.618 14.081 126.514C14.172 126.989 14.2826 127.45 14.4055 127.922C14.5328 128.397 14.6662 128.87 14.8032 129.344C15.0756 130.291 15.3617 131.237 15.6541 132.183C15.942 133.132 16.2338 134.082 16.5155 135.038C16.7923 135.995 17.0637 136.958 17.3022 137.933C17.5388 138.908 17.7536 139.892 17.9079 140.892L18.0136 141.645C18.0403 141.897 18.0753 142.148 18.0952 142.402C18.1361 142.908 18.1668 143.417 18.1668 143.928L18.168 144.31L18.1537 144.694C18.1485 144.95 18.1238 145.205 18.1024 145.461C18.0938 145.588 18.0784 145.716 18.06 145.843L18.009 146.225C17.9671 146.478 17.917 146.731 17.8616 146.981C17.6261 147.982 17.2542 148.954 16.7384 149.839C16.212 150.729 15.5049 151.495 14.7025 152.107C14.301 152.413 13.878 152.687 13.4411 152.93C13.0019 153.17 12.5518 153.385 12.0898 153.569C12.5212 153.322 12.9436 153.064 13.3444 152.776C13.7469 152.492 14.1314 152.185 14.4871 151.851C15.1989 151.185 15.8061 150.418 16.2181 149.557C16.6426 148.693 16.9301 147.771 17.0868 146.827C17.2426 145.882 17.2787 144.918 17.2269 143.955C17.2041 143.474 17.152 142.992 17.0902 142.512C17.0598 142.272 17.0205 142.032 16.9863 141.792L16.8607 141.073C16.6759 140.117 16.4509 139.165 16.195 138.217C15.94 137.269 15.6646 136.323 15.3749 135.379L14.502 132.537C14.2142 131.585 13.9271 130.631 13.6597 129.668C13.5279 129.186 13.399 128.702 13.2763 128.216C13.1559 127.726 13.0405 127.22 12.9591 126.718C12.7892 125.712 12.6915 124.699 12.6552 123.688C12.6145 122.677 12.6359 121.669 12.698 120.665C12.8146 118.657 13.1147 116.673 13.5153 114.717C13.7257 113.741 13.955 112.77 14.2216 111.809C14.4892 110.85 14.7782 109.896 15.1245 108.963Z" fill="#191847"/>
<path fill-rule="evenodd" clip-rule="evenodd" d="M32.4371 90.9211C42.0216 90.9211 49.5502 98.0982 49.5502 107.696C49.5502 110.766 49.3838 113.896 50.9965 116.264C52.8041 118.919 59.4325 121.212 59.4325 128.936C59.4325 135.934 54.1286 142.09 47.1399 142.09C40.1513 142.09 35.115 137.086 34.0038 129.298C33.6423 126.763 31.9729 124.652 29.6652 123.988C20.8678 121.453 15.083 117.897 15.083 108.299C15.083 98.7016 22.8528 90.9211 32.4371 90.9211Z" fill="#1FB573"/>
<path fill-rule="evenodd" clip-rule="evenodd" d="M38.3428 128.996C38.3428 133.228 41.7691 136.659 45.9956 136.659C50.2219 136.659 53.6482 133.228 53.6482 128.996C53.6482 124.764 50.2219 121.333 45.9956 121.333C41.7691 121.333 38.3428 124.764 38.3428 128.996Z" fill="white"/>
<path fill-rule="evenodd" clip-rule="evenodd" d="M88.6679 128.996C88.6679 132.595 85.7542 135.513 82.1601 135.513C78.566 135.513 75.6523 132.595 75.6523 128.996C75.6523 125.397 78.566 122.479 82.1601 122.479C85.7542 122.479 88.6679 125.397 88.6679 128.996Z" fill="#F9C346"/>
<path fill-rule="evenodd" clip-rule="evenodd" d="M39.4873 128.996C39.4873 132.595 42.401 135.513 45.9951 135.513C49.5892 135.513 52.5029 132.595 52.5029 128.996C52.5029 125.397 49.5892 122.479 45.9951 122.479C42.401 122.479 39.4873 125.397 39.4873 128.996Z" fill="#F9C346"/>
<path fill-rule="evenodd" clip-rule="evenodd" d="M88.1258 91.4038C84.5103 92.7315 78.2435 95.9897 74.9896 101.541C72.7586 105.347 68.7756 110.043 64.0776 110.043C59.3795 110.043 55.3965 105.347 53.1655 101.541C49.9116 95.9897 43.6448 92.7315 40.0293 91.4038C36.414 90.0762 36.3936 91.3449 36.3936 91.3449C41.1936 92.0102 46.1757 95.9897 49.1884 99.7309C51.0199 102.005 54.1295 108.541 57.263 110.713C60.0825 112.668 62.9983 112.945 64.0776 112.983C64.9269 113.013 68.0726 112.668 70.8921 110.713C74.0256 108.541 77.1352 102.005 78.9665 99.7309C81.9794 95.9897 86.9615 92.0102 91.7616 91.3449C91.7616 91.3449 91.7413 90.0762 88.1258 91.4038Z" fill="#191847"/>
<path fill-rule="evenodd" clip-rule="evenodd" d="M65.9508 122.479C65.9508 123.512 65.1146 124.35 64.0829 124.35C63.0512 124.35 62.2148 123.512 62.2148 122.479C62.2148 121.446 63.0512 120.609 64.0829 120.609C65.1146 120.609 65.9508 121.446 65.9508 122.479Z" fill="#191847"/>
<path fill-rule="evenodd" clip-rule="evenodd" d="M65.9508 116.686C65.9508 117.72 65.1146 118.557 64.0829 118.557C63.0512 118.557 62.2148 117.72 62.2148 116.686C62.2148 115.654 63.0512 114.816 64.0829 114.816C65.1146 114.816 65.9508 115.654 65.9508 116.686Z" fill="#191847"/>
<path fill-rule="evenodd" clip-rule="evenodd" d="M69.2048 101.119C69.2048 103.951 66.9115 106.248 64.0829 106.248C61.254 106.248 58.9609 103.951 58.9609 101.119C58.9609 98.286 61.254 95.9897 64.0829 95.9897C66.9115 95.9897 69.2048 98.286 69.2048 101.119Z" fill="url(#paint6_linear)"/>
<path fill-rule="evenodd" clip-rule="evenodd" d="M33.4215 115.48H30.6311C29.8043 115.48 29.1338 114.808 29.1338 113.98V98.5146C29.1338 97.6867 29.8043 97.0155 30.6311 97.0155H33.4215C34.2483 97.0155 34.9186 97.6867 34.9186 98.5146V113.98C34.9186 114.808 34.2483 115.48 33.4215 115.48Z" fill="white"/>
<path fill-rule="evenodd" clip-rule="evenodd" d="M22.8066 107.645V104.85C22.8066 104.023 23.4769 103.351 24.3037 103.351H39.7483C40.5751 103.351 41.2456 104.023 41.2456 104.85V107.645C41.2456 108.473 40.5751 109.144 39.7483 109.144H24.3037C23.4769 109.144 22.8066 108.473 22.8066 107.645Z" fill="white"/>
<defs>
<linearGradient id="paint0_linear" x1="145.637" y1="0" x2="145.637" y2="159.617" gradientUnits="userSpaceOnUse">
<stop stop-color="#CAC4FD"/>
<stop offset="1" stop-color="#F7F7FF"/>
</linearGradient>
<linearGradient id="paint1_linear" x1="48.0674" y1="66.8533" x2="171.017" y2="140.764" gradientUnits="userSpaceOnUse">
<stop stop-color="#6459E7"/>
<stop offset="1" stop-color="#191847"/>
</linearGradient>
<linearGradient id="paint2_linear" x1="83.3513" y1="88.3171" x2="83.3513" y2="132.889" gradientUnits="userSpaceOnUse">
<stop stop-color="#68DAA8"/>
<stop offset="1" stop-color="#005E35"/>
</linearGradient>
<linearGradient id="paint3_linear" x1="103.482" y1="108.963" x2="103.482" y2="159.712" gradientUnits="userSpaceOnUse">
<stop stop-color="#1A6060"/>
<stop offset="1" stop-color="#1FB573"/>
</linearGradient>
<linearGradient id="paint4_linear" x1="44.8044" y1="88.3171" x2="44.8044" y2="132.889" gradientUnits="userSpaceOnUse">
<stop stop-color="#68DAA8"/>
<stop offset="1" stop-color="#005E35"/>
</linearGradient>
<linearGradient id="paint5_linear" x1="24.6732" y1="108.963" x2="24.6732" y2="159.712" gradientUnits="userSpaceOnUse">
<stop stop-color="#1A6060"/>
<stop offset="1" stop-color="#1FB573"/>
</linearGradient>
<linearGradient id="paint6_linear" x1="64.0829" y1="95.9897" x2="64.0829" y2="106.248" gradientUnits="userSpaceOnUse">
<stop stop-color="#8EEEC3"/>
<stop offset="1" stop-color="#1B7664"/>
</linearGradient>
</defs>
</svg>
