<svg width="267" height="178" viewBox="0 0 267 178" fill="none" xmlns="http://www.w3.org/2000/svg">
<path d="M161.279 21.9514H1.04492V139.154H161.279V21.9514Z" fill="#1FB573"/>
<path d="M161.279 140.212H1.04506C0.767082 140.214 0.499682 140.104 0.303112 139.905C0.106541 139.706 -0.00266439 139.435 4.93962e-05 139.154V21.9513C-0.00266439 21.6699 0.106541 21.3993 0.303112 21.2003C0.499682 21.0014 0.767082 20.8909 1.04506 20.8936H161.279C161.557 20.8909 161.825 21.0014 162.021 21.2003C162.218 21.3993 162.327 21.6699 162.324 21.9513V139.154C162.315 139.734 161.853 140.202 161.279 140.212ZM2.09002 138.096H160.234V23.0088H2.09002V138.096Z" fill="#0C8751"/>
<path d="M152.251 30.9832H10.0947V130.08H152.251V30.9832Z" fill="#F9C346"/>
<path d="M152.23 131.159H10.0949C9.81689 131.161 9.54949 131.051 9.35292 130.852C9.15635 130.653 9.04714 130.382 9.04985 130.101V30.9831C9.04714 30.7018 9.15635 30.4311 9.35292 30.2322C9.54949 30.0332 9.81689 29.9227 10.0949 29.9255H152.251C152.529 29.9227 152.797 30.0332 152.993 30.2322C153.19 30.4311 153.299 30.7018 153.296 30.9831V130.08C153.294 130.675 152.818 131.156 152.23 131.159ZM11.1398 129.043H151.206V32.0407H11.1398V129.043Z" fill="#0C8751"/>
<path d="M47.9209 50.4054L152.198 44.9897L152.305 47.1016L48.0285 52.5173L47.9209 50.4054Z" fill="white"/>
<path d="M135.615 79.0191L152 80.817L152.46 76.6078L53.5859 65.6934C51.516 62.6347 47.9464 60.983 44.3066 61.3996L26.3751 29.9255L22.7595 32.0407L40.2731 62.7744C37.4658 64.4485 35.7353 67.4934 35.717 70.791C35.7202 72.8774 36.4282 74.9 37.7234 76.5232L8.27637 129.065L11.9128 131.159L22.1325 112.926L63.2413 117.198L68.5915 130.884L72.4787 129.318L67.9227 117.664L127.381 123.84L126.838 129.911L130.997 130.291L131.54 124.284L152.147 126.421L152.356 124.326L131.728 122.19L135.615 79.0191ZM45.4143 65.5665C48.4655 65.5665 50.9317 67.9144 50.9317 70.791C50.9317 73.6677 48.4655 76.0155 45.4143 76.0155C42.363 76.0155 39.8969 73.6677 39.8969 70.791C39.8969 67.9144 42.3839 65.5665 45.4143 65.5665ZM23.2402 110.916L41.0045 79.2306C42.3767 79.9131 43.8854 80.2677 45.4143 80.2671C46.4858 80.2635 47.5503 80.0922 48.57 79.7594L62.3635 114.998L23.2402 110.916ZM67.0449 115.464L52.2065 77.5596C54.0568 75.815 55.1088 73.3716 55.1115 70.8122C55.1115 70.5795 55.0906 70.368 55.0906 70.1353L131.456 78.5538L127.548 121.746L67.0449 115.464Z" fill="white"/>
<path d="M152.23 131.159H10.0949C9.81689 131.161 9.54949 131.051 9.35292 130.852C9.15635 130.653 9.04714 130.382 9.04985 130.101V30.9831C9.04714 30.7018 9.15635 30.4311 9.35292 30.2322C9.54949 30.0332 9.81689 29.9227 10.0949 29.9255H152.251C152.529 29.9227 152.797 30.0332 152.993 30.2322C153.19 30.4311 153.299 30.7018 153.296 30.9831V130.08C153.294 130.675 152.818 131.156 152.23 131.159ZM11.1398 129.043H151.206V32.0407H11.1398V129.043Z" fill="#1FB573"/>
<path d="M71.0193 25.0897C71.0193 42.3871 46.1746 70.782 46.1746 70.782C46.1746 70.782 21.3398 41.7661 21.3398 25.0897C21.3398 11.2378 32.458 0 46.1846 0C59.9111 0 71.0193 11.2278 71.0193 25.0897Z" fill="#6459E7"/>
<path d="M46.175 38.5109C53.5149 38.5109 59.4651 32.502 59.4651 25.0897C59.4651 17.6773 53.5149 11.6685 46.175 11.6685C38.835 11.6685 32.8848 17.6773 32.8848 25.0897C32.8848 32.502 38.835 38.5109 46.175 38.5109Z" fill="white"/>
<path d="M167.928 178C199.386 178 224.889 175.963 224.889 173.45C224.889 170.936 199.386 168.899 167.928 168.899C136.469 168.899 110.967 170.936 110.967 173.45C110.967 175.963 136.469 178 167.928 178Z" fill="#D9DADB"/>
<path d="M266.997 114.724C266.997 115.28 266.495 115.888 266.47 116.596C266.445 117.406 266.846 118.241 266.871 119.025C266.897 120.214 266.495 121.352 266.144 122.466C266.069 122.719 265.818 122.946 265.743 123.225C265.493 124.389 265.919 124.313 265.818 125.122C265.367 128.867 263.938 132.687 262.76 136.204C261.882 138.835 260.504 141.492 258.949 144.148C258.523 144.857 258.673 145.692 258.197 146.501C257.821 147.159 257.094 147.64 256.668 148.399C255.765 150.018 254.612 150.853 253.459 152.32C251.177 155.179 249.372 155.761 246.665 158.291C246.188 158.747 245.511 159.278 245.06 159.658C244.183 160.341 241.274 158.114 240.623 158.848C239.82 159.708 239.82 162.441 238.868 162.997C237.689 163.68 238.09 164.515 236.912 165.173C236.185 165.578 236.787 165.755 236.11 166.059C235.232 166.464 233.101 169.424 232.299 169.955C231.321 170.588 231.096 170.663 230.043 171.018C228.363 171.625 226.734 172.308 225.154 173.092C223.449 173.927 224.477 173.421 222.772 173.75C222.522 173.801 220.341 173.421 220.115 173.497C219.789 173.624 218.761 173.573 218.41 173.674C218.059 173.775 217.884 174.509 217.508 174.56C217.131 174.61 216.705 173.978 216.329 174.028C215.101 174.155 213.797 174.712 212.719 175.066C211.014 175.622 209.284 174.762 207.655 174.889C207.003 174.939 206.426 175.445 205.8 175.546C204.747 175.673 203.869 175.167 202.891 174.99C201.487 174.737 199.833 174.737 198.404 174.56C197.576 174.459 196.724 174.61 195.997 174.459C195.019 174.281 194.342 173.775 193.164 173.75C192.362 173.75 192.086 173.877 191.259 173.725C190.156 173.548 186.997 172.966 185.994 172.688C184.59 172.308 185.568 173.016 184.44 172.333C183.186 171.574 181.556 171.321 180.052 170.385C178.949 169.702 179.074 169.955 178.021 169.145C176.668 168.108 171.578 164.288 169.949 163.579C167.442 162.466 167.517 162.871 165.511 161.075C165.135 160.746 164.609 160.088 164.233 159.683C163.982 159.43 164.007 158.899 163.756 158.646C163.556 158.469 163.104 158.57 162.904 158.367C161.801 157.279 160.422 155.685 159.519 154.598C159.068 154.041 158.868 153.51 158.366 152.776C158.065 152.346 157.288 151.486 156.937 151.182C155.659 149.993 155.408 148.5 154.129 146.957C153.979 146.754 154.079 146.35 153.929 146.122C153.753 145.869 153.202 145.97 153.076 145.793C152.725 145.262 152.55 144.68 152.324 143.971C152.048 143.035 151.522 142.428 151.096 141.593C150.97 141.365 151.121 140.986 150.995 140.758C150.795 140.404 150.243 140.1 150.068 139.721C149.24 137.975 148.839 136.508 148.263 134.686C148.187 134.433 147.786 134.281 147.736 134.028C147.661 133.674 147.761 133.269 147.686 132.915C147.41 131.675 147.034 131.27 146.583 130.157C145.806 128.234 146.458 126.868 146.082 125.046C145.956 124.439 145.455 123.883 145.329 123.275C145.279 123.022 145.655 122.693 145.605 122.44C145.555 122.137 145.004 121.454 144.978 121.15C144.878 119.961 145.304 120.062 145.43 119.151C145.48 118.62 145.154 117.431 145.104 116.849C145.004 115.306 144.978 114.192 144.853 112.826C144.703 111.308 145.129 109.815 145.229 108.272C145.405 105.793 145.906 103.313 146.433 100.859C146.784 99.2397 147.31 98.253 147.761 96.6338C148.012 95.7482 149.717 94.6856 149.993 93.7495C150.293 92.7628 149.416 91.6748 149.892 90.764C151.547 87.5255 154.38 85.6027 156.285 82.6931C156.812 81.9088 156.737 80.9474 157.313 80.2389C157.539 79.9606 156.611 79.1004 156.837 78.7968C156.987 78.5691 158.366 78.7209 158.517 78.5185C159.018 77.8354 158.09 76.8234 158.667 76.2161C159.244 75.6089 160.923 75.5583 161.525 75.0017C162.001 74.5463 161.149 73.1295 161.575 72.75C161.751 72.5982 162.678 73.0789 162.829 72.8765C163.054 72.5982 164.082 71.409 164.308 71.156C165.461 69.891 167.567 69.6127 168.821 68.4994C173.559 64.2489 179.626 60.555 184.164 57.0889C186.144 56.1527 187.749 55.9756 189.83 55.419C194.342 55.1407 202.29 54.2805 208.156 53.3444C211.315 53.4709 214.624 53.4962 217.758 54.3058C236.436 59.0876 253.86 75.5077 261.807 91.5989C262.033 92.4845 262.635 92.9652 262.935 93.7495C263.336 94.8121 263.261 95.8241 263.662 96.8868C265.292 101.188 265.668 105.438 266.395 109.942C266.52 110.802 266.671 111.713 266.746 112.598C266.771 112.953 266.42 113.332 266.47 113.686C266.52 114.015 266.997 114.37 266.997 114.724Z" fill="#CEC8FE"/>
<path d="M208.708 166.008C209.709 166.2 210.544 167.063 211.147 167.954L211.231 168.081C211.286 168.166 211.34 168.251 211.391 168.336L211.465 168.462C211.478 168.483 211.49 168.503 211.502 168.524L211.571 168.648L211.638 168.77L211.701 168.89L211.76 169.007L211.816 169.12C212.067 168.855 212.284 168.653 212.509 168.46L212.646 168.344C212.67 168.325 212.693 168.306 212.716 168.286L212.861 168.169L213.346 167.779C213.695 167.488 213.928 167.231 214.146 166.971L214.254 166.84L214.473 166.572C214.606 166.411 214.75 166.243 214.925 166.059C215.126 166.332 215.35 166.577 215.578 166.818L215.806 167.058C216.072 167.339 216.332 167.626 216.555 167.956L216.826 168.355C217.341 169.105 217.878 169.845 218.56 170.512C219.478 171.42 220.494 172.165 221.497 172.862L221.813 173.08L222.439 173.511L222.747 173.725C220.265 174.459 217.532 174.965 214.825 175.243C214.616 175.263 214.381 175.264 214.134 175.258L213.921 175.251L213.593 175.24C213.081 175.224 212.561 175.222 212.142 175.344C211.942 175.4 211.815 175.572 211.697 175.753L211.609 175.89C211.491 176.07 211.365 176.235 211.165 176.28C210.04 176.512 209.003 176.432 207.985 176.293L207.751 176.26L206.91 176.134C206.183 176.026 205.453 175.934 204.696 175.951C204.453 175.961 204.186 176.032 203.916 176.118L203.735 176.178L203.464 176.269C203.136 176.377 202.816 176.469 202.54 176.457C202.037 176.446 201.703 176.324 201.403 176.176L201.314 176.131L201.05 175.992C200.803 175.863 200.541 175.74 200.184 175.673C199.853 175.614 199.567 175.605 199.287 175.604L198.971 175.604C198.759 175.603 198.542 175.599 198.303 175.572C197.808 175.524 197.512 175.426 197.247 175.317L197.148 175.276L196.952 175.192L196.85 175.151C196.676 175.082 196.481 175.017 196.223 174.965C195.783 174.885 195.327 174.892 194.873 174.911L194.419 174.93C194.017 174.946 193.62 174.95 193.239 174.889C192.813 174.826 192.443 174.674 192.08 174.509L191.783 174.373C191.518 174.253 191.249 174.137 190.958 174.054C190.643 173.967 190.298 173.932 189.947 173.906L189.55 173.879C189.109 173.848 188.669 173.807 188.275 173.674C187.907 173.551 187.584 173.397 187.26 173.238L187.015 173.118C186.686 172.957 186.345 172.797 185.944 172.662L186.33 172.354L186.704 172.054L186.888 171.907C186.919 171.883 186.949 171.859 186.98 171.836L187.162 171.694C187.949 171.091 188.718 170.596 189.654 170.36L189.764 170.332L189.908 170.293L190.029 170.258L190.193 170.21L190.277 170.186L190.347 170.168L190.392 170.158L190.435 170.15L190.479 170.143L190.525 170.138L190.572 170.135L190.623 170.133L190.679 170.133L190.74 170.135L190.843 170.14L190.964 170.149L191.056 170.157L191.334 170.183C191.388 170.187 191.448 170.19 191.513 170.192L191.65 170.196L191.799 170.198L192.04 170.2L192.477 170.201L192.751 170.203L192.934 170.206C192.964 170.206 192.995 170.207 193.025 170.208L193.206 170.213C193.684 170.229 194.12 170.267 194.367 170.36C194.477 170.397 194.553 170.503 194.62 170.634L194.652 170.701L194.748 170.915C194.862 171.165 195 171.398 195.295 171.372C195.694 171.345 195.874 171.083 196.045 170.726L196.125 170.555L196.207 170.373C196.214 170.358 196.221 170.342 196.229 170.327L196.274 170.232L196.322 170.136C196.404 169.976 196.501 169.812 196.624 169.652L196.846 169.37L196.989 169.191L197.087 169.069L197.189 168.946L197.293 168.821L197.4 168.695L197.509 168.57L197.62 168.444C197.639 168.424 197.658 168.403 197.677 168.382L197.791 168.259C198.407 167.604 199.107 167.026 199.808 166.894C200.654 166.741 201.139 166.957 201.52 167.319L201.579 167.378C201.589 167.388 201.599 167.398 201.609 167.408L201.666 167.47L201.722 167.533L201.777 167.599L201.831 167.666L201.885 167.734L201.966 167.838L202.107 168.025C202.368 168.368 202.651 168.722 203.067 168.994C203.163 169.056 203.254 169.113 203.342 169.164L203.445 169.223C204.188 169.637 204.639 169.635 205.063 169.371L205.121 169.333L205.179 169.292L205.236 169.249L205.294 169.202L205.352 169.152C205.362 169.144 205.371 169.135 205.381 169.126L205.44 169.072L205.499 169.016L205.559 168.957L205.652 168.863L205.714 168.798L205.878 168.625L206.125 168.361C206.216 168.264 206.301 168.156 206.383 168.041L206.444 167.953L206.504 167.863C206.514 167.848 206.524 167.833 206.534 167.817L206.593 167.725L206.681 167.583L206.884 167.249L206.942 167.154L207.002 167.061L207.062 166.968L207.122 166.878L207.185 166.789L207.248 166.703C207.611 166.224 208.047 165.887 208.708 166.008ZM248.093 144.908C248.175 144.927 248.266 144.934 248.362 144.939L248.48 144.943L248.602 144.946C248.828 144.954 249.065 144.973 249.272 145.085C249.567 145.244 249.832 145.465 250.053 145.663L250.17 145.769C250.188 145.785 250.207 145.802 250.224 145.818C250.482 146.057 250.685 146.37 250.848 146.646L250.926 146.78C251.102 147.109 251.252 147.514 251.328 147.893C251.368 148.176 251.376 148.492 251.377 148.814L251.378 149.057C251.369 149.183 251.358 149.301 251.346 149.418L251.309 149.767C251.297 149.886 251.286 150.01 251.277 150.145C251.46 150.168 251.601 150.274 251.735 150.393L251.856 150.502C251.977 150.61 252.101 150.711 252.255 150.752C252.381 150.786 252.509 150.805 252.638 150.821L252.929 150.855C253.058 150.871 253.187 150.891 253.314 150.926L253.408 150.954C253.579 151.012 253.761 151.038 253.945 151.061L254.168 151.09C254.317 151.11 254.466 151.136 254.612 151.182C254.527 151.296 254.471 151.435 254.42 151.58L254.346 151.8C254.287 151.971 254.22 152.137 254.11 152.27C254.014 152.387 253.903 152.481 253.788 152.572L253.65 152.68C253.534 152.77 253.419 152.865 253.318 152.981L253.258 153.054C253.179 153.148 253.108 153.248 253.04 153.35L252.918 153.533C252.769 153.756 252.613 153.971 252.381 154.117C252.32 154.155 252.258 154.186 252.195 154.215L252.07 154.272C251.967 154.319 251.867 154.37 251.779 154.446C251.578 154.598 251.456 154.817 251.344 155.044L251.234 155.271C251.216 155.308 251.197 155.345 251.177 155.382C250.885 155.972 250.47 156.492 250.036 157.001L249.861 157.204C249.832 157.237 249.802 157.271 249.773 157.305L249.515 157.597C248.998 158.181 248.473 158.754 247.893 159.253C247.562 159.541 247.213 159.803 246.862 160.058L246.511 160.313C246.395 160.398 246.278 160.483 246.163 160.569C245.196 161.262 244.263 162.009 243.337 162.769L242.783 163.225L242.06 163.822L241.638 164.17C240.297 165.269 238.941 166.34 237.492 167.257L237.263 167.4C237.094 167.496 236.97 167.65 236.85 167.813L236.761 167.937C236.627 168.122 236.487 168.304 236.285 168.412C236.126 168.492 235.941 168.458 235.751 168.399L235.67 168.372L235.576 168.34C235.405 168.281 235.235 168.224 235.082 168.235C234.902 168.247 234.739 168.357 234.58 168.486L234.494 168.557L234.407 168.63C234.292 168.725 234.176 168.814 234.054 168.867C233.868 168.954 233.722 169.074 233.581 169.203L233.421 169.351C233.366 169.401 233.311 169.451 233.252 169.5C233.086 169.636 232.849 169.755 232.615 169.86L232.46 169.929L232.311 169.994C232.263 170.015 232.217 170.036 232.174 170.056C232.197 169.947 232.213 169.824 232.227 169.694L232.257 169.396C232.278 169.194 232.303 168.992 232.349 168.817C232.449 168.462 232.525 168.083 232.65 167.729C232.703 167.58 232.822 167.453 232.95 167.33L233.047 167.238C233.192 167.1 233.33 166.96 233.377 166.793C233.427 166.616 233.446 166.426 233.459 166.233L233.476 165.942C233.482 165.845 233.49 165.749 233.502 165.654C233.527 165.464 233.496 165.281 233.452 165.097L233.418 164.96L233.383 164.822C233.36 164.729 233.339 164.636 233.327 164.541C233.287 164.136 233.134 163.909 232.934 163.679L232.841 163.575L232.775 163.504C232.5 163.175 232.224 162.998 231.823 162.846C231.742 162.813 231.662 162.777 231.58 162.74L231.417 162.664C231.172 162.551 230.918 162.439 230.644 162.39C230.485 162.362 230.321 162.344 230.158 162.329L229.834 162.3C229.674 162.285 229.516 162.267 229.366 162.239C228.977 162.164 228.697 162.006 228.497 161.867L228.429 161.82L228.368 161.774L228.313 161.732L228.279 161.708C228.245 161.682 228.211 161.652 228.179 161.616L228.148 161.579C227.996 161.385 227.912 161.062 228.137 160.569C228.219 160.403 228.398 160.298 228.585 160.203L228.725 160.134C228.832 160.08 228.935 160.026 229.015 159.961C229.115 159.87 229.195 159.755 229.272 159.638L229.347 159.521C229.435 159.387 229.525 159.26 229.642 159.177C229.752 159.096 229.91 159.068 230.074 159.047L230.221 159.029C230.415 159.004 230.598 158.97 230.695 158.848C230.902 158.591 230.998 158.261 231.072 157.945L231.133 157.679C231.153 157.593 231.173 157.51 231.196 157.431C231.259 157.216 231.221 156.989 231.171 156.748L231.129 156.549C231.092 156.369 231.061 156.182 231.071 155.989C231.096 155.686 231.121 155.357 231.121 155.028C231.121 154.699 231.246 154.37 231.221 154.066C231.204 153.923 231.146 153.752 231.077 153.574L231.03 153.454L230.959 153.274L230.913 153.156C230.833 152.942 230.774 152.743 230.795 152.599C230.815 152.498 230.906 152.382 231.036 152.255L231.104 152.191L231.177 152.126C231.19 152.115 231.202 152.104 231.215 152.093L231.295 152.026L231.463 151.888L231.683 151.711L231.773 151.638C231.932 151.5 232.138 151.403 232.339 151.32L232.575 151.226C232.725 151.164 232.86 151.104 232.951 151.03C233.064 150.925 233.153 150.785 233.237 150.64L233.361 150.421C233.476 150.223 233.598 150.039 233.778 149.942C233.966 149.829 234.198 149.803 234.433 149.784L234.574 149.773C234.762 149.757 234.946 149.735 235.107 149.664C235.358 149.553 235.599 149.423 235.836 149.291L236.119 149.134C236.166 149.108 236.213 149.082 236.26 149.057C236.344 149.012 236.429 148.968 236.513 148.925L236.768 148.798C236.978 148.692 237.182 148.587 237.363 148.475C237.495 148.39 237.605 148.276 237.712 148.156L237.871 147.975C237.995 147.835 238.126 147.703 238.291 147.615C238.466 147.526 238.667 147.507 238.877 147.498L239.089 147.489C239.232 147.483 239.377 147.471 239.519 147.438C239.753 147.37 239.987 147.348 240.229 147.333L240.504 147.317C240.535 147.315 240.566 147.313 240.597 147.311C240.759 147.3 240.915 147.201 241.071 147.089L241.227 146.976C241.383 146.865 241.539 146.765 241.7 146.755C242.077 146.729 242.377 146.653 242.728 146.527C242.873 146.478 243.044 146.504 243.217 146.545L243.322 146.571L243.426 146.597C243.633 146.648 243.831 146.684 243.982 146.603C244.138 146.524 244.254 146.375 244.364 146.219L244.446 146.101C244.554 145.945 244.664 145.796 244.809 145.717C244.974 145.634 245.167 145.623 245.362 145.62L245.508 145.617C245.677 145.614 245.843 145.603 245.988 145.54C246.038 145.518 246.086 145.496 246.134 145.474L246.343 145.375C246.548 145.278 246.749 145.193 246.99 145.161C247.107 145.144 247.224 145.102 247.343 145.056L247.446 145.016C247.651 144.936 247.864 144.864 248.093 144.908ZM184.038 57.342C184.162 57.3598 184.121 57.5249 184.013 57.7346L183.978 57.8022L183.938 57.8721L183.895 57.9434L183.85 58.0157L183.78 58.124L183.708 58.2301L183.614 58.364L183.488 58.5369L183.361 58.7083C183.14 58.9762 183.006 59.2265 182.876 59.4903L182.759 59.7321C182.706 59.842 182.649 59.9554 182.584 60.0745C182.491 60.2364 182.354 60.3696 182.209 60.4969L182.044 60.639C181.971 60.7022 181.899 60.7661 181.832 60.8335C181.441 61.1814 181.145 61.6143 180.857 62.0543L180.701 62.2946C180.413 62.7346 180.117 63.1675 179.726 63.5154C179.444 63.7716 179.114 63.9717 178.777 64.1653L178.439 64.3586C178.289 64.4452 178.14 64.5337 177.996 64.6286C177.438 64.9963 176.903 65.4826 176.756 66.1337L176.743 66.1973C176.561 67.0746 177.064 67.4748 177.712 67.6366L177.791 67.6549C177.804 67.6578 177.817 67.6606 177.83 67.6633L177.911 67.6783C177.937 67.683 177.964 67.6873 177.992 67.6913L178.073 67.7023C178.087 67.7039 178.101 67.7055 178.114 67.7071L178.197 67.7153C178.593 67.7388 178.923 67.7405 179.23 67.6798L179.3 67.6647C179.594 67.609 179.821 67.499 180.049 67.3744L180.303 67.2346C180.429 67.1657 180.579 67.1389 180.735 67.1185L180.938 67.093C181.119 67.0684 181.3 67.0322 181.456 66.931L181.549 66.8687L181.67 66.7904L181.78 66.7222L182.233 66.4503C182.255 66.6238 182.345 66.7415 182.446 66.8512L182.547 66.9601C182.648 67.0699 182.738 67.1876 182.76 67.3611C182.783 67.5409 182.728 67.7036 182.661 67.8654L182.593 68.0276C182.54 68.1544 182.493 68.2839 182.484 68.4237C182.47 68.6087 182.527 68.8178 182.593 69.0238L182.66 69.2278C182.689 69.3171 182.716 69.4041 182.735 69.4863C182.985 70.6249 182.885 71.7887 183.136 72.9272C183.189 73.158 183.256 73.3865 183.326 73.6142L183.388 73.8091L183.482 74.1013L183.543 74.2961C183.733 74.9135 183.885 75.5355 183.813 76.191C183.804 76.2754 183.793 76.3597 183.781 76.445L183.744 76.7045C183.732 76.7926 183.721 76.8826 183.712 76.9753C183.712 77.3179 183.784 77.6423 183.867 77.9639L183.913 78.1392L183.699 78.0368C182.661 77.5445 181.577 77.0986 180.428 77.0512C180.007 77.0276 179.586 77.0591 179.165 77.0968L178.803 77.1296C178.442 77.1615 178.081 77.1879 177.72 77.1777C177.646 77.1754 177.571 77.1717 177.497 77.1675L177.1 77.1442L176.986 77.1393C176.44 77.12 175.916 77.1694 175.464 77.6079C175.321 77.7528 175.207 77.9181 175.099 78.091L175.006 78.2407C174.976 78.291 174.944 78.3416 174.913 78.3922L174.332 79.492C173.753 80.5902 173.17 81.6813 172.531 82.7439C172.255 83.1993 171.929 83.5535 171.628 83.7559C171.354 83.9341 171.156 83.9419 170.962 83.9247L170.898 83.9182L170.801 83.9077C170.748 83.9018 170.693 83.8902 170.636 83.8753L170.547 83.8509L170.403 83.8087C170.268 83.7697 170.112 83.7291 169.924 83.7053C169.744 83.6692 169.565 83.7305 169.392 83.802L169.237 83.8668C169.101 83.9225 168.97 83.968 168.845 83.9583C168.494 83.933 168.244 83.933 167.893 84.0342C167.784 84.0615 167.65 84.0364 167.506 84.0013L167.36 83.9644C167.145 83.9109 166.922 83.8662 166.74 83.9583C166.558 84.0558 166.465 84.2529 166.388 84.4651L166.354 84.5638L166.303 84.7117C166.252 84.8579 166.196 84.9956 166.113 85.0968C166.028 85.1903 165.912 85.2645 165.788 85.3336L165.694 85.3847L165.552 85.4605C165.348 85.5712 165.16 85.6914 165.085 85.8812C164.723 86.7937 164.787 87.6972 164.95 88.6024L164.983 88.7777L165.018 88.953C165.024 88.9822 165.03 89.0114 165.036 89.0407L165.071 89.2114L165.173 89.6899C165.223 89.9294 165.271 90.1694 165.311 90.41C165.39 90.8894 165.379 91.288 165.354 91.7015L165.334 92.0159L165.321 92.2331C165.317 92.3068 165.313 92.3821 165.311 92.4593C165.301 92.786 165.352 93.1089 165.413 93.4324L165.454 93.6482C165.536 94.0802 165.614 94.5153 165.561 94.9641C165.528 95.274 165.433 95.5694 165.33 95.863L165.241 96.1145C165.138 96.4081 165.043 96.7035 165.01 97.0134L165.005 97.0706L164.993 97.2443C164.975 97.4768 164.947 97.7092 164.834 97.899C164.761 98.0044 164.666 98.0878 164.566 98.1676L164.444 98.2628C164.342 98.3426 164.241 98.4261 164.157 98.5315C164.044 98.6773 163.985 98.8532 163.937 99.0344L163.876 99.2683C163.828 99.4495 163.769 99.6254 163.656 99.7712C163.568 99.8724 163.462 99.9546 163.352 100.034L163.22 100.128C163.154 100.176 163.089 100.224 163.029 100.277C162.834 100.457 162.703 100.69 162.586 100.935L162.524 101.07L162.433 101.273C162.423 101.295 162.413 101.318 162.402 101.34C162.185 101.745 161.678 102.172 161.193 102.524L161.062 102.618L160.933 102.708L160.808 102.794L160.631 102.912L160.522 102.984L160.439 103.035L160.362 103.08L160.29 103.118L160.223 103.151C159.901 103.302 159.762 103.243 159.693 103.056L159.68 103.017L159.669 102.975L159.659 102.93L159.651 102.881L159.64 102.803L159.631 102.72L159.598 102.336L159.594 102.301C159.519 101.542 159.218 100.834 158.617 100.328C158.516 100.252 158.391 100.125 158.441 99.9989C158.454 99.9736 158.473 99.9546 158.491 99.9388L158.527 99.9105L158.541 99.8977C158.792 99.6953 158.817 99.3158 158.717 99.0122C158.667 98.8604 158.585 98.7212 158.498 98.5852L158.364 98.3824C158.321 98.3148 158.278 98.2469 158.241 98.1773C158.079 97.8708 157.978 97.5312 157.899 97.1833L157.867 97.0338C157.861 97.0089 157.856 96.9838 157.851 96.9588L157.733 96.36L157.702 96.2125C157.568 95.6018 157.382 95.0376 156.912 94.6605C156.11 94.028 154.881 94.3063 154.079 94.9388C152.725 95.9761 152.224 97.899 152.249 99.5435C152.249 99.6125 152.247 99.6832 152.245 99.7549L152.232 100.083C152.224 100.304 152.221 100.526 152.249 100.733C152.271 100.91 152.35 101.077 152.439 101.239L152.555 101.445C152.63 101.58 152.697 101.713 152.725 101.846L152.744 101.939L152.782 102.122L152.822 102.303C153.148 103.741 153.653 104.936 154.856 105.945C156.21 107.058 158.341 107.614 160.071 107.513C160.215 107.503 160.356 107.428 160.497 107.342L160.679 107.229C160.823 107.143 160.969 107.068 161.124 107.058C161.5 107.058 161.876 107.235 162.252 107.26C162.478 107.282 162.703 107.345 162.929 107.417L163.267 107.526C163.455 107.585 163.643 107.638 163.831 107.665C164.066 107.703 164.305 107.709 164.544 107.709L164.784 107.709C165.104 107.709 165.423 107.716 165.737 107.792C166.119 107.877 166.438 108.06 166.751 108.262L167.114 108.5C167.236 108.579 167.361 108.656 167.492 108.728C167.85 108.922 168.209 109.018 168.571 109.102L168.869 109.17C169.068 109.216 169.269 109.267 169.472 109.335C169.859 109.476 170.2 109.714 170.536 109.961L170.788 110.146C171.152 110.411 171.524 110.66 171.954 110.777C172.048 110.805 172.146 110.827 172.243 110.846L172.435 110.885C172.53 110.904 172.622 110.926 172.706 110.954C173.206 111.161 173.463 111.526 173.662 111.935L173.711 112.038L173.758 112.142L173.826 112.301L173.917 112.513L173.964 112.619C173.972 112.637 173.979 112.655 173.988 112.672L174.037 112.777C174.096 112.898 174.161 113.017 174.236 113.13C174.324 113.259 174.458 113.36 174.597 113.457L174.735 113.554C174.901 113.672 175.053 113.795 175.113 113.965C175.223 114.243 175.253 114.535 175.271 114.831L175.289 115.154C175.314 115.534 175.264 115.938 175.138 116.318C175.093 116.456 175.004 116.59 174.908 116.723L174.764 116.92C174.647 117.084 174.548 117.245 174.536 117.406C174.449 118.697 175.88 118.967 177.332 118.922L177.482 118.916C177.507 118.915 177.532 118.914 177.557 118.912L177.707 118.903L177.856 118.893L178.004 118.88L178.15 118.867L178.295 118.852L178.437 118.835L178.577 118.818L178.713 118.8L178.847 118.782L178.976 118.763L179.163 118.734L179.339 118.705L179.655 118.65L179.952 118.595L180.347 118.517C180.743 118.442 181.143 118.38 181.556 118.418C181.874 118.439 182.175 118.533 182.472 118.638L182.634 118.696C183.086 118.848 183.562 119.025 184.013 119.177C184.515 119.354 185.016 119.607 185.517 119.784C185.684 119.84 185.877 119.868 186.075 119.892L186.331 119.922C186.585 119.953 186.832 119.992 187.022 120.088C187.197 120.176 187.366 120.284 187.536 120.394L187.79 120.561C187.876 120.616 187.962 120.67 188.05 120.72C188.2 120.807 188.327 120.926 188.449 121.052L188.631 121.243C188.712 121.327 188.794 121.408 188.884 121.479L188.952 121.53C189.303 121.783 189.579 122.061 189.855 122.365C189.938 122.474 190.044 122.573 190.155 122.669L190.322 122.814C190.488 122.959 190.644 123.111 190.732 123.301C190.831 123.514 190.866 123.76 190.891 124.006L190.915 124.251C190.926 124.359 190.939 124.465 190.958 124.566C190.967 124.616 190.978 124.667 190.989 124.719L191.059 125.031C191.118 125.293 191.165 125.562 191.133 125.831C191.062 126.647 190.561 127.435 189.975 128.2L189.848 128.364L189.719 128.527L189.589 128.689L189.2 129.171L189.073 129.331L188.949 129.49C188.642 129.887 188.366 130.277 188.175 130.663L188.041 130.944C187.846 131.348 187.635 131.741 187.342 132.079L187.272 132.156C187.237 132.196 187.199 132.235 187.161 132.273L187.007 132.424C186.856 132.575 186.718 132.733 186.671 132.94C186.625 133.107 186.644 133.274 186.671 133.441L186.699 133.608C186.708 133.664 186.716 133.72 186.721 133.775C186.732 133.974 186.712 134.172 186.684 134.373L186.64 134.677C186.62 134.813 186.603 134.951 186.595 135.091C186.582 135.586 186.872 135.976 187.22 136.331L187.304 136.416L187.39 136.499L187.692 136.785L187.776 136.865C187.789 136.879 187.803 136.892 187.816 136.906L187.895 136.987C187.96 137.054 188.02 137.122 188.075 137.191C188.104 137.225 188.141 137.26 188.184 137.297L188.252 137.354L188.363 137.447L188.44 137.513C188.608 137.662 188.772 137.843 188.827 138.076C188.879 138.262 188.801 138.462 188.693 138.665L188.648 138.746L188.551 138.916C188.494 139.016 188.439 139.117 188.4 139.215C188.364 139.312 188.335 139.419 188.308 139.531L188.276 139.666C188.22 139.893 188.157 140.124 188.024 140.303C187.847 140.532 187.614 140.659 187.369 140.776L187.14 140.883C186.833 141.028 186.526 141.2 186.295 141.568C186.139 141.812 186.022 142.078 185.91 142.344L185.812 142.58L185.747 142.73C185.584 143.103 185.397 143.459 185.091 143.744C184.847 143.971 184.532 144.128 184.22 144.267L183.913 144.402C183.07 144.814 182.297 145.391 181.66 146.108L181.411 146.393L181.34 146.47C181.185 146.636 181.016 146.781 180.804 146.83C180.604 146.881 180.378 146.856 180.177 146.906C179.886 146.98 179.66 147.187 179.453 147.412L179.376 147.497L179.262 147.624C179.25 147.638 179.237 147.652 179.225 147.665C178.748 148.298 178.247 148.905 177.771 149.538C177.194 150.285 176.956 150.957 176.813 151.677L176.785 151.827C176.78 151.852 176.776 151.877 176.772 151.903L176.746 152.055L176.723 152.209L176.689 152.445L176.611 153.019L176.587 153.191L176.561 153.366L176.532 153.545C176.527 153.575 176.522 153.606 176.517 153.636C176.496 153.794 176.38 153.939 176.249 154.082L176.129 154.21C175.984 154.367 175.852 154.525 175.84 154.699C175.84 154.87 175.921 155.04 176.015 155.209L176.142 155.432C176.213 155.561 176.274 155.688 176.291 155.812C176.307 155.933 176.293 156.064 176.271 156.198L176.25 156.313L176.229 156.429C176.191 156.641 176.166 156.849 176.241 157.027C176.392 157.381 176.667 157.735 176.893 158.013C177.035 158.189 177.252 158.289 177.48 158.378L177.685 158.458C177.913 158.547 178.13 158.647 178.272 158.823C178.318 158.878 178.367 158.933 178.419 158.988L178.628 159.21C178.822 159.415 179.007 159.628 179.099 159.86C179.146 159.968 179.184 160.074 179.219 160.179L179.296 160.41C179.365 160.614 179.442 160.81 179.576 160.999C179.739 161.239 179.895 161.435 180.046 161.615L180.267 161.878L180.374 162.006C180.409 162.05 180.444 162.093 180.478 162.137C180.754 162.466 181.005 162.922 181.105 163.529C181.172 163.979 181.08 164.428 180.971 164.843L180.929 164.996C180.888 165.148 180.815 165.294 180.736 165.44L180.633 165.626C180.507 165.854 180.391 166.085 180.378 166.337C180.369 166.46 180.406 166.602 180.454 166.754L180.532 166.99C180.603 167.213 180.665 167.448 180.629 167.678C180.553 168.108 180.378 168.589 180.202 168.968C180.069 169.276 179.762 169.482 179.457 169.651L179.314 169.729L179.175 169.803C178.851 169.976 178.643 169.916 178.43 169.811L178.343 169.765L178.253 169.718C178.243 169.713 178.232 169.707 178.222 169.702C178.177 169.679 178.129 169.658 178.081 169.638L177.88 169.557C177.659 169.466 177.432 169.359 177.269 169.146C177.108 168.95 176.916 168.808 176.726 168.677L176.538 168.548C176.497 168.52 176.456 168.491 176.417 168.462C176.141 168.273 175.903 168.209 175.677 168.162L175.523 168.13L175.421 168.108C175.286 168.076 175.152 168.034 175.013 167.956C174.836 167.856 174.737 167.692 174.654 167.525L174.567 167.344C174.494 167.197 174.416 167.066 174.286 166.995C174.1 166.896 173.882 166.883 173.655 166.879L173.518 166.878C173.266 166.874 173.009 166.863 172.782 166.742C172.606 166.653 172.468 166.502 172.333 166.337L172.198 166.17C172.107 166.059 172.013 165.949 171.904 165.857C171.603 165.578 171.252 165.35 170.951 165.072C170.801 164.92 170.613 164.819 170.425 164.727L170.284 164.66C170.145 164.593 170.011 164.525 169.898 164.44C169.733 164.317 169.616 164.141 169.513 163.969L169.406 163.786C169.318 163.639 169.232 163.514 169.121 163.453C168.977 163.365 168.799 163.334 168.62 163.313L168.408 163.289C168.199 163.264 168.008 163.227 167.893 163.099C167.789 162.982 167.765 162.811 167.757 162.614L167.754 162.513L167.75 162.356C167.746 162.195 167.736 162.025 167.692 161.859C167.642 161.682 167.573 161.505 167.501 161.328L167.393 161.062C167.357 160.973 167.322 160.885 167.291 160.796C167.236 160.641 167.129 160.511 167.012 160.383L166.911 160.274C166.794 160.146 166.68 160.015 166.614 159.86C166.464 159.506 166.564 159.076 166.414 158.722L166.264 158.374C166.166 158.145 166.071 157.921 165.987 157.684C165.918 157.488 165.871 157.291 165.827 157.09L165.772 156.846C165.754 156.764 165.734 156.681 165.712 156.596C165.676 156.469 165.584 156.335 165.482 156.198L165.343 156.014C165.206 155.828 165.085 155.64 165.085 155.458C165.085 155.35 165.142 155.206 165.213 155.056L165.257 154.966L165.339 154.799L165.375 154.723C165.438 154.588 165.481 154.468 165.466 154.39L165.461 154.37C165.382 154.077 165.247 153.854 165.093 153.628L164.951 153.421C164.854 153.279 164.754 153.129 164.659 152.953C164.611 152.863 164.544 152.779 164.471 152.696L164.397 152.614L164.283 152.488C164.145 152.333 164.019 152.169 163.982 151.966C163.948 151.796 163.995 151.615 164.055 151.433L164.117 151.251C164.171 151.089 164.217 150.929 164.207 150.777L164.16 150.031L164.142 149.749C164.138 149.703 164.135 149.658 164.132 149.613C164.106 149.375 163.983 149.171 163.855 148.98L163.75 148.826C163.67 148.708 163.597 148.593 163.556 148.475L163.499 148.278L163.376 147.838C163.275 147.481 163.175 147.166 162.979 146.755C162.703 146.198 162.553 145.641 162.427 145.034L162.4 144.894L162.348 144.608L162.283 144.245L162.242 144.026L162.212 143.88C162.045 143.079 161.79 142.299 161.149 141.77C160.756 141.442 160.269 141.269 159.765 141.124L159.596 141.076L159.315 140.998C159.034 140.92 158.755 140.839 158.491 140.733C157.291 140.262 156.367 139.314 155.596 138.277L155.479 138.116C155.46 138.09 155.44 138.063 155.421 138.036L155.307 137.874L154.629 136.897C153.916 135.874 153.194 134.888 152.299 134.003C152.115 133.817 151.919 133.634 151.718 133.451L151.516 133.267L151.107 132.899C150.458 132.311 149.821 131.696 149.391 130.967C149.269 130.749 149.191 130.516 149.122 130.285L149.034 129.989C149.005 129.891 148.974 129.795 148.939 129.702C148.864 129.499 148.852 129.284 148.849 129.063L148.846 128.812C148.844 128.671 148.838 128.529 148.814 128.386C148.79 128.258 148.744 128.131 148.693 128.003L148.614 127.811C148.527 127.598 148.45 127.385 148.463 127.172C148.474 126.99 148.574 126.803 148.683 126.622L148.789 126.444C148.898 126.261 148.986 126.087 148.965 125.932C148.928 125.762 148.777 125.65 148.612 125.547L148.488 125.469C148.351 125.384 148.222 125.295 148.162 125.173C148.095 125.021 148.118 124.813 148.162 124.564L148.227 124.222C148.23 124.202 148.234 124.182 148.237 124.161C148.261 124.018 148.34 123.898 148.43 123.781L148.534 123.651C148.603 123.564 148.67 123.475 148.714 123.377C148.776 123.238 148.739 123.067 148.689 122.893L148.647 122.75C148.61 122.624 148.579 122.5 148.588 122.39C148.622 122.128 148.702 121.897 148.791 121.671L148.896 121.409C148.971 121.221 149.043 121.03 149.09 120.821C149.103 120.769 149.145 120.682 149.2 120.579L149.251 120.486L149.307 120.387L149.485 120.077L149.541 119.977C149.612 119.847 149.669 119.732 149.692 119.658C149.723 119.562 149.679 119.448 149.624 119.329L149.58 119.24C149.515 119.105 149.455 118.968 149.491 118.848C149.549 118.636 149.661 118.556 149.778 118.5L149.831 118.475L149.884 118.452C149.981 118.409 150.069 118.36 150.118 118.241C150.191 118.078 150.238 117.89 150.28 117.696L150.35 117.362L150.368 117.279C150.385 117.209 150.397 117.137 150.409 117.065L150.441 116.85C150.468 116.684 150.499 116.523 150.564 116.379L150.692 116.121L150.786 115.934C150.957 115.601 151.119 115.319 151.321 115.078C151.361 115.031 151.404 114.986 151.449 114.941L151.518 114.873L151.661 114.736C151.673 114.725 151.685 114.713 151.697 114.701L151.769 114.629C151.946 114.443 152.106 114.226 152.174 113.914C152.344 113.101 152.112 112.075 151.762 111.147L151.699 110.984C151.603 110.742 151.5 110.508 151.395 110.288L151.325 110.143L151.254 110.003C151.243 109.98 151.231 109.957 151.219 109.935L151.149 109.802L151.08 109.675C151.068 109.654 151.057 109.633 151.045 109.613C150.911 109.374 150.763 109.141 150.612 108.909L150.356 108.521L150.224 108.318C149.919 107.844 149.637 107.361 149.466 106.83C149.32 106.401 149.251 105.952 149.189 105.499L149.148 105.197C149.106 104.896 149.06 104.595 148.99 104.3C148.908 103.95 148.786 103.631 148.657 103.318L148.51 102.969C148.331 102.542 148.162 102.112 148.087 101.618C148.065 101.463 148.106 101.294 148.154 101.122L148.196 100.975C148.244 100.804 148.284 100.635 148.263 100.48L148.249 100.364L148.203 99.9245C148.179 99.715 148.153 99.5205 148.112 99.3411C148.082 99.1792 148 99.0375 147.91 98.9031L147.809 98.7543C147.709 98.6072 147.622 98.4632 147.611 98.3038C147.601 98.2374 147.588 98.1701 147.574 98.1017L147.513 97.8222C147.467 97.6078 147.432 97.3819 147.46 97.1399C147.491 96.9241 147.621 96.7751 147.764 96.6301L147.865 96.5296C148.043 96.3493 148.212 96.1532 148.212 95.8243C148.212 95.74 148.207 95.6528 148.199 95.5648L148.175 95.2996C148.168 95.2115 148.162 95.1243 148.162 95.04C148.174 94.8138 148.241 94.5988 148.322 94.3871L148.385 94.2288L148.449 94.071C148.502 93.9395 148.552 93.8077 148.588 93.6738C148.669 93.4285 148.713 93.1725 148.749 92.9157L148.8 92.5311C148.824 92.361 148.851 92.1927 148.889 92.0292C149.102 91.0847 149.658 90.2676 150.265 89.5162L150.396 89.3562L150.528 89.1981L150.594 89.1196C151.115 88.5066 151.335 88.0391 151.513 87.44L151.552 87.3046L151.59 87.1642L151.628 87.0181L151.747 86.539C151.906 85.8751 152.25 85.2527 152.611 84.6717L152.725 84.4896C152.985 84.0743 153.26 83.6679 153.539 83.2643L153.779 82.9188L154.141 82.4014L154.38 82.0557C154.975 81.1898 155.543 80.3089 155.984 79.3536C156.548 78.15 157.289 77.2601 158.105 76.3747L158.288 76.1779L158.943 75.4793L159.134 75.2738C159.262 75.1356 159.39 74.9947 159.519 74.8501C159.773 74.5643 160.022 74.2744 160.271 73.9832L160.83 73.3272C161.453 72.5988 162.085 71.8765 162.778 71.2068C163.631 70.3719 164.533 69.5875 165.461 68.8285L166.558 67.9212L167.112 67.4657L167.483 67.1622L167.857 66.8593L168.232 66.5573L168.61 66.2568C170.88 64.4583 173.261 62.754 175.815 61.5166C176.17 61.3377 176.503 61.0961 176.83 60.8522L177.047 60.6899C177.155 60.6093 177.262 60.5299 177.369 60.454C178.222 59.8215 179.175 59.3408 180.177 59.0119L180.27 58.9813L180.458 58.9221L180.838 58.807C181.315 58.662 181.79 58.5036 182.183 58.2276C182.246 58.1833 182.303 58.1395 182.357 58.0966L182.435 58.0328C182.448 58.0223 182.46 58.0118 182.473 58.0014L182.543 57.9399L182.642 57.8508L182.794 57.713L182.852 57.6621C183.132 57.4229 183.402 57.2809 184.038 57.342ZM217.332 54.1542C217.984 54.2807 218.636 54.4072 219.287 54.5843C219.393 54.6146 219.497 54.6435 219.601 54.6711L219.808 54.7249L220.014 54.776L220.319 54.8486L221.017 55.0092L221.213 55.0551L221.408 55.1019C222.509 55.3713 223.545 55.7131 224.552 56.5577L224.669 56.6561C224.79 56.757 224.922 56.8613 225.054 56.9372C225.229 57.0159 225.42 57.064 225.614 57.1053L225.781 57.1396C225.996 57.1831 226.216 57.2297 226.439 57.2797L226.709 57.3414C229.423 57.9741 232.605 59.0968 234.58 60.9094C235.335 61.5987 236.266 62.1168 237.225 62.5887L237.499 62.7223L237.774 62.8541L238.459 63.1797C238.505 63.2014 238.55 63.2231 238.595 63.2448L238.865 63.3756C239.044 63.4631 239.221 63.5516 239.394 63.6419C239.946 63.9202 240.497 64.2238 240.999 64.6033C241.425 64.9322 241.788 65.3181 242.145 65.7102L242.383 65.972C242.661 66.2773 242.943 66.5796 243.255 66.8551C243.528 67.098 243.818 67.3149 244.111 67.5259L244.551 67.8403C245.025 68.1815 245.484 68.533 245.862 68.9803C246.355 69.5717 246.848 69.9489 247.359 70.3054L247.632 70.4932L247.816 70.6194L248.002 70.7486C248.252 70.9237 248.507 71.1119 248.77 71.3333C249.034 71.561 249.234 71.8456 249.428 72.1366L249.558 72.3309C249.709 72.5575 249.864 72.781 250.049 72.9778L250.423 73.3726C250.485 73.4386 250.547 73.5046 250.609 73.5708L250.98 73.9686C252.957 76.0965 254.852 78.3231 256.392 80.7957C258.774 84.6414 260.779 88.7401 262.409 92.9653L262.875 94.1896L263.186 95.0068C263.752 96.5061 264.3 98.0128 264.765 99.5435C265.403 101.631 265.65 103.993 265.782 106.285L265.805 106.701L265.826 107.115C265.829 107.184 265.833 107.253 265.836 107.321L265.863 107.935L265.919 109.335C265.965 109.508 266.014 109.678 266.063 109.844L266.137 110.091L266.247 110.456L266.319 110.695C266.518 111.372 266.681 112.028 266.696 112.75C266.234 112.604 265.814 112.373 265.395 112.132L265.018 111.915C264.807 111.795 264.594 111.677 264.372 111.572L264.239 111.511C264.161 111.477 264.082 111.436 264.001 111.392L263.818 111.29C263.592 111.165 263.356 111.045 263.111 111.03C262.951 111.021 262.802 111.057 262.656 111.103L262.478 111.16C262.294 111.219 262.109 111.268 261.907 111.232C261.08 111.106 260.403 110.347 260.102 109.613C259.992 109.353 259.949 109.026 259.924 108.72L259.912 108.555L259.902 108.399C259.895 108.24 259.91 108.089 259.93 107.942L259.96 107.725C259.997 107.456 260.017 107.194 259.902 106.912L259.877 106.855C259.526 106.02 258.924 105.337 258.122 104.983C257.67 104.781 257.207 104.623 256.74 104.471L256.339 104.341C256.005 104.233 255.67 104.123 255.339 103.996C255.011 103.86 254.694 103.705 254.379 103.547L254 103.358C253.62 103.169 253.237 102.984 252.832 102.833L252.437 102.701C252.042 102.57 251.647 102.447 251.252 102.352C251.036 102.294 250.835 102.216 250.638 102.133L250.402 102.033C250.245 101.966 250.088 101.901 249.924 101.846C250.348 100.774 250.684 99.7476 250.931 98.618L250.977 98.405C251.127 97.7219 251.227 97.064 251.202 96.3556C251.185 95.9091 251.079 95.5383 250.957 95.1541L250.864 94.8621C250.843 94.796 250.822 94.7289 250.801 94.6605C250.733 94.419 250.649 94.1984 250.561 93.9821L250.402 93.5937C250.349 93.4634 250.297 93.3311 250.25 93.1931C250.203 93.0514 250.165 92.9133 250.13 92.7778L250.053 92.4771C249.984 92.2131 249.907 91.9567 249.773 91.7003C249.397 90.9919 249.748 90.3088 250.525 89.9799C250.604 89.9473 250.679 89.92 250.75 89.8956L250.855 89.8611L251.099 89.7842C251.349 89.7029 251.568 89.6102 251.809 89.369L251.854 89.322C251.984 89.1804 252.139 89.067 252.297 88.9593L252.454 88.8527C252.638 88.7286 252.817 88.6018 252.957 88.4365C253.174 88.2178 253.171 88.0376 253.095 87.8364L253.072 87.7783L253.045 87.7188L252.938 87.4944L252.907 87.4245C252.757 87.0197 252.757 86.7414 252.782 86.3113C252.786 86.2646 252.791 86.2167 252.796 86.1679L252.823 85.9443C252.846 85.7427 252.863 85.5367 252.832 85.3498C252.793 85.1122 252.671 84.9435 252.533 84.7826L252.39 84.6219C252.306 84.5271 252.224 84.428 252.155 84.3125C251.553 83.174 251.653 81.8584 252.706 81.074C252.571 81.0304 252.436 80.9699 252.302 80.905L252.028 80.7704C251.706 80.6153 251.379 80.4834 251.027 80.5427C250.763 80.5747 250.521 80.6739 250.281 80.7857L250.011 80.9138C249.769 81.0272 249.521 81.1326 249.247 81.1752C249.218 81.1796 249.187 81.1835 249.154 81.1869L249.049 81.1962L248.748 81.2165L248.621 81.2262C248.365 81.2479 248.112 81.2852 247.968 81.3776C247.734 81.5294 247.623 81.9399 247.552 82.3091L247.532 82.4183L247.482 82.7131C247.477 82.742 247.472 82.7692 247.467 82.7945C247.458 82.8423 247.45 82.8894 247.441 82.936L247.413 83.0738C247.17 84.2071 246.699 84.9628 245.561 85.5017L245.437 85.5576L245.305 85.6151C244.831 85.8181 244.241 86.0289 243.756 86.0077C243.455 85.9908 243.266 85.8502 243.091 85.6609L243.034 85.5962L242.976 85.5284L242.829 85.3498L242.765 85.2719L242.703 85.1925L242.641 85.1117L242.58 85.0296C242.57 85.0158 242.56 85.0019 242.55 84.9881L242.491 84.9041C242.453 84.8477 242.416 84.7906 242.38 84.7327L242.328 84.6454C241.988 84.06 241.83 83.4084 242.252 82.7692L242.367 82.6015L242.438 82.4963C242.709 82.0836 242.858 81.7627 242.833 81.1967L242.829 81.1246C242.804 80.5174 242.553 79.809 242.227 79.2777C241.996 78.9006 241.689 78.7529 241.333 78.6537L241.234 78.6278L241.134 78.6034L240.873 78.544C240.503 78.4661 240.247 78.2733 239.993 78.0539L239.753 77.8432C239.671 77.7722 239.586 77.7013 239.494 77.6332C239.458 77.6071 239.423 77.5818 239.39 77.557L239.295 77.4845C238.98 77.2359 238.825 77.0369 238.664 76.7181L238.617 76.6236L238.569 76.5217L238.519 76.4115L238.466 76.2922C238.259 75.8533 237.864 75.5007 237.478 75.1917L237.357 75.0955L237.238 75.0019C236.762 74.6477 236.11 74.5718 235.533 74.7236C235.358 74.7742 235.207 74.8501 235.06 74.9291L234.913 75.0084C234.814 75.0609 234.714 75.1115 234.606 75.1537C234.355 75.2549 234.054 75.2296 233.803 75.3308C233.527 75.4564 233.334 75.7284 233.17 76.0192L233.11 76.1289L233.052 76.2389L232.968 76.401L232.913 76.5052C232.876 76.5731 232.838 76.6377 232.8 76.697C232.691 76.871 232.593 77.0573 232.499 77.2466L232.33 77.5889C232.18 77.8925 232.023 78.1898 231.823 78.4428C231.608 78.75 231.252 79.0443 230.911 79.2888L230.776 79.3839L230.645 79.4731L230.519 79.556L230.467 79.5933L230.303 79.7123L230.132 79.8379L230.014 79.9231L229.893 80.0078C229.527 80.2597 229.128 80.486 228.739 80.5174C228.518 80.5377 228.306 80.5215 228.093 80.4996L227.88 80.477C227.631 80.4511 227.379 80.4314 227.109 80.4668C226.439 80.5601 226.259 80.331 226.372 79.7401L226.388 79.6627C226.394 79.6362 226.401 79.6091 226.407 79.5813C226.455 79.4203 226.48 79.2388 226.5 79.0515L226.533 78.7274C226.564 78.4301 226.608 78.1392 226.733 77.9115C226.852 77.6838 227.043 77.5676 227.248 77.4693L227.351 77.4213L227.454 77.3736C227.66 77.2769 227.858 77.1669 227.987 76.95C228.087 76.7752 228.141 76.5937 228.186 76.4104L228.251 76.1347C228.302 75.9278 228.365 75.7216 228.493 75.5232L228.538 75.4573C228.808 75.0738 228.797 74.7912 228.727 74.4693L228.708 74.3879L228.656 74.1742L228.635 74.0832C228.618 74.0059 228.602 73.9246 228.589 73.8381L228.551 73.5789L228.484 73.0866L228.463 72.9392L228.441 72.7898L228.417 72.6388L228.391 72.4867C228.387 72.4613 228.382 72.4358 228.377 72.4104L228.349 72.2575C228.179 71.391 227.894 70.5291 227.285 70.0683C227.214 70.0134 227.144 69.9607 227.074 69.9092L226.763 69.682C226.524 69.5065 226.29 69.3282 226.056 69.1068C225.638 68.702 225.292 68.7013 224.876 68.8149L224.797 68.8375L224.675 68.8755L224.37 68.9759L224.276 69.0056C224.013 69.0815 223.744 69.1764 223.474 69.2745L223.071 69.4219C222.937 69.4705 222.804 69.518 222.672 69.5622C222.176 69.7498 221.936 70.229 221.769 70.7173L221.734 70.822L221.685 70.9782L221.669 71.0297C221.469 71.6622 221.393 72.2947 221.418 72.9525C221.443 73.3067 221.544 73.6863 221.569 74.0405C221.569 74.3694 221.418 74.6477 221.418 74.9766C221.418 75.3177 221.56 75.6656 221.724 76.0097L221.796 76.1569L221.904 76.3764C221.986 76.5465 222.064 76.7146 222.122 76.8795L222.145 76.95C222.396 77.6838 222.171 78.291 221.619 78.8223C221.406 79.0373 221.155 79.2018 220.898 79.3599L220.705 79.478C220.511 79.5963 220.318 79.7173 220.14 79.8596L219.974 80.0082C219.817 80.1474 219.647 80.2847 219.463 80.3403C219.277 80.4073 219.084 80.3963 218.892 80.3786L218.764 80.3665C218.636 80.3551 218.509 80.3478 218.385 80.3656C218.211 80.3773 218.048 80.4267 217.889 80.4815L217.73 80.5369C217.598 80.5825 217.467 80.6245 217.332 80.6439C217.233 80.662 217.125 80.6575 217.015 80.6477L216.814 80.628C216.68 80.616 216.548 80.6114 216.429 80.6439C215.995 80.7575 215.974 81.069 216.074 81.3979L216.092 81.4561C216.096 81.4658 216.099 81.4755 216.103 81.4853L216.125 81.5436L216.148 81.6017L216.186 81.6881L216.225 81.7728L216.304 81.9343L216.445 82.2415L216.493 82.3414C216.632 82.6215 216.799 82.8754 217.106 83.0475C217.387 83.1959 217.696 83.294 218.008 83.3839L218.357 83.4838C218.512 83.5287 218.664 83.5754 218.811 83.6294C219.322 83.8158 219.743 84.1447 220.152 84.4947L220.529 84.8202C220.938 85.1716 221.359 85.5067 221.87 85.7041C222.396 85.9065 223.073 86.0836 223.625 85.9065C223.74 85.8692 223.843 85.8216 223.938 85.7702L224.018 85.7253C224.031 85.7178 224.044 85.7101 224.057 85.7025L224.28 85.5667L224.353 85.5247C224.584 85.3961 224.821 85.3144 225.173 85.4093L225.229 85.4258C225.657 85.5536 226.084 85.6587 226.511 85.7587L227.15 85.9069C227.86 86.0721 228.566 86.2474 229.265 86.5137L229.386 86.5624L229.668 86.6793L229.775 86.7223C230.112 86.8538 230.428 86.9366 230.87 86.8679L231.174 86.8227L231.335 86.8001L231.499 86.7788C232.054 86.7109 232.661 86.6799 233.126 86.8426C233.584 87.0126 234.133 87.4391 234.465 87.8311L234.505 87.8799C234.602 88.0019 234.743 88.1108 234.894 88.2176L235.151 88.3954C235.389 88.563 235.608 88.7401 235.684 88.9678C235.745 89.1225 235.712 89.296 235.667 89.4653L235.615 89.6472C235.603 89.6917 235.592 89.7353 235.583 89.7775C235.547 90.0305 235.563 90.2189 235.593 90.4351L235.633 90.7136C235.689 91.0622 235.621 91.3658 235.541 91.6599L235.481 91.8794C235.403 92.171 235.341 92.4621 235.408 92.7882C235.533 93.3955 235.709 94.1545 235.934 94.7364C236.004 94.8999 236.097 95.037 236.195 95.1655L236.269 95.2605L236.379 95.4005C236.536 95.6029 236.674 95.8117 236.711 96.1026L236.733 96.2931L236.744 96.3783C236.746 96.392 236.748 96.4055 236.75 96.4187L236.762 96.4952C236.819 96.8277 236.917 97.0049 237.25 97.2523L237.327 97.3086C237.355 97.3277 237.383 97.3474 237.413 97.3677C237.666 97.5337 237.932 97.6465 238.201 97.7504L238.546 97.8828C238.775 97.9725 239.002 98.0697 239.218 98.2026C239.72 98.5315 240.196 98.8098 240.798 98.9616C240.968 99.0083 241.109 99.0071 241.257 98.9993L241.369 98.9928C241.427 98.9896 241.486 98.9869 241.55 98.9869C241.757 99.0018 241.885 99.0604 242.022 99.1371L242.15 99.2103C242.21 99.2444 242.276 99.2801 242.352 99.3158C242.829 99.5435 243.38 99.5688 243.857 99.7965C244.458 100.075 245.035 100.581 245.436 101.087C245.454 101.11 245.473 101.133 245.493 101.158L245.557 101.232L245.773 101.477L245.849 101.565C246.087 101.845 246.313 102.158 246.313 102.453C246.313 102.839 245.995 103.253 245.687 103.576L245.61 103.655C245.597 103.667 245.585 103.68 245.572 103.693L245.462 103.799L245.361 103.895C244.868 104.346 244.333 104.73 243.794 105.103L243.192 105.519L242.971 105.673C242.313 106.14 241.68 106.633 241.149 107.26L241.086 107.336L240.958 107.484C240.767 107.706 240.579 107.924 240.447 108.171C240.322 108.424 240.221 108.702 240.146 108.981C239.856 110.015 239.666 111.07 239.398 112.109L239.294 112.497C239.254 112.654 239.204 112.807 239.149 112.958L239.094 113.109L238.921 113.559L238.866 113.709C238.704 114.16 238.587 114.62 238.667 115.129C238.703 115.313 238.78 115.47 238.867 115.63L238.968 115.812C239.102 116.102 239.148 116.318 239.185 116.596L239.202 116.73L239.218 116.874C239.253 117.272 239.314 117.678 239.383 118.087L239.435 118.394L239.515 118.857C239.655 119.68 239.775 120.506 239.72 121.302C239.713 121.382 239.697 121.461 239.68 121.541L239.654 121.66C239.62 121.819 239.591 121.978 239.62 122.137C239.643 122.29 239.716 122.422 239.796 122.552L239.867 122.663C239.938 122.776 240.006 122.891 240.046 123.023C240.135 123.281 240.085 123.52 240.021 123.756L239.971 123.933C239.906 124.17 239.856 124.408 239.946 124.667C239.994 124.793 240.054 124.901 240.115 125L240.161 125.074L240.252 125.214L240.296 125.283L240.337 125.352C240.462 125.572 240.537 125.808 240.447 126.185C240.337 126.606 240.074 126.871 239.758 127.135L239.666 127.21L239.62 127.248C239.587 127.275 239.551 127.303 239.511 127.333L239.428 127.395L239.196 127.561L239.099 127.633C238.84 127.826 238.588 128.043 238.517 128.26C238.501 128.299 238.505 128.344 238.515 128.39L238.535 128.475C238.554 128.551 238.567 128.627 238.517 128.69C238.397 128.862 238.232 128.835 238.076 128.769L238.026 128.747L237.978 128.723L237.865 128.665L237.565 128.502L237.492 128.464C237.185 128.308 236.982 128.268 236.461 128.437C235.859 128.639 235.558 128.968 235.232 129.499C234.856 130.107 234.731 130.689 234.706 131.397C234.693 131.561 234.668 131.72 234.64 131.881L234.597 132.126C234.582 132.21 234.568 132.295 234.555 132.384C234.494 132.662 234.517 132.903 234.556 133.151L234.601 133.429C234.612 133.5 234.622 133.573 234.631 133.649C234.678 134.251 234.544 134.968 234.358 135.56L234.33 135.648C234.29 135.768 234.256 135.899 234.225 136.036L234.133 136.452C234.057 136.788 233.967 137.12 233.803 137.368C233.707 137.522 233.594 137.635 233.48 137.737L233.403 137.804L233.327 137.869C233.137 138.034 232.958 138.207 232.851 138.532C232.69 139.051 232.498 139.237 232.216 139.431L231.916 139.63L231.831 139.688L231.741 139.752C231.711 139.774 231.679 139.797 231.647 139.822C231.339 140.056 231.059 140.328 230.784 140.608L230.372 141.032C230.338 141.068 230.303 141.103 230.268 141.138C230.216 141.19 230.165 141.248 230.112 141.31L230.034 141.405L229.832 141.655C229.585 141.959 229.317 142.258 228.99 142.352C228.739 142.428 228.463 142.378 228.213 142.453C228.017 142.514 227.867 142.62 227.723 142.734L227.581 142.849C227.534 142.887 227.485 142.924 227.435 142.959C226.98 143.273 226.439 143.414 225.897 143.525L225.726 143.559L225.555 143.592C225.179 143.668 224.803 143.643 224.427 143.744C224.358 143.769 224.292 143.798 224.227 143.827L224.099 143.886C223.95 143.954 223.8 144.018 223.625 144.047C222.998 144.149 222.271 143.971 221.744 143.617C221.174 143.242 220.917 142.703 220.746 142.111L220.71 141.984L220.677 141.855L220.645 141.725L220.614 141.595L220.534 141.246C220.437 140.827 220.33 140.408 220.14 140.025C219.961 139.664 219.825 139.286 219.693 138.906L219.558 138.517C219.326 137.854 219.068 137.204 218.585 136.66L218.492 136.553L218.306 136.343L217.844 135.83L217.663 135.627C217.093 134.984 216.564 134.335 216.154 133.522C215.527 132.283 215.201 130.486 216.053 129.272C216.085 129.227 216.121 129.183 216.158 129.139L216.235 129.049C216.324 128.943 216.411 128.833 216.454 128.715C216.513 128.56 216.511 128.406 216.498 128.251L216.48 128.077C216.469 127.961 216.462 127.845 216.48 127.728C216.51 127.471 216.624 127.268 216.752 127.071L216.893 126.857C217.033 126.641 217.159 126.413 217.181 126.109L217.212 125.83C217.215 125.798 217.218 125.765 217.222 125.732L217.241 125.532C217.292 124.955 217.318 124.312 217.207 123.807C217.181 123.68 217.125 123.566 217.062 123.453L216.999 123.338C216.956 123.261 216.914 123.183 216.881 123.098C216.768 122.814 216.768 122.615 216.796 122.362L216.809 122.258L216.83 122.086L216.861 121.865L216.876 121.744L216.891 121.617L216.903 121.487C216.942 121.026 216.934 120.514 216.73 120.189C216.661 120.072 216.559 119.988 216.455 119.908L216.352 119.829C216.266 119.763 216.186 119.695 216.129 119.607C216.028 119.468 215.959 119.31 215.897 119.148L215.804 118.906C215.773 118.826 215.74 118.747 215.702 118.671C215.552 118.348 215.392 118.034 215.23 117.722L215.034 117.349L214.837 116.978C214.48 116.297 214.134 115.613 213.872 114.876L213.829 114.751C213.629 114.149 213.642 113.844 213.942 113.265L213.972 113.206C214.173 112.835 214.329 112.407 214.47 111.984L214.553 111.731L214.634 111.481C214.648 111.44 214.661 111.399 214.674 111.359L214.709 111.256C214.882 110.734 214.927 110.394 214.574 109.942C214.123 109.385 213.747 109.158 213.02 109.208C212.965 109.213 212.909 109.221 212.854 109.228L212.606 109.265C212.468 109.284 212.33 109.297 212.192 109.284C212.077 109.275 211.961 109.239 211.845 109.198L211.706 109.149C211.568 109.1 211.429 109.057 211.29 109.057C210.988 109.057 210.669 109.18 210.352 109.327L210.206 109.397L209.916 109.537L209.774 109.604C209.655 109.658 209.539 109.706 209.427 109.744L209.359 109.765C209.059 109.854 208.808 109.986 208.563 110.126L208.381 110.23C208.198 110.335 208.012 110.439 207.805 110.524C207.279 110.752 206.71 110.766 206.141 110.727L205.979 110.714L205.735 110.692L205.574 110.676C205.459 110.662 205.347 110.658 205.238 110.656L205.076 110.656L204.867 110.657C204.508 110.655 204.179 110.618 203.869 110.322C203.604 110.083 203.386 109.961 203.141 109.861L203.042 109.822L202.938 109.783L202.656 109.683L202.531 109.638C202.509 109.63 202.487 109.622 202.465 109.613L202.362 109.571L202.033 109.44C201.845 109.364 201.654 109.281 201.487 109.183C201.152 108.993 200.866 108.68 200.604 108.341L200.501 108.204L200.399 108.065L200.152 107.723L200.055 107.59C200.022 107.547 199.99 107.504 199.958 107.463C199.815 107.279 199.708 107.06 199.607 106.834L199.494 106.579C199.368 106.297 199.233 106.023 199.03 105.818C198.964 105.751 198.872 105.703 198.772 105.662L198.695 105.632L198.539 105.574C198.333 105.495 198.143 105.401 198.103 105.186C198.07 105.007 198.153 104.839 198.25 104.668L198.304 104.574C198.412 104.385 198.515 104.19 198.479 103.971C198.45 103.809 198.378 103.638 198.303 103.468L198.239 103.324C198.208 103.252 198.178 103.18 198.153 103.111C198.053 102.757 198.028 102.377 197.927 102.023L197.884 101.881L197.804 101.619L197.768 101.497L197.735 101.379C197.625 100.972 197.583 100.615 197.702 100.05C197.751 99.8209 197.881 99.6196 198.023 99.4242L198.179 99.2123C198.346 98.9831 198.492 98.7511 198.504 98.4809C198.504 98.3524 198.467 98.2186 198.421 98.0843L198.351 97.8833C198.321 97.7943 198.294 97.7063 198.278 97.6207C198.256 97.4745 198.254 97.3233 198.255 97.1716L198.26 96.9441C198.262 96.8307 198.262 96.7183 198.253 96.6086C198.203 95.8749 198.278 95.1665 198.404 94.4328C198.504 93.8256 198.755 93.193 199.206 92.7123C199.383 92.5334 199.591 92.4464 199.807 92.3785L199.908 92.3483L200.034 92.3119C200.267 92.2448 200.501 92.1709 200.71 92.0039C201.19 91.6143 201.533 91.1255 201.859 90.6223L202.129 90.204C202.411 89.7667 202.707 89.3362 203.092 88.9678C203.3 88.7576 203.535 88.5798 203.772 88.4069L204.009 88.2347C204.205 88.0909 204.397 87.9441 204.571 87.7787C204.64 87.7155 204.706 87.649 204.77 87.5818L204.963 87.3802C205.091 87.2474 205.223 87.1209 205.373 87.0197C205.465 86.9607 205.563 86.9157 205.66 86.8735L205.777 86.8235C205.931 86.7568 206.08 86.6857 206.201 86.5643C206.33 86.4342 206.422 86.2808 206.508 86.1241L206.595 85.9671C206.682 85.8104 206.774 85.6571 206.903 85.527C207.015 85.4217 207.135 85.3501 207.255 85.2865L207.435 85.1939C207.628 85.0931 207.812 84.9794 207.956 84.7426C208.197 84.3767 208.41 84.1705 208.637 83.9762L208.728 83.8988L208.87 83.7804L208.967 83.697C209.067 83.6108 209.171 83.5156 209.284 83.4017C209.599 83.0841 209.75 82.2713 209.737 81.8284L209.727 81.6052L209.718 81.4256C209.691 80.9747 209.638 80.5121 209.46 80.1126C209.259 79.6572 208.969 79.4492 208.613 79.2561L208.514 79.2037L208.253 79.0689L208.143 79.0109L208.031 78.9488C207.554 78.6958 207.003 78.2151 206.953 77.6585C206.943 77.5417 206.956 77.4286 206.972 77.3179L206.992 77.1861C207.012 77.0551 207.026 76.9267 207.003 76.7982C206.989 76.7308 206.967 76.6615 206.942 76.5909L206.884 76.4301C206.833 76.2855 206.789 76.137 206.802 75.9886C206.83 75.7137 207.012 75.4986 207.213 75.2945L207.365 75.1432C207.485 75.024 207.599 74.9043 207.68 74.7742C208.031 74.1923 208.407 73.6609 208.783 73.079C208.819 73.0236 208.852 72.9677 208.884 72.9119L208.93 72.8282L208.974 72.745L209.101 72.5018L209.144 72.4241C209.33 72.0923 209.546 71.826 210.011 71.7634C210.28 71.7217 210.561 71.723 210.844 71.7282L211.087 71.7328C211.412 71.7378 211.735 71.7336 212.042 71.6622C212.275 71.6126 212.485 71.4902 212.69 71.3544L212.935 71.1902C213.068 71.1018 213.203 71.0177 213.346 70.9538C213.546 70.8526 213.713 70.7514 213.884 70.6427L214.148 70.4731C214.307 70.3793 214.431 70.3423 214.561 70.3169L214.649 70.3013L214.742 70.2861L214.841 70.2684C214.876 70.2618 214.912 70.2543 214.95 70.2454C215.368 70.1751 215.484 70.056 215.608 69.8118L215.638 69.7508L215.739 69.5365L215.78 69.454C215.788 69.4397 215.795 69.4252 215.803 69.4104C215.94 69.1321 216.141 68.9993 216.351 68.8823L216.532 68.7828C216.683 68.6982 216.83 68.6026 216.956 68.449C217.499 67.7912 217.456 67.0461 217.25 66.3218L217.217 66.2106L217.181 66.0997C217.175 66.0813 217.169 66.0629 217.163 66.0445L217.125 65.9344L217.065 65.7706L216.962 65.5015L216.839 65.1867L216.78 65.0334C216.673 64.7433 216.511 64.4406 216.335 64.1296L216.093 63.7026L215.985 63.5087L215.914 63.3787C215.58 62.749 215.321 62.1006 215.452 61.466C215.552 60.9347 215.928 60.5805 216.454 60.4793L216.505 60.4709L216.601 60.4565L216.694 60.4448L216.824 60.4306L217.062 60.4067L217.136 60.3977C217.148 60.396 217.16 60.3943 217.171 60.3925L217.241 60.3808C217.505 60.3311 217.724 60.2234 217.976 59.8914L218.131 59.6798L218.248 59.5173C218.26 59.4994 218.273 59.4816 218.285 59.4639L218.358 59.358L218.428 59.2531C218.836 58.6256 219.065 58.0311 218.911 57.1396C218.811 56.5577 218.535 56.0833 218.225 55.6184L218.114 55.4546L217.946 55.2082L217.834 55.0421C217.649 54.7635 217.472 54.4741 217.332 54.1542ZM249.431 126.091L249.422 126.16C249.365 126.637 249.279 127.104 249.185 127.567L249.114 127.913L249.006 128.432C248.84 129.238 248.691 130.045 248.672 130.887L248.67 131.068C248.67 131.318 248.645 131.603 248.615 131.888L248.563 132.371C248.542 132.567 248.526 132.754 248.521 132.92L248.52 133.016C248.52 133.083 248.515 133.17 248.507 133.271L248.496 133.4C248.494 133.422 248.491 133.445 248.489 133.468L248.473 133.614L248.454 133.769C248.45 133.795 248.447 133.822 248.443 133.849L248.42 134.013L248.395 134.181L248.368 134.35C248.363 134.379 248.359 134.407 248.354 134.435L248.324 134.604L248.293 134.769C248.23 135.094 248.16 135.386 248.093 135.572C247.838 136.29 247.59 136.544 247.284 136.745L247.222 136.785L247.059 136.882L246.92 136.966L246.848 137.011C246.835 137.018 246.823 137.026 246.81 137.034L246.734 137.085C246.605 137.172 246.466 137.279 246.313 137.419C246.259 137.468 246.188 137.561 246.11 137.676L246.05 137.766L245.988 137.861L245.739 138.257L245.68 138.348C245.671 138.363 245.661 138.377 245.652 138.391L245.598 138.47C245.53 138.569 245.472 138.64 245.436 138.658C245.437 138.658 245.436 138.657 245.433 138.656L245.419 138.655L245.381 138.654L245.3 138.655L244.981 138.666L244.609 138.683L243.581 138.734L243.463 138.693C242.863 138.478 242.668 138.291 242.527 137.996L242.501 137.939C242.497 137.929 242.492 137.92 242.488 137.91L242.451 137.817L242.328 137.495L242.295 137.412L242.259 137.326L242.219 137.235C242.198 137.188 242.176 137.14 242.152 137.09L242.096 136.976L242.037 136.859L241.982 136.752L241.931 136.655L241.86 136.526L241.713 136.261L241.685 136.208L241.66 136.158L241.639 136.112C241.635 136.104 241.632 136.097 241.629 136.089L241.613 136.045C241.585 135.965 241.575 135.888 241.579 135.791L241.583 135.737C241.583 135.727 241.584 135.717 241.586 135.707L241.594 135.645L241.605 135.577L241.619 135.502L241.636 135.419L241.655 135.327L241.776 134.787L241.789 134.722L241.821 134.581L241.857 134.426L241.897 134.26L241.941 134.085L241.988 133.905L242.038 133.721L242.09 133.536L242.142 133.353L242.196 133.175L242.249 133.003C242.312 132.807 242.373 132.631 242.429 132.492L242.453 132.434C242.765 131.654 243.326 130.917 243.894 130.245L244.057 130.055L244.298 129.777L244.61 129.419L244.759 129.246C245.235 128.694 245.466 128.154 245.656 127.618L245.715 127.449L245.83 127.112C246.045 126.493 246.292 125.877 246.89 125.249L246.969 125.169C247.139 124.998 247.313 124.85 247.485 124.727L247.564 124.671C248.648 123.943 249.648 124.221 249.431 126.091ZM213.822 64.0467L213.763 64.3803L213.738 64.5141L213.721 64.5925L213.706 64.6629L213.69 64.7261L213.674 64.7827L213.658 64.8333C213.656 64.8413 213.653 64.849 213.65 64.8565L213.633 64.8993C213.61 64.9532 213.585 64.9953 213.555 65.0324L213.531 65.0594L213.505 65.0851L213.477 65.1101L213.447 65.1352L213.413 65.1609L213.271 65.2649L213.222 65.3013L213.169 65.3417L213.112 65.3869L213.05 65.4375L212.983 65.4941C212.972 65.5041 212.96 65.5143 212.948 65.5248L212.874 65.5916L212.794 65.6659C212.752 65.7035 212.701 65.7568 212.644 65.8222L212.586 65.8915L212.523 65.9681L212.458 66.0511L212.354 66.1862L212.208 66.3815L212.017 66.6413L211.741 67.0165L211.598 67.2086L211.46 67.3888L211.362 67.5128L211.3 67.589L211.241 67.6592C211.125 67.7932 211.029 67.8873 210.964 67.9177C210.592 68.0767 210.154 68.0044 209.734 67.885L209.609 67.8479L209.486 67.8091L209.13 67.6933C209.035 67.6631 208.944 67.6358 208.858 67.6141C208.814 67.6042 208.772 67.5964 208.73 67.5905L208.668 67.583C208.658 67.582 208.648 67.581 208.638 67.5802L208.578 67.5764C208.568 67.5759 208.558 67.5756 208.549 67.5753L208.491 67.5746L208.435 67.5758L208.381 67.5785L208.302 67.585L208.227 67.5938L208.156 67.604L207.947 67.6382L207.893 67.6454L207.859 67.6488L207.828 67.6506C207.818 67.6509 207.808 67.651 207.798 67.6507L207.771 67.6489L207.745 67.6449C207.667 67.6284 207.621 67.5755 207.609 67.4525L207.606 67.4113C207.606 67.404 207.606 67.3965 207.606 67.3889L207.607 67.3402L207.611 67.2863L207.617 67.2269L207.625 67.1618L207.636 67.0908L207.649 67.0135L207.674 66.8855L207.694 66.7918L207.716 66.691L207.755 66.5262C207.805 66.3342 207.963 66.1092 208.165 65.8703L208.247 65.774L208.333 65.6765L208.422 65.5781L208.674 65.3033L208.78 65.1855L208.884 65.0681C209.088 64.8343 209.265 64.6065 209.359 64.4009C209.47 64.171 209.521 63.9853 209.549 63.8252L209.56 63.7581L209.568 63.6937L209.589 63.5142L209.596 63.4578C209.597 63.4485 209.599 63.4393 209.6 63.4301L209.61 63.3753C209.658 63.1213 209.782 62.8891 210.287 62.5287C211.365 61.7696 214.123 62.2251 213.822 64.0467ZM207.15 53.435L208.132 53.322L208.355 53.2981L208.574 53.2768L208.717 53.2644L208.858 53.2535L208.997 53.2444C209.02 53.2431 209.043 53.2418 209.066 53.2407L209.201 53.2347L209.334 53.231C210.912 53.2016 211.943 53.7109 211.816 56.2794L211.815 56.2922L211.809 56.3147L211.795 56.3651L211.748 56.517L211.693 56.6842L211.572 57.0412L211.414 57.491L211.347 57.675L211.279 57.8541L211.245 57.939L211.232 57.9688L211.222 57.9894C211.22 57.992 211.219 57.9942 211.218 57.9959L211.215 57.9999C210.985 58.3052 210.644 58.5044 210.274 58.7L209.951 58.8691C209.652 59.0277 209.35 59.2021 209.084 59.442C208.951 59.5667 208.89 59.7425 208.842 59.9263L208.817 60.0272L208.792 60.1281C208.734 60.3625 208.663 60.5849 208.457 60.707C208.33 60.7792 208.079 60.8311 207.785 60.8698L207.646 60.8868L207.503 60.9021L207.357 60.9158L207.211 60.9282L207.065 60.9393L206.715 60.9629L206.304 60.9893L206.212 60.9963L206.135 61.0034L205.846 61.0397L204.378 61.2352L204.345 61.2383C204.045 61.6684 203.719 61.719 203.393 61.4154L203.017 61.0359L202.912 61.0282L202.696 61.0106L202.361 60.9816L202.131 60.9632C201.628 60.9257 201.097 60.907 200.585 60.9853C200.259 61.1624 199.933 61.3648 199.632 61.5925C199.448 61.5251 199.253 61.4689 199.062 61.4164L198.78 61.3395L198.652 61.3915C198.048 61.6425 197.672 61.8961 197.245 62.4912L197.2 62.554C196.938 62.9105 196.831 63.267 196.758 63.6045L196.73 63.7384L196.69 63.9349L196.664 64.0626C196.617 64.273 196.56 64.4711 196.456 64.6511L196.423 64.7045C196.419 64.7125 196.408 64.7262 196.39 64.7446L196.36 64.7758L196.321 64.8134L196.193 64.9309L195.963 65.1334L195.34 65.6738L195.263 65.7438L195.236 65.7684L195.22 65.7853C195.212 65.7937 195.212 65.7964 195.22 65.7924L195.137 65.8481L195.065 65.8987L195.002 65.9447L194.947 65.9863L194.9 66.0237L194.842 66.0726L194.797 66.1137L194.762 66.1479L194.718 66.192L194.697 66.2118C194.672 66.2328 194.648 66.2467 194.606 66.2598L194.566 66.2709L194.514 66.2823L194.448 66.2951L193.974 66.3798L193.866 66.3997C192.708 66.6213 191.916 66.3937 191.16 65.8702L191.055 65.7953C191.002 65.7568 190.95 65.717 190.897 65.6758L190.792 65.5917C190.757 65.5631 190.722 65.5338 190.687 65.504L190.582 65.4129C189.428 64.3849 188.791 63.3866 188.262 61.9278L188.194 61.7348C188.16 61.637 188.127 61.5372 188.093 61.4351L188.027 61.2281C188.005 61.158 187.984 61.087 187.962 61.0149L187.896 60.7955L187.831 60.5695L187.799 60.454C187.423 59.1384 187.623 56.9625 188.626 56.0517C189.127 55.5998 189.8 55.3992 190.519 55.2483L190.693 55.2129L190.868 55.1789L191.138 55.1276C191.594 55.0414 192.054 54.9522 192.487 54.812C192.593 54.7807 192.691 54.7495 192.783 54.7186L192.959 54.6576L193.205 54.5698C193.445 54.485 193.674 54.4101 193.966 54.3566C194.187 54.3161 194.46 54.3039 194.749 54.2975L195.192 54.2892C195.489 54.2827 195.786 54.2705 196.047 54.2301C196.414 54.1668 196.775 54.0422 197.133 53.9071L197.561 53.743C198.059 53.5533 198.554 53.3825 199.055 53.3698C199.324 53.3594 199.584 53.4005 199.837 53.4488L200.159 53.5116C200.407 53.5581 200.648 53.5931 200.886 53.5722C201.123 53.5538 201.38 53.4853 201.652 53.403L202.07 53.2739C202.428 53.1653 202.805 53.0639 203.192 53.0409C203.802 52.9985 204.385 53.0895 204.955 53.1965L205.478 53.2963C206.04 53.402 206.593 53.4874 207.15 53.435Z" fill="url(#paint0_linear)"/>
<path d="M136.519 113.416C136.497 113.386 136.492 113.372 136.483 113.37C136.496 113.383 136.505 113.385 136.52 113.399C136.522 113.4 136.517 113.415 136.519 113.416Z" fill="#E86166"/>
<path d="M136.385 113.242L136.341 113.24C136.337 113.222 136.344 113.208 136.336 113.198C136.344 113.212 136.381 113.228 136.385 113.242Z" fill="#E86166"/>
<path d="M136.799 113.451C136.803 113.451 136.791 113.432 136.791 113.432C136.819 113.431 136.829 113.46 136.764 113.47C136.77 113.472 136.766 113.457 136.773 113.457C136.783 113.458 136.79 113.45 136.799 113.451Z" fill="#E86166"/>
<path d="M137.614 115.204C137.617 115.204 137.614 115.177 137.62 115.176C137.588 115.174 137.577 115.203 137.569 115.203C137.549 115.203 137.586 115.206 137.614 115.204Z" fill="#E86166"/>
<path d="M134.282 113.77C134.283 113.773 134.289 113.776 134.29 113.781C134.296 113.8 134.348 113.814 134.338 113.792C134.337 113.785 134.311 113.776 134.305 113.758C134.306 113.761 134.3 113.763 134.299 113.765C134.298 113.766 134.283 113.769 134.282 113.77Z" fill="#E86166"/>
<path d="M136.329 113.117C136.33 113.124 136.342 113.114 136.343 113.12C136.321 113.129 136.299 113.117 136.293 113.092C136.293 113.1 136.294 113.098 136.295 113.106C136.296 113.115 136.327 113.111 136.329 113.117Z" fill="#E86166"/>
<path d="M134.785 111.524C134.796 111.512 134.77 111.478 134.776 111.471C134.792 111.452 134.828 111.498 134.817 111.51C134.815 111.515 134.803 111.512 134.8 111.519C134.797 111.525 134.786 111.521 134.785 111.524Z" fill="#E86166"/>
<path d="M138.586 112.439C138.572 112.432 138.555 112.453 138.541 112.446C138.538 112.447 138.557 112.416 138.61 112.436C138.604 112.433 138.596 112.446 138.59 112.443C138.588 112.441 138.586 112.439 138.586 112.439Z" fill="#E86166"/>
<path d="M139.309 113.396L139.328 113.409C139.318 113.425 139.319 113.446 139.33 113.467C139.334 113.451 139.301 113.408 139.309 113.396Z" fill="#E86166"/>
<defs>
<linearGradient id="paint0_linear" x1="158.651" y1="84.6042" x2="251.796" y2="150.461" gradientUnits="userSpaceOnUse">
<stop stop-color="#9F92F5"/>
<stop offset="0.434718" stop-color="#665BE7"/>
<stop offset="1" stop-color="#4D42D8"/>
</linearGradient>
</defs>
</svg>
