<svg width="270" height="181" viewBox="0 0 270 181" fill="none" xmlns="http://www.w3.org/2000/svg">
<path d="M57.8466 179.274C17.6731 182.635 -4.40476 151.731 0.736096 120.37C4.59581 96.822 33.0686 81.6104 47.746 60.3994C73.0573 23.8207 123.008 10.9383 175.492 56.2131C199.154 76.6244 234.617 76.4378 256.939 97.7449C279.932 119.692 268.811 149.818 245.868 167.094C221.228 185.649 175.297 182.607 145.659 174.116C107.846 163.285 80.6267 177.367 57.8466 179.274Z" fill="url(#paint0_linear)"/>
<path fill-rule="evenodd" clip-rule="evenodd" d="M156.563 157.514H59.5963C53.6217 157.514 48.7334 152.643 48.7334 146.691V118.463C48.7334 112.511 53.6217 107.64 59.5963 107.64H156.563C162.537 107.64 167.426 112.511 167.426 118.463V146.691C167.426 152.643 162.537 157.514 156.563 157.514Z" fill="#F9C346"/>
<path fill-rule="evenodd" clip-rule="evenodd" d="M121.614 124.299H62.4731C61.8965 124.299 61.4248 123.829 61.4248 123.255C61.4248 122.68 61.8965 122.21 62.4731 122.21H121.614C122.19 122.21 122.662 122.68 122.662 123.255C122.662 123.829 122.19 124.299 121.614 124.299Z" fill="white"/>
<path fill-rule="evenodd" clip-rule="evenodd" d="M121.637 130.566H62.4731C61.8965 130.566 61.4248 130.096 61.4248 129.521C61.4248 128.947 61.8965 128.477 62.4731 128.477H121.637C122.214 128.477 122.685 128.947 122.685 129.521C122.685 130.096 122.214 130.566 121.637 130.566Z" fill="white"/>
<path fill-rule="evenodd" clip-rule="evenodd" d="M121.614 136.833H62.4731C61.8965 136.833 61.4248 136.363 61.4248 135.788C61.4248 135.214 61.8965 134.744 62.4731 134.744H121.614C122.19 134.744 122.662 135.214 122.662 135.788C122.662 136.363 122.19 136.833 121.614 136.833Z" fill="white"/>
<path fill-rule="evenodd" clip-rule="evenodd" d="M121.614 143.1H62.4731C61.8965 143.1 61.4248 142.629 61.4248 142.055C61.4248 141.481 61.8965 141.011 62.4731 141.011H121.614C122.19 141.011 122.662 141.481 122.662 142.055C122.662 142.629 122.19 143.1 121.614 143.1Z" fill="white"/>
<path fill-rule="evenodd" clip-rule="evenodd" d="M146.918 142.33C141.318 142.33 136.736 137.765 136.736 132.185C136.736 126.606 141.318 122.041 146.918 122.041C152.518 122.041 157.1 126.606 157.1 132.185C157.1 137.765 152.518 142.33 146.918 142.33Z" fill="white"/>
<path fill-rule="evenodd" clip-rule="evenodd" d="M251.543 149.446H181.673C179.302 149.446 177.361 147.513 177.361 145.151V139.787C177.361 137.424 179.302 135.491 181.673 135.491H251.543C253.914 135.491 255.854 137.424 255.854 139.787V145.151C255.854 147.513 253.914 149.446 251.543 149.446Z" fill="#A5E7CA"/>
<path fill-rule="evenodd" clip-rule="evenodd" d="M246.568 141.196H198.33C197.987 141.196 197.707 140.917 197.707 140.575C197.707 140.234 197.987 139.955 198.33 139.955H246.568C246.91 139.955 247.191 140.234 247.191 140.575C247.191 140.917 246.91 141.196 246.568 141.196Z" fill="white"/>
<path fill-rule="evenodd" clip-rule="evenodd" d="M246.568 144.919H198.33C197.987 144.919 197.707 144.64 197.707 144.298C197.707 143.957 197.987 143.678 198.33 143.678H246.568C246.91 143.678 247.191 143.957 247.191 144.298C247.191 144.64 246.91 144.919 246.568 144.919Z" fill="white"/>
<path fill-rule="evenodd" clip-rule="evenodd" d="M192.461 142.468C192.461 145.194 190.243 147.404 187.507 147.404C184.772 147.404 182.554 145.194 182.554 142.468C182.554 139.742 184.772 137.533 187.507 137.533C190.243 137.533 192.461 139.742 192.461 142.468Z" fill="white"/>
<path fill-rule="evenodd" clip-rule="evenodd" d="M82.5251 73.6631H15.8801C13.5088 73.6631 11.5684 71.73 11.5684 69.3675V64.5771C11.5684 62.2143 13.5088 60.2812 15.8801 60.2812H82.5251C84.8964 60.2812 86.8367 62.2143 86.8367 64.5771V69.3675C86.8367 71.73 84.8964 73.6631 82.5251 73.6631Z" fill="#4A2CB1"/>
<path fill-rule="evenodd" clip-rule="evenodd" d="M77.9315 65.752H31.6754C31.3469 65.752 31.0781 65.4841 31.0781 65.1569C31.0781 64.8296 31.3469 64.562 31.6754 64.562H77.9315C78.26 64.562 78.5288 64.8296 78.5288 65.1569C78.5288 65.4841 78.26 65.752 77.9315 65.752Z" fill="white"/>
<path fill-rule="evenodd" clip-rule="evenodd" d="M77.9315 69.3223H31.6754C31.3469 69.3223 31.0781 69.0544 31.0781 68.7271C31.0781 68.3997 31.3469 68.1318 31.6754 68.1318H77.9315C78.26 68.1318 78.5288 68.3997 78.5288 68.7271C78.5288 69.0544 78.26 69.3223 77.9315 69.3223Z" fill="white"/>
<path fill-rule="evenodd" clip-rule="evenodd" d="M26.0483 66.9721C26.0483 69.586 23.9216 71.7051 21.2982 71.7051C18.6747 71.7051 16.5479 69.586 16.5479 66.9721C16.5479 64.3582 18.6747 62.2393 21.2982 62.2393C23.9216 62.2393 26.0483 64.3582 26.0483 66.9721Z" fill="white"/>
<path fill-rule="evenodd" clip-rule="evenodd" d="M98.2539 21.8885C98.2539 14.4981 106.798 8.50732 117.339 8.50732C127.879 8.50732 136.424 14.4981 136.424 21.8885C136.424 28.4381 129.71 33.885 120.846 35.0402C120.847 35.0406 120.849 35.0437 120.849 35.0437C120.849 35.0437 112.111 37.8969 102.127 37.4895C102.127 37.4895 103.813 35.8883 104.402 31.7239C100.623 29.2788 98.2539 25.7783 98.2539 21.8885Z" fill="#6459E7"/>
<path fill-rule="evenodd" clip-rule="evenodd" d="M112.719 21.8169C112.719 22.9775 111.774 23.9185 110.61 23.9185C109.444 23.9185 108.5 22.9775 108.5 21.8169C108.5 20.6562 109.444 19.7153 110.61 19.7153C111.774 19.7153 112.719 20.6562 112.719 21.8169Z" fill="white"/>
<path fill-rule="evenodd" clip-rule="evenodd" d="M119.549 21.8169C119.549 22.9775 118.604 23.9185 117.44 23.9185C116.274 23.9185 115.33 22.9775 115.33 21.8169C115.33 20.6562 116.274 19.7153 117.44 19.7153C118.604 19.7153 119.549 20.6562 119.549 21.8169Z" fill="white"/>
<path fill-rule="evenodd" clip-rule="evenodd" d="M126.178 21.8169C126.178 22.9775 125.233 23.9185 124.069 23.9185C122.903 23.9185 121.959 22.9775 121.959 21.8169C121.959 20.6562 122.903 19.7153 124.069 19.7153C125.233 19.7153 126.178 20.6562 126.178 21.8169Z" fill="white"/>
<path fill-rule="evenodd" clip-rule="evenodd" d="M169.269 21.2217L166.977 17.2536C167.063 16.8021 167.109 16.3368 167.109 15.8605C167.109 11.7151 163.725 8.35449 159.551 8.35449C155.376 8.35449 151.992 11.7151 151.992 15.8605C151.992 20.0056 155.376 23.3662 159.551 23.3662C161.816 23.3662 163.847 22.3755 165.232 20.8082L169.269 21.2217Z" fill="#0C8751"/>
<path fill-rule="evenodd" clip-rule="evenodd" d="M148.002 44.6796L152.495 57.7697L129.717 65.5513L125.232 52.4845L138.943 55.3432L148.002 44.6796ZM146.5 45.0701L138.608 54.3607L126.7 51.8784L146.5 45.0701ZM147.952 44.5347L147.963 44.5665L125.2 52.3935L125.174 52.3162L147.952 44.5347Z" fill="white"/>
<path fill-rule="evenodd" clip-rule="evenodd" d="M53.0359 30.2364L33.6949 32.7089C32.5497 32.8552 31.5021 32.0489 31.355 30.9079L29.9674 20.1327C29.8204 18.9917 30.6297 17.948 31.775 17.8015L51.1162 15.3292C52.2615 15.1827 53.3091 15.9892 53.4559 17.1302L54.8437 27.9055C54.9905 29.0464 54.1815 30.0901 53.0359 30.2364Z" fill="#1FB573"/>
<path fill-rule="evenodd" clip-rule="evenodd" d="M46.8255 23.5405L38.5889 20.1157L39.7251 28.9224L46.8255 23.5405Z" fill="white"/>
<path fill-rule="evenodd" clip-rule="evenodd" d="M246.368 120.36H154.025C148.5 120.36 143.98 115.857 143.98 110.353V82.1254C143.98 76.6215 148.5 72.1182 154.025 72.1182H246.368C251.892 72.1182 256.412 76.6215 256.412 82.1254V110.353C256.412 115.857 251.892 120.36 246.368 120.36Z" fill="#A7A5E5"/>
<path fill-rule="evenodd" clip-rule="evenodd" d="M239.311 89.0908H180.147C179.57 89.0908 179.099 88.6208 179.099 88.0465C179.099 87.4723 179.57 87.0024 180.147 87.0024H239.311C239.888 87.0024 240.359 87.4723 240.359 88.0465C240.359 88.6208 239.888 89.0908 239.311 89.0908Z" fill="white"/>
<path fill-rule="evenodd" clip-rule="evenodd" d="M239.311 95.3584H180.147C179.57 95.3584 179.099 94.8882 179.099 94.3136C179.099 93.7391 179.57 93.269 180.147 93.269H239.311C239.888 93.269 240.359 93.7391 240.359 94.3136C240.359 94.8882 239.888 95.3584 239.311 95.3584Z" fill="white"/>
<path fill-rule="evenodd" clip-rule="evenodd" d="M239.311 101.625H180.147C179.57 101.625 179.099 101.155 179.099 100.58C179.099 100.006 179.57 99.5356 180.147 99.5356H239.311C239.888 99.5356 240.359 100.006 240.359 100.58C240.359 101.155 239.888 101.625 239.311 101.625Z" fill="white"/>
<path fill-rule="evenodd" clip-rule="evenodd" d="M162.064 102.017C157.235 102.017 153.284 98.0801 153.284 93.269C153.284 88.4578 157.235 84.5215 162.064 84.5215C166.892 84.5215 170.843 88.4578 170.843 93.269C170.843 98.0801 166.892 102.017 162.064 102.017Z" fill="white"/>
<path fill-rule="evenodd" clip-rule="evenodd" d="M165.185 67.9814C165.185 67.9814 164.488 66.8846 165.268 66.5183C166.047 66.1519 167.624 66.5183 167.624 66.5183L165.185 67.9814Z" fill="#191847"/>
<path fill-rule="evenodd" clip-rule="evenodd" d="M188.047 95.4287C188.047 95.4287 190.201 96.6551 190.355 98.8009C190.508 100.947 189.432 101.407 189.585 105.085C189.739 108.764 188.662 112.289 185.585 112.443C182.509 112.596 182.816 110.757 183.124 110.143C183.432 109.53 184.816 107.078 184.816 107.078C184.816 107.078 185.739 95.7353 188.047 95.4287Z" fill="#4A2CB1"/>
<path fill-rule="evenodd" clip-rule="evenodd" d="M187.893 95.4287C187.893 95.4287 185.893 93.7426 185.278 92.21C184.663 90.6772 181.74 78.5682 176.509 73.0501C176.509 73.0501 177.074 65.8936 166.792 66.3297C166.792 66.3297 162.355 69.8312 164.201 73.2034C166.048 76.5757 181.278 94.3559 184.047 97.5748C184.047 97.5748 185.278 102.786 184.816 107.078C184.816 107.078 187.432 107.231 187.893 105.852C188.355 104.472 187.432 96.0418 187.893 95.4287Z" fill="url(#paint1_linear)"/>
<path fill-rule="evenodd" clip-rule="evenodd" d="M190.816 106.159L189.836 101.897C189.836 101.897 189.462 99.4141 190.37 99.1074L191.893 105.852C191.893 105.852 191.586 106.159 190.816 106.159Z" stroke="black"/>
<path fill-rule="evenodd" clip-rule="evenodd" d="M192.662 96.3481C192.662 96.3481 194.816 97.5745 194.97 99.7204C195.124 101.866 194.047 102.326 194.201 106.005C194.355 109.684 193.278 113.209 190.201 113.363C187.124 113.516 187.432 111.676 187.739 111.063C188.047 110.45 189.432 107.998 189.432 107.998C189.432 107.998 190.355 96.6548 192.662 96.3481Z" fill="#4A2CB1"/>
<path fill-rule="evenodd" clip-rule="evenodd" d="M192.509 96.3485C192.509 96.3485 190.509 94.6623 189.893 93.1297C189.278 91.5969 186.355 79.4878 181.124 73.9696C181.124 73.9696 181.689 66.813 171.407 67.2491C171.407 67.2491 166.971 70.7509 168.817 74.123C170.663 77.4952 185.893 95.2756 188.663 98.4946C188.663 98.4946 189.893 103.706 189.432 107.998C189.432 107.998 192.047 108.151 192.509 106.771C192.97 105.392 192.047 96.9616 192.509 96.3485Z" fill="#F0CCB5"/>
<path fill-rule="evenodd" clip-rule="evenodd" d="M195.432 107.078L194.451 102.816C194.451 102.816 194.078 100.334 194.985 100.027L196.509 106.771C196.509 106.771 196.201 107.078 195.432 107.078Z" fill="#4A2CB1"/>
<path fill-rule="evenodd" clip-rule="evenodd" d="M209.739 58.9484C209.739 58.9484 211.893 65.6927 209.739 69.5247C207.586 73.3565 201.74 71.977 199.278 72.437C196.817 72.8967 185.586 74.7362 181.125 73.9698C181.125 73.9698 179.586 69.9845 175.894 68.605C172.202 67.2255 165.894 65.8458 165.125 66.6124C165.125 66.6124 175.586 59.7148 180.971 58.9484C186.355 58.182 190.048 58.0287 190.509 57.7223C190.97 57.4157 191.586 56.0362 191.586 56.0362C191.586 56.0362 196.509 53.1239 209.739 58.9484Z" fill="white"/>
<path fill-rule="evenodd" clip-rule="evenodd" d="M187.432 32.2776C187.432 32.2776 185.586 30.4383 185.432 29.0587C185.278 27.6792 182.816 29.0587 183.739 24.3072C184.663 19.5555 184.97 17.8694 182.816 14.344C180.663 10.8187 183.586 3.30807 186.201 1.77528C188.816 0.242488 196.662 -1.75006 199.739 2.84811C202.816 7.44648 201.739 12.1982 204.354 12.1982C206.97 12.1982 208.354 14.1907 208.047 16.1833C207.739 18.176 211.431 16.6432 212.508 21.2416C213.585 25.8398 214.354 29.0587 210.354 29.6717C206.354 30.285 188.355 33.3506 187.432 32.2776Z" fill="#FF7A00"/>
<path fill-rule="evenodd" clip-rule="evenodd" d="M175.432 37.3553C175.432 37.3553 177.432 41.4747 179.124 43.1606C179.124 43.1606 179.893 41.0147 180.355 39.7886C180.816 38.5622 176.97 35.6499 176.97 35.6499L175.432 37.3553Z" fill="#F0CCB5"/>
<path fill-rule="evenodd" clip-rule="evenodd" d="M176.739 36.9531C176.739 36.9531 174.509 37.7962 173.893 37.3364C173.278 36.8765 173.278 36.5698 172.97 36.11C172.663 35.6503 172.509 35.3436 172.355 34.8839C172.201 34.4239 171.894 33.8108 171.894 33.351C171.894 32.891 171.74 32.278 171.894 31.9713C172.047 31.6649 173.509 30.6685 173.509 30.6685C173.509 30.6685 177.509 35.7269 176.739 36.9531Z" fill="#F0CCB5"/>
<path fill-rule="evenodd" clip-rule="evenodd" d="M189.586 24.3076C189.586 24.3076 187.74 25.3806 186.816 29.3656C185.893 33.3509 185.278 42.3941 185.278 42.3941L180.201 36.7228C180.201 36.7228 178.97 42.8538 178.201 44.3866C178.201 44.3866 184.201 52.8168 186.509 52.6635C188.816 52.5101 190.97 46.6857 191.585 43.9269L189.586 24.3076Z" fill="url(#paint2_linear)"/>
<path fill-rule="evenodd" clip-rule="evenodd" d="M193.124 22.1616C193.124 22.1616 190.124 23.9243 189.586 24.3074C189.586 24.3074 188.97 29.9788 189.586 33.8108C189.586 33.8108 188.047 37.9492 189.278 41.1679C190.509 44.387 192.201 44.8468 192.201 44.8468C192.201 44.8468 193.893 47.1459 192.047 51.131C190.201 55.1163 190.047 56.4958 190.97 56.4958C191.893 56.4958 196.509 56.036 198.201 56.4958C199.893 56.9555 203.893 58.9483 207.739 59.408C211.585 59.868 212.201 60.0211 211.585 58.0286C210.97 56.036 210.201 52.6638 210.662 46.686C211.124 40.7081 207.124 22.6213 207.124 22.6213C207.124 22.6213 203.739 22.4682 200.355 20.7821C200.355 20.7821 197.432 20.6288 193.124 22.1616Z" fill="#1FB573"/>
<path fill-rule="evenodd" clip-rule="evenodd" d="M200.355 20.782C200.355 20.782 197.509 18.7128 197.663 12.2754C197.663 12.2754 191.817 15.5162 192.624 20.1417C192.624 20.1417 193.124 21.395 193.124 22.1614C193.124 22.1614 192.971 25.84 194.201 26.453C195.432 27.0661 200.355 20.782 200.355 20.782Z" fill="#E9C1A7"/>
<path fill-rule="evenodd" clip-rule="evenodd" d="M181.119 25.3057L187.476 36.6245C187.76 37.1313 187.473 37.768 186.904 37.8921L178.858 39.6455C178.472 39.7297 178.077 39.5428 177.898 39.1909L171.958 27.4892C171.696 26.9726 172.007 26.3499 172.579 26.2472L180.207 24.8765C180.572 24.8111 180.939 24.9834 181.119 25.3057Z" fill="#191847"/>
<path fill-rule="evenodd" clip-rule="evenodd" d="M175.278 36.8765C175.278 36.8765 178.508 33.5043 176.816 33.5043C176.816 33.5043 177.893 32.1248 176.509 32.2781C176.509 32.2781 178.355 29.8257 172.816 32.8912C172.816 32.8912 175.893 30.5921 175.586 29.979C175.278 29.3659 173.509 30.6687 173.509 30.6687" fill="#F0CCB5"/>
<path fill-rule="evenodd" clip-rule="evenodd" d="M174.048 36.1069C174.084 36.1069 174.121 36.0937 174.15 36.0671C174.17 36.0487 176.155 34.2243 176.911 33.6215C176.976 33.5696 176.987 33.475 176.935 33.4099C176.883 33.3453 176.788 33.3345 176.722 33.3865C175.958 33.996 174.027 35.7705 173.945 35.8457C173.884 35.9022 173.88 35.9975 173.936 36.0585C173.966 36.0905 174.007 36.1069 174.048 36.1069Z" fill="#915B3C"/>
<path fill-rule="evenodd" clip-rule="evenodd" d="M173.125 34.8809C173.162 34.8809 173.199 34.8677 173.228 34.8404C173.251 34.8192 175.521 32.716 176.551 32.4228C176.631 32.3998 176.677 32.3165 176.654 32.2366C176.632 32.157 176.548 32.1105 176.468 32.1332C175.368 32.4462 173.117 34.5318 173.022 34.6205C172.961 34.6769 172.957 34.7724 173.014 34.833C173.044 34.8648 173.084 34.8809 173.125 34.8809Z" fill="#6A4835"/>
<path fill-rule="evenodd" clip-rule="evenodd" d="M197.663 12.2753C197.663 12.2753 197.487 16.5501 194.816 18.9427C191.608 21.8171 189.586 19.7091 187.893 17.2567C186.201 14.8042 183.894 8.67321 186.663 7.6004C189.432 6.52759 190.509 5.30127 190.509 5.30127C190.509 5.30127 190.816 8.82672 193.278 9.89953C195.74 10.9725 195.97 9.66956 197.663 12.2753Z" fill="#F0CCB5"/>
<path fill-rule="evenodd" clip-rule="evenodd" d="M195.124 40.2481C195.124 40.2481 195.739 44.5399 195.124 47.6055C195.124 47.6055 209.124 54.3498 211.739 52.2039C214.354 50.058 214.047 35.1899 213.431 31.0513C212.816 26.9128 211.431 22.4677 207.124 22.621C207.124 22.621 203.278 27.6792 205.585 34.2702C205.585 34.2702 206.355 42.5473 206.047 44.9998L195.124 40.2481Z" fill="#3AC487"/>
<path fill-rule="evenodd" clip-rule="evenodd" d="M186.893 45.9209C187.015 45.9209 187.117 45.8264 187.125 45.7039C187.132 45.5975 187.269 43.0911 185.54 42.1891C185.426 42.1297 185.286 42.1735 185.226 42.2868C185.166 42.4001 185.21 42.54 185.324 42.5992C186.789 43.3637 186.663 45.6519 186.661 45.6749C186.653 45.8026 186.751 45.9125 186.879 45.9205C186.884 45.9209 186.889 45.9209 186.893 45.9209Z" fill="#0C623C"/>
<path fill-rule="evenodd" clip-rule="evenodd" d="M195.124 40.248C195.124 40.248 191.124 37.7957 189.586 36.7227C189.586 36.7227 188.047 38.1021 188.201 39.1752C188.201 39.1752 193.311 44.0719 195.372 45.4556C195.372 45.4556 196.047 43.0072 195.124 40.248Z" fill="#F0CCB5"/>
<path fill-rule="evenodd" clip-rule="evenodd" d="M189.586 36.7229C189.586 36.7229 188.663 34.4237 187.74 33.5041C186.817 32.5846 184.97 31.0518 184.509 31.2051C184.048 31.3582 186.355 33.8107 186.355 33.8107C186.355 33.8107 184.048 33.3509 182.97 32.4312C181.894 31.5116 180.509 29.8257 180.048 30.2854C179.586 30.7452 180.663 32.2779 180.663 32.2779C180.663 32.2779 180.509 32.891 180.817 33.6574C181.124 34.4237 182.509 36.5695 182.663 36.7229C182.817 36.8762 186.663 38.562 188.201 39.1753C188.509 38.8687 188.201 39.1753 188.201 39.1753C188.201 39.1753 189.586 37.7959 189.586 36.7229Z" fill="#F0CCB5"/>
<path fill-rule="evenodd" clip-rule="evenodd" d="M183.432 35.0337C183.476 35.0337 183.52 35.0149 183.549 34.9787C183.602 34.9142 183.593 34.8194 183.528 34.767C183.511 34.7531 181.835 33.3836 180.932 32.3335C180.878 32.2704 180.783 32.2626 180.719 32.3171C180.655 32.3713 180.648 32.4661 180.702 32.5292C181.624 33.5997 183.267 34.943 183.337 34.9997C183.365 35.0227 183.399 35.0337 183.432 35.0337Z" fill="#6A4835"/>
<path fill-rule="evenodd" clip-rule="evenodd" d="M190.816 57.9544C190.825 57.9544 190.833 57.954 190.842 57.953C190.87 57.95 193.63 57.6506 196.877 57.877C197.007 57.8832 197.116 57.7894 197.125 57.6618C197.134 57.5339 197.037 57.4232 196.909 57.4141C193.619 57.1849 190.818 57.4887 190.791 57.4918C190.663 57.506 190.571 57.6205 190.585 57.7481C190.599 57.8666 190.699 57.9544 190.816 57.9544Z" fill="#A6A6A6"/>
<path d="M78.398 40.6203C76.54 38.4414 75.2824 35.7711 75.4925 32.779C76.098 24.1579 88.1103 26.0545 90.4469 30.4056C92.7836 34.7568 92.5059 45.794 89.486 46.5716C88.2817 46.8818 85.7161 46.1221 83.1049 44.5497L84.7439 56.1338H75.0664L78.398 40.6203Z" fill="#F0CCB5"/>
<path d="M83.5887 33.7312C83.9591 38.8863 84.939 41.4639 86.5284 41.4639C88.9126 41.4639 90.9355 39.9518 91.9816 39.9518C92.7442 39.9518 92.574 40.9052 92.0685 41.612C91.6514 42.1952 89.6204 42.7573 89.6204 43.6615C89.6204 44.5656 91.2251 43.8661 91.2251 44.4024C91.2251 45.2893 91.5071 46.957 89.9661 46.957C88.4066 46.957 83.9352 46.3893 83.169 44.077C82.6744 42.5847 82.3547 39.4924 82.2097 34.8C82.1151 34.7888 82.0188 34.783 81.9212 34.783C80.585 34.783 79.5018 35.8651 79.5018 37.2C79.5018 37.8777 79.781 38.4902 80.2307 38.9291C79.6709 39.7185 79.0435 40.5431 78.3245 41.394C75.6237 39.7752 73.6196 35.0364 76.26 30.4841C76.9899 28.254 78.6422 27.0628 80.5935 26.5097C82.1742 25.8492 83.8151 25.7747 85.2003 26.1707C87.9156 26.4034 90.3402 27.2305 91.0274 27.7217C91.0274 30.2899 90.5293 31.0519 86.2748 30.9847C85.2294 31.5362 84.4257 32.486 83.5887 33.7312Z" fill="#191847"/>
<path d="M123.003 96.8594C125.898 92.9366 133.135 95.5335 133.131 98.7809C133.119 107.307 125.331 147.786 124.924 150.341C124.518 152.897 120.162 153.733 119.908 150.54C119.504 145.459 118.754 127.845 119.505 119.651C119.724 117.257 119.955 114.944 120.188 112.776C116.095 120.123 109.87 130.506 101.515 143.927L96.8711 141.808C100.518 129.804 103.508 121.33 105.842 116.386C109.838 107.919 113.584 100.669 115.161 98.1148C117.244 94.7413 120.623 95.1891 123.003 96.8594Z" fill="#F0CCB5"/>
<path d="M96.7142 138.73C95.7358 139.563 95.1017 140.241 94.8118 140.764C94.4593 141.399 94.0508 142.385 93.5864 143.721C94.3242 144.13 100.955 147.801 113.478 154.736C114.942 153.315 115.155 152.228 114.117 151.476C113.079 150.723 112.222 150.087 111.546 149.57L104.585 140.333C104.451 140.155 104.198 140.119 104.021 140.253C104.018 140.255 104.015 140.258 104.012 140.26L102.618 141.371C101.321 141.281 100.349 141.057 99.7049 140.7C99.1812 140.41 98.5752 139.798 97.8869 138.865C97.6227 138.507 97.1179 138.43 96.7593 138.694C96.7438 138.705 96.7288 138.717 96.7142 138.73Z" fill="#191847"/>
<path d="M97.2032 135.142L113.142 97.4204C116.96 91.284 127.666 98.6691 126.364 102.228C123.407 110.308 108.373 136.467 107.492 138.875L97.2032 135.142Z" fill="#4A2CB1"/>
<path d="M133.535 101.726C133.535 112.418 128.843 137.551 128.84 139.906L117.476 139.523C119.463 117.671 120.3 106.672 119.989 106.524C119.29 106.19 91.3011 110.394 82.9069 110.711C70.8024 111.169 65.795 103.75 65.3887 89.6709H88.8356C108.885 92.0618 122.062 93.7248 128.367 94.6597C132.416 95.2601 133.535 98.7811 133.535 101.726Z" fill="#6459E7"/>
<path d="M119.292 148.548C118.841 149.751 118.615 150.651 118.615 151.248C118.615 151.975 118.736 153.035 118.979 154.428C119.822 154.428 127.403 154.428 141.722 154.428C142.313 152.476 141.971 151.423 140.698 151.267C139.425 151.111 138.367 150.971 137.525 150.845L126.954 146.138C126.751 146.047 126.512 146.138 126.422 146.341C126.42 146.345 126.419 146.348 126.417 146.352L125.738 147.999C124.559 148.548 123.601 148.823 122.864 148.823C122.265 148.823 121.438 148.581 120.383 148.098L120.383 148.098C119.978 147.913 119.5 148.09 119.314 148.495C119.306 148.512 119.299 148.53 119.292 148.548Z" fill="#191847"/>
<path d="M106.026 84.4185L118.889 93.8545C122.377 94.7949 125.292 95.965 127.632 97.3647C128.185 97.868 128.853 98.8873 126.56 98.7111C124.268 98.535 121.848 98.4527 121.531 99.234C121.215 100.015 122.603 100.95 121.963 102.004C121.537 102.707 119.522 100.945 115.92 96.7171L103.183 91.4404L106.026 84.4185ZM56.6414 84.7441L65.0679 84.7772C59.8649 101.557 57.0561 110.46 56.6414 111.487C55.7084 113.797 57.6828 117.316 58.5272 119.206C55.7771 120.436 56.0701 115.883 52.601 117.495C49.4346 118.967 47.0259 121.634 43.3675 119.378C42.9177 119.101 42.4249 118.057 43.6157 117.241C46.5826 115.209 50.858 111.652 51.4357 110.481C52.2235 108.885 53.9587 100.305 56.6414 84.7441Z" fill="#F0CCB5"/>
<path d="M80.5884 49.4195L84.0752 48.822C97.0122 59.9869 102.326 81.4361 118.183 92.7986L114.367 97.5251C86.8567 94.1222 80.0381 67.9594 80.5884 49.4195Z" fill="#E87613"/>
<path d="M65.3887 93.1953C79.3694 93.1953 89.6533 93.1953 96.2404 93.1953C97.6501 93.1953 97.3845 91.1616 97.1807 90.1354C94.8287 78.2916 85.6475 65.5245 85.6475 48.6651L76.7484 47.271C69.3877 59.0979 66.8422 73.6592 65.3887 93.1953Z" fill="white"/>
<path d="M65.6364 58.8962C64.3439 58.525 63.3204 57.6593 62.5659 56.2991C59.3133 50.4356 60.4879 47.2073 63.964 46.1461C67.44 45.085 70.5399 47.2708 76.0781 47.2708C76.3794 47.2708 76.6553 47.2896 76.9058 47.3274L79.6917 47.4862C87.6847 74.5498 89.8891 92.6062 86.305 101.655H62.0223C60.5835 105.007 59.2068 107.827 57.892 110.115H51.2754C50.6527 89.9998 55.4397 72.9268 65.6364 58.8962Z" fill="#FF9B21"/>
<path d="M67.3092 87.7563C68.0729 94.1401 69.3141 98.7733 71.0329 101.656H62.0215C63.6997 97.7461 65.4623 93.113 67.3092 87.7563Z" fill="black" fill-opacity="0.1"/>
<defs>
<linearGradient id="paint0_linear" x1="134.799" y1="27.2822" x2="134.799" y2="157.391" gradientUnits="userSpaceOnUse">
<stop stop-color="#91EFC6"/>
<stop offset="1" stop-color="#1FB573"/>
</linearGradient>
<linearGradient id="paint1_linear" x1="172.343" y1="67.9284" x2="181.953" y2="105.534" gradientUnits="userSpaceOnUse">
<stop stop-color="#E9C6AF"/>
<stop offset="1" stop-color="#D8B299"/>
</linearGradient>
<linearGradient id="paint2_linear" x1="184.893" y1="24.3076" x2="184.893" y2="52.6655" gradientUnits="userSpaceOnUse">
<stop stop-color="#1FB573"/>
<stop offset="1" stop-color="#0C8751"/>
</linearGradient>
</defs>
</svg>
