<svg width="286" height="162" viewBox="0 0 286 162" fill="none" xmlns="http://www.w3.org/2000/svg">
<path d="M197.776 16.2263C197.667 16.0954 197.558 15.9645 197.449 15.8341C197.522 15.8298 197.594 15.8284 197.667 15.825C196.628 11.5709 198.675 7.06417 201.562 3.74883C202.841 2.27935 204.355 0.919648 206.214 0.337606C208.154 -0.269847 210.26 0.0331606 212.23 0.533698C217.98 1.99504 223.296 5.12963 227.359 9.45611C228.679 10.8618 229.945 12.6688 229.569 14.5612C229.15 16.6751 226.77 18.5971 227.745 20.5178C228.751 22.4974 232.18 21.7782 233.412 23.6255C235.31 26.4715 229.43 29.8851 230.94 32.9555C231.714 34.5295 233.846 34.6608 235.451 35.3642C238.53 36.7128 239.763 41.106 237.837 43.8628C236.124 46.3156 232.327 48.0593 233.044 50.9657C233.295 51.9845 234.093 52.7602 234.828 53.5091C237.24 55.9696 239.358 58.8199 240.397 62.1074C241.436 65.3945 241.282 69.1715 239.424 72.0745C238.472 73.5618 237.131 74.7541 235.763 75.8698C228.946 81.4308 226.305 87.2729 220.834 94.1658C217.416 98.4726 209.816 126.067 207.957 133.831C206.547 122.532 203.299 88.9308 201.935 87.0657C200.571 85.2012 199.861 82.5801 201.022 80.5822C201.868 79.1257 203.481 78.3385 204.855 77.3652C206.229 76.3919 207.527 74.8606 207.196 73.2089C207.043 72.4461 206.561 71.795 206.069 71.1929C204.506 69.2794 202.691 67.5309 201.553 65.3374C200.416 63.144 200.091 60.2971 201.547 58.3011C202.913 56.428 205.539 55.6043 207.589 54.4555C205.839 53.1126 203.272 52.1969 201.818 50.4637C200.708 49.1419 200.302 47.2606 200.768 45.5979C201.259 43.8436 202.587 42.4877 203.652 40.9986C203.432 40.1332 203.497 39.264 204.011 38.4791C204.283 38.0625 204.65 37.7331 205.07 37.456C205.126 36.5781 204.93 35.7324 204.348 35.0602C203.461 34.0361 201.961 33.7614 200.978 32.8289C199.421 31.3503 199.946 28.3197 201.91 27.4534C203.041 26.9548 204.707 26.8253 204.891 25.6027C204.912 25.4608 204.904 25.3218 204.879 25.1856C201.967 22.4825 198.856 19.9333 197.776 16.2263Z" fill="url(#paint0_linear)"/>
<path d="M182.604 80.7089C183.409 78.6884 185.279 77.1311 185.654 74.988C186.197 71.8771 183.466 69.3069 181.708 66.6859C179.058 62.7365 178.447 57.4878 180.119 53.0336C181.791 48.579 185.702 45.0352 190.292 43.8145C193.212 43.0382 196.428 43.1215 199.024 41.5723C202.559 39.4623 205.38 34.4004 209.259 35.7753C211.971 36.7369 212.608 40.4378 211.711 43.1775C210.814 45.9173 208.902 48.2428 208.065 51.0012C206.464 56.2719 209.037 61.784 211.083 66.8981C213.129 72.0122 214.534 78.3254 211.122 82.645C209.457 84.7512 206.795 86.1213 205.828 88.6274C204.514 92.0356 206.915 95.6091 208.095 99.0658C210.293 105.5 207.783 113.244 202.233 117.157C202.045 108.97 198.242 100.932 192.035 95.6048C189.634 93.5437 186.885 91.8599 184.814 89.4659C182.743 87.0719 181.432 83.6517 182.604 80.7089Z" fill="#0C8751"/>
<path d="M221.518 106.845H192.348V143.704H221.518V106.845Z" fill="url(#paint1_linear)"/>
<path d="M83.5628 160.597C128.865 160.597 165.59 158.878 165.59 156.758C165.59 154.637 128.865 152.918 83.5628 152.918C38.2602 152.918 1.53516 154.637 1.53516 156.758C1.53516 158.878 38.2602 160.597 83.5628 160.597Z" fill="#D9DADB"/>
<path fill-rule="evenodd" clip-rule="evenodd" d="M156.066 73.9536C156.343 73.5047 166.298 81.7307 162.181 96.4091C158.065 111.088 157.947 100.553 157.947 100.553C157.947 100.553 150.419 83.1057 156.066 73.9536Z" fill="#191847"/>
<path fill-rule="evenodd" clip-rule="evenodd" d="M161.206 46.2124C159.136 43.6584 152.691 41.4183 147.261 42.7302C139.65 44.5715 138.998 49.9487 138.464 51.333C136.425 56.6038 138.881 66.4837 143.221 70.1824C143.666 70.8567 144.213 71.412 144.882 71.7966C145.744 72.706 147.011 73.2855 148.13 73.7443C148.522 73.9053 148.868 73.7201 149.089 73.4259L149.298 73.6575C149.828 74.1932 150.662 73.9044 150.89 73.2337C151.168 72.4181 151.015 71.6875 150.686 70.9962C150.912 70.7547 151.047 70.4185 150.969 70.0823L150.916 69.9267C151.144 69.5815 151.201 69.1048 150.883 68.6979C150.569 68.2982 150.303 67.8743 150.009 67.4844C149.693 66.4408 148.914 65.2613 148.675 64.5101C148.8 64.4323 148.906 64.3267 148.968 64.181C149.268 63.4682 149.413 62.7063 149.455 61.9149C149.713 61.8809 149.95 61.7432 150.079 61.4597C150.243 61.102 150.369 60.7166 150.493 60.3321C150.828 60.3276 151.169 60.1487 151.35 59.8599C151.725 59.2562 152.016 58.548 152.26 57.7986C152.5 57.6323 152.724 57.3962 152.934 57.118L153.068 57.1341C154.153 57.1252 154.866 56.1585 155.306 54.8126C155.762 54.3852 156.106 53.6456 156.364 52.8032C156.474 52.7907 156.583 52.7603 156.688 52.7022C159.086 53.1743 159.929 49.9737 160.418 47.8472C161.301 48.0618 161.707 46.8322 161.206 46.2124Z" fill="#191847"/>
<path fill-rule="evenodd" clip-rule="evenodd" d="M166.077 60.9361C164.989 60.4333 164.044 54.9013 164.044 54.9013L164.035 54.9943C163.648 52.0442 162.89 49.2375 161.412 46.9742C161.07 46.4494 160.387 46.352 159.923 46.7813C156.577 49.8783 151.675 54.9668 149.631 60.3386L149.466 60.2209C148.115 59.3676 146.241 59.5234 145.896 60.5218C145.407 61.9433 147.602 65.2298 148.788 66.5353C148.87 67.0788 146.204 70.8476 142.684 75.1077C140.496 78.1383 138.761 81.4787 138.188 85.2175C138.004 86.4168 139.831 86.9319 140.016 85.7229C140.276 84.0305 140.791 82.4223 141.473 80.8866C141.433 81.0654 141.388 81.2353 141.348 81.4159C141.086 82.625 142.758 83.0631 143.177 81.9213C143.459 81.1477 143.703 80.321 143.974 79.5005C143.926 79.905 143.878 80.3104 143.843 80.7184C143.772 81.5425 144.794 81.8611 145.36 81.4849C145.797 81.7699 146.469 81.7239 146.716 81.1982C146.791 81.0371 146.847 80.8786 146.91 80.7202C147.053 81.2796 147.221 81.8363 147.408 82.3904C147.787 82.6241 148.362 83.0003 148.719 83.3331C148.848 83.2977 148.968 83.2401 149.069 83.1516C149.526 84.081 149.999 84.9767 150.451 85.7919C150.779 86.3832 151.561 86.3283 151.976 85.9477C152.197 86.3743 152.425 86.7983 152.663 87.2169C152.904 87.6365 153.375 87.7197 153.776 87.5993C154.272 88.9084 154.837 90.1732 155.49 91.3584C156.142 93.804 156.668 96.3009 157.309 98.712C157.581 99.7378 159.217 99.544 159.171 98.4597C159.07 96.0628 158.343 93.7695 157.581 91.4876C157.58 91.4053 157.583 91.3257 157.557 91.2371C157.24 90.1635 156.884 89.112 156.501 88.0773L156.451 87.91C155.752 85.3697 155.215 82.9454 155.028 80.2971C154.81 77.2169 156.305 75.0572 157.619 72.486C157.672 72.3815 157.705 72.2762 157.722 72.1726C163.122 74.3031 164.386 72.8382 164.386 67.254C164.386 66.0618 164.408 64.781 164.418 63.4516L164.46 63.4525C165.772 63.202 167.165 61.4388 166.077 60.9361Z" fill="#D39B68"/>
<path fill-rule="evenodd" clip-rule="evenodd" d="M26.4136 144.501C26.0198 143.437 25.5613 142.408 25.1409 141.309C24.5541 139.773 22.4548 138.788 21.1706 140.258C16.1045 146.055 8.43109 148.36 2.01001 152.257C-0.605327 153.844 -1.46295 157.721 4.40851 156.365C5.05726 156.216 7.31061 155.92 8.11778 155.654C14.9283 153.402 22.1716 152.092 29.5396 151.391C31.2682 148.385 32.5311 145.211 33.3374 142.884C31.0549 143.518 28.7537 144.073 26.4136 144.501Z" fill="#D39B68"/>
<path fill-rule="evenodd" clip-rule="evenodd" d="M131.137 123.408C129.46 120.592 130.742 117.15 128.347 116.747C128.742 115.511 124.672 115.889 123.267 115.561C114.74 113.572 110.005 119.721 107.761 126.819C102.096 133.611 91.14 131.911 83.384 134.705C78.5997 136.428 73.8908 138.307 68.7553 138.566C63.8264 138.815 58.9472 136.99 53.9661 137.158C49.3795 137.313 44.8382 139.244 40.5381 140.673C38.2412 141.437 33.0171 142.926 30.7034 143.569C31.1397 146.072 31.5601 148.318 29.8281 151.331C40.6312 150.302 51.7065 150.593 62.1131 151.25C80.987 152.439 98.7568 155.284 116.526 147.015C120.27 145.274 123.9 143.367 127.757 141.878C129.92 141.043 132.623 139.851 133.809 137.705C136.459 132.913 133.689 127.692 131.137 123.408Z" fill="#6459E7"/>
<path fill-rule="evenodd" clip-rule="evenodd" d="M163.831 104.004C162.737 98.4611 160.359 93.5431 156.693 89.2834C154.389 86.606 152.035 80.2192 148.139 79.3102C144.939 78.5633 141.199 78.962 139.119 81.8706C131.803 92.1043 139.925 114.093 122.043 115.429L121.945 115.456C124.765 117.721 126.243 120.745 127.797 124.169C128.478 125.668 129.203 127.144 129.947 128.611C132.332 132.051 133.994 135.945 136.713 139.089C137.092 139.528 157.609 119.053 159.46 114.57C163.169 111.502 163.33 111.512 163.97 109.42C164.533 107.582 164.215 105.946 163.831 104.004Z" fill="#A5E7CA"/>
<path fill-rule="evenodd" clip-rule="evenodd" d="M165.057 156.428C165.057 156.428 165.832 155.441 162.919 155.273C160.006 155.104 154.93 154.483 153.521 153.638C152.489 153.019 150.986 152.078 150.426 151.044L150.443 151.042C150.382 150.906 150.33 150.768 150.308 150.629C150.275 150.431 150.256 150.211 150.24 149.982L150.259 149.884L150.234 149.88C150.16 148.548 150.319 146.843 150.273 145.779C150.054 140.712 149.62 135.661 149.438 130.593C149.035 119.424 149.807 108.296 150.781 97.1875C151.032 94.3306 151.718 86.685 148.918 83.6202L147.479 82.5581L147.499 82.622C147.373 82.5723 147.26 82.5039 147.126 82.4657C143.973 81.5732 142.01 83.9151 140.948 86.7037C140.373 87.8244 139.981 89.0527 139.774 89.9239C138.074 97.0925 139.747 103.95 140.972 111.019C141.918 116.482 141.882 121.764 141.63 127.091C141.674 127.279 141.701 127.481 141.696 127.703C141.587 134.561 142.24 141.299 143.589 148.017C143.769 148.913 143.98 150.246 144.177 151.548C144.029 152.958 143.972 154.604 144.357 155.441C145.109 157.076 145.861 157.64 146.095 157.695H163.954C163.954 157.695 166.467 157.979 166.467 157.188C166.467 156.767 166.139 156.541 165.057 156.428Z" fill="#D39B68"/>
<mask id="mask0" mask-type="alpha" maskUnits="userSpaceOnUse" x="205" y="157" width="81" height="5">
<path d="M205.909 157.112H285.784V161.086H205.909V157.112Z" fill="white"/>
</mask>
<g mask="url(#mask0)">
<path fill-rule="evenodd" clip-rule="evenodd" d="M285.784 159.099C285.784 158.002 267.903 157.112 245.847 157.112C223.79 157.112 205.909 158.002 205.909 159.099C205.909 160.196 223.79 161.086 245.847 161.086C267.903 161.086 285.784 160.196 285.784 159.099Z" fill="#D9DADB"/>
</g>
<path fill-rule="evenodd" clip-rule="evenodd" d="M233.71 158.931C232.807 159.719 228.754 159.598 227.774 159.52C226.795 159.441 225.579 159.795 224.716 159.813C223.854 159.83 224.207 159.181 224.207 159.181L222.364 159.48C220.717 160.227 220.6 159.48 220.6 159.48C220.6 159.48 224.952 156.576 226.049 156.183C227.147 155.791 231.343 155.535 231.343 155.535C231.343 145.481 233.95 138.537 233.95 138.537C233.95 138.537 233.95 131.538 233.285 123.316C232.619 115.095 237.279 113.68 237.279 113.68C245.655 110.654 241.772 124.65 241.772 124.65C242.161 135.538 240.774 140.093 240.774 140.093C241.163 146.314 233.71 158.931 233.71 158.931Z" fill="#C19874"/>
<path fill-rule="evenodd" clip-rule="evenodd" d="M267.362 98.9736C278.116 98.9736 282.169 113.01 282.169 131.194C282.169 131.194 285.722 140.685 284.204 153.307C284.204 153.307 285.244 159.52 281.738 158.464C278.231 157.409 271.782 159.872 270.961 158.342C270.961 158.342 269.119 158.119 269.551 156.75C269.551 156.75 276.535 154.019 277.88 152.708C277.88 152.708 274.112 136.053 273.003 132.946C271.894 129.838 270.008 128.393 263.277 117.41L267.362 98.9736Z" fill="#C19874"/>
<mask id="mask1" mask-type="alpha" maskUnits="userSpaceOnUse" x="263" y="98" width="22" height="56">
<path d="M263.277 98.9736H284.582V153.307H263.277V98.9736Z" fill="white"/>
</mask>
<g mask="url(#mask1)">
<path fill-rule="evenodd" clip-rule="evenodd" d="M277.88 152.708C277.88 152.708 274.113 136.053 273.003 132.945C271.894 129.838 270.008 128.393 263.277 117.41L267.362 98.9734C278.116 98.9734 282.169 113.01 282.169 131.194C282.169 131.194 285.722 140.685 284.204 153.307L277.88 152.708Z" fill="#55AC86"/>
</g>
<mask id="mask2" mask-type="alpha" maskUnits="userSpaceOnUse" x="226" y="98" width="60" height="62">
<path d="M226.684 98.9736H285.784V159.099H226.684V98.9736Z" fill="white"/>
</mask>
<g mask="url(#mask2)">
<path fill-rule="evenodd" clip-rule="evenodd" d="M236.743 127.406C236.743 127.406 233.257 127.81 231.196 129.067L226.684 125.238C226.684 125.238 236.726 98.9736 267.363 98.9736C278.116 98.9736 283.372 113.251 283.372 131.435C283.372 131.435 286.925 140.926 285.407 153.548C285.407 153.548 286.446 159.761 282.94 158.705C279.434 157.65 272.985 160.113 272.164 158.583C272.164 158.583 270.322 158.36 270.754 156.991C270.754 156.991 277.737 154.26 279.083 152.949C279.083 152.949 275.315 136.294 274.206 133.186C273.097 130.079 271.211 128.634 264.48 117.651C264.48 117.651 257.594 126.133 236.743 127.406Z" fill="#E9AE79"/>
</g>
<mask id="mask3" mask-type="alpha" maskUnits="userSpaceOnUse" x="264" y="100" width="22" height="54">
<path d="M264.458 117.719C271.196 128.691 273.083 130.134 274.193 133.237C275.304 136.341 279.075 152.977 279.075 152.977C279.075 152.977 281.639 154.2 285.405 153.576C286.925 140.968 283.368 131.488 283.368 131.488C283.368 116.209 279.646 103.692 272.056 100.101L264.458 117.719Z" fill="white"/>
</mask>
<g mask="url(#mask3)">
<path fill-rule="evenodd" clip-rule="evenodd" d="M264.458 117.719C271.196 128.691 273.083 130.134 274.193 133.237C275.304 136.341 279.075 152.977 279.075 152.977C279.075 152.977 281.639 154.2 285.405 153.576C286.925 140.968 283.368 131.488 283.368 131.488C283.368 116.209 279.646 103.692 272.056 100.101L264.458 117.719Z" fill="#A5E7CA"/>
</g>
<mask id="mask4" mask-type="alpha" maskUnits="userSpaceOnUse" x="229" y="98" width="39" height="30">
<path d="M230.712 117.767C230.712 117.767 225.555 127.175 236.629 127.332C257.539 126.062 264.444 117.602 264.444 117.602L267.334 98.9736C247.384 98.9736 236.142 110.02 230.712 117.767Z" fill="white"/>
</mask>
<g mask="url(#mask4)">
<path fill-rule="evenodd" clip-rule="evenodd" d="M236.629 127.332C257.539 126.062 264.444 117.602 264.444 117.602L267.334 98.9736C247.384 98.9736 236.142 110.02 230.712 117.767C230.712 117.767 225.555 127.175 236.629 127.332Z" fill="#FF7A00"/>
</g>
<path fill-rule="evenodd" clip-rule="evenodd" d="M203.48 122.94C201.612 127.274 208.485 125.441 208.485 125.441C208.485 125.441 204.805 119.867 203.48 122.94Z" stroke="#1FB573" stroke-width="1.824" stroke-linecap="round" stroke-linejoin="round"/>
<path fill-rule="evenodd" clip-rule="evenodd" d="M213.936 137.371C210.397 132.372 211.566 125.442 216.547 121.89C220.026 119.41 224.442 119.236 227.996 121.058C230.832 119.53 233.953 121.486 236.257 124.738C238.71 128.202 236.614 131.316 236.614 131.316C237.353 135.149 235.255 131.399 234.337 134.422C233.512 137.137 231.714 138.832 230.113 139.973C230.113 139.973 220.716 146.948 213.936 137.371Z" fill="#E9AE79"/>
<path fill-rule="evenodd" clip-rule="evenodd" d="M236.682 133.02C236.805 132.798 236.806 132.317 236.613 131.316C234.986 131.557 236.091 132.569 236.682 133.02Z" fill="#E86F58"/>
<mask id="mask5" mask-type="alpha" maskUnits="userSpaceOnUse" x="198" y="118" width="36" height="29">
<path d="M227.463 120.418C219.932 115.793 212.757 120.878 212.757 120.878C210.772 122.289 209.414 123.805 208.511 125.34C206.32 123.598 203.161 123.427 200.765 125.129C197.861 127.193 197.18 131.218 199.243 134.121C201.218 136.902 204.992 137.638 207.858 135.884C208.629 138.027 209.618 139.424 209.618 139.424C209.618 139.424 214.615 146.932 222.832 146.352C231.051 145.772 233.237 137.746 233.237 137.746C230.051 138.1 227.655 140.454 227.655 140.454C229.996 134.386 227.638 130.308 227.638 130.308C228.369 134.374 226.986 135.716 226.986 135.716C227.756 131.083 222.774 123.875 222.774 123.875C222.774 123.875 231.96 123.866 227.974 118.383C227.974 118.383 228.503 121.086 227.463 120.418Z" fill="white"/>
</mask>
<g mask="url(#mask5)">
<path fill-rule="evenodd" clip-rule="evenodd" d="M212.757 120.878C210.772 122.289 209.414 123.805 208.511 125.34C206.32 123.598 203.161 123.427 200.765 125.129C197.861 127.193 197.18 131.218 199.243 134.121C201.218 136.902 204.992 137.638 207.858 135.884C208.629 138.027 209.618 139.424 209.618 139.424C209.618 139.424 214.615 146.932 222.832 146.352C231.051 145.772 233.237 137.746 233.237 137.746C230.051 138.1 227.655 140.454 227.655 140.454C229.996 134.386 227.638 130.308 227.638 130.308C228.369 134.374 226.986 135.716 226.986 135.716C227.756 131.083 222.774 123.875 222.774 123.875C222.774 123.875 231.96 123.866 227.974 118.383C227.974 118.383 228.503 121.086 227.463 120.418C219.932 115.793 212.757 120.878 212.757 120.878Z" fill="#4A2CB1"/>
</g>
<path d="M207.849 136.116C205.466 130.372 208.5 125.582 208.5 125.582" stroke="#1FB573" stroke-width="1.824" stroke-linecap="round"/>
<path fill-rule="evenodd" clip-rule="evenodd" d="M222.113 123.569C220.465 124.74 220.078 127.027 221.249 128.676C222.421 130.324 224.706 130.711 226.354 129.54C228.002 128.369 228.389 126.083 227.218 124.434C226.047 122.785 223.761 122.398 222.113 123.569Z" fill="#E9AE79"/>
<path fill-rule="evenodd" clip-rule="evenodd" d="M203.344 127.775C205.415 132.014 208.504 125.589 208.504 125.589C208.504 125.589 201.876 124.77 203.344 127.775Z" stroke="#1FB573" stroke-width="1.824" stroke-linecap="round" stroke-linejoin="round"/>
<path fill-rule="evenodd" clip-rule="evenodd" d="M232.448 159.041C231.544 159.829 227.486 159.709 226.505 159.63C225.525 159.551 224.307 159.905 223.444 159.923C222.58 159.94 222.934 159.291 222.934 159.291L221.089 159.591C219.44 160.337 219.322 159.591 219.322 159.591C219.322 159.591 223.68 156.686 224.779 156.293C225.878 155.9 230.079 155.645 230.079 155.645C230.079 145.589 232.689 138.645 232.689 138.645C232.689 138.645 232.689 131.644 232.023 123.422C231.356 115.199 236.022 113.784 236.022 113.784C244.408 110.757 240.521 124.755 240.521 124.755C240.91 135.645 239.521 140.2 239.521 140.2C239.91 146.423 232.448 159.041 232.448 159.041Z" fill="#E9AE79"/>
<defs>
<linearGradient id="paint0_linear" x1="205.233" y1="66.9155" x2="233.283" y2="66.9155" gradientUnits="userSpaceOnUse">
<stop stop-color="#1FB573"/>
<stop offset="1" stop-color="#B0FFDC"/>
</linearGradient>
<linearGradient id="paint1_linear" x1="221.518" y1="125.274" x2="192.348" y2="125.274" gradientUnits="userSpaceOnUse">
<stop stop-color="#EEEEEE"/>
<stop offset="1" stop-color="#D6D7D8"/>
</linearGradient>
</defs>
</svg>
