<svg width="351" height="183" viewBox="0 0 351 183" fill="none" xmlns="http://www.w3.org/2000/svg">
<path d="M246.319 149.237H60.2592C57.4989 149.237 55.2617 146.994 55.2617 144.229V80.8576C55.2617 78.0914 57.4994 75.8495 60.2592 75.8495H246.319C249.079 75.8495 251.316 78.092 251.316 80.8576V144.229C251.316 146.995 249.079 149.237 246.319 149.237Z" fill="url(#paint0_linear)"/>
<path d="M305.217 27.9854C305.102 27.8467 304.987 27.7081 304.872 27.5699C304.948 27.5653 305.025 27.5638 305.102 27.5603C304.002 23.0535 306.168 18.2791 309.224 14.7668C310.578 13.21 312.18 11.7696 314.147 11.1529C316.2 10.5094 318.428 10.8304 320.513 11.3607C326.599 12.9088 332.224 16.2296 336.524 20.8131C337.921 22.3023 339.26 24.2166 338.863 26.2214C338.419 28.4608 335.9 30.4971 336.933 32.5318C337.997 34.629 341.626 33.8671 342.929 35.8241C344.938 38.8391 338.715 42.4555 340.313 45.7082C341.132 47.3757 343.389 47.5149 345.087 48.26C348.345 49.6888 349.651 54.3429 347.612 57.2634C345.799 59.8619 341.782 61.7092 342.54 64.7882C342.806 65.8676 343.65 66.6894 344.427 67.4827C346.98 70.0894 349.222 73.109 350.321 76.5918C351.42 80.0741 351.258 84.0754 349.292 87.1509C348.284 88.7265 346.865 89.9897 345.418 91.1716C338.203 97.063 335.408 103.252 329.619 110.554C326.002 115.117 317.958 144.351 315.991 152.576C314.499 140.606 311.062 105.008 309.619 103.033C308.175 101.057 307.424 98.2804 308.652 96.1639C309.548 94.6209 311.255 93.7869 312.709 92.7558C314.163 91.7247 315.536 90.1024 315.186 88.3526C315.024 87.5445 314.514 86.8548 313.993 86.2168C312.339 84.1897 310.418 82.3373 309.214 80.0136C308.011 77.6899 307.667 74.6739 309.208 72.5594C310.654 70.575 313.433 69.7023 315.602 68.4854C313.75 67.0627 311.034 66.0926 309.495 64.2564C308.32 62.8561 307.891 60.863 308.383 59.1016C308.903 57.2431 310.309 55.8067 311.435 54.2291C311.203 53.3123 311.272 52.3914 311.816 51.56C312.104 51.1186 312.492 50.7697 312.936 50.4761C312.996 49.5461 312.788 48.6501 312.172 47.938C311.233 46.8531 309.646 46.562 308.606 45.5741C306.958 44.0077 307.514 40.7972 309.592 39.8793C310.789 39.3511 312.552 39.214 312.747 37.9188C312.769 37.7684 312.76 37.6211 312.734 37.4769C309.652 34.6132 306.36 31.9126 305.217 27.9854Z" fill="url(#paint1_linear)"/>
<path d="M289.191 96.5757C290.045 94.4328 292.029 92.781 292.426 90.5081C293.002 87.2086 290.106 84.4826 288.24 81.7028C285.43 77.514 284.782 71.9472 286.556 67.223C288.329 62.4984 292.477 58.7398 297.345 57.4451C300.443 56.6217 303.854 56.7101 306.608 55.067C310.357 52.8291 313.349 47.4604 317.464 48.9186C320.341 49.9385 321.016 53.8637 320.065 56.7695C319.113 59.6753 317.086 62.1418 316.197 65.0674C314.499 70.6576 317.229 76.5037 319.398 81.9278C321.568 87.3519 323.059 94.0478 319.439 98.6292C317.674 100.863 314.85 102.316 313.825 104.974C312.431 108.589 314.977 112.379 316.229 116.045C318.56 122.869 315.898 131.083 310.012 135.233C309.812 126.55 305.778 118.025 299.195 112.375C296.648 110.188 293.732 108.403 291.535 105.864C289.338 103.324 287.948 99.6969 289.191 96.5757Z" fill="url(#paint2_linear)"/>
<path d="M318.292 148.298C318.167 148.298 318.059 148.206 318.041 148.08C316.173 134.786 313.36 122.314 309.679 111.01C309.636 110.876 309.709 110.733 309.842 110.689C309.976 110.647 310.117 110.719 310.161 110.852C313.851 122.185 316.671 134.686 318.543 148.009C318.562 148.147 318.466 148.276 318.327 148.296C318.315 148.298 318.303 148.298 318.292 148.298Z" fill="#191847"/>
<path d="M307.632 105.788C304.958 107.606 303.706 110.429 304.836 112.093C305.965 113.758 309.049 113.633 311.723 111.816C314.397 109.998 315.649 107.175 314.519 105.511C313.389 103.846 310.306 103.97 307.632 105.788Z" fill="#A4A9FE"/>
<path d="M309.079 108.663C308.974 108.663 308.876 108.597 308.84 108.491C306.95 102.962 304.804 97.5905 302.462 92.525C302.403 92.3981 302.458 92.2472 302.586 92.1878C302.713 92.1289 302.863 92.1847 302.922 92.3117C305.271 97.3924 307.424 102.781 309.32 108.327C309.365 108.459 309.295 108.604 309.163 108.649C309.135 108.659 309.107 108.663 309.079 108.663Z" fill="#191847"/>
<path d="M299.664 87.3748C295.628 90.1184 293.273 93.6917 294.402 95.3562C295.532 97.0206 299.719 96.1459 303.755 93.4023C307.791 90.6588 310.147 87.0854 309.017 85.421C307.887 83.7565 303.7 84.6313 299.664 87.3748Z" fill="#A4A9FE"/>
<path d="M301.865 90.9156C301.771 90.9156 301.68 90.8628 301.636 90.7714C300.929 89.2898 300.192 87.8102 299.447 86.3738C297.402 82.4283 295.164 78.5676 292.795 74.8989C292.719 74.7811 292.753 74.6236 292.87 74.5479C292.988 74.4718 293.145 74.5058 293.221 74.6231C295.598 78.3055 297.844 82.1799 299.897 86.1397C300.644 87.5812 301.383 89.0658 302.094 90.5525C302.154 90.679 302.101 90.8303 301.974 90.8913C301.939 90.9075 301.902 90.9156 301.865 90.9156Z" fill="#191847"/>
<path d="M290.228 70.6052C286.351 74.4985 284.291 78.7349 285.627 80.0675C286.964 81.4002 291.19 79.3244 295.067 75.4312C298.944 71.5379 301.004 67.3015 299.668 65.9688C298.331 64.6362 294.105 66.712 290.228 70.6052Z" fill="#A4A9FE"/>
<path d="M291.769 73.1304C291.688 73.1304 291.608 73.0908 291.558 73.0176C288.385 68.2757 284.924 63.7654 281.272 59.6126C281.18 59.5075 281.19 59.347 281.295 59.254C281.4 59.1616 281.56 59.1712 281.653 59.2764C285.319 63.4459 288.793 67.974 291.979 72.7347C292.057 72.851 292.026 73.009 291.91 73.0867C291.867 73.1162 291.817 73.1304 291.769 73.1304Z" fill="#191847"/>
<path d="M275.565 56.2623C272.57 63.137 272.055 69.5444 274.415 70.5736C276.774 71.6029 281.114 66.8642 284.108 59.9895C287.103 53.1148 287.618 46.7074 285.258 45.6782C282.899 44.6489 278.559 49.3876 275.565 56.2623Z" fill="#A4A9FE"/>
<path d="M279.533 57.5538C279.465 57.5538 279.396 57.5264 279.347 57.4721C275.592 53.4001 271.582 49.6237 267.429 46.2481C267.32 46.1597 267.303 45.9997 267.392 45.891C267.479 45.7818 267.639 45.765 267.748 45.8539C271.919 49.2448 275.947 53.0379 279.719 57.1277C279.814 57.2308 279.807 57.3913 279.705 57.4868C279.656 57.5315 279.594 57.5538 279.533 57.5538Z" fill="#191847"/>
<path d="M262.247 41.4915C256.694 48.215 253.8 54.9957 255.784 56.6367C257.768 58.2776 263.878 54.1575 269.431 47.434C274.984 40.7105 277.877 33.9298 275.893 32.2888C273.91 30.6478 267.8 34.768 262.247 41.4915Z" fill="#A4A9FE"/>
<path d="M312.849 153.367C312.845 153.367 312.841 153.367 312.837 153.367C312.697 153.361 312.589 153.242 312.595 153.102C313.585 131.723 314.21 106.395 311.343 80.6429C311.212 79.4605 311.072 78.2781 310.926 77.0966C310.909 76.9575 311.007 76.831 311.146 76.8132C311.283 76.7934 311.412 76.8945 311.429 77.0342C311.576 78.2176 311.715 79.4021 311.847 80.5865C314.719 106.375 314.093 131.727 313.102 153.126C313.095 153.261 312.984 153.367 312.849 153.367Z" fill="#0C8751"/>
<path d="M311.798 73.7829C308.936 72.9928 306.375 73.2234 306.079 74.2981C305.783 75.3727 307.863 76.8844 310.726 77.6745C313.588 78.4646 316.148 78.2339 316.445 77.1593C316.741 76.0847 314.66 74.573 311.798 73.7829Z" fill="#191847"/>
<path d="M310.956 75.5885C310.83 75.5885 310.722 75.495 310.705 75.3675C309.752 68.0677 308.517 60.9218 307.033 54.1279C307.003 53.9907 307.09 53.8556 307.226 53.8256C307.363 53.7957 307.499 53.882 307.528 54.0192C309.015 60.8273 310.253 67.9874 311.207 75.3015C311.225 75.4407 311.127 75.5681 310.988 75.5864C310.978 75.5874 310.967 75.5885 310.956 75.5885Z" fill="#0C8751"/>
<path d="M308.083 50.9537C304.471 49.9567 301.304 50.0197 301.007 51.0943C300.711 52.169 303.399 53.8484 307.01 54.8454C310.622 55.8423 313.79 55.7794 314.086 54.7048C314.382 53.6301 311.695 51.9507 308.083 50.9537Z" fill="#191847"/>
<path d="M306.908 52.645C306.792 52.645 306.687 52.5652 306.661 52.4469C305.263 46.267 303.619 40.2136 301.774 34.4543C301.731 34.3208 301.805 34.178 301.938 34.1349C302.072 34.0917 302.214 34.1658 302.256 34.2989C304.105 40.0724 305.754 46.1401 307.155 52.3346C307.186 52.4713 307.1 52.6074 306.964 52.6384C306.945 52.6429 306.926 52.645 306.908 52.645Z" fill="#0C8751"/>
<path d="M301.845 29.6395C297.133 30.0455 293.437 31.8061 293.589 33.5719C293.741 35.3376 297.683 36.4399 302.395 36.0338C307.106 35.6277 310.803 33.8671 310.651 32.1014C310.499 30.3356 306.556 29.2334 301.845 29.6395Z" fill="#191847"/>
<path d="M301.28 32.3809C301.174 32.3809 301.075 32.3139 301.039 32.2077C299.668 28.0987 298.16 24.0414 296.557 20.1487C296.504 20.0192 296.566 19.8704 296.695 19.817C296.823 19.7642 296.972 19.8252 297.026 19.9547C298.633 23.858 300.145 27.926 301.519 32.0462C301.563 32.1793 301.492 32.323 301.36 32.3677C301.333 32.3769 301.306 32.3809 301.28 32.3809Z" fill="#0C8751"/>
<path d="M295.988 15.4377C291.118 16.2116 287.375 18.1352 287.628 19.7343C287.882 21.3333 292.036 22.0023 296.907 21.2284C301.778 20.4545 305.521 18.5308 305.267 16.9317C305.014 15.3327 300.859 14.6637 295.988 15.4377Z" fill="#191847"/>
<path d="M295.993 18.3969C295.894 18.3969 295.8 18.339 295.759 18.2425C294.717 15.7943 293.615 13.3598 292.484 11.0066C292.14 10.293 291.792 9.58191 291.439 8.87387C291.376 8.74841 291.427 8.59604 291.553 8.53306C291.678 8.47109 291.83 8.52086 291.893 8.64683C292.247 9.35741 292.596 10.0705 292.94 10.7862C294.075 13.146 295.181 15.5876 296.226 18.0428C296.28 18.1719 296.221 18.3212 296.092 18.376C296.059 18.3903 296.025 18.3969 295.993 18.3969Z" fill="#0C8751"/>
<path d="M290.994 3.49282C285.432 4.37667 281.171 6.66078 281.478 8.59451C281.785 10.5282 286.543 11.3793 292.105 10.4955C297.667 9.61159 301.928 7.32749 301.621 5.39377C301.315 3.46004 296.557 2.60896 290.994 3.49282Z" fill="#191847"/>
<path d="M290.304 6.34546C290.212 6.34546 290.124 6.29569 290.079 6.20934C289.155 4.43822 288.195 2.68438 287.228 0.996052C287.158 0.874151 287.2 0.719235 287.322 0.649142C287.444 0.579557 287.598 0.621207 287.668 0.743108C288.639 2.43702 289.601 4.19696 290.529 5.97367C290.594 6.09811 290.546 6.2515 290.422 6.31651C290.383 6.33632 290.343 6.34546 290.304 6.34546Z" fill="#0C8751"/>
<path d="M330.429 124.086H299.587V163.106H330.429V124.086Z" fill="url(#paint3_linear)"/>
<path d="M36.311 163.106H50.3916C53.1519 163.106 55.3891 160.863 55.3891 158.098V109.09C55.3891 106.324 53.1514 104.082 50.3916 104.082H36.311C33.5507 104.082 31.3135 106.324 31.3135 109.09V158.098C31.3135 160.863 33.5507 163.106 36.311 163.106Z" fill="url(#paint4_linear)"/>
<path d="M256.182 163.106H270.263C273.023 163.106 275.26 160.863 275.26 158.098V109.09C275.26 106.324 273.023 104.082 270.263 104.082H256.182C253.422 104.082 251.185 106.324 251.185 109.09V158.098C251.185 160.863 253.422 163.106 256.182 163.106Z" fill="url(#paint5_linear)"/>
<path d="M245.495 130.829H61.0342C57.8461 130.829 55.2617 133.419 55.2617 136.613V157.321C55.2617 160.516 57.8461 163.106 61.0342 163.106H245.495C248.683 163.106 251.268 160.516 251.268 157.321V136.613C251.268 133.419 248.683 130.829 245.495 130.829Z" fill="url(#paint6_linear)"/>
<path d="M245.944 129.294C242.183 132.796 230.28 129.398 225.146 129.398C220.012 129.398 208.108 132.796 204.345 129.294C200.851 126.044 204.222 114.68 204.222 109.903C204.222 105.125 200.851 93.7594 204.345 90.5077C208.107 87.0066 220.009 90.4046 225.143 90.4046C230.278 90.4046 242.181 87.0066 245.944 90.5077C249.438 93.7579 246.067 105.122 246.067 109.9C246.067 114.678 249.438 126.043 245.944 129.294Z" fill="#9FA4FE"/>
<path d="M217.439 124.148C213.377 124.148 210.073 120.837 210.073 116.767C210.073 112.697 213.377 109.385 217.439 109.385C221.5 109.385 224.804 112.697 224.804 116.767C224.804 120.837 221.5 124.148 217.439 124.148ZM217.439 109.893C213.657 109.893 210.58 112.976 210.58 116.767C210.58 120.557 213.657 123.64 217.439 123.64C221.221 123.64 224.297 120.557 224.297 116.767C224.297 112.976 221.221 109.893 217.439 109.893Z" fill="white"/>
<path d="M103.197 99.3634H91.6636C91.5237 99.3634 91.4102 99.2496 91.4102 99.1094V89.0928H91.917V98.8555H103.197V99.3634Z" fill="white"/>
<path d="M229.74 108.271C226.924 108.271 224.634 105.976 224.634 103.154C224.634 100.333 226.924 98.038 229.74 98.038C232.555 98.038 234.846 100.333 234.846 103.154C234.846 105.976 232.555 108.271 229.74 108.271ZM229.74 98.5459C227.204 98.5459 225.141 100.613 225.141 103.154C225.141 105.695 227.204 107.763 229.74 107.763C232.276 107.763 234.339 105.696 234.339 103.154C234.339 100.613 232.276 98.5459 229.74 98.5459Z" fill="white"/>
<path d="M246.713 128.304C243.898 128.304 241.678 126.009 241.678 123.187C241.678 120.366 243.968 118.071 247.053 118.071L247.108 118.579C244.303 118.579 242.185 120.646 242.185 123.187C242.185 125.728 244.357 127.796 246.893 127.796L246.713 128.304Z" fill="white"/>
<path d="M26.4875 57.7856C41.1161 57.7856 52.975 45.9175 52.975 31.2775C52.975 16.6374 41.1161 4.76935 26.4875 4.76935C11.8589 4.76935 0 16.6374 0 31.2775C0 45.9175 11.8589 57.7856 26.4875 57.7856Z" fill="white"/>
<path d="M26.4875 11.9015C27.3403 11.9015 28.0316 11.2096 28.0316 10.3562C28.0316 9.50271 27.3403 8.81085 26.4875 8.81085C25.6347 8.81085 24.9434 9.50271 24.9434 10.3562C24.9434 11.2096 25.6347 11.9015 26.4875 11.9015Z" fill="black" fill-opacity="0.15"/>
<path d="M5.5822 32.8228C6.43499 32.8228 7.12632 32.131 7.12632 31.2775C7.12632 30.424 6.43499 29.7322 5.5822 29.7322C4.72941 29.7322 4.03809 30.424 4.03809 31.2775C4.03809 32.131 4.72941 32.8228 5.5822 32.8228Z" fill="black" fill-opacity="0.15"/>
<path d="M47.3927 32.8228C48.2455 32.8228 48.9369 32.131 48.9369 31.2775C48.9369 30.424 48.2455 29.7322 47.3927 29.7322C46.54 29.7322 45.8486 30.424 45.8486 31.2775C45.8486 32.131 46.54 32.8228 47.3927 32.8228Z" fill="black" fill-opacity="0.15"/>
<path d="M26.4875 53.7438C27.3403 53.7438 28.0316 53.052 28.0316 52.1985C28.0316 51.3451 27.3403 50.6532 26.4875 50.6532C25.6347 50.6532 24.9434 51.3451 24.9434 52.1985C24.9434 53.052 25.6347 53.7438 26.4875 53.7438Z" fill="black" fill-opacity="0.15"/>
<path d="M26.6065 13.3279L27.5567 30.9207H25.6562L26.6065 13.3279Z" fill="#9EA9B6"/>
<path d="M35.3323 40.1295L26.1444 32.3489L27.5579 30.9342L35.3323 40.1295Z" fill="#9EA9B6"/>
<path d="M26.487 33.2984C27.6022 33.2984 28.5062 32.3936 28.5062 31.2776C28.5062 30.1615 27.6022 29.2568 26.487 29.2568C25.3718 29.2568 24.4678 30.1615 24.4678 31.2776C24.4678 32.3936 25.3718 33.2984 26.487 33.2984Z" fill="#C5CFD6"/>
<path d="M108.291 55.9574C110.298 53.597 111.656 50.7044 111.429 47.463C110.775 38.1238 97.8012 40.1783 95.2775 44.8919C92.7537 49.6056 93.0536 61.5621 96.3153 62.4045C97.6161 62.7405 100.387 61.9175 103.207 60.2142L101.437 72.7632H111.89L108.291 55.9574Z" fill="#F0CCB5"/>
<path d="M109.019 58.0232C110.33 52.1751 114.064 48.1887 113.494 45.5749C113.114 43.8323 112.1 42.7487 110.454 42.324C109.602 38.8693 106.856 37.3999 102.214 37.9157C95.252 38.6895 91.0026 41.589 92.8377 47.969C94.5246 47.969 96.561 47.3572 99.3769 48.4054C100.27 48.7379 100.909 49.7693 101.294 51.4994H102.567C103.802 49.4462 105.019 48.6917 106.22 49.2359C107.42 49.7801 107.693 51.102 107.038 53.2016L107.665 58.0232H109.019Z" fill="#191847"/>
<path d="M53.1608 178.812C58.6974 166.543 62.7014 155.859 64.3085 150.222C67.0604 140.571 69.1539 132.078 69.683 128.907C70.9447 121.344 59.9769 120.903 58.5272 124.662C56.333 130.351 52.5025 149.042 47.8997 177.275L53.1608 178.812ZM117.382 140.307C112.302 138.297 94.5127 132.005 85.933 130.226C83.4675 129.714 81.078 129.239 78.8313 128.81C72.1535 127.533 68.6938 139.595 75.1253 140.522C91.1424 142.83 113.849 145.214 115.792 145.481C118.516 145.856 120.574 141.571 117.382 140.307Z" fill="#F0CCB5"/>
<path d="M74.7323 125.49L102.209 111.485V108.437H98.9413C72.3588 115.219 58.7752 119.565 58.1904 121.476C58.1841 121.496 58.1784 121.517 58.1731 121.538C58.1597 121.555 58.1466 121.573 58.1337 121.591C52.8656 128.845 49.7105 164.261 48.675 166.912L58.7699 168.42C62.6314 154.083 74.986 144.095 74.6578 126.923C74.7464 126.42 74.7688 125.942 74.7323 125.49Z" fill="#EE9E2F"/>
<path d="M99.9244 133.808C102.438 133.304 104.754 132.854 106.735 132.506C119.531 130.259 123.262 123.4 121.056 108.437H97.4793C93.628 109.544 73.6128 117.948 63.2281 122.418C56.3549 125.377 58.5216 136.042 62.4138 138.817C62.435 138.988 62.505 139.103 62.6298 139.155C83.5674 147.844 100.131 143.285 105.664 144.741L108.224 136.658L99.9244 133.808Z" fill="#F9C346"/>
<path d="M114.761 139.298C116.296 139.596 117.398 139.923 118.068 140.277C118.882 140.708 120.02 141.449 121.482 142.499C121.132 143.275 117.993 150.252 112.063 163.43C109.631 162.816 108.591 161.877 108.944 160.612C109.297 159.348 109.578 158.291 109.786 157.442L108.887 144.92C108.87 144.679 109.071 144.513 109.336 144.55C109.34 144.551 109.345 144.552 109.349 144.553L111.476 144.904C112.58 144.145 113.285 143.427 113.59 142.748C113.838 142.197 113.91 141.293 113.805 140.035L113.805 140.035C113.765 139.553 114.162 139.217 114.692 139.287C114.715 139.29 114.738 139.293 114.761 139.298Z" fill="#191847"/>
<path d="M55.6792 176.537C56.1626 177.829 56.4043 178.796 56.4043 179.438C56.4043 180.218 56.2745 181.356 56.0149 182.853C55.1109 182.853 46.987 182.853 31.643 182.853C31.0097 180.757 31.3753 179.625 32.7398 179.458C34.1044 179.29 35.2379 179.14 36.1405 179.005L47.4683 173.949C47.6862 173.851 47.9417 173.949 48.0389 174.168C48.0405 174.171 48.0421 174.175 48.0437 174.179L48.7718 175.947C50.035 176.537 51.0615 176.832 51.8513 176.832C52.4929 176.832 53.3791 176.573 54.5097 176.054L54.5097 176.054C54.9436 175.855 55.4566 176.046 55.6555 176.48C55.664 176.499 55.6719 176.518 55.6792 176.537Z" fill="#191847"/>
<path d="M75.4176 96.5893L59.7603 89.7045C57.0175 86.9679 54.3689 84.888 51.8146 83.4647C51.0508 83.2212 49.7459 83.1477 51.1381 85.1837C52.5303 87.2198 53.9033 89.4241 53.347 90.1377C52.7907 90.8512 51.1792 90.0636 50.5426 91.224C50.1181 91.9976 52.8345 92.923 58.6917 94.0002L70.4181 103.002L75.4176 96.5893ZM138.718 98.4856L129.864 100.245C138.768 116.861 143.544 125.667 144.19 126.664C145.644 128.908 144.288 133.019 143.786 135.184C146.93 135.916 145.69 131.179 149.668 132.168C153.299 133.071 156.378 135.388 159.764 132.263C160.18 131.879 160.485 130.678 159.066 130.062C155.53 128.528 150.306 125.655 149.459 124.539C148.304 123.018 144.723 114.333 138.718 98.4856Z" fill="#F0CCB5"/>
<path d="M105.797 65.315L102.06 64.6733C93.9219 72.5779 90.6008 91.5686 85.1771 94.0823C80.0491 96.4589 72.78 94.1591 64.1394 91.0537L61.4932 96.9733C69.344 105.478 86.0693 112.662 92.8487 108.561C103.688 102.003 106.19 78.5808 105.797 65.315Z" fill="#0C8751"/>
<path d="M122.085 112.331C107.103 112.331 96.0824 112.331 89.0235 112.331C87.5128 112.331 87.7974 110.146 88.0158 109.044C90.5363 96.3241 100.375 82.6123 100.375 64.5054L109.912 63.0081C117.8 75.7101 120.527 91.3489 122.085 112.331Z" fill="white"/>
<path d="M125.384 99.4519C132.124 111.624 137.789 120.388 142.38 125.743L149.31 124.384C144.846 96.6645 131.919 76.206 110.528 63.0081H110.42H106.753C98.1913 92.2282 95.8311 111.698 99.672 121.416H129.432C128.962 114.305 127.452 106.785 125.384 99.4519H125.384Z" fill="#1FB573"/>
<path d="M92.5998 110.309H70.5107V113.527H92.5998V110.309Z" fill="#191847"/>
<path d="M39.8809 90.8054H67.3309L73.6596 113.527H46.2096L39.8809 90.8054Z" fill="#191847"/>
<defs>
<linearGradient id="paint0_linear" x1="55.2619" y1="112.543" x2="251.316" y2="112.543" gradientUnits="userSpaceOnUse">
<stop stop-color="#6A72FE"/>
<stop offset="1" stop-color="#5015AA"/>
</linearGradient>
<linearGradient id="paint1_linear" x1="351" y1="81.6853" x2="304.811" y2="81.6853" gradientUnits="userSpaceOnUse">
<stop stop-color="#1FB573"/>
<stop offset="1" stop-color="#B0FFDC"/>
</linearGradient>
<linearGradient id="paint2_linear" x1="321.626" y1="91.9517" x2="285.568" y2="91.9517" gradientUnits="userSpaceOnUse">
<stop stop-color="#DBDDFF"/>
<stop offset="1" stop-color="#E9F1FE"/>
</linearGradient>
<linearGradient id="paint3_linear" x1="330.429" y1="143.595" x2="299.587" y2="143.595" gradientUnits="userSpaceOnUse">
<stop stop-color="#EEEEEE"/>
<stop offset="1" stop-color="#D6D7D8"/>
</linearGradient>
<linearGradient id="paint4_linear" x1="39.8005" y1="127.974" x2="59.1516" y2="133.069" gradientUnits="userSpaceOnUse">
<stop stop-color="#B3B7FE"/>
<stop offset="1" stop-color="#686FFE"/>
</linearGradient>
<linearGradient id="paint5_linear" x1="255.35" y1="124.31" x2="270.845" y2="127.35" gradientUnits="userSpaceOnUse">
<stop stop-color="#6A70FC"/>
<stop offset="1" stop-color="#5F4AD9"/>
</linearGradient>
<linearGradient id="paint6_linear" x1="-20.2134" y1="146.884" x2="337.221" y2="155.432" gradientUnits="userSpaceOnUse">
<stop stop-color="#B3B7FE"/>
<stop offset="1" stop-color="#6A71FD"/>
</linearGradient>
</defs>
</svg>
