<svg width="25" height="25" viewBox="0 0 25 25" fill="none" xmlns="http://www.w3.org/2000/svg">
<path fill-rule="evenodd" clip-rule="evenodd" d="M12.5 25C19.4036 25 25 19.4036 25 12.5C25 5.59644 19.4036 0 12.5 0C5.59644 0 0 5.59644 0 12.5C0 19.4036 5.59644 25 12.5 25ZM11.7241 5.77586C11.7241 5.34738 12.0715 5 12.5 5C12.9285 5 13.2759 5.34738 13.2759 5.77586V11.7241H19.2241C19.6526 11.7241 20 12.0715 20 12.5C20 12.9285 19.6526 13.2759 19.2241 13.2759H13.2759V19.2241C13.2759 19.6526 12.9285 20 12.5 20C12.0715 20 11.7241 19.6526 11.7241 19.2241V13.2759H5.77586C5.34738 13.2759 5 12.9285 5 12.5C5 12.0715 5.34738 11.7241 5.77586 11.7241H11.7241V5.77586Z" fill="#01689B"/>
</svg>
