<svg width="28" height="28" viewBox="0 0 28 28" fill="none" xmlns="http://www.w3.org/2000/svg">
<path d="M26.88 3.36H23.0036L22.0456 6.57989C21.9866 6.762 21.84 6.70606 21.84 6.70606V3.36H21.8359C21.8277 2.65563 21.8039 1.48585 21.7337 1.05218C21.6727 0.679784 21.6068 0 21.064 0H19.4649C18.9224 0 18.8062 0.68768 18.7458 1.06036C18.6755 1.49346 18.5781 2.65787 18.5228 3.36H9.56362L8.60563 6.58C8.54655 6.76211 8.4 6.70606 8.4 6.70606V3.36H8.39586C8.38774 2.65563 8.36394 1.48585 8.29366 1.05218C8.23267 0.679784 8.16676 0 7.62401 0H6.02493C5.4824 0 5.3662 0.68768 5.30578 1.06036C5.2355 1.49346 5.13806 2.65787 5.08278 3.36H1.12C0.50148 3.36 0 3.86148 0 4.48V26.88C0 27.4985 0.50148 28 1.12 28H26.88C27.4985 28 28 27.4985 28 26.88V4.48C28 3.86148 27.4985 3.36 26.88 3.36ZM25.2 25.2H2.8V10.64H25.2V25.2Z" fill="#0E6999"/>
<path d="M13.9997 13.3333C13.6775 13.3333 13.4163 13.5945 13.4163 13.9167V17.4167H9.91634C9.59418 17.4167 9.33301 17.6778 9.33301 18C9.33301 18.3222 9.59418 18.5833 9.91634 18.5833H13.4163V22.0833C13.4163 22.4055 13.6775 22.6667 13.9997 22.6667C14.3218 22.6667 14.583 22.4055 14.583 22.0833V18.5833H18.083C18.4052 18.5833 18.6663 18.3222 18.6663 18C18.6663 17.6778 18.4052 17.4167 18.083 17.4167H14.583V13.9167C14.583 13.5945 14.3218 13.3333 13.9997 13.3333Z" fill="#0E6999" stroke="#0E6999" stroke-width="2"/>
</svg>
