<svg width="19" height="32" viewBox="0 0 19 32" fill="none" xmlns="http://www.w3.org/2000/svg">
<path fill-rule="evenodd" clip-rule="evenodd" d="M16.1303 16.3283C17.3644 14.6328 18.6185 12.9099 18.6185 9.66176C18.6185 -3.24822 -0.0789756 -3.24822 0.00025107 9.82834C0.0441081 12.9636 1.30185 14.6695 2.53706 16.3449C3.53323 17.6961 4.51475 19.0274 4.83308 21.0725C4.9123 21.9887 5.62534 22.655 6.49683 22.655H12.1219C12.9934 22.655 13.7065 21.9887 13.8649 21.0725C14.1807 19.0068 15.1492 17.6762 16.1303 16.3283ZM9.98281 19.5733V13.1599L11.7258 11.4109C12.3596 10.7445 11.4089 9.66176 10.7751 10.3281L9.34899 11.8273L7.92291 10.3281C7.2891 9.66176 6.33838 10.7445 6.97219 11.4109L8.63595 13.1599V19.5733H9.98281Z" fill="#CA005D"/>
<path d="M13.8652 26.2052C13.8651 26.1468 13.865 26.0887 13.865 26.0311C13.865 25.4481 13.3896 24.8651 12.7558 24.8651H5.94229C5.30848 24.8651 4.83312 25.3648 4.83312 26.0311C4.83312 26.0887 4.83297 26.1468 4.83282 26.2052C4.82953 27.4981 4.82581 28.9571 6.41765 29.1961C7.20992 32.3611 11.4882 32.2779 12.2804 29.1961C13.8723 28.9571 13.8685 27.4981 13.8652 26.2052Z" fill="#CA005D"/>
</svg>
