<svg width="13" height="15" viewBox="0 0 13 15" fill="none" xmlns="http://www.w3.org/2000/svg">
<path d="M11.7658 0.9797L5.50914 0.958117C4.93259 0.956128 4.45361 1.4888 4.4554 2.13001C4.45719 2.77121 4.93914 3.3072 5.5157 3.30919L9.22063 3.33384L0.885699 12.6033C0.47059 13.065 0.472644 13.8012 0.890336 14.2657C1.30803 14.7302 1.97 14.7325 2.38511 14.2709L10.72 5.00137L10.7315 9.10981C10.7333 9.75101 11.2152 10.287 11.7918 10.289C12.0907 10.29 12.3573 10.1603 12.5489 9.94726C12.7405 9.73419 12.8571 9.43774 12.8562 9.10527L12.8368 2.17079C12.836 1.86207 12.7283 1.55297 12.5248 1.32666C12.3214 1.10036 12.0541 0.96882 11.7658 0.9797Z" fill="#0E6999"/>
</svg>
