<svg xmlns="http://www.w3.org/2000/svg" fill="none" height="317" width="363"><path fill="#1FB573" d="M303.82 0h-13.645v315.43h13.645V0Z"></path><path fill="#B3B7FE" d="M356.965 29.606h-74.436v23.226h74.683l5.185-12.207-5.432-11.019Z"></path><path fill="#A5E7CA" d="M350.052 106.079h-74.436v23.226h74.682l5.185-12.207-5.431-11.019Z"></path><path fill="#fff" d="M263.764 61.747H338.2v23.226h-74.683l-5.185-12.207 5.432-11.02ZM307.242 10.959h-20.488v3.06h20.488v-3.06ZM307.242 4.067h-20.488v3.061h20.488v-3.06Z"></path><path fill="#686FFE" d="m344.965 46.012-6.282-7.048 6.282-7.048 6.28 7.048-6.28 7.048Z"></path><path fill="#F9C346" d="m302.148 44.548-7.917 3.489-3.109-8.884 7.917-3.489 3.109 8.884Z"></path><path fill="#000" d="M334.523 33.16h-15.689v1.532h15.689v-1.531Z"></path><path fill="#686FFE" d="M325.329 65.401h-1.365v17.607h1.365V65.4Z"></path><path fill="#000" d="M334.523 39.285h-15.689v1.531h15.689v-1.531ZM334.523 45.408h-15.689v1.532h15.689v-1.532Z"></path><path fill="#fff" d="m314.259 79.885-6.741-5.818 5.184-7.566 6.742 5.817-5.185 7.567ZM316.073 119.788l-7.917 3.489-3.108-8.884 7.916-3.489 3.109 8.884Z"></path><path fill="#CA005D" d="M337.189 111.95h-14.22v3.799h14.22v-3.799Z"></path><path fill="#A5E7CA" d="M301.297 71.672h-14.22v3.799h14.22v-3.8Z"></path><path fill="#B3B7FE" d="M293.51 121.83c2.806 0 5.08-2.552 5.08-5.7s-2.274-5.699-5.08-5.699c-2.805 0-5.079 2.551-5.079 5.699 0 3.148 2.274 5.7 5.079 5.7Z"></path><path fill="#fff" d="M293.51 122.59c-3.174 0-5.756-2.898-5.756-6.46s2.582-6.46 5.756-6.46c3.174 0 5.756 2.898 5.756 6.46s-2.582 6.46-5.756 6.46Zm0-11.399c-2.427 0-4.401 2.216-4.401 4.939 0 2.724 1.974 4.941 4.401 4.941 2.426 0 4.402-2.217 4.402-4.941 0-2.724-1.975-4.939-4.402-4.939Z"></path><path fill="#0D99FF" d="M278.613 79.651c-3.174 0-5.756-2.898-5.756-6.46 0-3.56 2.582-6.459 5.756-6.459 3.174 0 5.756 2.898 5.756 6.46 0 3.561-2.582 6.459-5.756 6.459Zm0-11.399c-2.427 0-4.402 2.217-4.402 4.94 0 2.724 1.975 4.94 4.402 4.94s4.402-2.216 4.402-4.94c-.001-2.724-1.975-4.94-4.402-4.94Z"></path><path fill="#fff" d="M87.562 90.233c-4.059 9.44-6.215 20.697-15.906 26.183-9.109 5.157-19.313 3.315-29.559 1.474-9.968-1.791-19.975-3.583-29.05 1.071-6.79 3.482-11.034 10.027-12.401 16.797-3.184 15.77 5.688 32.452 20.284 41.727 12.843 8.162 32.122 8.484 40.15 22.2 9.79 16.723-7.81 30.265-7.9 46.548-.04 7.129 4.04 13.989 9.993 18.868 14.729 12.072 36.255 8.912 53.06 16.979 21.818 10.476-1.039 19.548.988 33.35h203.334c2.317-10.806.107-24.134-11.098-29.151-14.174-6.348-33.419-.819-39.052-18.388-4.803-14.98 8.861-29.595 8.217-44.726-.253-5.963-2.756-12.116-8.081-15.856-3.567-2.506-8.072-3.74-11.968-5.839-12.614-6.796-18.817-20.81-9.324-29.651 11.854-11.039 24.627-21.284 21.413-36.516-5.736-27.175-32.345-27.928-49.325-21.264-21.343 8.377-37.417 6.261-52.697-12.176-6.996-8.44-12.451-17.9-20.56-25.543-7.975-7.518-16.928-10.853-25.561-10.853-14.689 0-28.459 9.647-34.957 24.766Z" clip-rule="evenodd" fill-rule="evenodd"></path><path fill="#CEC8FE" d="M237.678 244.266 244.163 316h-5.001l-9.451-71.734h7.967Z" clip-rule="evenodd" fill-rule="evenodd"></path><path fill="#6459E7" d="M244.951 238.421h-62.652v7.11h62.652v-7.11Z"></path><path fill="#CEC8FE" d="M182.299 244.266 175.304 316h5.546l9.293-71.734h-7.844Z" clip-rule="evenodd" fill-rule="evenodd"></path><path fill="#BCD3F0" d="M162.673 299.055c-1.259 6.127-1.96 9.607-2.104 10.439-.144.832-.144 2.999 0 6.502h-37.494c-1.057-2.196-.481-3.738 1.729-4.627 2.211-.889 9.71-3.547 22.498-7.974l2.338-8.091 13.033 3.751Z" clip-rule="evenodd" fill-rule="evenodd"></path><path fill="#191847" d="M160.569 309.494c-.144.832-.144 3 0 6.502h-37.494c-1.057-2.195-.481-3.737 1.729-4.626 2.211-.889 9.71-3.548 22.498-7.975.429 2.908 1.827 4.8 4.195 5.675 3.553 1.313 7.413.96 9.072.424Z" clip-rule="evenodd" fill-rule="evenodd"></path><path fill="#BCD3F0" d="m233.912 273.979 8.609 7.578 6.982 2.946-20.841 31.015c-2.297.076-3.466-.899-3.507-2.925-.041-2.026 1.691-10.238 5.196-24.638l-5.326-6.722 8.887-7.254Z" clip-rule="evenodd" fill-rule="evenodd"></path><path fill="#191847" d="m242.521 281.557 6.982 2.946-20.841 31.015c-2.297.076-3.466-.899-3.507-2.925-.041-2.026 1.691-10.239 5.196-24.639 3.161-.099 5.633-.617 7.417-1.555 1.783-.937 3.368-2.551 4.753-4.842Z" clip-rule="evenodd" fill-rule="evenodd"></path><path fill="#8FCAE7" d="M200.447 189.004h49.483c.979-2.165 1.469-3.77 1.469-4.817 0-1.046-.49-2.318-1.469-3.815 3.603-2.086 5.59-7.462 5.961-16.127.556-12.998 0-16.661 0-21.175 0-4.515-4.467-12.084-13.86-13.735-9.393-1.652-18.688-2-28.296-1.251-9.609.748-15.438 6.856-18.573 10.563-2.09 2.472-7.958 12.054-17.604 28.747l-27.987 3.079c-1.814.615-2.721 2.391-2.721 5.328v7.052h44.052l10.592-16.308c-1.072 8.544-1.677 13.98-1.815 16.308-.138 2.328.118 4.379.768 6.151Z" clip-rule="evenodd" fill-rule="evenodd"></path><path fill="#F0CCB5" d="M229.745 114.151c3.133-4.291 5.074-9.374 4.234-14.792-2.423-15.61-24.512-10.09-28.21-1.757-3.699 8.333-1.524 28.404 4.218 29.303 2.29.358 6.954-1.467 11.581-4.782l-3.412 5.948c-.807 4.078.963 6.552 5.31 7.425 4.347.873 7.808-1.403 10.382-6.829l-4.103-14.516Z"></path><path fill="#E86166" d="M209.521 88.813c2.414-.964 5.986-1.545 7.511-1.516-1.025-1.928-1.551-4.133-1.452-6.336.096-2.141.918-4.032 1.66-6.003.341-.909.739-1.817 1.383-2.547.656-.744 1.52-1.275 2.447-1.576.949-.308 1.961-.383 2.946-.274.436.048.836.204 1.264.271.44.07.627-.213.917-.505.7-.705 1.778-1.12 2.721-1.321 1.058-.225 2.179-.17 3.226.078 1.019.242 2.016.695 2.798 1.417.348.322.67.694.895 1.118.092.173.114.28.305.329.176.045.376.028.558.07 1.756.407 3.324 1.56 4.256 3.14.544.92.904 2.599 1 4.507.097 1.91-1.257 7.038-2.757 9.002-1.339 1.753-3.415 3.02-5.465 3.68 1.514 1.415 2.595 3.26 3.439 5.16a25.906 25.906 0 0 1 1.913 6.476c.337 2.129.539 4.395.196 6.541-.321 2.007-1.22 3.712-2.858 4.892-.75.541-1.57.971-2.398 1.371-.815.394-1.633.78-2.5 1.039-1.641.49-3.567.609-4.959-.566-.501-.424-1.059-.963-1.444-1.502-.138-.193-.222-.321-.091-.535.157-.256.428-.466.639-.675 1.207-1.19 1.891-2.692 1.954-4.409.063-1.741-.595-3.921-2.375-4.514-2.198-.732-4.446.549-6.25 1.716-1.028-2.683-2.877-5.013-5.561-6.039-2.969-1.135-6.257-.996-9.288-1.926-.79-.242-1.598-.525-2.213-1.11-.257-.245-.561-.565-.684-.908-.161-.452.113-.868.32-1.25 1.096-2.029 5.533-6.332 7.947-7.295Z"></path><path fill="#0D99FF" d="M222.906 140.869c3.64-1.471 6.107-3.862 5.51-5.341-.598-1.479-4.034-1.486-7.674-.015-3.641 1.471-6.107 3.862-5.51 5.341.598 1.479 4.033 1.486 7.674.015Z"></path><path fill="#D3AA90" d="M222.1 141.067c1.852-.393 3.472-1.308 4.858-2.744 1.387-1.436 2.233-2.446 2.538-3.028-.014-5.646-.014-9.203 0-10.672.021-2.202-2.826-4.482-4.495-5.54-1.67-1.059-3.616-1.885-4.719-1.377-.735.339-1.098.806-1.089 1.401-.839-.018-1.428.165-1.767.548-.339.384-.497.915-.475 1.592-.548.117-.947.342-1.196.677-.248.336-.216.888.096 1.658-.489-.115-.818.233-.988 1.041-.254 1.214 1.174 1.799 2.088 2.664.915.865 3.024 1.156 3.128 3.274.069 1.411.743 4.913 2.021 10.506Z" clip-rule="evenodd" fill-rule="evenodd"></path><path fill="#F0CCB5" d="M219.644 141.912c2.007-.408 3.795-1.081 5.363-2.019 1.568-.938 2.592-1.878 3.073-2.821-.013-5.646-.013-9.203 0-10.671.018-2.203-2.654-3.909-4.162-4.968-1.508-1.059-3.165-2.458-4.162-1.949-.665.339-.993.806-.984 1.4-.758-.018-1.29.165-1.596.549-.307.384-.45.914-.429 1.592-.496.116-.856.342-1.081.677-.224.335-.195.887.087 1.657-.442-.114-.74.233-.893 1.042-.23 1.213 1.06 1.798 1.887 2.664.826.865 1.847 2.346 1.94 4.463.063 1.412.382 4.206.957 8.384Z" clip-rule="evenodd" fill-rule="evenodd"></path><path fill="#fff" d="M149.639 183.102c1.595 0 2.888-2.885 2.888-6.443 0-3.559-1.293-6.443-2.888-6.443s-2.888 2.884-2.888 6.443c0 3.558 1.293 6.443 2.888 6.443Z"></path><path fill="#6459E7" d="M137.421 179.102c.728 0 1.437.043 2.12.126l.339.044.334.051c.609.099 1.192.229 1.745.387l.298.089c2.95.918 4.94 2.65 4.94 4.635 0 .303-.047.6-.136.889h-19.28a3.008 3.008 0 0 1-.135-.889c0-1.985 1.989-3.717 4.939-4.635l.299-.089a15.264 15.264 0 0 1 1.744-.387l.334-.051.339-.044a17.592 17.592 0 0 1 2.12-.126Z" clip-rule="evenodd" fill-rule="evenodd"></path><path fill="#F0CCB5" d="M151.894 174.908c-7.202-.189-11.932-.061-14.192.384-3.391.667-9.052 3.41-9.484 4.105-.431.695-.626 1.811 0 2.228.627.417 2.186.096 3.145-.298.958-.393 3.975-1.897 4.896-1.93.614-.022 1.935-.022 3.963 0l4.788 1.154 6.85 2.325c.178-1.701.269-3.011.273-3.931.004-.92-.076-2.266-.239-4.037Z" clip-rule="evenodd" fill-rule="evenodd"></path><path fill="#0D99FF" d="M226.136 167.102c1.792 6.587 3.898 11.122 6.318 13.607 2.421 2.485 5.108 4.073 8.061 4.766h-11.751l-2.628-18.373Z" clip-rule="evenodd" fill-rule="evenodd"></path><path fill="#DDEFF8" d="m201.516 191.048-1.995 5.384c-22.124 10.127-35.97 16.799-41.539 20.016-8.353 4.825-10.18 6.943-12.869 24.052-1.793 11.406-5.281 31.116-10.463 59.129h28.182l12.471-50.576 45.087 41.348 19.57-19.96-31.229-31.924h26.27c10.443 0 22.944-10.581 17.81-30.485-3.423-13.269-4.917-18.931-4.481-16.984h-46.814Z" clip-rule="evenodd" fill-rule="evenodd"></path><path stroke-linecap="round" stroke-width=".534" stroke="#0C8751" d="m229.176 137.779 13.654 20.159"></path><path fill="#0D99FF" d="m202.686 159.229-1.192 7.316-10.728 16.557 11.92-23.873Z" clip-rule="evenodd" fill-rule="evenodd"></path><path fill="#ADA7F9" d="M108.76 112.008h78.648l5.545 50.21h-78.648l-5.545-50.21Z" clip-rule="evenodd" fill-rule="evenodd"></path><path fill="#CEC8FE" d="M103.873 112.008h78.647l5.545 50.21h-78.648l-5.544-50.21Z" clip-rule="evenodd" fill-rule="evenodd"></path><path stroke-width=".534" stroke="#4A2CB1" d="M97.493 191.964 83.212 316h5.682l16.479-124.036h-7.88ZM270.296 191.964 286.923 316h5.685l-14.361-124.036h-7.951Z" clip-rule="evenodd"></path><path fill="#BCD3F0" d="M290.717 185.323H83.212v7.554h207.505v-7.554Z"></path><path fill="#ADA7F9" d="M156.083 162.218h-13.775v21.772h13.775v-21.772Z"></path><path fill="#ADA7F9" d="M207.182 182.212h-81.314v3.111h81.314v-3.111Z"></path><path fill="#6459E7" d="M207.181 182.212h-33.769v3.111h33.769v-3.111Z"></path><path stroke-width=".534" stroke="#0F6F9F" d="m205.96 207.079-29.262 13.259"></path><path fill="#0F6F9F" d="M169.278 240.563c.794 1.969 1.567 3.498 2.321 4.589.753 1.09 1.988 2.39 3.704 3.901l-4.523 18.104-1.502-26.594Z" clip-rule="evenodd" fill-rule="evenodd"></path><path fill="#6570FF" d="m54.71 94.707-10.513 8.282.428.545 10.514-8.283-.429-.544ZM62.533 98.434l-1.33 8.438.688.097 1.33-8.438-.688-.097ZM81.182 105.483l-8.542-9.32-.521.475 8.542 9.321.521-.476ZM40.97 90.883l10.619-.613-.03-.703-10.618.613.03.703ZM52.668 81.473l-9.326-4.254-.303.637 9.327 4.254.302-.637ZM60.037 76.277l-6.03-12.804-.633.306 6.03 12.803.633-.305ZM64.637 74.724l1.131-7.47-.69-.094-1.13 7.471.689.093ZM71.695 77.71l4.5-7.678-.602-.344-4.5 7.678.602.344ZM76.472 82.805l12.402-3.848-.198-.669-12.401 3.849.197.668ZM75.91 90.342l9.044 3.073.238-.663-9.045-3.073-.238.663Z" clip-rule="evenodd" fill-rule="evenodd"></path><path fill="#6570FF" d="M43.169 99.907a3.517 3.517 0 0 1 3.741 3.375c.078 1.98-1.471 3.678-3.46 3.794a3.517 3.517 0 0 1-3.741-3.376c-.078-1.979 1.471-3.678 3.46-3.793Z"></path><path fill="#6570FF" d="M43.443 106.901a3.345 3.345 0 0 1-3.56-3.211c-.073-1.883 1.4-3.499 3.292-3.609a3.346 3.346 0 0 1 3.56 3.211c.074 1.884-1.4 3.5-3.292 3.609Zm-3.91-3.19a3.688 3.688 0 0 0 3.924 3.539c2.085-.121 3.71-1.902 3.628-3.978a3.688 3.688 0 0 0-3.923-3.54c-2.086.122-3.71 1.903-3.628 3.979Z" clip-rule="evenodd" fill-rule="evenodd"></path><path fill="#6570FF" d="M82.098 104.168a3.165 3.165 0 0 1 3.368 3.038c.07 1.782-1.324 3.31-3.114 3.414a3.165 3.165 0 0 1-3.367-3.038c-.07-1.782 1.324-3.31 3.113-3.414Z"></path><path fill="#6570FF" d="M82.346 110.445a2.994 2.994 0 0 1-3.186-2.874c-.066-1.685 1.253-3.131 2.946-3.23a2.995 2.995 0 0 1 3.185 2.874c.067 1.686-1.252 3.132-2.945 3.23Zm-3.536-2.854a3.336 3.336 0 0 0 3.55 3.202c1.886-.109 3.355-1.72 3.281-3.598a3.336 3.336 0 0 0-3.549-3.202c-1.886.109-3.356 1.72-3.282 3.598Z" clip-rule="evenodd" fill-rule="evenodd"></path><path fill="#CEC8FE" d="M63.4 71.073c8.75-.508 16.12 6.142 16.462 14.852.343 8.71-6.472 16.183-15.222 16.691-8.75.508-16.12-6.141-16.462-14.851-.343-8.71 6.472-16.184 15.222-16.692Z"></path><path fill="#6570FF" d="M90.872 75.181a3.4 3.4 0 0 1 3.617 3.263c.075 1.914-1.422 3.555-3.344 3.667a3.4 3.4 0 0 1-3.617-3.263c-.075-1.914 1.422-3.555 3.344-3.667Z"></path><path fill="#6570FF" d="M91.14 81.937a3.229 3.229 0 0 1-3.436-3.099c-.071-1.817 1.35-3.377 3.176-3.483a3.229 3.229 0 0 1 3.435 3.1c.072 1.817-1.35 3.376-3.176 3.482Zm-3.786-3.079a3.57 3.57 0 0 0 3.799 3.427c2.019-.117 3.591-1.841 3.512-3.851a3.57 3.57 0 0 0-3.798-3.427c-2.02.117-3.592 1.841-3.513 3.851Z" clip-rule="evenodd" fill-rule="evenodd"></path><path fill="#6570FF" d="M52.544 58.52a3.868 3.868 0 0 1 4.116 3.712c.086 2.178-1.618 4.046-3.806 4.173a3.868 3.868 0 0 1-4.115-3.713c-.086-2.178 1.618-4.046 3.805-4.173Z"></path><path fill="#6570FF" d="M52.846 66.23a3.697 3.697 0 0 1-3.933-3.55c-.082-2.08 1.546-3.866 3.637-3.987a3.697 3.697 0 0 1 3.934 3.548c.082 2.082-1.547 3.867-3.638 3.989ZM48.563 62.7a4.04 4.04 0 0 0 4.297 3.877c2.284-.132 4.063-2.083 3.974-4.357a4.04 4.04 0 0 0-4.298-3.877c-2.284.133-4.063 2.083-3.973 4.357Z" clip-rule="evenodd" fill-rule="evenodd"></path><path fill="#6570FF" d="M40.737 88.343a2.227 2.227 0 0 1 2.37 2.138 2.33 2.33 0 0 1-2.191 2.403 2.227 2.227 0 0 1-2.37-2.138 2.33 2.33 0 0 1 2.191-2.403Z"></path><path fill="#6570FF" d="M40.909 92.71a2.056 2.056 0 0 1-2.188-1.975 2.151 2.151 0 0 1 2.023-2.218 2.056 2.056 0 0 1 2.188 1.974 2.151 2.151 0 0 1-2.023 2.218Zm-2.538-1.954a2.398 2.398 0 0 0 2.551 2.302 2.509 2.509 0 0 0 2.36-2.587 2.398 2.398 0 0 0-2.552-2.302 2.509 2.509 0 0 0-2.36 2.587Z" clip-rule="evenodd" fill-rule="evenodd"></path><path fill="#6570FF" d="M56.17 88.214c.663-.039 1.22.412 1.242 1.006.024.594-.495 1.107-1.158 1.145-.663.039-1.22-.412-1.243-1.006-.024-.594.495-1.107 1.158-1.145Z"></path><path fill="#6570FF" d="M56.248 90.19c-.585.034-1.042-.36-1.061-.841-.02-.481.406-.928.99-.961.584-.034 1.042.36 1.06.841.02.481-.405.927-.99.962Zm-1.412-.821c.028.707.683 1.213 1.425 1.17.742-.043 1.355-.623 1.327-1.33-.028-.707-.683-1.213-1.425-1.17-.742.043-1.354.623-1.327 1.33Z" clip-rule="evenodd" fill-rule="evenodd"></path><path fill="#6570FF" d="M60.872 92.19a2.813 2.813 0 0 1 2.993 2.7c.063 1.584-1.177 2.942-2.767 3.035a2.813 2.813 0 0 1-2.994-2.7c-.062-1.584 1.177-2.943 2.768-3.035Z"></path><path fill="#6570FF" d="M61.09 97.75a2.642 2.642 0 0 1-2.811-2.536c-.059-1.487 1.105-2.763 2.6-2.85a2.642 2.642 0 0 1 2.81 2.536c.059 1.487-1.105 2.764-2.599 2.85Zm-3.161-2.516a2.984 2.984 0 0 0 3.175 2.865c1.687-.098 3.002-1.54 2.936-3.22a2.984 2.984 0 0 0-3.175-2.864c-1.688.098-3.002 1.54-2.936 3.22Z" clip-rule="evenodd" fill-rule="evenodd"></path><path fill="#6570FF" d="M70.973 89.072a2.227 2.227 0 0 1 2.37 2.138 2.33 2.33 0 0 1-2.191 2.402 2.227 2.227 0 0 1-2.37-2.137 2.33 2.33 0 0 1 2.191-2.403Z"></path><path fill="#6570FF" d="M71.145 93.438a2.056 2.056 0 0 1-2.188-1.974 2.151 2.151 0 0 1 2.023-2.218 2.056 2.056 0 0 1 2.188 1.974 2.151 2.151 0 0 1-2.023 2.218Zm-2.538-1.953a2.398 2.398 0 0 0 2.551 2.302 2.509 2.509 0 0 0 2.36-2.587 2.398 2.398 0 0 0-2.552-2.302 2.509 2.509 0 0 0-2.36 2.587Z" clip-rule="evenodd" fill-rule="evenodd"></path><path fill="#6570FF" d="M67.004 75.053a1.993 1.993 0 0 1 2.12 1.913 2.085 2.085 0 0 1-1.96 2.15 1.993 1.993 0 0 1-2.12-1.913 2.085 2.085 0 0 1 1.96-2.15Z"></path><path fill="#6570FF" d="M67.157 78.94a1.822 1.822 0 0 1-1.938-1.748 1.906 1.906 0 0 1 1.792-1.965 1.822 1.822 0 0 1 1.938 1.749 1.906 1.906 0 0 1-1.792 1.965Zm-2.289-1.727a2.164 2.164 0 0 0 2.302 2.076 2.264 2.264 0 0 0 2.13-2.334 2.164 2.164 0 0 0-2.303-2.077 2.264 2.264 0 0 0-2.129 2.335Z" clip-rule="evenodd" fill-rule="evenodd"></path><path fill="#6570FF" d="M63.278 82a1.524 1.524 0 0 1 1.622 1.463 1.595 1.595 0 0 1-1.5 1.644 1.524 1.524 0 0 1-1.621-1.463 1.595 1.595 0 0 1 1.5-1.645Z"></path><path fill="#6570FF" d="M63.393 84.932a1.353 1.353 0 0 1-1.44-1.299 1.416 1.416 0 0 1 1.332-1.46 1.353 1.353 0 0 1 1.44 1.3 1.415 1.415 0 0 1-1.332 1.459Zm-1.79-1.279a1.695 1.695 0 0 0 1.804 1.628 1.774 1.774 0 0 0 1.668-1.83 1.695 1.695 0 0 0-1.804-1.626 1.773 1.773 0 0 0-1.667 1.828Z" clip-rule="evenodd" fill-rule="evenodd"></path><path fill="#6570FF" d="M71.68 82.4c.597-.034 1.1.42 1.123 1.013a1.104 1.104 0 0 1-1.038 1.139 1.055 1.055 0 0 1-1.123-1.013A1.104 1.104 0 0 1 71.68 82.4Z"></path><path fill="#6570FF" d="M71.758 84.377a.884.884 0 0 1-.94-.849.925.925 0 0 1 .87-.954c.5-.029.92.351.94.849a.925.925 0 0 1-.87.954Zm-1.29-.829c.027.69.61 1.218 1.304 1.177a1.283 1.283 0 0 0 1.206-1.322 1.226 1.226 0 0 0-1.304-1.177 1.283 1.283 0 0 0-1.206 1.322Z" clip-rule="evenodd" fill-rule="evenodd"></path><path fill="#6570FF" d="M56.793 77.414a.82.82 0 0 1 .873.788.859.859 0 0 1-.807.886.82.82 0 0 1-.873-.788.859.859 0 0 1 .807-.886Z"></path><path fill="#6570FF" d="M56.852 78.913a.65.65 0 0 1-.691-.623.68.68 0 0 1 .639-.701.65.65 0 0 1 .69.623.68.68 0 0 1-.638.701Zm-1.042-.603a.992.992 0 0 0 1.055.952c.561-.033.998-.512.976-1.07a.992.992 0 0 0-1.055-.952c-.56.033-.998.512-.976 1.07ZM61.378 111.714a2.355 2.355 0 0 1-2.505-2.26 2.462 2.462 0 0 1 2.316-2.539 2.353 2.353 0 0 1 2.505 2.259 2.464 2.464 0 0 1-2.316 2.54Zm-3.205-2.219a3.039 3.039 0 0 0 3.232 2.916c1.718-.1 3.056-1.567 2.989-3.277a3.039 3.039 0 0 0-3.232-2.917c-1.718.1-3.056 1.567-2.99 3.278ZM87.562 96.93a2.354 2.354 0 0 1-2.505-2.259 2.463 2.463 0 0 1 2.316-2.54 2.354 2.354 0 0 1 2.505 2.26 2.463 2.463 0 0 1-2.316 2.54Zm-3.205-2.218a3.038 3.038 0 0 0 3.232 2.916c1.718-.1 3.056-1.567 2.989-3.277a3.038 3.038 0 0 0-3.232-2.916c-1.718.1-3.056 1.567-2.99 3.277ZM41.014 78.481a1.768 1.768 0 0 1-1.881-1.697 1.85 1.85 0 0 1 1.74-1.907c1-.058 1.841.702 1.88 1.697a1.85 1.85 0 0 1-1.739 1.907Zm-2.581-1.656a2.452 2.452 0 0 0 2.608 2.353 2.565 2.565 0 0 0 2.413-2.644 2.452 2.452 0 0 0-2.61-2.354 2.565 2.565 0 0 0-2.411 2.645ZM78.008 69.804a3.057 3.057 0 0 1-3.253-2.935c-.068-1.721 1.279-3.198 3.008-3.298a3.058 3.058 0 0 1 3.252 2.934c.068 1.722-1.278 3.198-3.007 3.299Zm-3.954-2.894a3.741 3.741 0 0 0 3.981 3.59c2.116-.122 3.764-1.929 3.68-4.035a3.741 3.741 0 0 0-3.98-3.591c-2.115.122-3.763 1.93-3.68 4.036ZM65.78 67.147a1.768 1.768 0 0 1-1.88-1.697 1.85 1.85 0 0 1 1.739-1.907c1-.058 1.842.701 1.88 1.697a1.85 1.85 0 0 1-1.739 1.907ZM63.2 65.49a2.452 2.452 0 0 0 2.609 2.354 2.565 2.565 0 0 0 2.412-2.645 2.452 2.452 0 0 0-2.609-2.353A2.565 2.565 0 0 0 63.2 65.49Z" clip-rule="evenodd" fill-rule="evenodd"></path></svg>