<svg width="255" height="288" fill="none" xmlns="http://www.w3.org/2000/svg"><path d="M10.105 9.04h124.848v256.807H10.105V9.04z" fill="url(#paint0_linear)"/><path d="M80.937 70.62c2.893-3.144 4.913-7.05 4.754-11.513-.459-12.858-18.528-10.664-22.25-4.313-3.721 6.351-3.879 22.787.599 24.102 1.785.524 5.663-.472 9.651-2.675L70.638 93.37l14.478.506-4.179-23.255z" fill="#E1BD9B"/><path d="M69.43 47.992c1.998-.53 4.877-.632 6.08-.452-.63-1.659-.84-3.49-.556-5.255.277-1.715 1.103-3.155 1.874-4.668.355-.697.754-1.389 1.331-1.911a4.326 4.326 0 012.083-1.019 5.51 5.51 0 012.355.08c.34.084.642.25.974.349.341.1.515-.108.772-.314.62-.496 1.51-.72 2.275-.786.857-.072 1.739.087 2.543.394.784.299 1.53.766 2.08 1.428.245.295.466.628.604.992.056.15.064.237.21.297.135.054.295.061.435.114 1.35.507 2.482 1.597 3.071 2.965.344.799.472 2.188.37 3.736-.102 1.548-1.653 5.543-3.022 6.972-1.223 1.275-2.982 2.084-4.665 2.405 1.064 1.297 1.747 2.894 2.237 4.51.532 1.757.835 3.574.907 5.416.067 1.75.015 3.598-.457 5.292-.441 1.584-1.311 2.866-2.717 3.65-.644.359-1.332.621-2.024.859-.681.234-1.365.461-2.074.581-1.343.227-2.878.126-3.868-.963-.357-.393-.747-.885-1.001-1.358-.092-.17-.146-.282-.023-.44.148-.191.382-.333.57-.48a5.153 5.153 0 001.956-3.353c.213-1.397-.104-3.22-1.456-3.881-1.67-.815-3.566-.013-5.102.743-.562-2.267-1.806-4.334-3.832-5.436-2.242-1.219-4.854-1.444-7.164-2.503-.602-.276-1.214-.587-1.646-1.122-.18-.223-.39-.512-.456-.802-.085-.38.17-.687.37-.974 1.056-1.523 4.967-4.536 6.966-5.066z" fill="#191847"/><path d="M90.513 131.408l-20.3 71.1L55.4 254.913H44.597l15.74-123.505h30.176z" fill="#0C8751"/><path d="M95.943 131.408c.47 36.646 2.07 56.634 2.564 59.963.493 3.329 7.947 24.51 22.364 63.542H109.68c-18.354-37.445-28.6-58.625-30.737-63.542-2.137-4.917-8.733-24.905-18.667-59.963h35.667z" fill="#1FB573"/><path d="M121.871 265.059l-.56-11.782h-11.759c-5.576 3.928-12.855 7.107-21.838 9.538v2.244h21.278l7.28-1.122v1.122h5.599zM56.916 265.059l-.56-11.782h-11.76c-5.575 3.928-12.855 7.107-21.838 9.538v2.244h21.279l7.28-1.122v1.122h5.599z" fill="#191847"/><path d="M41.818 120.161l-18.735-8.249c-3.282-3.279-6.452-5.772-9.508-7.477-.914-.292-2.475-.38-.81 2.06 1.666 2.439 3.31 5.081 2.644 5.936-.666.855-2.594-.089-3.356 1.301-.508.927 2.742 2.036 9.75 3.327l14.032 10.786 5.983-7.684zm75.744 2.272l-10.596 2.108c10.656 19.91 16.37 30.462 17.143 31.656 1.74 2.688.117 7.614-.483 10.208 3.762.878 2.278-4.798 7.038-3.613 4.345 1.082 8.029 3.858 12.08.114.498-.461.863-1.899-.835-2.637-4.231-1.839-10.482-5.282-11.496-6.618-1.382-1.823-5.666-12.229-12.851-31.218z" fill="#E1BD9B"/><path d="M78.159 82.75l-4.472-.768c-9.74 9.465-13.715 32.202-20.206 35.212-6.137 2.846-14.836.092-25.177-3.626l-3.167 7.087c9.396 10.183 29.412 18.785 37.525 13.874 12.972-7.851 15.967-35.895 15.497-51.778z" fill="#FF9B21"/><path d="M97.725 139.087H58.078c-1.811 0-1.47-2.617-1.208-3.938 3.022-15.241 14.821-31.671 14.821-53.367l11.436-1.794c9.46 15.22 12.73 33.959 14.598 59.099z" fill="#fff"/><path d="M101.655 123.637c8.055 14.579 14.825 25.075 20.311 31.488l8.282-1.627c-5.335-33.2-20.784-57.703-46.347-73.51H79.39c-10.231 34.997-13.052 58.315-8.462 69.955h35.566c-.562-8.517-2.367-17.524-4.838-26.306z" fill="#F9C346"/><path fill-rule="evenodd" clip-rule="evenodd" d="M250.121 137.134c-7.351 25.849-15.506 49.249-21.125 66.19-6.237 16.939-9.937 27.416-22.637 27.416-11.471 0-29.651-10.477-39.254-27.416-10.218-16.941-11.86-40.341-4.509-66.19 7.352-25.848 15.508-49.25 21.127-66.189 6.236-16.94 9.935-27.416 22.636-27.416 11.469 0 29.651 10.477 39.253 27.416 10.22 16.94 11.861 40.341 4.509 66.189z" fill="#81BFDD"/><path fill-rule="evenodd" clip-rule="evenodd" d="M209.514 261.552h-1.262V43.529h1.262v218.023z" fill="#58ABD3"/><path fill-rule="evenodd" clip-rule="evenodd" d="M208.622 84.548l-24.155-12.522.795-.892 24.155 12.522-.795.892zM208.732 128.969l-36.303-18.736.782-.898 36.303 18.735-.782.899zM208.138 186.027l-48.718-25.446.793-.896 48.719 25.446-.794.896zM209.043 105.252l-.791-.89 40.662-20.98.792.89-40.663 20.98zM208.461 157.547l-.791-.892 40.663-20.979.791.891-40.663 20.98zM209.161 214.021l-.715-.921 18.119-8.119.715.921-18.119 8.119z" fill="#58ABD3"/><path fill-rule="evenodd" clip-rule="evenodd" d="M232.309 287.116a3.416 3.416 0 003.418-3.415v-33.022a3.416 3.416 0 00-3.418-3.415h-47.824a3.416 3.416 0 00-3.416 3.415v33.022a3.416 3.416 0 003.416 3.415h47.824z" fill="#9CCEE7"/><path fill-rule="evenodd" clip-rule="evenodd" d="M.882 0v265.847h9.223V9.04h124.848v256.807h9.32V0H.883z" fill="#ADA7F9"/><defs><linearGradient id="paint0_linear" x1="134.953" y1="137.443" x2="10.105" y2="137.443" gradientUnits="userSpaceOnUse"><stop stop-color="#6A72FE"/><stop offset="1" stop-color="#4A2CB1"/></linearGradient></defs></svg>