<svg width="442" height="288" viewBox="0 0 442 288" fill="none" xmlns="http://www.w3.org/2000/svg">
<path d="M146.437 0.603516V134.98H0V0.603516H146.437Z" fill="#C8E6F5"/>
<path fill-rule="evenodd" clip-rule="evenodd" d="M25.8494 99.0967H67.2085V114.581C67.2085 125.983 57.9499 135.226 46.5289 135.226C35.1079 135.226 25.8494 125.983 25.8494 114.581V99.0967Z" fill="#81BFDD"/>
<path fill-rule="evenodd" clip-rule="evenodd" d="M35.5285 96.6032C38.5272 86.8562 17.9244 85.9626 12.3269 91.1885C14.035 99.2603 32.5299 106.35 35.5285 96.6032Z" fill="#9CCEE7"/>
<path fill-rule="evenodd" clip-rule="evenodd" d="M42.4502 91.5143C54.3687 88.3346 42.0551 66.474 33.1029 64.0569C25.9243 71.0202 30.5317 94.694 42.4502 91.5143Z" fill="#9CCEE7"/>
<path fill-rule="evenodd" clip-rule="evenodd" d="M49.5965 93.4998C46.5978 103.247 67.2006 104.14 72.7981 98.9145C71.09 90.8428 52.5951 83.7528 49.5965 93.4998Z" fill="#A3D6EE"/>
<path fill-rule="evenodd" clip-rule="evenodd" d="M36.3143 88.6368C43.9495 80.9996 25.1312 69.8661 17.3076 71.967C14.9031 80.3861 28.6791 96.2741 36.3143 88.6368Z" fill="#B4DEF2"/>
<path fill-rule="evenodd" clip-rule="evenodd" d="M55.2111 92.9629C60.1023 101.902 75.0535 87.6236 75.2026 79.9454C68.2406 75.5735 50.3199 84.0235 55.2111 92.9629Z" fill="#81BFDD"/>
<path fill-rule="evenodd" clip-rule="evenodd" d="M43.2019 100.962C53.0102 95.7659 37.7573 79.0512 29.4117 78.734C24.5318 86.2969 33.3935 106.158 43.2019 100.962Z" fill="#81BFDD"/>
<path fill-rule="evenodd" clip-rule="evenodd" d="M47.634 94.7616C60.7352 99.8779 63.958 71.2802 57.3201 62.9824C46.0649 64.5808 34.5328 89.6454 47.634 94.7616Z" fill="#81BFDD"/>
<path fill-rule="evenodd" clip-rule="evenodd" d="M47.0278 102.82C58.4498 107.492 61.7018 82.5832 55.9992 75.2365C46.0978 76.4544 35.6058 98.1487 47.0278 102.82Z" fill="#9CCEE7"/>
<path d="M438.661 228.78H123.326C118.648 228.78 114.856 224.989 114.856 220.313V113.166C114.856 108.489 118.649 104.698 123.326 104.698H438.661C443.339 104.698 447.131 108.49 447.131 113.166V220.313C447.131 224.99 443.339 228.78 438.661 228.78Z" fill="url(#paint0_linear)"/>
<path d="M82.7388 252.229H106.603C111.281 252.229 115.073 248.438 115.073 243.762V160.9C115.073 156.223 111.28 152.433 106.603 152.433H82.7388C78.0607 152.433 74.269 156.224 74.269 160.9V243.762C74.269 248.438 78.0607 252.229 82.7388 252.229Z" fill="url(#paint1_linear)"/>
<path d="M437.264 197.656H124.638C119.235 197.656 114.855 202.035 114.855 207.437V242.449C114.855 247.85 119.235 252.229 124.638 252.229H437.264C442.667 252.229 447.047 247.85 447.047 242.449V207.437C447.047 202.035 442.666 197.656 437.264 197.656Z" fill="url(#paint2_linear)"/>
<path d="M196.094 144.455H176.547C176.31 144.455 176.118 144.262 176.118 144.025V127.089H176.977V143.596H196.094V144.455Z" fill="white"/>
<path d="M204.686 71.0025C208.086 67.0115 210.387 62.1205 210.003 56.6401C208.895 40.8493 186.912 44.3231 182.636 52.2929C178.36 60.2627 178.868 80.4788 184.394 81.9033C186.598 82.4713 191.293 81.0798 196.072 78.1998L193.072 99.4177H210.782L204.686 71.0025Z" fill="#F0CCB5"/>
<path d="M205.919 74.4954C208.14 64.6075 214.467 57.8673 213.5 53.4478C212.856 50.5015 211.139 48.6693 208.349 47.9512C206.907 42.1099 202.253 39.6254 194.389 40.4976C182.592 41.806 175.392 46.7083 178.502 57.4957C181.36 57.4957 184.81 56.4614 189.581 58.2336C191.095 58.7959 192.178 60.5397 192.83 63.465H194.986C197.078 59.9935 199.142 58.7178 201.176 59.6379C203.21 60.5581 203.672 62.7931 202.563 66.343L203.625 74.4954H205.919Z" fill="#191847"/>
<path d="M111.274 278.725C120.655 257.98 127.439 239.916 130.162 230.386C134.825 214.067 138.372 199.708 139.268 194.345C141.406 181.558 122.823 180.813 120.367 187.168C116.649 196.787 110.158 228.391 102.36 276.127L111.274 278.725ZM220.086 213.622C211.479 210.222 181.338 199.585 166.801 196.575C162.624 195.711 158.575 194.907 154.769 194.181C143.454 192.023 137.592 212.418 148.49 213.985C175.628 217.887 214.101 221.917 217.394 222.369C222.008 223.003 225.495 215.758 220.086 213.622Z" fill="#F0CCB5"/>
<path d="M147.824 188.569L194.379 164.889V159.734H188.843C143.803 171.202 120.787 178.551 119.797 181.781C119.786 181.816 119.776 181.851 119.767 181.886C119.745 181.915 119.722 181.945 119.7 181.975C110.774 194.241 105.429 254.122 103.674 258.606L120.778 261.155C127.321 236.914 148.254 220.026 147.698 190.992C147.848 190.14 147.886 189.333 147.824 188.569Z" fill="#EE9E2F"/>
<path d="M190.511 202.632C194.771 201.78 198.694 201.019 202.05 200.431C223.732 196.632 230.054 185.035 226.316 159.734H186.368C179.843 161.607 145.93 175.817 128.335 183.375C116.689 188.377 120.36 206.409 126.955 211.102C126.991 211.39 127.11 211.586 127.321 211.673C162.797 226.364 190.861 218.656 200.237 221.119L204.573 207.451L190.511 202.632Z" fill="#F9C346"/>
<path d="M217.147 211.462C219.472 211.684 221.122 212.033 222.098 212.508C223.285 213.086 224.92 214.126 227.005 215.629C226.333 217.004 220.296 229.357 208.894 252.688C205.235 252.099 203.784 250.705 204.544 248.506C205.304 246.307 205.916 244.472 206.382 243L207.107 222.031C207.121 221.627 207.46 221.311 207.864 221.325C207.871 221.326 207.878 221.326 207.885 221.326L211.117 221.529C212.953 220.045 214.165 218.703 214.752 217.502C215.228 216.526 215.492 214.986 215.543 212.883L215.543 212.883C215.562 212.076 216.234 211.437 217.042 211.456C217.077 211.457 217.112 211.459 217.147 211.462Z" fill="#191847"/>
<path d="M115.543 274.879C116.362 277.064 116.772 278.699 116.772 279.783C116.772 281.102 116.552 283.027 116.112 285.558C114.58 285.558 100.815 285.558 74.8175 285.558C73.7444 282.014 74.3639 280.1 76.6759 279.817C78.9879 279.535 80.9085 279.28 82.4377 279.052L101.631 270.503C102 270.338 102.433 270.504 102.598 270.873C102.601 270.879 102.603 270.885 102.606 270.892L103.84 273.882C105.98 274.88 107.719 275.379 109.057 275.379C110.145 275.379 111.646 274.94 113.562 274.063L113.562 274.063C114.297 273.726 115.166 274.048 115.503 274.783C115.517 274.815 115.531 274.847 115.543 274.879Z" fill="#191847"/>
<path d="M148.986 139.703L122.457 128.062C117.81 123.435 113.322 119.918 108.995 117.511C107.7 117.1 105.489 116.975 107.848 120.418C110.207 123.861 112.534 127.588 111.591 128.794C110.648 130.001 107.918 128.669 106.839 130.631C106.12 131.939 110.723 133.504 120.647 135.325L140.515 150.546L148.986 139.703ZM256.24 142.909L241.237 145.883C256.325 173.978 264.416 188.868 265.511 190.554C267.975 194.347 265.676 201.298 264.827 204.958C270.153 206.197 268.053 198.187 274.793 199.86C280.945 201.386 286.162 205.304 291.899 200.02C292.604 199.371 293.12 197.34 290.715 196.299C284.724 193.704 275.873 188.846 274.438 186.96C272.481 184.388 266.415 169.705 256.24 142.909Z" fill="#F0CCB5"/>
<path d="M200.46 86.8238L194.129 85.7388C180.339 99.104 174.712 131.213 165.523 135.464C156.834 139.482 144.518 135.594 129.877 130.343L125.394 140.352C138.696 154.731 167.034 166.879 178.521 159.944C196.886 148.856 201.126 109.254 200.46 86.8238Z" fill="#0C8751"/>
<path d="M228.058 166.318C202.673 166.318 184.001 166.318 172.041 166.318C169.481 166.318 169.963 162.625 170.333 160.762C174.604 139.254 191.274 116.07 191.274 85.455L207.432 82.9233C220.797 104.4 225.419 130.842 228.058 166.318Z" fill="white"/>
<path d="M233.645 144.543C245.065 165.124 254.664 179.942 262.442 188.996L274.183 186.698C266.62 139.83 244.717 105.238 208.475 82.9233H208.29H202.077C187.571 132.329 183.572 165.248 190.08 181.68H240.505C239.707 169.656 237.149 156.941 233.645 144.543V144.543Z" fill="#1FB573"/>
<path d="M178.095 162.9H140.668V168.341H178.095V162.9Z" fill="#191847"/>
<path d="M88.7712 129.924H135.281L146.004 168.341H99.4943L88.7712 129.924Z" fill="#191847"/>
<defs>
<linearGradient id="paint0_linear" x1="114.856" y1="166.739" x2="447.131" y2="166.739" gradientUnits="userSpaceOnUse">
<stop stop-color="#6A72FE"/>
<stop offset="1" stop-color="#453ACA"/>
</linearGradient>
<linearGradient id="paint1_linear" x1="88.6537" y1="192.829" x2="121.438" y2="201.483" gradientUnits="userSpaceOnUse">
<stop stop-color="#B3B7FE"/>
<stop offset="1" stop-color="#686FFE"/>
</linearGradient>
<linearGradient id="paint2_linear" x1="-13.0605" y1="224.802" x2="592.721" y2="239.326" gradientUnits="userSpaceOnUse">
<stop stop-color="#B3B7FE"/>
<stop offset="1" stop-color="#6A71FD"/>
</linearGradient>
</defs>
</svg>
