<svg width="149" height="50" fill="none" xmlns="http://www.w3.org/2000/svg"><g clip-path="url(#a)"><path d="M136.521 0H12.467c-.452 0-.9 0-1.35.002-.377.003-.752.01-1.133.016C9.156.028 8.33.1 7.512.234a8.219 8.219 0 0 0-2.343.773A7.939 7.939 0 0 0 1.72 4.46a8.14 8.14 0 0 0-.77 2.347 16.022 16.022 0 0 0-.221 2.469c-.012.378-.012.758-.019 1.135v28.507c.007.382.008.752.019 1.136.01.827.084 1.652.222 2.468.135.818.395 1.61.77 2.35a7.655 7.655 0 0 0 1.452 1.987 7.736 7.736 0 0 0 1.995 1.454 8.259 8.259 0 0 0 2.344.777c.818.134 1.644.207 2.472.218.382.009.756.014 1.133.014.451.002.898.002 1.35.002h124.054c.444 0 .893 0 1.337-.002.375 0 .761-.005 1.137-.012a16.37 16.37 0 0 0 2.466-.22 8.39 8.39 0 0 0 2.353-.777 7.748 7.748 0 0 0 1.994-1.454 7.908 7.908 0 0 0 1.458-1.99 8.17 8.17 0 0 0 .763-2.35c.137-.815.213-1.64.228-2.468.005-.382.005-.752.005-1.136.01-.448.01-.894.01-1.349V11.76c0-.451 0-.9-.01-1.346 0-.378 0-.758-.005-1.135a16.762 16.762 0 0 0-.228-2.47 8.16 8.16 0 0 0-.765-2.346 7.972 7.972 0 0 0-3.45-3.453 8.336 8.336 0 0 0-2.353-.773 16.083 16.083 0 0 0-2.466-.218c-.376-.006-.762-.013-1.137-.016C137.414 0 136.964 0 136.521 0Z" fill="#A6A6A6"/><path d="M11.123 48.247c-.376 0-.742-.005-1.114-.013a15.657 15.657 0 0 1-2.306-.202 7.256 7.256 0 0 1-2.042-.676 6.666 6.666 0 0 1-1.723-1.253 6.558 6.558 0 0 1-1.258-1.722 7.056 7.056 0 0 1-.67-2.044 15.307 15.307 0 0 1-.205-2.312c-.009-.259-.019-1.125-.019-1.125V10.414s.011-.853.019-1.104c.009-.773.077-1.545.203-2.308a7.096 7.096 0 0 1 .67-2.05 6.625 6.625 0 0 1 1.253-1.724 6.863 6.863 0 0 1 1.728-1.261 7.18 7.18 0 0 1 2.039-.67 15.522 15.522 0 0 1 2.313-.203l1.113-.015h126.728l1.126.016a15.26 15.26 0 0 1 2.291.2c.717.122 1.411.35 2.061.676a6.897 6.897 0 0 1 2.978 2.984 7.14 7.14 0 0 1 .66 2.033c.128.77.199 1.547.214 2.327.004.35.004.725.004 1.098.01.462.01.902.01 1.346v25.809c0 .447 0 .885-.01 1.325 0 .401 0 .769-.005 1.147-.014.766-.084 1.53-.21 2.285a7.052 7.052 0 0 1-.666 2.06 6.753 6.753 0 0 1-1.253 1.709 6.681 6.681 0 0 1-1.726 1.26 7.233 7.233 0 0 1-2.057.678c-.762.125-1.532.192-2.305.201-.361.009-.739.014-1.106.014l-1.336.002-125.398-.002Z" fill="#000"/><path d="M31.253 25.033a6.104 6.104 0 0 1 2.905-5.12 6.247 6.247 0 0 0-4.92-2.66c-2.072-.217-4.08 1.24-5.135 1.24-1.075 0-2.7-1.22-4.449-1.182a6.554 6.554 0 0 0-5.516 3.364c-2.385 4.128-.605 10.197 1.679 13.535 1.143 1.634 2.478 3.459 4.227 3.395 1.71-.072 2.349-1.092 4.414-1.092 2.045 0 2.644 1.092 4.427 1.05 1.836-.03 2.992-1.642 4.094-3.292a13.517 13.517 0 0 0 1.875-3.813 5.897 5.897 0 0 1-3.601-5.425Zm-3.369-9.976a6.008 6.008 0 0 0 1.375-4.304 6.114 6.114 0 0 0-3.956 2.047 5.72 5.72 0 0 0-1.41 4.143 5.056 5.056 0 0 0 3.991-1.886ZM52.874 33.468h-5.835l-1.403 4.138h-2.472l5.53-15.313h2.568l5.528 15.313h-2.514l-1.402-4.138Zm-5.232-1.912h4.626l-2.281-6.716h-.063l-2.282 6.716Zm21.087.469c0 3.469-1.857 5.697-4.66 5.697a3.785 3.785 0 0 1-3.512-1.952h-.053v5.53h-2.293V26.44h2.22v1.857h.04a3.96 3.96 0 0 1 3.555-1.973c2.834 0 4.702 2.24 4.702 5.7h.002Zm-2.355 0c0-2.26-1.169-3.746-2.95-3.746-1.752 0-2.93 1.516-2.93 3.746 0 2.25 1.178 3.756 2.93 3.756 1.781 0 2.95-1.476 2.95-3.756Zm14.644 0c0 3.469-1.857 5.697-4.66 5.697a3.786 3.786 0 0 1-3.512-1.952h-.053v5.53H70.5V26.44h2.219v1.857h.042a3.96 3.96 0 0 1 3.555-1.973c2.834 0 4.702 2.24 4.702 5.7Zm-2.356 0c0-2.26-1.169-3.746-2.95-3.746-1.752 0-2.93 1.516-2.93 3.746 0 2.25 1.178 3.756 2.93 3.756 1.781 0 2.95-1.476 2.95-3.756Zm10.476 1.314c.17 1.52 1.645 2.516 3.662 2.516 1.931 0 3.321-.996 3.321-2.366 0-1.19-.838-1.9-2.824-2.388l-1.984-.478c-2.811-.678-4.117-1.994-4.117-4.129 0-2.641 2.302-4.456 5.572-4.456 3.236 0 5.455 1.815 5.529 4.456h-2.314c-.138-1.528-1.4-2.45-3.248-2.45-1.847 0-3.109.933-3.109 2.291 0 1.083.807 1.72 2.781 2.207l1.687.415c3.142.743 4.447 2.005 4.447 4.245 0 2.865-2.282 4.66-5.91 4.66-3.397 0-5.69-1.752-5.838-4.523h2.345Zm14.349-9.54v2.642h2.123v1.815h-2.123v6.155c0 .957.425 1.402 1.359 1.402.252-.004.503-.022.753-.053v1.804a6.289 6.289 0 0 1-1.272.106c-2.261 0-3.142-.85-3.142-3.015v-6.399h-1.623v-1.815h1.623V23.8h2.302Zm3.353 8.226c0-3.513 2.069-5.72 5.295-5.72 3.237 0 5.296 2.207 5.296 5.72 0 3.522-2.048 5.72-5.296 5.72-3.247 0-5.295-2.198-5.295-5.72Zm8.256 0c0-2.41-1.104-3.833-2.961-3.833-1.857 0-2.96 1.433-2.96 3.833 0 2.42 1.103 3.83 2.96 3.83s2.961-1.41 2.961-3.83Zm4.224-5.584h2.187v1.9h.053a2.666 2.666 0 0 1 2.684-2.016c.264 0 .528.028.786.085v2.143a3.207 3.207 0 0 0-1.03-.138 2.31 2.31 0 0 0-2.388 2.569v6.622h-2.292V26.441Zm16.275 7.886c-.308 2.026-2.281 3.417-4.806 3.417-3.249 0-5.265-2.175-5.265-5.666 0-3.502 2.028-5.774 5.167-5.774 3.09 0 5.031 2.121 5.031 5.508v.785h-7.884v.138a2.895 2.895 0 0 0 .788 2.259 2.909 2.909 0 0 0 2.216.903 2.522 2.522 0 0 0 2.577-1.57h2.176Zm-7.746-3.332h5.581a2.678 2.678 0 0 0-1.658-2.632c-.342-.14-.71-.21-1.08-.202a2.824 2.824 0 0 0-2.843 2.834ZM47.354 10.767a3.256 3.256 0 0 1 3.463 3.656c0 2.35-1.27 3.702-3.463 3.702h-2.657v-7.36l2.657.002Zm-1.514 6.317h1.387a2.313 2.313 0 0 0 2.426-2.646 2.32 2.32 0 0 0-2.426-2.632H45.84v5.278Zm6.267-1.739a2.631 2.631 0 1 1 5.238 0 2.632 2.632 0 1 1-5.237 0h-.001Zm4.111 0c0-1.203-.541-1.907-1.49-1.907-.953 0-1.488.704-1.488 1.907 0 1.214.535 1.912 1.488 1.912.95 0 1.49-.703 1.49-1.912Zm8.088 2.78H63.17l-1.147-4.09h-.086l-1.143 4.09h-1.126l-1.532-5.553h1.113l.994 4.237h.082l1.142-4.237h1.05l1.143 4.237h.086l.99-4.237h1.097l-1.526 5.553Zm2.813-5.553h1.054v.882h.082a1.662 1.662 0 0 1 1.657-.99 1.806 1.806 0 0 1 1.922 2.066v3.595h-1.096v-3.32c0-.893-.387-1.336-1.198-1.336a1.274 1.274 0 0 0-1.326 1.407v3.249h-1.095v-5.553Zm6.462-2.168h1.095v7.72H73.58v-7.72Zm2.619 4.941a2.63 2.63 0 1 1 5.237 0 2.632 2.632 0 1 1-5.237 0Zm4.11 0c0-1.203-.541-1.907-1.49-1.907-.953 0-1.488.704-1.488 1.907 0 1.214.535 1.912 1.488 1.912.95 0 1.49-.703 1.49-1.912Zm2.28 1.209c0-.999.745-1.576 2.067-1.657l1.504-.087v-.48c0-.585-.388-.917-1.137-.917-.613 0-1.036.224-1.158.617h-1.06c.11-.954 1.008-1.566 2.269-1.566 1.39 0 2.176.694 2.176 1.867v3.794h-1.054v-.78h-.086a1.87 1.87 0 0 1-1.669.871 1.677 1.677 0 0 1-1.85-1.662h-.002Zm3.57-.474v-.465l-1.356.087c-.765.052-1.11.312-1.11.801 0 .5.432.79 1.028.79a1.31 1.31 0 0 0 1.438-1.213Zm2.532-.735c0-1.754.902-2.866 2.306-2.866a1.83 1.83 0 0 1 1.701.975h.083v-3.05h1.095v7.72h-1.05v-.876h-.086a1.928 1.928 0 0 1-1.745.968c-1.412 0-2.304-1.111-2.304-2.87Zm1.132 0c0 1.178.555 1.887 1.483 1.887.925 0 1.495-.719 1.495-1.882 0-1.156-.578-1.886-1.495-1.886-.922 0-1.483.715-1.483 1.881Zm8.72-4.415a.71.71 0 1 1 .71.668.674.674 0 0 1-.71-.668Zm.162 1.642h1.093v5.553h-1.093v-5.553Zm2.861 0h1.054v.882h.081a1.664 1.664 0 0 1 1.658-.99 1.809 1.809 0 0 1 1.86 1.266c.081.259.102.532.062.8v3.595h-1.096v-3.32c0-.893-.387-1.336-1.199-1.336a1.272 1.272 0 0 0-1.325 1.407v3.249h-1.095v-5.553Zm9.148 2.773c0-1.754.902-2.866 2.305-2.866a1.834 1.834 0 0 1 1.702.975h.083v-3.05h1.096v7.72h-1.051v-.876h-.086a1.932 1.932 0 0 1-1.744.968c-1.413 0-2.306-1.111-2.306-2.87h.001Zm1.132 0c0 1.178.555 1.887 1.484 1.887.924 0 1.495-.719 1.495-1.882 0-1.156-.578-1.886-1.495-1.886-.922 0-1.484.715-1.484 1.881Zm10.546 1.28a2.252 2.252 0 0 1-2.404 1.607 2.52 2.52 0 0 1-2.566-2.867 2.55 2.55 0 0 1 .618-2.034 2.564 2.564 0 0 1 1.941-.866c1.546 0 2.478 1.055 2.478 2.799v.382h-3.922v.062a1.468 1.468 0 0 0 1.48 1.59 1.332 1.332 0 0 0 1.32-.673h1.055Zm-3.855-1.789h2.806a1.336 1.336 0 0 0-1.368-1.439 1.423 1.423 0 0 0-1.438 1.44Z" fill="#fff"/></g><defs><clipPath id="a"><path fill="#fff" transform="translate(.707)" d="M0 0h147.563v49.326H0z"/></clipPath></defs></svg>