<svg width="168" height="51" fill="none" xmlns="http://www.w3.org/2000/svg"><path d="M160.333 49.734H6.191c-3.392 0-6.166-2.775-6.166-6.166V6.574C.025 3.183 2.799.408 6.19.408h154.142c3.391 0 6.166 2.775 6.166 6.166v36.994c0 3.391-2.775 6.166-6.166 6.166Z" fill="#000"/><path d="M160.333.41H6.191C2.799.41.025 3.184.025 6.575V43.57c0 3.39 2.774 6.165 6.166 6.165h154.142c3.391 0 6.166-2.774 6.166-6.165V6.575c0-3.39-2.775-6.165-6.166-6.165Zm0 .986a5.185 5.185 0 0 1 5.179 5.18V43.57a5.186 5.186 0 0 1-5.179 5.179H6.191a5.185 5.185 0 0 1-5.18-5.18V6.576a5.184 5.184 0 0 1 5.18-5.179h154.142Z" fill="#A6A6A6"/><path d="M131.891 37.404h2.301V21.986h-2.301v15.417Zm20.725-9.864-2.638 6.683h-.079l-2.737-6.683h-2.479l4.107 9.342-2.342 5.195h2.401l6.326-14.537h-2.559Zm-13.049 8.111c-.755 0-1.805-.376-1.805-1.307 0-1.191 1.309-1.647 2.439-1.647 1.012 0 1.487.218 2.102.515a2.786 2.786 0 0 1-2.736 2.44Zm.277-8.447c-1.664 0-3.391.733-4.105 2.36l2.042.853c.437-.854 1.25-1.131 2.103-1.131 1.19 0 2.4.715 2.419 1.983v.16c-.417-.24-1.307-.597-2.399-.597-2.202 0-4.443 1.21-4.443 3.471 0 2.062 1.805 3.392 3.827 3.392 1.548 0 2.4-.695 2.936-1.507h.079v1.19h2.221v-5.91c0-2.738-2.042-4.265-4.68-4.265v.001Zm-14.22 2.212h-3.272v-5.284h3.273c1.72 0 2.697 1.425 2.697 2.643 0 1.196-.977 2.642-2.697 2.642h-.001Zm-.059-7.43h-5.513v15.418h2.299v-5.842h3.214c2.55 0 5.057-1.846 5.057-4.787 0-2.942-2.507-4.788-5.056-4.788h-.001ZM95.498 35.656c-1.588 0-2.92-1.332-2.92-3.16 0-1.847 1.332-3.197 2.92-3.197 1.57 0 2.802 1.35 2.802 3.198 0 1.827-1.232 3.159-2.802 3.159Zm2.643-7.25h-.08c-.516-.617-1.51-1.172-2.761-1.172-2.622 0-5.027 2.303-5.027 5.263 0 2.94 2.405 5.224 5.027 5.224 1.251 0 2.245-.554 2.762-1.19h.079v.754c0 2.006-1.073 3.08-2.802 3.08-1.41 0-2.284-1.015-2.641-1.868l-2.007.834c.576 1.39 2.105 3.1 4.65 3.1 2.701 0 4.985-1.59 4.985-5.463v-9.419h-2.185v.856Zm3.774 8.998h2.306V21.988h-2.306v15.417Zm5.702-5.086c-.06-2.026 1.57-3.058 2.742-3.058.915 0 1.689.456 1.948 1.112l-4.69 1.946Zm7.153-1.747c-.437-1.172-1.769-3.339-4.489-3.339-2.703 0-4.949 2.126-4.949 5.245 0 2.94 2.225 5.245 5.206 5.245 2.404 0 3.795-1.47 4.371-2.325l-1.788-1.191c-.596.875-1.411 1.45-2.583 1.45-1.172 0-2.007-.537-2.543-1.59l7.013-2.9-.238-.595Zm-55.873-1.73v2.225h5.325c-.159 1.252-.576 2.166-1.212 2.802-.775.774-1.985 1.629-4.113 1.629-3.277 0-5.84-2.643-5.84-5.92 0-3.278 2.563-5.92 5.84-5.92 1.769 0 3.06.695 4.014 1.59l1.569-1.571c-1.33-1.27-3.1-2.244-5.583-2.244-4.488 0-8.264 3.655-8.264 8.145s3.774 8.145 8.264 8.145c2.425 0 4.252-.795 5.683-2.284 1.47-1.471 1.927-3.537 1.927-5.204a7.295 7.295 0 0 0-.12-1.392h-7.49Zm13.664 6.815c-1.591 0-2.96-1.31-2.96-3.18 0-1.886 1.369-3.177 2.96-3.177 1.588 0 2.96 1.291 2.96 3.178 0 1.868-1.372 3.179-2.96 3.179Zm0-8.422c-2.902 0-5.266 2.203-5.266 5.243 0 3.021 2.364 5.245 5.266 5.245 2.899 0 5.263-2.225 5.263-5.245 0-3.04-2.364-5.245-5.265-5.245l.002.002Zm11.482 8.422c-1.588 0-2.959-1.31-2.959-3.18 0-1.886 1.371-3.177 2.96-3.177 1.59 0 2.96 1.291 2.96 3.178 0 1.868-1.371 3.179-2.96 3.179Zm0-8.422c-2.9 0-5.264 2.203-5.264 5.243 0 3.021 2.364 5.245 5.266 5.245 2.9 0 5.265-2.225 5.265-5.245 0-3.04-2.365-5.245-5.265-5.245l-.002.002Z" fill="#fff"/><path fill-rule="evenodd" clip-rule="evenodd" d="m12.984 40.35-.091-.088c-.36-.38-.571-.97-.571-1.732v.178V11.43v.188c0-.827.248-1.45.66-1.823l15.28 15.277L12.983 40.35Zm-.656-29.123v-.003.003Zm0-.009v-.001.001Z" fill="url(#a)"/><path fill-rule="evenodd" clip-rule="evenodd" d="m33.353 30.348.116-.067 6.033-3.428c.576-.327.96-.723 1.151-1.143-.191.42-.575.816-1.15 1.144l-6.034 3.428-.116.066Zm.001-.181-5.093-5.095 5.093-5.092 6.148 3.493c.782.443 1.22 1.015 1.293 1.6v.002c-.073.582-.51 1.154-1.293 1.598l-6.148 3.494Z" fill="url(#b)"/><path fill-rule="evenodd" clip-rule="evenodd" d="M14.073 40.932a1.59 1.59 0 0 1-1.09-.401v-.001c.3.266.689.41 1.09.402Zm0-.182a1.58 1.58 0 0 1-1.09-.4l15.278-15.278 5.093 5.094-17.899 10.171c-.495.281-.964.413-1.381.413Zm-1.093-.223a1.507 1.507 0 0 1-.08-.078l.08.078Z" fill="url(#c)"/><path fill-rule="evenodd" clip-rule="evenodd" d="M28.261 25.073 12.982 9.795a1.59 1.59 0 0 1 1.09-.4c.417 0 .887.133 1.383.415l17.899 10.17-5.093 5.093Zm5.208-5.208L15.455 9.63c-.496-.282-.966-.416-1.384-.416h-.005.006c.419 0 .887.134 1.383.415l18.014 10.235v.001Z" fill="url(#d)"/><path d="M14.186 40.928c.388-.022.817-.155 1.268-.41l17.898-10.17-17.898 10.17c-.451.256-.88.389-1.268.41Zm-1.203-.397-.004-.004.004.004Zm-.084-.081-.007-.008.007.008Z" fill="#000"/><path fill-rule="evenodd" clip-rule="evenodd" d="m33.352 30.348.117-.067-.117.067Z" fill="url(#e)"/><path fill-rule="evenodd" clip-rule="evenodd" d="M14.074 40.931c-.427 0-.8-.139-1.09-.402v.002l-.004-.004-.08-.078-.007-.007.09-.093c.292.263.664.402 1.09.401.418 0 .888-.132 1.382-.413l17.9-10.171.114.115-.116.066-17.898 10.17c-.451.255-.88.388-1.268.41a1.719 1.719 0 0 1-.113.004Z" fill="url(#f)"/><path d="M12.892 40.442c-.358-.38-.571-.97-.571-1.733 0 .765.212 1.353.57 1.732v.001Z" fill="#000"/><path fill-rule="evenodd" clip-rule="evenodd" d="M12.893 40.441c-.36-.378-.571-.968-.571-1.732v-.18c0 .764.212 1.353.57 1.733l.092.088-.091.091Z" fill="url(#g)"/><path fill-rule="evenodd" clip-rule="evenodd" d="M12.893 40.443v-.001l.092-.092-.092.093Z" fill="url(#h)"/><path d="M40.651 25.711c.095-.208.142-.423.142-.636h.001c0 .213-.048.426-.143.635v.001Z" fill="#000"/><path fill-rule="evenodd" clip-rule="evenodd" d="m33.469 30.281-.115-.115 6.148-3.493c.782-.444 1.22-1.016 1.293-1.598 0 .213-.047.428-.142.635-.191.42-.575.816-1.15 1.143l-6.034 3.428Z" fill="url(#i)"/><path d="M40.795 25.072c0-.645-.431-1.29-1.294-1.78l-6.033-3.427 6.033 3.428c.864.49 1.295 1.134 1.295 1.78Z" fill="#404040"/><path fill-rule="evenodd" clip-rule="evenodd" d="M40.795 25.072c-.073-.584-.51-1.156-1.293-1.6l-6.148-3.493.115-.114 6.033 3.428c.862.49 1.293 1.134 1.293 1.78Z" fill="url(#j)"/><path d="M12.32 11.431v-.002.003Zm.006-.2.001-.004v.003h-.001Zm.001-.007v-.006.006Zm0-.007c.072-1.266.76-1.998 1.734-2.003-.422.003-.79.14-1.078.401l-.004.004c-.03.028-.058.056-.086.086-.324.342-.529.855-.566 1.512Z" fill="#404040"/><path fill-rule="evenodd" clip-rule="evenodd" d="M12.322 11.617v-.188c0-.068.002-.135.005-.199v-.014c.038-.657.243-1.17.566-1.512l.09.09c-.413.373-.661.997-.661 1.823Zm.658-1.999.004-.003-.004.003Z" fill="url(#k)"/><path fill-rule="evenodd" clip-rule="evenodd" d="M33.354 19.98 15.455 9.81c-.496-.282-.966-.416-1.383-.416a1.59 1.59 0 0 0-1.09.401l-.09-.091a1.86 1.86 0 0 1 .088-.085l.004-.004c.288-.26.656-.398 1.078-.4h.01c.418 0 .887.133 1.383.415l18.014 10.235-.115.115Z" fill="url(#l)"/><path d="M52.294 14.864c.547.555 1.217.831 2.01.831.791 0 1.462-.277 2.01-.831.547-.555.821-1.263.821-2.125 0-.86-.274-1.568-.822-2.123a2.716 2.716 0 0 0-2.01-.831c-.792 0-1.462.277-2.01.83-.547.556-.82 1.263-.82 2.124 0 .863.273 1.57.82 2.125Zm4.723.619c-.728.748-1.632 1.122-2.713 1.122-1.082 0-1.986-.374-2.713-1.122-.727-.747-1.089-1.662-1.089-2.744 0-1.081.362-1.995 1.089-2.742.727-.749 1.631-1.122 2.713-1.122 1.075 0 1.977.376 2.708 1.127.73.752 1.095 1.664 1.095 2.737 0 1.082-.364 1.998-1.09 2.744Z" fill="#fff"/><path d="m52.294 14.865-.086.086c.567.577 1.275.87 2.096.868a2.84 2.84 0 0 0 2.098-.868c.57-.577.858-1.323.857-2.211 0-.887-.287-1.633-.857-2.21a2.84 2.84 0 0 0-2.097-.868 2.84 2.84 0 0 0-2.099.868c-.57.577-.858 1.323-.857 2.21 0 .888.287 1.634.857 2.211l.088-.086.088-.087c-.523-.532-.785-1.202-.786-2.038.001-.835.263-1.505.786-2.037v.001a2.59 2.59 0 0 1 1.923-.795 2.59 2.59 0 0 1 1.92.794v.001c.526.531.787 1.201.787 2.036 0 .836-.261 1.506-.787 2.037a2.588 2.588 0 0 1-1.921.796 2.59 2.59 0 0 1-1.922-.796l-.087.088h-.001Zm4.723.619-.089-.087c-.706.725-1.57 1.083-2.624 1.086-1.053-.003-1.919-.36-2.624-1.086-.706-.726-1.053-1.603-1.054-2.657 0-1.053.349-1.93 1.054-2.656.705-.725 1.57-1.084 2.624-1.085 1.046 0 1.909.36 2.62 1.09.708.73 1.06 1.604 1.06 2.65 0 1.055-.352 1.932-1.056 2.658l.178.173c.747-.768 1.126-1.72 1.124-2.83.002-1.103-.378-2.052-1.13-2.824-.752-.773-1.692-1.165-2.796-1.164-1.11 0-2.054.388-2.8 1.16-.75.767-1.126 1.72-1.125 2.828 0 1.11.375 2.062 1.125 2.83.746.77 1.69 1.16 2.8 1.16 1.11 0 2.053-.39 2.8-1.16l-.086-.086h-.001Zm2.424.955V9.041h1.157l3.596 5.757h.04l-.04-1.425V9.04h.952v7.398h-.993l-3.761-6.033h-.042l.04 1.425v4.608h-.949Z" fill="#fff"/><path d="M59.441 16.44h.123V9.163h.966l3.596 5.756h.235l-.044-1.551V9.164h.705v7.152h-.801l-3.761-6.034h-.237l.044 1.551v4.483h-.826v.123h.123-.123v.123h1.073V11.83l-.04-1.428-.124.003v.124h.04v-.124l-.104.066 3.798 6.091h1.185V8.918H64.07v4.455l.041 1.428.123-.003v-.124h-.04v.124l.105-.066-3.632-5.814h-1.35v7.646h.124v-.124Zm9.92 0h-.952V9.951h-2.066v-.91h5.084v.91h-2.065v6.488h-.001Z" fill="#fff"/><path d="M69.36 16.439v-.123h-.828V9.828h-2.066v-.663h4.838v.663h-2.066v6.612h.124v-.123.123h.123v-6.365h2.066V8.918H66.22v1.157h2.067v6.488h1.198v-.123h-.123l-.001-.001Zm4.217-.909h1.312c.853 0 1.53-.244 2.03-.734.5-.49.75-1.175.75-2.056 0-.875-.25-1.558-.75-2.051-.5-.492-1.177-.739-2.03-.739h-1.312v5.58Zm-.95.909V9.04h2.262c1.137 0 2.047.343 2.729 1.029.682.685 1.023 1.575 1.023 2.67 0 1.098-.341 1.987-1.023 2.671-.683.687-1.591 1.029-2.73 1.029h-2.262.001Z" fill="#fff"/><path d="M73.576 15.53v.124h1.313c.876 0 1.59-.254 2.116-.77.53-.515.789-1.24.786-2.144.002-.897-.259-1.62-.785-2.139-.525-.518-1.24-.775-2.117-.774h-1.436v5.827h.123v-.124h.124v-5.455h1.189c.83.001 1.47.237 1.943.703.472.468.712 1.11.713 1.963 0 .86-.24 1.507-.712 1.968-.474.464-1.113.698-1.944.7h-1.313v.123h.124-.124v-.002Zm-.949.91h.123V9.163h2.139c1.112 0 1.983.333 2.641.992.657.662.986 1.513.986 2.584 0 1.07-.329 1.923-.986 2.584-.659.66-1.53.992-2.641.992h-2.263v.123h.123-.123v.123h2.263c1.16.002 2.108-.352 2.816-1.064.705-.709 1.06-1.637 1.058-2.758.001-1.12-.353-2.05-1.058-2.758-.708-.711-1.656-1.065-2.816-1.065h-2.387v7.646h.124v-.124h.001Zm11.664-6.488h-3.369v2.343h3.039v.889h-3.039v2.345h3.37v.909h-4.32V9.039h4.32v.913Z" fill="#fff"/><path d="M84.291 9.952v-.124H80.8v2.591h3.038v.643H80.8v2.592h3.369v.662h-4.073V9.164h4.073v.786h.123v-.123.123h.124V8.917h-4.567v7.646h4.567v-1.156h-3.37v-2.099h3.039v-1.134h-3.038v-2.102h3.368V9.95h-.123v.003Zm6.966-.912v.042l-2.75 3.173 2.935 4.143v.041h-1.166l-2.409-3.45L86.73 14.3v2.138h-.95V9.04h.95v3.813h.042l3.256-3.813h1.23Z" fill="#fff"/><path d="M91.257 9.04h-.123v.042h.123l-.093-.081-2.812 3.247 2.967 4.19v.001h.123v-.123H90.34l-2.463-3.527-1.27 1.468v2.059h-.703V9.164h.703v3.813h.222l3.256-3.813h1.172V9.04h-.123.123v-.123h-1.286l-3.292 3.856.093.08v-.123h-.041v.123h.123V8.917h-1.196v7.646h1.196v-2.216l1.002-1.158 2.356 3.373h1.354v-.203l-2.902-4.097 2.717-3.134v-.21h-.124v.124-.002Zm3.637 7.4v-7.4h.95v3.173h3.7V9.04h.951v7.4h-.95V13.1h-3.7v3.338h-.951Z" fill="#fff"/><path d="M94.894 16.44h.123V9.163h.704v3.172h3.946V9.164h.704v7.152h-.703v-3.338h-3.946v3.338h-.828v.123h.123-.123v.123h1.074v-3.338h3.453v3.338h1.197V8.918h-1.196v3.173h-3.453V8.917h-1.198v7.646h.123v-.124Zm11.616-6.488h-3.369v2.343h3.037v.889h-3.037v2.345h3.369v.909h-4.32V9.039h4.32v.913Z" fill="#fff"/><path d="M106.51 9.952v-.124h-3.492v2.591h3.037v.643h-3.037v2.592h3.369v.662h-4.073V9.164h4.073v.786h.123v-.123.123h.123V8.917h-4.566v7.646h4.566v-1.156h-3.369v-2.099h3.038v-1.134h-3.038v-2.102h3.369V9.95h-.123v.003Zm4.01 6.487h-.949V9.952h-2.068v-.91h5.084v.91h-2.067v6.488Z" fill="#fff"/><path d="M110.52 16.439v-.124h-.828l.001-6.489h-2.067v-.663h4.838v.663h-2.067v6.613h.123v-.124.124h.124v-6.365h2.066V8.918h-5.331v1.156h2.067v6.49h1.198v-.124h-.124v-.001Zm6.97-1.575c.547.555 1.217.831 2.01.831.792 0 1.462-.277 2.01-.831.547-.555.822-1.263.822-2.125 0-.86-.275-1.568-.822-2.123a2.73 2.73 0 0 0-2.01-.831c-.793 0-1.463.277-2.01.83-.548.556-.821 1.263-.821 2.124 0 .863.273 1.57.821 2.125Zm4.723.619c-.728.748-1.632 1.122-2.713 1.122-1.082 0-1.985-.374-2.713-1.122-.726-.747-1.089-1.662-1.089-2.744 0-1.081.363-1.995 1.089-2.742.728-.749 1.631-1.122 2.713-1.122 1.075 0 1.977.376 2.708 1.127.73.752 1.095 1.664 1.095 2.737 0 1.082-.364 1.998-1.09 2.744Z" fill="#fff"/><path d="m117.49 14.865-.086.086c.567.577 1.275.87 2.096.868a2.84 2.84 0 0 0 2.098-.868c.571-.577.859-1.323.858-2.211.001-.887-.287-1.633-.858-2.21a2.839 2.839 0 0 0-2.096-.868 2.837 2.837 0 0 0-2.099.868c-.571.577-.859 1.323-.857 2.21 0 .888.286 1.634.857 2.211l.087-.086.088-.087c-.523-.532-.784-1.202-.786-2.038.002-.835.263-1.505.786-2.037v.001a2.588 2.588 0 0 1 1.924-.795 2.592 2.592 0 0 1 1.92.794l.004.005-.004-.004c.525.531.786 1.201.789 2.036-.003.836-.264 1.506-.789 2.037a2.59 2.59 0 0 1-1.922.796 2.588 2.588 0 0 1-1.922-.796l-.086.088h-.002Zm4.723.619-.089-.087c-.706.725-1.571 1.083-2.624 1.086-1.053-.003-1.918-.36-2.624-1.086-.705-.726-1.053-1.603-1.054-2.657.001-1.053.349-1.93 1.054-2.656.706-.725 1.571-1.084 2.624-1.085 1.048 0 1.909.36 2.619 1.09.71.73 1.061 1.604 1.061 2.65 0 1.055-.351 1.932-1.056 2.658l.178.173c.747-.768 1.126-1.72 1.125-2.83.001-1.103-.379-2.052-1.13-2.824-.752-.773-1.693-1.165-2.797-1.164-1.11 0-2.054.388-2.799 1.16-.751.767-1.127 1.72-1.126 2.828 0 1.11.375 2.062 1.125 2.83.746.77 1.69 1.16 2.8 1.16 1.11 0 2.053-.39 2.802-1.16l-.089-.086Zm3.373-2.951h1.592c.399 0 .72-.133.962-.402.24-.27.361-.565.361-.888 0-.324-.121-.62-.361-.888-.242-.27-.563-.404-.962-.404h-1.591v2.582h-.001Zm0 3.906h-.95V9.041h2.522c.625 0 1.169.21 1.628.625.457.416.687.942.687 1.578a2.04 2.04 0 0 1-.688 1.574 2.338 2.338 0 0 1-1.627.625h-1.572v2.996Z" fill="#fff"/><path d="M125.586 12.533v.123h1.592c.426.003.79-.147 1.053-.443.249-.261.39-.608.394-.97 0-.355-.135-.686-.394-.972-.263-.296-.627-.446-1.053-.444h-1.715v2.83h.124v-.124h.123v-2.458h1.468c.373.001.651.12.869.363.209.216.328.505.33.806a1.18 1.18 0 0 1-.33.807c-.218.24-.496.358-.869.36h-1.591v.123h.123-.123l-.001-.001Zm0 3.906v-.123h-.827V9.164h2.399a2.222 2.222 0 0 1 1.544.593c.434.397.645.88.647 1.486a1.911 1.911 0 0 1-.647 1.483 2.216 2.216 0 0 1-1.544.594h-1.696v3.12h.124v-.124.123h.123v-2.873h1.449a2.455 2.455 0 0 0 1.709-.657c.483-.437.73-1.004.729-1.665a2.164 2.164 0 0 0-.728-1.67 2.462 2.462 0 0 0-1.71-.657h-2.645v7.646h1.196v-.124h-.123Z" fill="#fff"/><defs><linearGradient id="a" x1="26.894" y1="11.152" x2="6.199" y2="-9.544" gradientUnits="userSpaceOnUse"><stop stop-color="#00A0FF"/><stop offset="1" stop-color="#00E2FF"/></linearGradient><linearGradient id="b" x1="41.747" y1="25.072" x2="11.909" y2="25.072" gradientUnits="userSpaceOnUse"><stop stop-color="#FFDF00"/><stop offset="1" stop-color="#FF9C00"/></linearGradient><linearGradient id="c" x1="30.645" y1="27.897" x2="2.581" y2="-.167" gradientUnits="userSpaceOnUse"><stop stop-color="#FF3A44"/><stop offset="1" stop-color="#C31162"/></linearGradient><linearGradient id="d" x1="9.024" y1=".619" x2="21.555" y2="-11.913" gradientUnits="userSpaceOnUse"><stop stop-color="#31A070"/><stop offset="1" stop-color="#00EF75"/></linearGradient><linearGradient id="e" x1="41.746" y1="25.072" x2="11.909" y2="25.072" gradientUnits="userSpaceOnUse"><stop stop-color="#CCB300"/><stop offset="1" stop-color="#CC7C00"/></linearGradient><linearGradient id="f" x1="30.645" y1="27.897" x2="2.581" y2="-.168" gradientUnits="userSpaceOnUse"><stop stop-color="#CC2D36"/><stop offset="1" stop-color="#9C0E4D"/></linearGradient><linearGradient id="g" x1="26.894" y1="11.152" x2="6.199" y2="-9.543" gradientUnits="userSpaceOnUse"><stop stop-color="#008CDF"/><stop offset="1" stop-color="#00C6DF"/></linearGradient><linearGradient id="h" x1="30.8" y1="27.788" x2="2.491" y2="-.521" gradientUnits="userSpaceOnUse"><stop stop-color="#DF333B"/><stop offset="1" stop-color="#AA0E56"/></linearGradient><linearGradient id="i" x1="41.747" y1="25.072" x2="11.908" y2="25.072" gradientUnits="userSpaceOnUse"><stop stop-color="#DFC400"/><stop offset="1" stop-color="#DF8900"/></linearGradient><linearGradient id="j" x1="41.747" y1="25.072" x2="11.908" y2="25.072" gradientUnits="userSpaceOnUse"><stop stop-color="#FFE83F"/><stop offset="1" stop-color="#FFB53F"/></linearGradient><linearGradient id="k" x1="26.894" y1="11.152" x2="6.199" y2="-9.544" gradientUnits="userSpaceOnUse"><stop stop-color="#3FB8FF"/><stop offset="1" stop-color="#3FE9FF"/></linearGradient><linearGradient id="l" x1="9.024" y1=".619" x2="21.556" y2="-11.913" gradientUnits="userSpaceOnUse"><stop stop-color="#64B895"/><stop offset="1" stop-color="#3FF497"/></linearGradient></defs></svg>