<svg width="20" height="20" viewBox="0 0 20 20" fill="none" xmlns="http://www.w3.org/2000/svg"><path d="M18.625 2.875h-2.596l-.641 2.156c-.04.122-.138.085-.138.085V2.875h-.003c-.005-.472-.021-1.255-.068-1.545-.041-.25-.085-.705-.449-.705h-1.07c-.364 0-.442.46-.482.71-.047.29-.112 1.07-.15 1.54H7.03l-.641 2.156c-.04.122-.138.085-.138.085V2.875h-.003c-.005-.472-.021-1.255-.068-1.545-.041-.25-.085-.705-.449-.705h-1.07c-.364 0-.442.46-.482.71-.047.29-.112 1.07-.15 1.54H1.376a.75.75 0 0 0-.75.75v15c0 .414.336.75.75.75h17.25a.75.75 0 0 0 .75-.75v-15a.751.751 0 0 0-.751-.75ZM17.5 17.5h-15V7.75h15v9.75Z" fill="currentColor"/><path d="M7 9.625H4v2.25h3v-2.25Zm4.5 0h-3v2.25h3v-2.25Zm4.5 0h-3v2.25h3v-2.25Zm-9 3.75H4v2.25h3v-2.25Zm4.5 0h-3v2.25h3v-2.25Zm4.5 0h-3v2.25h3v-2.25Z" fill="currentColor"/></svg>
