<svg width="20" height="18" viewBox="0 0 20 18" fill="none" xmlns="http://www.w3.org/2000/svg">
<path d="M18.4364 6.90911C18.8813 6.60352 19.1608 6.23805 19.2397 6.05696C19.4052 5.6781 19.2964 5.02421 18.6638 4.90174C18.3839 4.84736 17.8538 4.89844 17.3856 4.96474C17.023 3.65771 16.3919 1.53296 16.0234 1.14844C15.5292 0.632625 13.7969 0.375 10 0.375C6.20312 0.375 4.47077 0.632625 3.97656 1.14844C3.60816 1.53296 2.977 3.65771 2.61445 4.96474C2.14622 4.89844 1.61616 4.84736 1.33619 4.90174C0.703562 5.02421 0.594775 5.6781 0.7603 6.05696C0.839237 6.23805 1.11865 6.60352 1.56359 6.90911C0.837963 7.88561 0.625 8.73431 0.625 10.3125C0.625 12.3516 0.625 14.625 0.625 14.625C0.625 14.625 0.625 15.8868 0.801325 16.7267C0.8656 17.0325 1.14906 17.25 1.47554 17.25H3.89946C4.22616 17.25 4.5094 17.0325 4.57368 16.7267C4.672 16.2577 4.71557 15.6579 4.73481 15.219L2.43617 14.7615C2.31722 14.7234 2.33462 14.6461 2.34246 14.625H10H17.6575C17.6654 14.6461 17.6828 14.7234 17.5638 14.7615L15.2652 15.219C15.2844 15.6579 15.328 16.2577 15.4263 16.7267C15.4906 17.0325 15.7739 17.25 16.1005 17.25H18.5245C18.8512 17.25 19.1344 17.0325 19.1987 16.7267C19.375 15.8868 19.375 14.625 19.375 14.625C19.375 14.625 19.375 12.3516 19.375 10.3125C19.375 8.73431 19.162 7.88561 18.4364 6.90911ZM5.08581 2.15295C5.3059 2.04341 6.92163 1.85633 10 1.85633C13.0784 1.85633 14.6941 2.04345 14.9142 2.15295C15.1322 2.52315 15.8282 4.92443 16.0269 5.8938C14.9312 6.1983 12.4366 6.40504 10 6.40504C7.5634 6.40504 5.06879 6.1983 3.97307 5.8938C4.17175 4.92443 4.86775 2.52319 5.08581 2.15295ZM5.68128 11.8951L3.4732 11.7186C2.875 11.6708 2.50844 11.1934 2.39875 10.6699L2.30774 10.0375C2.25152 9.64635 2.65326 9.3144 3.0493 9.42461L4.83663 9.92119C5.22535 10.0708 5.51905 10.3746 5.64426 10.7558L5.88925 11.6656C5.92188 11.7863 5.81313 11.9061 5.68128 11.8951ZM12.25 13.5H7.75V12.375H12.25V13.5ZM17.6923 10.0375L17.6012 10.6699C17.4916 11.1934 17.125 11.6708 16.5268 11.7186L14.3187 11.8951C14.1869 11.9061 14.0781 11.7863 14.1107 11.6656L14.3557 10.7558C14.481 10.3746 14.7747 10.0708 15.1632 9.92119L16.9507 9.42461C17.3467 9.3144 17.7485 9.64635 17.6923 10.0375Z" fill="currentColor"/>
</svg>
