<svg width="33" height="33" viewBox="0 0 33 33" fill="none"
    xmlns="http://www.w3.org/2000/svg">
    <path d="M26.696 2.81218C26.5693 2.0319 25.9907 1.4382 25.2298 1.30815C23.0305 0.932129 19.3648 0.932129 18.6318 0.932129C17.8987 0.932129 14.233 0.932129 12.0337 1.3082C11.273 1.43825 10.6943 2.03195 10.5675 2.81223C10.4613 3.46565 10.3866 4.09805 10.333 4.68715C12.2635 4.69577 15.3963 4.7693 17.4531 5.121C18.7705 5.34619 19.7621 6.35747 19.9795 7.69734C20.4024 10.2992 20.4024 10.9732 20.4024 13.4802C20.4024 13.7728 20.4019 14.2313 20.3858 14.8062L24.0078 17.7408C24.2672 17.9139 24.5151 17.8307 24.6527 17.6613C24.7511 17.5402 24.7587 17.3889 24.683 17.1996L23.7199 14.5638C24.2594 14.515 24.7764 14.4542 25.2298 14.3767C25.9907 14.2466 26.5693 13.6529 26.696 12.8729C27.0625 10.6165 27.0625 8.59441 27.0625 7.84251C27.0625 5.58518 27.0625 5.06796 26.696 2.81218Z" fill="currentColor"/>
    <path d="M17.2692 6.19515C14.8171 5.77588 10.7302 5.77588 9.91309 5.77588C9.09571 5.77588 5.00879 5.77588 2.55688 6.19515C1.70845 6.34013 1.06331 7.00198 0.922118 7.87187C0.513451 10.3871 0.513451 12.642 0.513451 13.4802C0.513451 14.3184 0.513451 16.5733 0.922118 19.0884C1.06331 19.9582 1.70845 20.62 2.55688 20.7653C2.87783 20.8201 3.22813 20.8672 3.59427 20.9084L5.41663 18.3798C5.51186 18.2411 5.60365 18.3425 5.60365 18.3425L4.02561 23.9114L4.02096 23.9092L3.99572 23.9988C3.97489 24.1189 3.99761 24.2443 4.06712 24.3555C4.21756 24.5949 4.53212 24.6657 4.77101 24.5139L10.2209 21.1839C11.4669 21.1807 15.0397 21.1463 17.2692 20.7653C18.1174 20.62 18.7626 19.9582 18.9038 19.0884C19.3125 16.5733 19.3125 14.3184 19.3125 13.4802C19.3125 10.9638 19.3125 10.3871 18.9038 7.87187C18.7626 7.00198 18.1174 6.34013 17.2692 6.19515ZM5.50784 14.9427C4.81887 14.9427 4.26058 14.3843 4.26058 13.6954C4.26058 13.0064 4.81887 12.4481 5.50784 12.4481C6.19682 12.4481 6.75511 13.0064 6.75511 13.6954C6.75511 14.3843 6.19682 14.9427 5.50784 14.9427ZM9.86722 14.9427C9.17824 14.9427 8.61995 14.3843 8.61995 13.6954C8.61995 13.0064 9.17824 12.4481 9.86722 12.4481C10.5562 12.4481 11.1145 13.0064 11.1145 13.6954C11.1145 14.3843 10.5562 14.9427 9.86722 14.9427ZM14.2266 14.9427C13.5376 14.9427 12.9793 14.3843 12.9793 13.6954C12.9793 13.0064 13.5376 12.4481 14.2266 12.4481C14.9156 12.4481 15.4739 13.0064 15.4739 13.6954C15.4739 14.3843 14.9156 14.9427 14.2266 14.9427Z" fill="currentColor"/>
</svg>
