<svg xmlns="http://www.w3.org/2000/svg" width="24" height="24" fill="none"><path fill="currentColor" fill-rule="evenodd" d="M11 0v3.459a.5.5 0 0 0 .5.5h3.083a.5.5 0 0 1 .5.5v2a.5.5 0 0 0 .5.5h3.667a.5.5 0 0 1 .5.5v2a.5.5 0 0 0 .5.5h3.584c.11.65.166 1.319.166 2 0 6.627-5.373 12-12 12s-12-5.373-12-12C0 5.669 4.84.509 11 0ZM9.5 6.709a1.75 1.75 0 1 1-3.5 0 1.75 1.75 0 0 1 3.5 0Zm-4.75 7.75a1.75 1.75 0 1 0 0-3.5 1.75 1.75 0 0 0 0 3.5Zm8.75-1.75a1.75 1.75 0 1 1-3.5 0 1.75 1.75 0 0 1 3.5 0Zm5.25 3.75a1.75 1.75 0 1 0 0-3.5 1.75 1.75 0 0 0 0 3.5Zm-5.25 3.25a1.75 1.75 0 1 1-3.5 0 1.75 1.75 0 0 1 3.5 0Z" clip-rule="evenodd"/></svg>
