<svg width="21" height="23" viewBox="0 0 21 23" fill="none"
    xmlns="http://www.w3.org/2000/svg">
    <path d="M3.11538 5.36536H1.55769C1.14457 5.36536 0.748357 5.52947 0.456233 5.82159C0.16411 6.11372 0 6.50992 0 6.92305V20.9423C0.000659097 21.3552 0.164982 21.751 0.456964 22.043C0.748945 22.335 1.14477 22.4993 1.55769 22.5H14.0192C14.4322 22.4993 14.828 22.335 15.12 22.043C15.4119 21.751 15.5763 21.3552 15.5769 20.9423V19.3846H3.11538V5.36536Z" fill="currentColor"/>
    <path d="M14.019 0.692383V6.92315H20.2498L14.019 0.692383Z" fill="currentColor"/>
    <path d="M12.4613 8.48084V0.692383H6.23054C5.81742 0.692383 5.42121 0.856496 5.12909 1.14862C4.83696 1.44074 4.67285 1.83695 4.67285 2.25008V17.827H18.6921C19.105 17.8263 19.5008 17.662 19.7928 17.37C20.0848 17.0781 20.2491 16.6822 20.2498 16.2693V8.48084H12.4613Z" fill="currentColor"/>
</svg>
