<svg width="24" height="24" viewBox="0 0 24 24" fill="none" xmlns="http://www.w3.org/2000/svg">
  <path d="M23.478 2.609A2.514 2.514 0 0 0 21.391.522C18.261 0 13.043 0 12 0c-1.043 0-6.26 0-9.391.522A2.514 2.514 0 0 0 .522 2.609C0 5.739 0 10.957 0 12c0 1.043 0 6.26.522 9.391a2.514 2.514 0 0 0 2.087 2.087C5.739 24 10.957 24 12 24c1.043 0 6.26 0 9.391-.522a2.514 2.514 0 0 0 2.087-2.087C24 18.261 24 13.043 24 12c0-3.132 0-6.26-.522-9.391Zm-9.903 17.794h-3.447l.296-7.353V8.85h3.152v11.554ZM12.012 6.748c-1.177 0-1.85-.658-1.85-1.86 0-1.022.625-1.816 1.826-1.816 1.177 0 1.85.635 1.85 1.816 0 1.043-.625 1.86-1.826 1.86Z" fill="currentColor"/>
</svg>
