<svg xmlns="http://www.w3.org/2000/svg" width="16" height="20" fill="currentColor" viewBox="0 0 16 20">
  <path fill-rule="evenodd" d="M.199 3.098c-.13.192-.199.418-.199.65v8.172c0 1.207.463 2.368 1.339 3.19C3.17 16.832 6.413 19.62 8 19.419c1.542-.194 4.643-2.681 6.499-4.28C15.47 14.302 16 13.07 16 11.78V3.75c0-.233-.07-.46-.199-.651a1.145 1.145 0 0 0-.526-.424L9.045.2a2.83 2.83 0 0 0-2.09 0L.725 2.674a1.145 1.145 0 0 0-.526.424Zm6.06 7.883H4.19a.517.517 0 0 1-.516-.517V8.397c0-.285.231-.516.516-.516h2.067V5.814c0-.286.232-.517.517-.517h2.067c.285 0 .517.231.517.517V7.88h2.067c.285 0 .517.231.517.516v2.067a.517.517 0 0 1-.517.517H9.359v2.067a.517.517 0 0 1-.517.517H6.775a.517.517 0 0 1-.517-.517V10.98Z" clip-rule="evenodd"/>
</svg>
