<svg width="47" height="54" viewBox="0 0 47 54" fill="none" xmlns="http://www.w3.org/2000/svg">
<path d="M-9.70122e-06 21.962C0.20999 15.52 3.27499 9.339 9.29799 4.737C15.414 0.0700021 22.45 -0.969998 29.817 0.835002C34.4 1.959 38.242 4.51 41.356 8.108C46.727 14.317 48.063 21.463 46.216 29.175C45.009 34.169 42.028 38.197 37.884 41.379C35.832 42.962 33.51 43.999 31.189 45.09C30.1301 45.6406 29.1503 46.3315 28.276 47.144C27.121 48.145 26.099 52.133 24.985 53.158C23.871 54.183 23.283 54.309 22.072 53.332C20.962 52.434 19.922 48.605 18.962 47.552C17.449 45.89 15.526 44.869 13.519 43.967C9.44581 42.1386 6.00868 39.1397 3.64499 35.352C1.23999 31.601 -0.0200097 27.51 -9.70122e-06 21.962Z" fill="currentColor"/>
<path d="M23.475 40.45C32.85 40.45 40.45 32.85 40.45 23.475C40.45 14.1 32.85 6.5 23.475 6.5C14.1 6.5 6.5 14.1 6.5 23.475C6.5 32.85 14.1 40.45 23.475 40.45Z" fill="white"/>
<path d="M24.826 15.383C25.946 15.567 26.723 14.889 26.908 13.76C27.119 12.473 26.555 11.672 25.464 11.493C24.315 11.304 23.562 12.018 23.372 13.18C23.171 14.403 23.706 15.2 24.826 15.383ZM27.505 28.703C27.169 27.681 27.124 27.665 26.907 27.308C26.653 26.89 26.412 26.569 26.176 26.242C25.6779 25.5696 25.1665 24.9071 24.642 24.255C24.85 23.165 25.152 21.82 25.437 20.616C25.557 20.994 25.695 21.386 25.907 21.81C26.162 22.309 27.007 23.077 27.393 23.484C28.326 24.467 29.308 24.038 29.509 23.933C29.154 23.458 28.278 22.45 28.039 22.157C27.852 21.927 27.406 21.398 27.284 21.13C27.118 20.771 26.984 20.303 26.864 19.88C26.81 19.683 26.248 17.362 26.162 17.237C25.858 16.481 23.574 15.427 22.222 16.232C21.478 16.675 20.079 17.716 19.37 18.492C18.94 18.971 18.765 19.259 18.58 20.307C18.4648 20.9988 18.3986 21.6979 18.382 22.399C18.367 23.139 18.759 23.838 19.533 23.999C19.7 22.736 19.964 20.849 20.369 20.029C20.534 19.696 21.28 19.198 21.592 18.995C21.394 19.915 20.71 22.981 20.71 23.683C20.71 24.551 21.27 25.003 21.63 25.377L23.029 26.844C23.029 26.844 22.977 26.934 22.858 26.864L21.438 26.044C21.238 26.803 20.909 28.039 20.621 28.774C20.391 29.359 20.471 29.193 20.248 29.574C19.798 30.344 19.216 31.122 18.716 31.996C17.894 33.434 18.888 34.489 19.028 34.624C19.835 33.49 21.228 31.812 22.013 30.632C22.275 30.242 22.304 30.21 22.6 29.642C22.824 29.188 23.13 28.536 23.57 27.448C23.762 27.624 23.948 27.823 24.14 28.017C24.615 28.493 24.907 28.725 25.094 29.077C25.151 29.184 25.268 29.426 25.387 29.731C26.11 31.594 26.687 32.678 27.008 33.441C27.489 34.59 28.826 34.702 29.201 34.589C28.832 33.13 27.981 30.151 27.505 28.703Z" fill="#154273"/>
</svg>

