<svg width="47" height="54" viewBox="0 0 47 54" fill="none" xmlns="http://www.w3.org/2000/svg">
<path d="M-9.70122e-06 21.962C0.20999 15.52 3.27499 9.339 9.29799 4.737C15.414 0.0700021 22.45 -0.969998 29.817 0.835002C34.4 1.959 38.242 4.51 41.356 8.108C46.727 14.317 48.063 21.463 46.216 29.175C45.009 34.169 42.028 38.197 37.884 41.379C35.832 42.962 33.51 43.999 31.189 45.09C30.1301 45.6406 29.1503 46.3315 28.276 47.144C27.121 48.145 26.099 52.133 24.985 53.158C23.871 54.183 23.283 54.309 22.072 53.332C20.962 52.434 19.922 48.605 18.962 47.552C17.449 45.89 15.526 44.869 13.519 43.967C9.44581 42.1386 6.00868 39.1397 3.64499 35.352C1.23999 31.601 -0.0200097 27.51 -9.70122e-06 21.962Z" fill="currentColor"/>
<path d="M23.475 40.45C32.85 40.45 40.45 32.85 40.45 23.475C40.45 14.1 32.85 6.5 23.475 6.5C14.1 6.5 6.5 14.1 6.5 23.475C6.5 32.85 14.1 40.45 23.475 40.45Z" fill="white"/>
<path d="M32.625 15.875H30.029L29.388 18.031C29.348 18.153 29.25 18.116 29.25 18.116V15.875H29.247C29.242 15.403 29.226 14.62 29.179 14.33C29.138 14.08 29.094 13.625 28.73 13.625H27.66C27.296 13.625 27.218 14.085 27.178 14.335C27.131 14.625 27.066 15.405 27.028 15.875H21.03L20.389 18.031C20.349 18.153 20.251 18.116 20.251 18.116V15.875H20.248C20.243 15.403 20.227 14.62 20.18 14.33C20.139 14.08 20.095 13.625 19.731 13.625H18.661C18.297 13.625 18.219 14.085 18.179 14.335C18.132 14.625 18.067 15.405 18.029 15.875H15.376C15.1771 15.875 14.9863 15.954 14.8456 16.0947C14.705 16.2353 14.626 16.4261 14.626 16.625V31.625C14.626 32.039 14.962 32.375 15.376 32.375H32.626C32.8249 32.375 33.0157 32.296 33.1563 32.1553C33.297 32.0147 33.376 31.8239 33.376 31.625V16.625C33.376 16.5264 33.3565 16.4288 33.3188 16.3378C33.281 16.2467 33.2257 16.164 33.156 16.0943C33.0862 16.0247 33.0034 15.9694 32.9123 15.9318C32.8212 15.8942 32.7236 15.8749 32.625 15.875ZM31.5 30.5H16.5V20.75H31.5V30.5Z" fill="#154273"/>
<path d="M21 22.625H18V24.875H21V22.625ZM25.5 22.625H22.5V24.875H25.5V22.625ZM30 22.625H27V24.875H30V22.625ZM21 26.375H18V28.625H21V26.375ZM25.5 26.375H22.5V28.625H25.5V26.375ZM30 26.375H27V28.625H30V26.375Z" fill="#154273"/>
</svg>
