<svg xmlns="http://www.w3.org/2000/svg" viewBox="0 0 24 24" width="24" height="24" fill="none"><path fill="currentColor" d="M19.157 4.125H6.217c.001 0 .023-.133.174-.17C10.601 2.92 18.75 3 18.75 3v-.871c0-.396-.401-.672-.75-.629 0 0-13.5-.007-13.5 2.625 0 18.7.03 14.207.032 17.25 0 .621.503 1.125 1.124 1.125h13.502c.622 0 1.092-.504 1.092-1.125V5.25c0-.621-.471-1.125-1.093-1.125Zm-6.782 14.663a5.663 5.663 0 1 1 0-11.326 5.663 5.663 0 0 1 0 11.326Z"/><path fill="currentColor" d="M10.427 8.97A4.59 4.59 0 0 0 7.8 12.75h1.585c.055-1.53.446-2.865 1.042-3.78ZM12.845 8.555c-.03-.003-.063-.002-.095-.005v4.2h1.866c-.083-2.043-.826-3.756-1.77-4.195ZM14.323 8.97c.596.915.987 2.25 1.042 3.78h1.585a4.59 4.59 0 0 0-2.627-3.78ZM10.134 12.75H12v-4.2c-.032.003-.064.002-.096.005-.944.44-1.688 2.152-1.77 4.195ZM7.8 13.5a4.59 4.59 0 0 0 2.627 3.78c-.596-.915-.987-2.25-1.042-3.78H7.8ZM12.75 13.5v4.2c.032-.003.064-.002.095-.005.945-.44 1.688-2.152 1.77-4.195H12.75ZM14.323 17.28a4.59 4.59 0 0 0 2.627-3.78h-1.585c-.055 1.53-.446 2.865-1.042 3.78ZM11.904 17.695c.032.003.064.002.096.005v-4.2h-1.866c.082 2.043.826 3.756 1.77 4.195Z"/></svg>
