<svg width="33" height="33" viewBox="0 0 33 33" fill="none" xmlns="http://www.w3.org/2000/svg">
<path d="M24.8278 31.2712L27.372 26.4853C27.6637 25.9852 27.5271 25.3177 27.0533 24.9279L22.1904 21.1014C21.7525 20.7738 21.1735 20.7764 20.725 21.0768L17.4707 23.4117C14.216 20.647 11.9048 16.7156 11.115 12.4034L14.7643 10.7525C15.2487 10.5143 15.5404 10.0142 15.4757 9.47112L14.5933 3.34655C14.4926 2.74127 13.9697 2.3383 13.4038 2.29183L7.98711 2.10216C7.40812 2.10474 6.94647 2.4542 6.78876 3.04281C3.42411 15.5998 10.8439 28.5231 23.45 31.9009C23.9895 32.0454 24.5361 31.7713 24.8278 31.2712Z" fill="currentColor"/>
</svg>
