<svg xmlns="http://www.w3.org/2000/svg" width="18" height="18" fill="currentColor" viewBox="0 0 18 18">
  <g clip-path="url(#a)">
    <path d="M12.603.582C10.183-.493 9 1.82 9 1.82S7.817-.493 5.397.582C3.011 1.642 3.17 6.906 8.764 9.836a.513.513 0 0 0 .473 0c5.593-2.93 5.752-8.193 3.366-9.254Zm3.338 5.256a46.054 46.054 0 0 0-.518 2.737c.115.047.226.113.33.203.608.519.671 1.357.198 2.196-1.07 1.895-2.245 2.753-2.49 2.93-.07.051-.109.037-.136.012v-.004c1.065-1.189 1.63-2.005 2.113-3.145.366-.864.169-1.384-.145-1.571-.307-.184-.624-.084-.943.388-1.087 1.606-1.873 2.45-2.96 3.729-.756.888-1.273 1.99-1.262 3.116.006.716.052 1.108.08 1.287h3.797l.322-1.828c.045-.255.16-.493.33-.687l2.078-2.103c.432-.49.68-1.114.702-1.766V4.533s-1.107-.361-1.496 1.305ZM3.65 9.584c-.319-.472-.636-.572-.943-.388-.314.187-.51.707-.145 1.572.483 1.139 1.048 1.955 2.114 3.144v.004c-.028.025-.067.039-.137-.012-.245-.177-1.42-1.035-2.49-2.93-.473-.839-.41-1.677.197-2.196.105-.09.216-.156.33-.203-.14-.86-.33-1.935-.517-2.737C1.67 4.172.562 4.533.562 4.533v6.8a2.82 2.82 0 0 0 .703 1.765L3.342 15.2a1.4 1.4 0 0 1 .33.687l.322 1.828h3.797c.029-.179.074-.57.081-1.287.01-1.126-.506-2.228-1.262-3.116-1.087-1.279-1.873-2.123-2.96-3.73Z"/>
  </g>
  <defs>
    <clipPath id="a">
      <path d="M0 0h18v18H0z"/>
    </clipPath>
  </defs>
</svg>
