<svg width="12" height="24" viewBox="0 0 12 24" fill="none" xmlns="http://www.w3.org/2000/svg"><path d="M6.826 4.383c1.12.184 1.897-.494 2.082-1.623C9.119 1.473 8.555.672 7.464.493 6.315.304 5.562 1.018 5.372 2.18c-.201 1.223.334 2.02 1.454 2.203Zm2.679 13.32c-.336-1.022-.381-1.038-.598-1.395-.254-.418-.495-.739-.731-1.066a63.153 63.153 0 0 0-1.534-1.987c.208-1.09.51-2.435.795-3.639.12.378.258.77.47 1.194.255.499 1.1 1.267 1.486 1.674.933.983 1.915.554 2.116.449-.355-.475-1.231-1.483-1.47-1.776-.187-.23-.633-.759-.755-1.027-.166-.359-.3-.827-.42-1.25-.054-.197-.616-2.518-.702-2.643-.304-.756-2.588-1.81-3.94-1.005-.744.443-2.143 1.484-2.852 2.26-.43.479-.605.767-.79 1.815a14.88 14.88 0 0 0-.198 2.092c-.015.74.377 1.439 1.151 1.6.167-1.263.431-3.15.836-3.97.165-.333.911-.831 1.223-1.034-.198.92-.882 3.986-.882 4.688 0 .868.56 1.32.92 1.694l1.399 1.467s-.052.09-.171.02l-1.42-.82c-.2.759-.529 1.995-.817 2.73-.23.585-.15.419-.373.8-.45.77-1.032 1.548-1.532 2.422-.822 1.438.172 2.493.312 2.628.807-1.134 2.2-2.812 2.985-3.992.262-.39.291-.422.587-.99.224-.454.53-1.106.97-2.194.192.176.378.375.57.569.475.476.767.708.954 1.06.057.107.174.349.293.654.723 1.863 1.3 2.947 1.621 3.71.481 1.149 1.818 1.261 2.193 1.148-.369-1.459-1.22-4.438-1.696-5.886Z" fill="currentColor"/></svg>
