<svg xmlns="http://www.w3.org/2000/svg" width="18" height="19" fill="currentColor" viewBox="0 0 18 19">
  <path d="m14.145 9.972-1.928-2.34c-.063-.285.042-.716 0-.96-.21-1.215-.682-2.557-.682-2.557.66-1.268.337-2.404-.656-3.05-1.133-.73-5.175-.805-8.183.837C-.476 3.638-.13 6.878.401 8.502c.623 1.89 2.396 4.568 2.528 6.589.056.885-.675 3.529-.675 3.529h7.383l-.348-1.868-1.71-.874c-.09-.048-.09-.12-.068-.146 0 0 2.445.473 3.446.604 1.005.131 1.905-.641 1.905-1.868v-3.045l1.095-.555a.65.65 0 0 0 .188-.896Z"/>
  <path d="m17.366 18.174-2.163-4.564c.135-.292.108-.795-.132-1.245-.318-.638-.82-1.035-1.166-.851-.345.184-.401.821-.082 1.459.236.502.607.824.9.903l2.163 4.564c.08.131.24.188.345.135.162-.113.214-.27.135-.401Z"/>
</svg>
