<svg xmlns="http://www.w3.org/2000/svg" viewBox="0 0 24 24" width="24" height="24" fill="none"><g clip-path="url(#a)"><path fill="currentColor" d="M19 12c0 2.5-1.3 4.8-3.5 6.1-3.3 1.9-7.6.8-9.6-2.6-1.9-3.4-.7-7.7 2.6-9.6 2.7-1.5 6-1.1 8.2 1l-1.8.2c-.4 0-.7.4-.7.7 0 .4.2.7.6.8L20 9.8c.2.1.5 0 .7-.2.2-.1.3-.3.3-.6V3.7c0-.4-.3-.7-.6-.8-.4-.1-.7.2-.9.5L19 4.9c-3.1-3.1-8.1-3.8-12-1.5C2.2 6.1.6 12.2 3.3 17c1.8 3.2 5.2 5 8.7 5 1.7 0 3.4-.4 5-1.3 3.1-1.8 5-5.1 5-8.7h-3Z"/></g><defs><clipPath id="a"><path fill="#fff" d="M0 0h24v24H0z"/></clipPath></defs></svg>
