<svg width="20" height="14" viewBox="0 0 20 14" fill="none" xmlns="http://www.w3.org/2000/svg">
<path d="M18.62 0H0.98C0.42 0 0 0.42 0 0.98V13.02C0 13.58 0.42 14 0.98 14H18.76C19.32 14 19.74 13.58 19.74 13.02V0.98C19.6 0.42 19.18 0 18.62 0ZM17.5 1.96L9.8 7.28L2.1 1.96H17.5ZM1.82 3.64L9.38 8.82C9.52 8.96 9.66 8.96 9.8 8.96C9.94 8.96 10.08 8.96 10.22 8.82L17.78 3.64V12.04L13.02 8.4C13.02 8.4 12.88 8.4 13.02 8.54C13.16 8.68 15.68 12.18 15.68 12.18H4.06C4.06 12.18 6.58 8.68 6.72 8.54C6.72 8.4 6.72 8.4 6.72 8.4L1.82 12.04V3.64Z" fill="currentColor"/>
</svg>
