<svg width="26" height="26" viewBox="0 0 26 26" fill="none" xmlns="http://www.w3.org/2000/svg">
<g clip-path="url(#clip0_7649_76007)">
<path d="M22.3321 0H3.66786C1.64216 0 0 1.64216 0 3.66786V22.3321C0 24.3578 1.64216 26 3.66786 26H22.3321C24.3578 26 26 24.3578 26 22.3321V3.66786C26 1.64216 24.3578 0 22.3321 0Z" fill="black"/>
<path d="M2.88977 19.8544V13.7109H4.64291C6.72291 13.7109 7.87434 14.7509 7.87434 16.6044C7.87434 18.8329 6.61891 19.8544 4.60577 19.8544H2.88977ZM4.00406 18.9258H4.65034C5.8872 18.9258 6.6932 18.2609 6.6932 16.6601C6.6932 15.3285 5.8872 14.6358 4.56677 14.6358H4.00963L4.00406 18.9258Z" fill="white"/>
<path d="M9.39902 13.2995C9.48192 13.2916 9.56556 13.3017 9.64416 13.3292C9.72277 13.3567 9.79448 13.4009 9.85433 13.4588C9.91418 13.5168 9.96076 13.587 9.99084 13.6646C10.0209 13.7423 10.0338 13.8255 10.0286 13.9086C10.0312 13.9905 10.0165 14.072 9.98548 14.1478C9.95447 14.2237 9.90784 14.2921 9.84862 14.3487C9.7894 14.4053 9.71892 14.4488 9.64177 14.4763C9.56463 14.5038 9.48254 14.5148 9.40087 14.5085C9.319 14.5179 9.23607 14.5089 9.15806 14.4824C9.08005 14.4558 9.0089 14.4123 8.94975 14.3549C8.8906 14.2975 8.84491 14.2277 8.81598 14.1506C8.78705 14.0734 8.7756 13.9908 8.78245 13.9086C8.77837 13.8269 8.79158 13.7453 8.82123 13.669C8.85087 13.5928 8.89628 13.5237 8.95448 13.4662C9.01267 13.4087 9.08235 13.3641 9.15896 13.3354C9.23556 13.3067 9.31736 13.2944 9.39902 13.2995ZM9.93202 19.8552H8.8753V15.2476L9.93202 15.2012V19.8552Z" fill="white"/>
<path d="M12.4985 18.9569H13.6128C14.6064 18.9569 15.028 19.3506 15.028 20.099C15.028 20.9811 14.2963 21.6924 12.6137 21.6924C11.2933 21.6924 10.6841 21.2244 10.6841 20.502C10.6825 20.2842 10.748 20.0711 10.8716 19.8917C10.9951 19.7124 11.1709 19.5753 11.375 19.4991V19.4694C11.2625 19.4106 11.1684 19.3219 11.1029 19.2132C11.0374 19.1044 11.003 18.9798 11.0035 18.8529C11.0062 18.6977 11.0575 18.5472 11.1501 18.4226C11.2427 18.298 11.372 18.2056 11.5198 18.1583V18.1304C11.0983 17.8964 10.855 17.5027 10.855 16.9047C10.855 15.7811 11.6127 15.172 12.7845 15.172C13.0248 15.1696 13.2642 15.2009 13.4958 15.2649H14.9945V15.9706H14.287V15.9984C14.409 16.1074 14.5056 16.242 14.5698 16.3925C14.634 16.543 14.6642 16.7059 14.6584 16.8694C14.6584 17.8909 13.9657 18.4257 12.6917 18.4257C12.4954 18.426 12.3 18.4004 12.1104 18.3496C12.0549 18.3765 12.0076 18.4177 11.9734 18.4689C11.9391 18.5202 11.9191 18.5796 11.9154 18.6411C11.9098 18.8454 12.0714 18.9569 12.4985 18.9569ZM12.6954 20.905C13.7075 20.905 14.0715 20.6524 14.0715 20.2866C14.0715 20.0154 13.9044 19.865 13.4438 19.8557L11.9098 19.8093C11.8275 19.86 11.7605 19.9319 11.7157 20.0176C11.6709 20.1032 11.6501 20.1994 11.6554 20.2959C11.6554 20.6617 11.9748 20.905 12.6954 20.905ZM13.6704 16.784C13.6704 16.2269 13.3603 15.9223 12.7697 15.9223C12.246 15.9223 11.8708 16.2231 11.8708 16.8509C11.8708 17.4786 12.2088 17.7033 12.7511 17.7033C13.3324 17.7014 13.6704 17.4303 13.6704 16.784Z" fill="white"/>
<path d="M16.2445 13.2993C16.3272 13.2917 16.4106 13.302 16.489 13.3296C16.5674 13.3573 16.6389 13.4016 16.6985 13.4594C16.7582 13.5173 16.8046 13.5874 16.8345 13.6649C16.8645 13.7424 16.8774 13.8255 16.8722 13.9085C16.8748 13.9903 16.8601 14.0718 16.8291 14.1477C16.7981 14.2235 16.7514 14.2919 16.6922 14.3485C16.633 14.4051 16.5625 14.4486 16.4854 14.4761C16.4082 14.5037 16.3261 14.5146 16.2445 14.5083C16.1627 14.5174 16.08 14.5082 16.0022 14.4815C15.9245 14.4548 15.8535 14.4113 15.7946 14.3539C15.7357 14.2966 15.6902 14.2269 15.6613 14.1499C15.6325 14.0729 15.6211 13.9904 15.6279 13.9085C15.6238 13.8268 15.637 13.7451 15.6667 13.6689C15.6963 13.5926 15.7417 13.5235 15.7999 13.466C15.8581 13.4085 15.9278 13.3639 16.0044 13.3352C16.081 13.3065 16.1628 13.2943 16.2445 13.2993ZM16.7793 19.855H15.7207V15.2475L16.7793 15.201V19.855Z" fill="#E17000"/>
<path d="M18.1183 19.8544V13.7109H19.8714C21.9514 13.7109 23.1029 14.7509 23.1029 16.6044C23.1029 18.8329 21.8474 19.8544 19.8343 19.8544H18.1183ZM19.2326 18.9258H19.8789C21.1157 18.9258 21.9217 18.2609 21.9217 16.6601C21.9217 15.3285 21.1157 14.6358 19.7953 14.6358H19.2381L19.2326 18.9258Z" fill="#E17000"/>
</g>
<defs>
<clipPath id="clip0_7649_76007">
<rect width="26" height="26" fill="white"/>
</clipPath>
</defs>
</svg>
