<svg width="24" height="24" viewBox="0 0 24 24" fill="none" xmlns="http://www.w3.org/2000/svg"><g clip-path="url(#a)" fill="currentColor"><path d="M18 17v2H6v-2H3v4a1 1 0 0 0 1 1h16a1 1 0 0 0 1-1v-4h-3Z"/><path d="M10.94 16.476a1.354 1.354 0 0 0 2.118 0l5.782-7.233a1.354 1.354 0 0 0-1.776-1.995l-3.065 1.914V3.42c0-1.088-.94-1.411-1.999-1.411-1.061 0-2 .323-2 1.41v5.743L6.934 7.248a1.354 1.354 0 0 0-1.776 1.996l5.782 7.232Z"/></g><defs><clipPath id="a"><path fill="#fff" d="M0 0h24v24H0z"/></clipPath></defs></svg>
