<svg xmlns="http://www.w3.org/2000/svg" viewBox="0 0 24 13" width="24" height="13" fill="none"><path fill="white" d="M12 11.95c2.441 0 3.553-.628 5.256-2.092.602-.517 1.278-1.284 2.113-1.983l-.468-1.03s.12-.811.197-1.225c.12-.636.21-2.262.21-2.262-3.612 0-4.716-.37-5.243-.796C13.39 2.016 12.978 1.45 12 1.45c-.977 0-1.39.566-2.064 1.112-.528.426-1.632.796-5.244.796 0 0 .09 1.626.21 2.262.078.414.197 1.226.197 1.226l-.468 1.029c.934.782 1.67 1.609 2.325 2.164C8.543 11.383 9.662 11.95 12 11.95Z"/><path fill="currentColor" d="M23.225 3.94c-.085-1.01-.709-1.697-1.628-1.795-.528-.057-1.288.084-2.033.556-.632-.03-4.185.078-5.087-.65C13.819 1.52 13.242.795 12 .795c-1.228 0-1.786.7-2.477 1.257-.893.722-4.355.616-5.087.65-.745-.472-1.505-.613-2.032-.556-.92.097-1.544.786-1.63 1.795C.642 5.526 1.82 7.495 4.31 8.465c.756.645 1.659 1.598 2.222 2.075 1.654 1.4 2.894 2.066 5.468 2.066 2.623 0 3.873-.694 5.684-2.25.527-.454 1.263-1.252 2.012-1.893 2.486-.971 3.663-2.938 3.53-4.523ZM1.71 4.019c.027-.323.166-.875.794-.942.32-.034.925.052 1.543.482.027.437.107 1.628.211 2.183.053.28.125.748.164 1.009l-.28.617c-1.874-.927-2.507-2.46-2.432-3.35Zm15.12 5.341c-1.66 1.427-2.64 1.934-4.829 1.934-2.193 0-3.157-.518-4.62-1.756C6.84 9.08 6.206 8.391 5.432 7.7l.319-.702L9.808 8.09c.047-.05.081-.182-.109-.287L5.55 5.507 5.546 5.5c-.06-.318-.117-.96-.156-1.49 3.186-.046 4.303-.409 4.957-.937.69-.557.953-.966 1.651-.966.697 0 .958.405 1.652.966.654.528 1.77.892 4.956.937-.039.53-.095 1.172-.155 1.49l-.002.009-4.15 2.294c-.19.105-.156.237-.11.288l4.058-1.091.32.703c-.6.541-1.295 1.276-1.74 1.658Zm3.03-1.992-.28-.617c.039-.261.11-.729.164-1.01.104-.554.184-1.745.21-2.182.62-.43 1.224-.516 1.544-.482.627.067.767.619.794.942.075.888-.558 2.423-2.432 3.35Z"/></svg>
