<svg width="16" height="16" viewBox="0 0 16 16" fill="none" xmlns="http://www.w3.org/2000/svg"><path fill-rule="evenodd" clip-rule="evenodd" d="M8 0C3.627 0 0 3.627 0 8s3.627 8 8 8 8-3.627 8-8-3.627-8-8-8Zm0 14.72A6.692 6.692 0 0 1 1.28 8 6.692 6.692 0 0 1 8 1.28 6.692 6.692 0 0 1 14.72 8 6.692 6.692 0 0 1 8 14.72ZM7.947 3.305c-.32 0-.64.106-.854.32-.213.213-.32.533-.32.853 0 .427.107.64.32.853.214.32.534.427.96.427.32 0 .64-.107.854-.32.213-.213.32-.533.32-.853 0-.427-.107-.747-.32-.854-.32-.32-.534-.426-.96-.426Zm.803 9.39V7.187l-1.5.46v5.048h1.5Z" fill="currentColor"/></svg>
