<svg width="47" height="54" viewBox="0 0 47 54" fill="none" xmlns="http://www.w3.org/2000/svg"><path d="M0 21.962C.21 15.52 3.275 9.339 9.298 4.737 15.413.07 22.45-.97 29.817.835c4.583 1.124 8.425 3.676 11.539 7.273 5.371 6.209 6.707 13.355 4.86 21.067-1.207 4.994-4.188 9.022-8.332 12.204-2.052 1.583-4.374 2.62-6.695 3.711a13.277 13.277 0 0 0-2.913 2.054c-1.155 1.001-2.177 4.989-3.291 6.014-1.114 1.025-1.702 1.151-2.913.174-1.11-.898-2.15-4.727-3.11-5.78-1.513-1.662-3.436-2.683-5.443-3.585a22.5 22.5 0 0 1-9.874-8.615C1.24 31.601-.02 27.51 0 21.962Z" fill="currentColor"/><path d="M23.515 37.603c8.271 0 14.976-6.725 14.976-15.021 0-8.296-6.705-15.021-14.976-15.021S8.538 14.286 8.538 22.581c0 8.297 6.706 15.022 14.977 15.022Z" fill="#fff"/><path d="m33.054 17.147-3.15-3.16c-.515-.517-1.271.162-.937.765.389.702.598 1.029.598 1.029l-1.775 1.78s.302.603.823 1.66c.05.102-.009.14-.028.15L25.2 15.973c-.399-.399-1.2.216-.85.839.344.609.831 1.415.831 1.415l-5.864 5.882a1.38 1.38 0 0 0-.377.705l-.615 3.231-3.51 3.642h1.183l3.037-2.926 3.231-.61a1.38 1.38 0 0 0 .706-.378l5.863-5.88s.804.488 1.412.832c.62.352 1.234-.452.836-.852l-2.095-2.1 2.28-2.287s.325.21 1.025.6c.602.335 1.278-.423.762-.94l-.001.001Zm-6.498 5.064-.972-.975-.486.975.729.732-.73.731-.971-.975-.486.975.729.732-.73.73-.972-.974-.486.975.73.731-.73.732-1.701-1.707 5.59-5.607 1.702 1.706-1.216 1.219Z" fill="#154273"/></svg>
