<svg xmlns="http://www.w3.org/2000/svg" viewBox="0 0 28 35" width="28" height="35" fill="none"><path fill="currentColor" d="M0 6.863a2 2 0 0 1 1.269-1.861L12.172.718a5 5 0 0 1 3.656 0l10.903 4.284A2 2 0 0 1 28 6.863v13.908c0 2.234-.927 4.369-2.627 5.817C22.126 29.356 16.698 33.663 14 34c-2.778.347-8.451-4.48-11.657-7.46C.81 25.116 0 23.105 0 21.014V6.864Z"/><path fill="#fff" fill-rule="evenodd" d="M10 12.5a4 4 0 0 1 8 0v2h1a1 1 0 0 1 1 1v8a1 1 0 0 1-1 1H9a1 1 0 0 1-1-1v-8a1 1 0 0 1 1-1h1v-2Zm2 2h4v-2a2 2 0 0 0-4 0v2Z" clip-rule="evenodd"/></svg>
