<svg xmlns="http://www.w3.org/2000/svg" width="22" height="15" fill="currentColor" viewBox="0 0 22 15">
  <path d="M17.812 5.75h-4.667L8.162 1.078a.75.75 0 0 0-.513-.203h-.526a.18.18 0 0 0-.168.244l1.477 3.939 2.79.56c.115.037.098.112.09.132H8.355c-1.662 0-3.075.081-4.238.2L1.3 2.57a.541.541 0 0 0-.416-.195H.305a.18.18 0 0 0-.17.237l1.253 3.76c-.448.102-.78.201-.995.284-.294.114-.371.506-.104.677 1.684 1.076 5.665 1.872 8.084 2.099L4.29 14.456a.18.18 0 0 0 .14.294h1.201a.75.75 0 0 0 .41-.122L13.885 9.5h4.362c1.954 0 3.405-.606 3.609-1.43.189-.763-1.004-2.32-4.044-2.32Z"/>
</svg>
