<svg width="54" height="81" viewBox="0 0 54 81" fill="none" xmlns="http://www.w3.org/2000/svg">
<path d="M54 0H0V81H54V0Z" fill="#154273"/>
<path d="M27.9719 56.5487H27.0323V53.9459H27.9719V56.5487ZM32.2163 45.0576H31.2767V42.4547H32.2163V45.0576ZM14.8067 40.5648C14.7311 40.5648 14.2451 40.5648 14.2451 40.662C14.2451 40.7592 14.4719 40.716 14.8067 40.77C15.5627 40.8996 15.8543 41.2776 16.3835 41.2776C16.8587 41.2776 17.3555 40.9535 17.1611 40.2623C17.1287 40.1435 17.0639 40.176 17.0423 40.2516C16.9667 40.5648 16.5887 40.7376 16.1891 40.7376C15.6923 40.7376 15.5951 40.5648 14.8067 40.5648ZM9.63353 43.1676C9.71993 43.2864 10.6055 44.4312 9.24473 44.874C9.17993 44.8956 9.16913 44.9496 9.25553 44.9928C10.2599 45.414 10.7459 44.6364 10.7459 44.6364C11.2535 45.8028 10.4759 46.44 10.4759 46.44C10.5839 46.6452 11.0699 47.0015 11.7935 47.1635C12.0743 47.0123 12.4631 46.7316 12.6251 46.2996C12.6251 46.2996 12.8195 46.8072 12.6467 47.2932C14.6987 47.4768 15.4223 45.8352 17.0099 46.1376C17.0531 46.1484 17.0747 46.116 17.0747 46.0728C17.0747 45.0576 16.4591 43.2108 14.4935 42.8328C12.5387 42.4548 13.0679 41.6556 13.0679 41.6556C13.8887 41.6231 14.3639 41.9795 14.3639 41.9795C14.5151 41.7311 14.2991 41.472 14.2991 41.472C14.3747 41.3748 14.4179 41.04 14.4179 41.04C13.4891 41.04 13.2515 40.8348 13.2515 40.8348C13.1111 40.284 13.4891 39.5063 14.8715 40.3379C15.2171 40.0355 15.1847 39.5604 15.1847 39.5604C15.2927 39.5064 15.3575 39.3443 15.3575 39.2795C15.3575 39.0527 14.2559 38.4372 13.9751 38.3616C13.9103 38.0268 13.4783 37.5516 12.1823 37.7244C11.5667 37.8 11.1239 37.638 11.3291 37.2816C11.3615 37.2168 11.2535 37.2059 11.1995 37.2707C11.0591 37.4111 10.8647 37.8107 11.3939 38.0807C11.9879 38.3831 12.0203 38.9771 12.0311 39.0635C12.0419 39.1931 11.8907 39.204 11.8583 39.0744C11.5883 38.07 10.2059 37.854 9.39593 38.3832C9.43913 38.9232 10.0223 39.2795 10.3355 39.2795C10.5191 39.2795 10.7675 39.096 10.7675 38.8476C10.7675 38.7288 10.8323 38.7395 10.8647 38.8368C10.9943 39.1931 10.4651 39.9384 9.68753 39.4848C8.88833 40.284 9.21233 41.2775 9.28793 41.6339C9.42833 42.2819 9.11513 42.9192 8.52113 42.6276C8.48873 42.6168 8.45633 42.606 8.45633 42.6708C8.46713 43.0596 8.99633 43.524 9.63353 43.1676ZM14.0399 39.1392C13.6619 39.5604 13.0571 39.4632 12.9059 38.772C13.6835 38.7288 14.0075 38.8044 14.0399 39.1392ZM37.8755 40.7376C37.4759 40.7376 37.0979 40.5648 37.0223 40.2516C37.0007 40.176 36.9359 40.1435 36.9035 40.2623C36.7091 40.9535 37.2059 41.2776 37.6811 41.2776C38.2103 41.2776 38.5019 40.8996 39.2579 40.77C39.5927 40.716 39.8195 40.77 39.8195 40.662C39.8195 40.5648 39.3335 40.5648 39.2579 40.5648C38.4803 40.5648 38.3723 40.7376 37.8755 40.7376ZM45.6083 42.6491C45.6083 42.5843 45.5759 42.5951 45.5435 42.6059C44.9495 42.8975 44.6363 42.2711 44.7767 41.6123C44.8523 41.2451 45.1763 40.2624 44.3771 39.4632C43.5887 39.9168 43.0595 39.1715 43.1999 38.8151C43.2323 38.7179 43.2971 38.7072 43.2971 38.826C43.2971 39.0744 43.5455 39.2579 43.7291 39.2579C44.0423 39.2579 44.6255 38.9016 44.6687 38.3616C43.8587 37.8324 42.4763 38.0484 42.2063 39.0528C42.1739 39.1824 42.0227 39.1716 42.0335 39.042C42.0335 38.9556 42.0767 38.3616 42.6707 38.0592C43.2107 37.7892 43.0163 37.3896 42.8651 37.2492C42.8111 37.1952 42.6923 37.206 42.7355 37.26C42.9407 37.6164 42.4979 37.7784 41.8931 37.7028C40.5971 37.53 40.1759 38.016 40.1003 38.34C39.8195 38.4156 38.7179 39.0311 38.7179 39.2579C38.7179 39.3227 38.7827 39.4956 38.8907 39.5388C38.8907 39.5388 38.8691 40.0032 39.2039 40.3164C40.5755 39.4848 40.9643 40.2624 40.8239 40.8132C40.8239 40.8132 40.5755 41.0076 39.6467 41.0184C39.6467 41.0184 39.6899 41.3532 39.7655 41.4504C39.7655 41.4504 39.5495 41.7203 39.7007 41.9579C39.7007 41.9579 40.1759 41.6016 40.9967 41.6339C40.9967 41.6339 41.5259 42.4332 39.5711 42.8111C37.6163 43.1891 36.9899 45.0359 36.9899 46.0511C36.9899 46.1052 37.0115 46.1267 37.0547 46.1159C38.6423 45.8243 39.3659 47.4659 41.4179 47.2715C41.2343 46.7855 41.4395 46.2779 41.4395 46.2779C41.6015 46.7099 41.9903 47.0016 42.2711 47.142C43.0055 46.98 43.4807 46.6344 43.5887 46.4184C43.5887 46.4184 42.8111 45.7811 43.3187 44.6147C43.3187 44.6147 43.8047 45.3923 44.8091 44.9711C44.8955 44.9279 44.8739 44.8739 44.8199 44.8523C43.4591 44.4095 44.3447 43.2647 44.4311 43.1459C45.0683 43.5239 45.6083 43.0595 45.6083 42.6491ZM41.1587 38.772C41.0075 39.4632 40.4027 39.5604 40.0247 39.1392C40.0571 38.8044 40.3919 38.7288 41.1587 38.772ZM26.6759 27.2268C26.6759 27.3996 26.7515 27.5508 26.8055 27.6372C26.9243 27.81 26.9027 27.9072 26.8487 27.9612C26.7947 28.0152 26.6975 28.0367 26.5247 27.9179C26.4383 27.8531 26.2871 27.7884 26.1143 27.7884C25.8227 27.7884 25.6715 27.9828 25.6715 28.1448C25.6715 28.3068 25.8227 28.5012 26.1143 28.5012C26.2871 28.5012 26.4383 28.4256 26.5247 28.3716C26.6975 28.2528 26.7947 28.2744 26.8487 28.3284C26.9027 28.3824 26.8271 28.9764 26.7515 29.4516C26.2655 29.5596 26.0279 29.9483 26.0279 30.1751C26.0279 30.7691 26.6543 31.104 27.0323 31.3092C27.3995 31.1148 28.0367 30.7691 28.0367 30.1751C28.0367 29.9483 27.7991 29.5488 27.3131 29.4516C27.2483 28.9872 27.1619 28.3824 27.2159 28.3284C27.2699 28.2744 27.3671 28.2528 27.5399 28.3716C27.6263 28.4364 27.7775 28.5012 27.9503 28.5012C28.2419 28.5012 28.3931 28.3068 28.3931 28.1448C28.3931 27.9828 28.2419 27.7884 27.9503 27.7884C27.7775 27.7884 27.6263 27.8639 27.5399 27.9179C27.3671 28.0367 27.2699 28.0152 27.2159 27.9612C27.1619 27.9072 27.1403 27.81 27.2591 27.6372C27.3239 27.5508 27.3887 27.3996 27.3887 27.2268C27.3887 26.9352 27.1943 26.784 27.0323 26.784C26.8703 26.784 26.6759 26.9352 26.6759 27.2268ZM27.0323 31.6116C26.6327 31.6116 26.3087 31.9355 26.3087 32.3351C26.3087 32.7347 26.6327 33.0588 27.0323 33.0588C27.4319 33.0588 27.7559 32.7347 27.7559 32.3351C27.7559 31.9355 27.4319 31.6116 27.0323 31.6116ZM27.0323 38.5344C29.9159 38.5344 31.5359 39.0851 31.5359 39.0851C31.5467 37.6271 31.5467 36.8172 32.3783 36.936C31.9247 35.7156 33.8903 35.2296 33.8903 33.642C33.8903 32.5944 33.1451 32.4756 32.9291 32.4756C32.2811 32.4756 32.3783 32.8967 31.8275 32.8967C31.7627 32.8967 31.6871 32.8752 31.6871 32.9292C31.6871 33.1128 31.8383 33.426 32.0975 33.426C32.4431 33.426 32.4431 33.0804 32.7023 33.0804C32.8103 33.0804 32.9723 33.1668 32.9723 33.5232C32.9723 34.2036 32.5295 34.9488 32.0003 35.532C31.8815 35.37 31.7195 35.262 31.5143 35.262C31.2011 35.262 30.9311 35.586 30.9311 35.9856C30.9311 36.1368 30.9527 36.2447 31.0067 36.3635C30.8339 36.4607 30.6719 36.5148 30.5639 36.5148C30.3263 36.5148 29.9699 36.4176 29.9699 35.8992C29.9699 34.7436 31.5143 33.7284 31.5143 32.2596C31.5143 31.5575 31.0499 30.8664 30.0671 30.8664C29.0195 30.8664 29.2139 31.8168 28.3067 31.8168C28.2635 31.8168 28.2311 31.8275 28.2311 31.8707C28.2311 31.9355 28.3931 32.4648 28.8575 32.4648C29.3543 32.4648 29.4947 31.6007 29.9483 31.6007C30.1103 31.6007 30.3587 31.698 30.3587 32.2812C30.3587 32.7348 30.1319 33.48 29.8079 34.182C29.6891 34.0632 29.5271 33.9767 29.3543 33.9767C28.9655 33.9767 28.6847 34.3548 28.6847 34.7976C28.6847 35.0784 28.7927 35.3592 28.9871 35.532C28.7603 35.8236 28.5227 36.0612 28.2095 36.0612C27.5831 36.0612 27.3131 35.7048 27.3131 35.316C27.3131 34.8948 28.0799 34.7436 28.0799 34.0956C28.0799 33.6528 27.7883 33.4044 27.5183 33.4044C27.2159 33.4044 27.0647 33.5988 27.0323 33.5988C26.9999 33.5988 26.8487 33.4044 26.5463 33.4044C26.2655 33.4044 25.9847 33.6528 25.9847 34.0956C25.9847 34.7436 26.7515 34.9056 26.7515 35.316C26.7515 35.7048 26.4707 36.0612 25.8551 36.0612C25.5419 36.0612 25.3043 35.8236 25.0775 35.532C25.2719 35.3484 25.3799 35.0784 25.3799 34.7976C25.3799 34.344 25.0991 33.9767 24.7103 33.9767C24.5267 33.9767 24.3755 34.0632 24.2567 34.182C23.9327 33.4692 23.7059 32.7348 23.7059 32.2812C23.7059 31.698 23.9543 31.6007 24.1163 31.6007C24.5591 31.6007 24.6995 32.4648 25.2071 32.4648C25.6715 32.4648 25.8335 31.9355 25.8335 31.8707C25.8335 31.8383 25.8011 31.8168 25.7579 31.8168C24.8507 31.8168 25.0451 30.8664 23.9975 30.8664C23.0255 30.8664 22.5503 31.5575 22.5503 32.2596C22.5503 33.7284 24.0947 34.7436 24.0947 35.8992C24.0947 36.4176 23.7383 36.5148 23.5007 36.5148C23.3819 36.5148 23.2307 36.4607 23.0579 36.3635C23.1119 36.2339 23.1335 36.1368 23.1335 35.9856C23.1335 35.586 22.8635 35.262 22.5503 35.262C22.3559 35.262 22.1939 35.37 22.0751 35.532C21.5459 34.9488 21.1031 34.2036 21.1031 33.5232C21.1031 33.1776 21.2651 33.0804 21.3731 33.0804C21.6215 33.0804 21.6323 33.426 21.9779 33.426C22.2371 33.426 22.3883 33.1128 22.3883 32.9292C22.3883 32.8752 22.3127 32.8967 22.2479 32.8967C21.6971 32.8967 21.7943 32.4756 21.1463 32.4756C20.9303 32.4756 20.1851 32.5944 20.1851 33.642C20.1851 35.2404 22.1507 35.7156 21.6971 36.936C22.5287 36.8172 22.5179 37.6271 22.5395 39.0851C22.5287 39.0851 24.1487 38.5344 27.0323 38.5344ZM21.7511 40.6835C20.9627 40.8563 20.4011 41.0183 20.1527 41.094C20.1635 40.7484 20.2931 40.4243 20.6063 40.3595C20.6495 40.3487 20.6603 40.2948 20.6171 40.2732C19.9151 39.8088 19.5479 40.6943 19.5371 40.7267C19.2887 40.7051 18.9107 40.7808 18.9107 41.1156C18.9107 42.12 16.6211 42.6707 16.0919 42.7571C17.0315 43.1135 17.4203 44.3015 17.4203 44.3015C18.1007 43.6211 18.8891 43.0271 19.0727 43.0271C19.2563 43.0271 19.3211 43.2539 19.3319 43.3835C19.3319 43.4267 19.3751 43.4376 19.4075 43.4052C19.7639 42.876 19.5911 42.7572 19.5587 42.5952C19.5371 42.4764 19.5695 42.012 20.0879 42.066V48.7512L19.8179 48.8052C19.6991 48.8268 18.7163 47.9952 17.6039 47.2176C16.4807 46.44 15.8867 46.9044 14.6123 47.5956C12.9383 48.5028 11.2535 47.682 11.2535 47.682C9.81713 48.708 9.32033 51.6888 9.32033 51.6888C9.02873 51.8076 8.55353 51.9371 8.11073 51.9371C7.00913 51.9371 6.81473 51.2676 6.81473 50.8787C6.81473 49.1832 8.94233 48.4595 8.94233 46.7855C8.94233 46.3752 8.75873 44.7335 6.71753 44.7335C6.45833 44.7335 4.90313 44.7335 4.89233 44.7335C4.12553 44.7335 3.94193 44.1828 3.83393 43.9776C3.79073 43.8912 3.71513 43.9452 3.74753 44.01C3.80153 44.1504 3.66113 44.3664 3.66113 44.7876C3.66113 45.468 4.06073 45.8784 4.80593 45.8784C5.14073 45.8784 5.46473 45.7812 5.56193 45.7164C5.62673 45.6732 5.66993 45.7379 5.63753 45.7811C5.31353 46.1591 5.29193 46.872 5.42153 47.034C5.45393 47.0772 5.49713 47.0664 5.49713 47.034C5.68073 46.3212 6.35033 45.6408 7.25753 45.6408C8.36993 45.6408 8.35913 46.5803 8.35913 46.8071C8.35913 48.1679 5.97233 49.1616 5.97233 51.0408C5.97233 52.9416 7.98113 53.3412 9.13673 53.0496C9.07193 54.9504 6.89033 55.5984 6.82553 54.2376C6.82553 54.1728 6.77153 54.162 6.73913 54.2484C6.46913 54.918 6.57713 55.5119 7.41953 55.6955C7.47353 55.7063 7.45193 55.7388 7.39793 55.782C6.55553 56.3112 7.00913 58.4064 7.05233 59.0219C7.11713 59.9076 6.23153 59.7995 6.15593 59.7779C6.12353 59.7671 6.08033 59.7779 6.14513 59.8535C6.77153 60.6203 7.54913 59.9184 7.54913 59.9184C8.13233 60.102 7.77593 60.5987 7.37633 60.8579C7.31153 60.9011 7.32233 60.9444 7.38713 60.9444C7.47353 60.9552 8.38073 61.0307 8.54273 60.3071C8.94233 60.7823 9.53633 60.6095 9.65513 60.5447C9.82793 60.4583 10.6811 60.1451 10.7567 61.0956C10.7567 61.1603 10.7999 61.1171 10.8323 61.0847C11.4695 60.2747 10.7891 59.778 10.4003 59.724C10.4327 59.6808 10.9403 59.2488 11.4047 59.8428C11.4371 59.886 11.4695 59.8967 11.4695 59.8103C11.5235 58.7843 10.6919 58.698 10.1519 59.1408C10.1303 59.0328 9.94673 58.4604 10.7567 58.482C10.7783 58.482 10.8107 58.4495 10.7783 58.4171C10.1519 57.7475 9.63353 58.3523 9.50393 58.5035C9.22313 58.8383 8.52113 58.6979 8.45633 58.6979C8.67233 55.1447 11.8043 56.4083 12.2363 54.6803C12.2579 54.5939 12.3011 54.6264 12.3011 54.6588C12.4199 55.08 13.4783 55.134 13.6727 54.3132C13.6835 54.2592 13.6727 54.2267 13.6403 54.2591C12.7331 55.1663 10.6919 52.3368 13.4783 50.0364C15.8543 48.0816 17.9819 49.1724 18.7919 49.8096C18.8351 50.0904 18.6623 50.1875 18.5543 50.2199C18.5111 50.2307 18.5003 50.2631 18.5651 50.2955C18.7919 50.382 19.1051 50.3496 19.2563 50.1444C19.7639 50.5007 19.3319 50.9544 19.1267 51.0732C19.0727 51.1056 19.0943 51.138 19.1375 51.1488C19.6019 51.2352 19.9907 50.7599 20.0123 50.4791L20.0879 50.5223V52.542C20.0879 55.4148 23.4035 55.8144 27.0431 58.2444C30.6827 55.8036 33.9875 55.4148 33.9875 52.542V50.5223L34.0631 50.4791C34.0847 50.7491 34.4627 51.2352 34.9379 51.1488C34.9811 51.138 35.0027 51.1056 34.9487 51.0732C34.7435 50.9436 34.3007 50.5007 34.8191 50.1444C34.9703 50.3603 35.2835 50.382 35.5103 50.2955C35.5751 50.274 35.5643 50.2307 35.5211 50.2199C35.4131 50.1875 35.2403 50.0904 35.2835 49.8096C36.0935 49.1616 38.2211 48.0708 40.5971 50.0364C43.3835 52.3368 41.3423 55.1555 40.4351 54.2591C40.3919 54.2159 40.3919 54.2592 40.4027 54.3132C40.5971 55.1448 41.6555 55.08 41.7743 54.6588C41.7851 54.6264 41.8283 54.5939 41.8391 54.6803C42.2711 56.4083 45.3923 55.1447 45.6191 58.6979C45.5543 58.7087 44.8523 58.8383 44.5715 58.5035C44.4527 58.3631 43.9343 57.7475 43.2971 58.4171C43.2539 58.4603 43.2971 58.482 43.3187 58.482C44.1287 58.4604 43.9559 59.0328 43.9235 59.1408C43.3835 58.698 42.5519 58.7843 42.6059 59.8103C42.6059 59.8859 42.6383 59.886 42.6707 59.8428C43.1351 59.2488 43.6427 59.6808 43.6751 59.724C43.2971 59.778 42.6059 60.2747 43.2431 61.0847C43.2755 61.1171 43.3079 61.1603 43.3187 61.0956C43.4051 60.1451 44.2475 60.4475 44.4203 60.5447C44.5391 60.6095 45.1331 60.7823 45.5327 60.3071C45.6947 61.0307 46.6019 60.9552 46.6883 60.9444C46.7531 60.9444 46.7531 60.9011 46.6991 60.8579C46.3103 60.5987 45.9431 60.102 46.5263 59.9184C46.5263 59.9184 47.3039 60.6203 47.9303 59.8535C47.9843 59.7887 47.9519 59.7671 47.9195 59.7779C47.8439 59.7995 46.9583 59.9076 47.0231 59.0219C47.0663 58.4064 47.5199 56.3112 46.6775 55.782C46.6235 55.7496 46.6019 55.7171 46.6559 55.6955C47.4983 55.5119 47.6063 54.918 47.3363 54.2484C47.3039 54.162 47.2499 54.1836 47.2499 54.2376C47.1851 55.5984 45.0143 54.9504 44.9387 53.0496C46.1051 53.352 48.1031 52.9416 48.1031 51.0408C48.1031 49.1724 45.7163 48.1679 45.7163 46.8071C45.7163 46.5803 45.7055 45.6408 46.8179 45.6408C47.7251 45.6408 48.3947 46.3212 48.5783 47.034C48.5891 47.0664 48.6215 47.0772 48.6539 47.034C48.7835 46.8612 48.7619 46.1591 48.4379 45.7811C48.4055 45.7487 48.4379 45.6732 48.5135 45.7164C48.6107 45.7812 48.9347 45.8784 49.2695 45.8784C50.0147 45.8784 50.4143 45.468 50.4143 44.7876C50.4143 44.3664 50.2631 44.1504 50.3279 44.01C50.3603 43.9452 50.2739 43.902 50.2415 43.9776C50.1335 44.1936 49.9391 44.7335 49.1831 44.7335C49.1723 44.7335 47.6171 44.7335 47.3579 44.7335C45.3167 44.7335 45.1331 46.386 45.1331 46.7855C45.1331 48.4595 47.2607 49.1832 47.2607 50.8787C47.2607 51.2784 47.0555 51.9371 45.9647 51.9371C45.5111 51.9371 45.0359 51.8076 44.7551 51.6888C44.7551 51.6888 44.2691 48.7188 42.8219 47.682C42.8219 47.682 41.1371 48.5028 39.4631 47.5956C38.1887 46.9044 37.5839 46.44 36.4607 47.2176C35.3375 47.9952 34.3655 48.8268 34.2467 48.8052L33.9767 48.7512V42.066C34.4951 42.012 34.5275 42.4764 34.5059 42.5952C34.4735 42.7464 34.3115 42.876 34.6571 43.4052C34.6895 43.4484 34.7219 43.4267 34.7327 43.3835C34.7435 43.2539 34.8191 43.0271 34.9919 43.0271C35.1647 43.0271 35.9639 43.6211 36.6443 44.3015C36.6443 44.3015 37.0331 43.1243 37.9727 42.7571C37.4435 42.6707 35.1539 42.12 35.1539 41.1156C35.1539 40.7808 34.7759 40.7051 34.5275 40.7267C34.5167 40.6943 34.1387 39.8088 33.4475 40.2732C33.4151 40.2948 33.4151 40.3487 33.4583 40.3595C33.7715 40.4351 33.9011 40.7484 33.9119 41.094C33.2423 40.8888 30.4019 40.0895 27.0323 40.0895C25.3907 40.0895 23.8895 40.284 22.6907 40.5V42.8111H21.7511V40.6835ZM15.5303 64.422C15.2819 64.3247 15.1199 64.1627 15.1199 63.8279V62.3915C14.7095 62.2511 13.5863 61.8191 11.3291 61.8191C9.46073 61.8191 8.87753 62.2403 8.84513 62.3915L8.34833 65.124C8.34833 65.124 9.10433 64.4327 11.8151 64.6055C15.0767 64.8107 18.4571 66.7439 18.4571 64.6811V63.4715C15.9083 63.4823 15.5303 64.3032 15.5303 64.422ZM35.6075 63.4823V64.692C35.6075 66.7439 38.9879 64.8216 42.2495 64.6164C44.9603 64.4436 45.7163 65.1347 45.7163 65.1347L45.2195 62.3915C45.1979 62.2403 44.6039 61.8191 42.7355 61.8191C40.4891 61.8191 39.3659 62.2511 38.9447 62.3915V63.8279C38.9447 64.1519 38.7827 64.3139 38.5343 64.422C38.5451 64.3032 38.1671 63.4823 35.6075 63.4823ZM27.0323 62.2403C32.2919 62.2403 37.6271 62.5104 38.3183 63.3096C38.3723 63.3744 38.3939 63.3095 38.3939 63.2556V60.4691C38.3939 59.6591 32.8859 59.184 27.0215 59.184C21.1571 59.184 15.6491 59.6591 15.6491 60.4691V63.2556C15.6491 63.2987 15.6707 63.3636 15.7247 63.3096C16.4483 62.5212 21.7835 62.2403 27.0323 62.2403ZM22.3451 49.1076L21.8159 48.9671L21.7727 49.032L21.1571 48.762C21.1571 48.762 21.6107 48.762 21.7079 48.762C21.7619 48.762 21.7619 48.7295 21.7403 48.7079C21.4919 48.4595 21.2651 48.2435 21.2651 48.2435C21.2651 48.2435 21.5135 48.3407 21.8699 48.4703C21.9131 48.4811 21.9239 48.4595 21.9023 48.4271C21.7295 48.1787 21.4919 47.8332 21.4919 47.8332C21.4919 47.8332 21.9887 48.168 22.0859 48.2328C22.1183 48.2544 22.1399 48.2327 22.1291 48.2003C21.9995 47.8763 21.8483 47.4984 21.8483 47.4984L22.3883 48.0167C22.4099 48.0383 22.4423 48.0276 22.4315 47.9952C22.3775 47.7468 22.2803 47.2932 22.2803 47.2932L22.6799 47.8764C22.7015 47.9088 22.7339 47.8979 22.7339 47.8655C22.7339 47.7467 22.7447 47.2284 22.7447 47.2284C22.7447 47.2284 22.9175 47.6171 22.9931 47.8115C23.0147 47.8547 23.0363 47.8548 23.0579 47.8008C23.0795 47.736 23.2631 47.304 23.2631 47.304L23.2847 47.9735L23.1983 47.9952L23.0903 48.7943C23.8787 48.6108 24.8723 47.25 25.6283 47.25C26.5355 47.25 26.8595 48.3084 28.5227 47.7684C28.9439 48.3948 29.0951 48.9347 29.2571 49.68C29.9051 50.2847 30.8015 50.0795 30.8015 49.4423C30.8015 48.5783 29.8619 48.4163 29.8619 47.5091C29.8619 47.1095 30.1427 46.5264 30.9095 46.5264C31.3199 46.5264 31.9139 46.6991 32.2595 46.6991C32.6699 46.6991 32.7563 46.4075 32.7995 46.2779C32.8319 46.1915 32.9507 46.2132 32.9399 46.2888C32.9291 46.3752 32.9831 46.494 32.9831 46.6884C32.9831 47.2608 32.1515 47.3364 32.0543 47.2608C32.0111 47.2284 31.9787 47.2716 32.0111 47.304C32.1407 47.4012 32.1083 47.7468 31.9571 47.9628C31.9355 47.9844 31.9139 47.9844 31.9139 47.9628C31.8275 47.5524 31.3415 47.0447 30.9203 47.0447C30.7691 47.0447 30.4559 47.1312 30.4559 47.4984C30.4559 48.006 31.4819 48.4812 31.4819 49.5396C31.4819 50.6412 30.3911 50.9111 29.2895 50.6303C29.3219 51.6779 30.8879 52.2936 30.9203 51.5484C30.9203 51.4944 30.9527 51.5268 30.9635 51.5484C31.1903 51.8724 31.0931 52.11 30.7907 52.2396C31.0607 52.3584 31.1147 52.9092 31.1903 53.244C31.3091 53.7408 31.8275 53.4599 31.8599 53.4491C31.8923 53.4275 31.9031 53.4491 31.8815 53.4815C31.6871 53.9891 31.1579 53.7947 31.1579 53.7947C30.8879 53.9891 31.2119 54.162 31.4603 54.2376C31.4927 54.2484 31.4927 54.2699 31.4711 54.2915C31.2875 54.3563 30.8987 54.4859 30.7043 54.1511C30.5639 54.4967 30.2723 54.4859 30.1643 54.4859C29.9591 54.4859 29.8295 54.6912 29.8727 54.972C29.8727 54.9936 29.8619 55.0043 29.8403 54.9935C29.3651 54.6803 29.6351 54.3024 29.8295 54.2052C29.7971 54.1836 29.4623 54.0432 29.3219 54.432C29.3111 54.4644 29.2895 54.4644 29.2787 54.432C29.0735 53.8704 29.5271 53.7084 29.8511 53.8488C29.8295 53.7731 29.6567 53.4924 29.2247 53.5896C29.2031 53.6004 29.1923 53.5895 29.2031 53.5571C29.2787 53.3843 29.4839 53.136 29.8835 53.3843C30.0887 53.514 30.4343 53.3304 30.4667 53.3088C29.7647 51.9156 28.4147 53.0819 28.1015 51.9911C28.0907 51.9695 28.0691 51.948 28.0475 52.0128C27.9719 52.2396 27.3779 52.2612 27.2699 51.8076C27.2591 51.7752 27.2699 51.7643 27.3023 51.7859C27.3887 51.8723 27.5723 51.9479 27.8207 51.6023C27.9827 51.3647 28.0043 51.0516 28.0043 50.8464C28.0043 50.004 27.1619 48.5784 25.8443 48.5784C25.0127 48.5784 24.1163 48.9024 23.4467 49.3884L24.0623 49.5288C24.0083 50.1552 23.4035 50.5223 22.8527 50.3603L22.9499 49.6476C22.8527 49.68 22.6151 49.7663 22.4855 49.9499C22.4747 49.9608 22.4531 49.9607 22.4531 49.9391C22.3451 49.5287 22.6799 49.3235 22.7771 49.2803C22.7879 49.2695 22.7879 49.2696 22.7663 49.2696C22.4639 49.2588 22.3019 49.4747 22.2479 49.5503C22.2371 49.5611 22.2263 49.5611 22.2263 49.5503C22.2587 49.4639 22.2047 49.2588 22.3451 49.1076ZM24.1919 53.9459C23.9543 54.2375 23.7491 53.9567 23.4359 53.9567C23.1443 53.9567 23.0903 54.2051 23.0903 54.3023C23.0903 54.3239 23.0795 54.3239 23.0687 54.3132C22.7339 53.8596 23.1119 53.6112 23.3279 53.5788C23.2955 53.5464 22.9715 53.3304 22.7663 53.6328C22.7555 53.6544 22.7339 53.6436 22.7339 53.622C22.7231 53.0604 23.1659 53.0171 23.4683 53.2655C23.5223 53.0495 23.3819 52.9092 23.1443 52.8984C23.1119 52.8984 23.1119 52.8767 23.1227 52.8659C23.2199 52.7579 23.3171 52.7147 23.4143 52.7147C23.7275 52.7147 23.7707 53.1143 23.9759 53.1143C24.2783 53.1143 24.7211 52.704 24.7535 52.6608C24.7427 52.6392 24.4511 51.8399 24.5051 51.3647C24.5051 51.3431 24.4943 51.3432 24.4835 51.354C24.3323 51.4404 23.9651 51.4295 23.9651 50.9759C23.9651 50.9435 23.9759 50.9328 23.9975 50.9652C24.1595 51.192 24.4295 50.9327 24.5591 50.7815C24.6995 50.6195 25.4771 49.4964 26.5031 49.4964C26.7299 49.4964 27.0215 49.6259 27.2591 49.7879C26.9027 50.2199 27.2591 50.6304 27.5183 50.5764C27.5507 50.5656 27.5507 50.5979 27.5291 50.6088C26.1683 51.1164 25.5635 51.3216 25.5635 52.4664C25.5635 53.0604 25.7687 53.3952 26.1143 53.3088C26.1359 53.298 26.1467 53.3087 26.1251 53.3303C25.9955 53.4815 25.8551 53.5355 25.7363 53.5355C25.4555 53.5355 25.4015 53.3843 25.2503 53.3843C25.0991 53.3843 24.5915 53.6868 24.5915 53.9352C24.5915 54.0324 24.6563 54.1619 24.8291 54.2699C24.8399 54.2808 24.8291 54.2915 24.8291 54.2915C24.6779 54.2915 24.2783 54.3239 24.1919 53.9459ZM27.7667 42.8759C27.3455 42.8543 27.0647 42.9408 27.0863 43.0812C27.2915 43.2971 27.5615 43.2755 27.7667 42.8759ZM26.2007 43.9235C26.5031 43.8479 26.8271 43.8804 26.8703 43.8911C26.9135 43.9019 26.9135 43.9776 26.8595 43.9884C26.2331 44.064 26.2007 44.3556 25.8011 44.3556C25.5419 44.3556 25.2503 44.0856 25.3583 43.6967C25.3691 43.6427 25.4123 43.6427 25.4231 43.6967C25.4663 43.8695 25.7147 44.0531 26.2007 43.9235ZM18.0683 57.8123C18.4787 58.3415 18.8783 57.8447 19.4291 57.8447C19.6991 57.8447 20.0231 57.9311 20.0771 58.4711C20.0771 58.5035 20.0987 58.5035 20.1311 58.4711C20.7251 57.6611 20.0447 57.2076 19.6559 57.1428C19.7423 57.0672 20.3147 56.7107 20.6927 57.24C20.7143 57.2724 20.7575 57.2616 20.7575 57.2184C20.7575 56.1924 19.9907 56.1168 19.4291 56.5596C19.3211 56.16 19.6235 55.9008 20.0123 55.9008C20.0555 55.9008 20.0771 55.8683 20.0555 55.8467C19.3643 55.1123 18.8567 56.0411 18.7379 56.1815C18.4679 56.5487 17.4851 55.8575 17.0855 55.4471C17.0855 55.4471 17.9495 54.54 17.9495 53.7084C17.9495 53.6544 17.9387 53.5895 17.9387 53.5571C17.9387 53.5355 17.9495 53.5247 17.9711 53.5355C18.0575 53.5896 18.1763 53.622 18.2951 53.622C18.4895 53.622 18.8675 53.5572 18.8675 52.8552C18.8675 52.8012 18.8459 52.8011 18.8243 52.8335C18.7163 52.9847 18.6083 53.0171 18.5219 53.0171C17.8199 53.0171 16.3619 50.6844 14.6339 50.6844C14.1803 50.6844 13.3271 51.0084 12.9059 51.4728C13.1111 51.5916 13.1543 51.8507 13.1327 52.0343C13.1003 52.326 12.8627 52.4772 12.6251 52.542C12.5819 52.5528 12.5819 52.5851 12.6251 52.6067C13.4999 52.9415 15.0767 53.5356 15.4439 53.8488C15.8651 54.216 15.7895 54.9072 15.5411 55.8684C15.3035 56.7864 14.7959 56.6676 14.6015 56.6352C14.5691 56.6352 14.5691 56.646 14.5799 56.6676C14.8067 56.9484 15.0767 57.0455 15.3143 57.0455C15.7679 57.0455 15.9407 56.7647 16.1675 56.7647C16.5563 56.7647 17.3879 57.3264 17.3879 57.7584C17.3879 57.996 17.2043 58.2228 16.9559 58.374C16.9451 58.3848 16.9451 58.4064 16.9667 58.4064C17.1503 58.4388 17.9171 58.5035 18.0683 57.8123ZM37.1087 58.4064C37.1303 58.4064 37.1411 58.3848 37.1195 58.374C36.8819 58.212 36.6875 57.996 36.6875 57.7584C36.6875 57.3264 37.5083 56.7647 37.9079 56.7647C38.1455 56.7647 38.3075 57.0455 38.7611 57.0455C38.9987 57.0455 39.2687 56.9484 39.4955 56.6676C39.5171 56.646 39.5063 56.6244 39.4739 56.6352C39.2903 56.6676 38.7719 56.7864 38.5343 55.8684C38.2859 54.9072 38.1995 54.216 38.6315 53.8488C38.9879 53.5356 40.5755 52.9415 41.4503 52.6067C41.4935 52.5851 41.4935 52.5528 41.4503 52.542C41.2127 52.4772 40.9751 52.326 40.9427 52.0343C40.9211 51.8507 40.9643 51.6024 41.1695 51.4728C40.7375 51.0084 39.8843 50.6844 39.4307 50.6844C37.7027 50.6844 36.2447 53.0171 35.5427 53.0171C35.4563 53.0171 35.3375 52.9847 35.2403 52.8335C35.2187 52.8011 35.1971 52.8012 35.1971 52.8552C35.1971 53.5572 35.5751 53.622 35.7695 53.622C35.8775 53.622 36.0071 53.5896 36.0935 53.5355C36.1151 53.5247 36.1259 53.5355 36.1259 53.5571C36.1259 53.5895 36.1151 53.6544 36.1151 53.7084C36.1151 54.54 36.9791 55.4471 36.9791 55.4471C36.5903 55.8575 35.6075 56.5379 35.3267 56.1815C35.2079 56.0303 34.7003 55.1123 34.0091 55.8467C33.9875 55.8791 33.9983 55.9008 34.0523 55.9008C34.4411 55.9008 34.7435 56.16 34.6355 56.5596C34.0739 56.1168 33.3071 56.1924 33.3071 57.2184C33.3071 57.2616 33.3503 57.2724 33.3719 57.24C33.7391 56.7107 34.3223 57.0672 34.3979 57.1428C34.0091 57.1968 33.3395 57.6611 33.9227 58.4711C33.9443 58.5035 33.9659 58.5035 33.9767 58.4711C34.0415 57.9419 34.3655 57.8447 34.6247 57.8447C35.1647 57.8447 35.5643 58.3415 35.9855 57.8123C36.1583 58.5035 36.9251 58.4388 37.1087 58.4064ZM23.1659 44.9388C23.1119 45.0144 22.9283 44.9388 22.8635 44.9064C22.8527 44.8956 22.8419 44.9063 22.8527 44.9171C22.8959 45.0143 23.0687 45.3059 23.3279 45.3059C23.4467 45.3059 23.6195 45.2411 23.6627 45.1547C23.6627 45.1547 24.6779 45.4895 25.1747 45.6191C24.9803 45.8783 24.8615 46.1916 24.8291 46.5264C24.4295 46.278 22.8095 45.414 22.8095 45.414L22.3127 46.1052C22.2263 46.2132 21.8267 45.9215 21.9131 45.8135L22.2911 45.2844C22.1615 45.1548 21.8591 45.2304 21.7727 45.2628C21.7619 45.2628 21.7511 45.2627 21.7619 45.2411C21.8159 45.1332 21.9995 44.8199 22.4747 44.9603C22.4747 44.6687 22.0427 44.766 21.9239 44.7984C21.9131 44.7984 21.9023 44.7984 21.9131 44.7876C22.0319 44.658 22.3883 44.3771 22.7771 44.6147L22.9499 44.3771L22.6043 44.01L22.8203 43.7076L23.0687 44.0315L24.9371 41.472C24.9803 41.4072 25.3583 41.2991 25.4879 41.2667C25.4987 41.4071 25.5203 41.7959 25.4771 41.8607L23.6411 44.442L24.0299 44.5715L23.8139 44.874L23.3603 44.6579L23.1659 44.9388ZM29.7215 44.5176C29.7215 44.7552 29.8619 45.1008 30.1751 44.9928C30.1859 44.982 30.2075 44.9927 30.1967 45.0035C30.1535 45.2627 29.6783 45.5003 29.4731 45.1979C29.2787 45.5975 29.3327 45.9755 29.7323 46.1915C29.7539 46.2023 29.7539 46.2348 29.7323 46.2564C29.4839 46.4292 29.1059 46.3967 28.9331 46.0511C28.5983 46.2995 28.6415 46.8396 28.8467 47.0232C28.8467 47.0232 27.9179 47.574 27.0755 47.1852C26.5139 46.9152 26.0603 46.5696 25.3367 46.6343C25.4339 45.6192 25.9415 45.36 26.8703 45.2088C27.6155 45.09 27.7019 44.7444 27.6047 44.4852C27.3563 44.4204 26.8919 44.6471 26.8919 44.6471C26.8055 44.5067 26.9243 44.3664 26.9243 44.3664C26.8811 44.3124 26.8595 44.1288 26.8595 44.1288C27.3779 44.1288 27.4751 44.01 27.4751 44.01C27.5723 43.4699 27.0215 43.416 26.6003 43.7076C26.4059 43.5348 26.4383 43.3079 26.4383 43.3079C26.3843 43.2755 26.3411 43.1891 26.3411 43.1459C26.3411 43.0163 26.9567 42.6708 27.1187 42.6276C27.1619 42.444 27.3779 42.1955 28.0367 42.2603C28.1123 42.0875 27.9827 41.4503 27.9071 41.2884C27.8855 41.2344 27.9179 41.2127 27.9719 41.2451C28.1987 41.3855 28.4255 41.9256 28.5875 41.9364C28.5875 41.9364 29.3219 41.5476 29.3543 41.5692C29.3867 41.5908 29.4947 42.4115 29.4947 42.4115C29.5919 42.5303 30.1643 42.4116 30.4127 42.5196C30.4775 42.552 30.4775 42.5951 30.4127 42.6059C30.2291 42.6383 29.6351 42.8976 29.5379 43.0596C29.8835 43.5672 29.7215 44.3124 29.7215 44.5176Z" fill="white"/>
</svg>
