<svg xmlns="http://www.w3.org/2000/svg" viewBox="0 0 24 24" width="24" height="24" fill="none"><path fill="currentColor" fill-rule="evenodd" d="M11.91 4c-4.373 0-8 3.627-8 8s3.627 8 8 8 8-3.627 8-8-3.627-8-8-8Zm0 14.72A6.692 6.692 0 0 1 5.19 12a6.692 6.692 0 0 1 6.72-6.72A6.692 6.692 0 0 1 18.63 12a6.692 6.692 0 0 1-6.72 6.72Zm2.346-10.56c-.533-.32-1.173-.533-2.027-.533-.426 0-.853 0-1.28.106a6.704 6.704 0 0 0-.533.16c-.16.054-.32.107-.533.16v1.494l.96-.32c.32-.107.64-.107.96-.107.426 0 .746.107.96.213.213.107.32.32.32.534a.815.815 0 0 1-.213.533c-.03.03-.06.068-.095.113-.089.114-.209.267-.439.42l-.747.427c-.32.213-.64.427-.746.64-.213.32-.32.533-.32.853 0 .214 0 .427.107.64.053.054.106.134.16.214.053.08.106.16.16.213l1.386-.107a.378.378 0 0 0-.053-.16.379.379 0 0 1-.053-.16v-.426c0-.107 0-.32.106-.427.107-.107.213-.213.427-.32l.64-.32c.533-.32.96-.64 1.173-.96.213-.32.32-.747.32-1.28 0-.64-.213-1.173-.64-1.6Zm-3.413 6.827c.214-.214.534-.32.854-.32.426 0 .64.106.96.426.213.107.32.427.32.854 0 .32-.107.64-.32.853-.214.213-.534.32-.854.32-.426 0-.746-.107-.96-.427-.213-.213-.32-.426-.32-.853 0-.32.107-.64.32-.853Z" clip-rule="evenodd"/></svg>
