<svg xmlns="http://www.w3.org/2000/svg" width="14" height="14" fill="currentColor" viewBox="0 0 14 14">
  <path d="M13.585 2.65 11.295.33c-.376-.38-.926.118-.683.561.283.516.435.756.435.756l-1.29 1.307s.219.443.598 1.219c.037.075-.007.103-.02.11L7.872 1.789c-.29-.293-.873.158-.618.616.25.447.604 1.039.604 1.039l-4.265 4.32a.997.997 0 0 0-.273.517l-.448 2.372L.32 13.328h.86l2.208-2.149 2.35-.448a.995.995 0 0 0 .514-.277l4.264-4.319s.585.36 1.026.612c.452.258.898-.332.608-.625l-1.523-1.543 1.658-1.68s.237.155.746.441c.437.246.929-.31.554-.69ZM8.86 6.369l-.707-.716-.354.716.53.537-.53.537-.707-.716-.353.716.53.537-.53.537-.707-.716-.354.716.53.537-.53.537L4.44 8.338l4.066-4.117 1.237 1.253-.884.895Z"/>
</svg>
