<svg width="24" height="24" viewBox="0 0 24 24" fill="none" xmlns="http://www.w3.org/2000/svg"><path d="m21.877 5.559-3.436-3.437c-.563-.562-1.387.176-1.023.832.424.764.652 1.12.652 1.12l-1.936 1.935s.33.656.898 1.806c.055.111-.01.153-.03.162l-3.694-3.693c-.435-.435-1.31.234-.927.912.374.662.906 1.54.906 1.54L6.89 13.132a1.5 1.5 0 0 0-.41.766l-.671 3.515-3.829 3.961h1.29l3.313-3.182 3.525-.664a1.5 1.5 0 0 0 .77-.411l6.396-6.396s.877.531 1.54.905c.677.383 1.346-.491.912-.926L17.44 8.416l2.487-2.487s.355.228 1.119.653c.656.364 1.393-.46.831-1.023Zm-7.089 5.509-1.06-1.061-.53 1.06.795.796-.796.796-1.06-1.061-.53 1.06.795.796-.796.796-1.06-1.061-.53 1.06.795.796-.796.796-1.856-1.856 6.099-6.1 1.856 1.857-1.326 1.326Z" fill="currentColor"/></svg>
