<svg xmlns="http://www.w3.org/2000/svg" width="65" height="65" fill="none"><path fill="#fff" d="M11 10h42v44H11z"/><path fill="currentColor" d="M63.3 7.472c-.642-2.887-2.567-5.133-5.454-5.454C49.183.414 35.388.414 32.5.414c-2.887 0-16.683 0-25.025 1.283A7.596 7.596 0 0 0 1.7 7.472C.417 15.814.417 29.61.417 32.497c0 2.888 0 16.684 1.283 25.025.642 2.888 2.567 5.134 5.454 5.455C15.817 64.58 29.613 64.58 32.5 64.58c2.888 0 16.683 0 25.025-1.284 2.888-.641 5.133-2.566 5.454-5.454 1.284-8.341 1.284-22.458 1.284-25.025.32-8.662.32-17.004-.963-25.346Zm-17.646 26.95L26.725 48.54c-.642.642-1.604.642-2.567 0-.641-.32-1.283-1.283-1.283-2.246V18.702c0-.963.642-1.925 1.283-2.246.963-.642 1.925-.642 2.567 0l18.93 13.796c.64.32.962 1.283.962 1.925 0 .641-.321 1.925-.963 2.245Z"/></svg>
