<svg width="18" height="18" fill="none" xmlns="http://www.w3.org/2000/svg"><path d="M9 18A9 9 0 1 0 9 0a9 9 0 0 0 0 18Zm5.264-3.61-.295-.65.665-1.204 1.078-.117a7.57 7.57 0 0 1-1.448 1.97ZM9.88 1.514a7.55 7.55 0 0 1 6.53 6.118l-.844 1.124-.972.486-.973-.973-.522-.938s.673-.674.487-1.03c-.186-.358-1.238.224-1.446-.09-.208-.312-.023-1.38-.023-1.38l-1.303-.537s-.408-.008-.374.3c.039.344.987.892.91 1.045-.07.142-.306.038-.306.038l-.361.633-.752-.17s.572-.216.641-.424c.07-.209-.843-.959-.843-.959l-.51.115-.23.92-.613.537-.805-.006.072-.446-.294-.008.383-.994.79.066s.292-.762.234-1.013c-.112-.486-.62-.541-.62-.733 0-.192.547-.189.815-.457.167-.167.614-.781.929-1.224Zm-2.626.157a7.505 7.505 0 0 1 1.408-.195l.07.113s-.174.911-.463.988c-.289.077-1.12-.402-1.12-.402l.105-.504ZM6.84 8.193c.382-.79.962-.87.962-.87l2.015-.405 1.154.676 1.539.292.426.584.686.968.973.507.973-.83s-.096 1.164-.48 1.89c-.383.727-1.378 1.271-1.378 1.271s-.095.684-.417 1.257c-.125.222-.466.341-.619.56-.275.395-.197 1.09-.512 1.244-.562.276-1.216.405-1.37.26-.214-.204-.688-1.073-.688-1.36v-2.075c0-.372-.497-1.253-.497-1.253s-1.177-.011-1.629-.011c-.451 0-1.138-.649-1.138-.649s-.382-1.266 0-2.056ZM5.71 2.225l-.874 1.603s-1.03 1.342-1.75 2.069c-.33.333-.821.594-1.257.778a7.57 7.57 0 0 1 3.881-4.45ZM3.891 12.85v1.68a7.52 7.52 0 0 1-2.343-4.438c.85.569 2.344 1.716 2.344 2.758Z" fill="currentColor"/></svg>
