<svg width="148" height="148" fill="none" xmlns="http://www.w3.org/2000/svg"><g clip-path="url(#clip0)"><path d="M103.739 4.573h63.21v129.923h-63.21V4.573z" fill="#4A2CB1"/><path fill-rule="evenodd" clip-rule="evenodd" d="M99.07 0v134.496h4.669V4.573h63.21v129.923h4.719V0H99.069h.001z" fill="#ADA7F9"/><path d="M100.9 49.153c1.465-1.591 2.488-3.568 2.407-5.825-.232-6.506-9.38-5.396-11.264-2.183-1.883 3.213-1.963 11.529.304 12.194.904.265 2.867-.239 4.886-1.353l-1.546 8.676 7.33.256-2.117-11.765z" fill="#E1BD9B"/><path d="M95.073 37.706c1.012-.268 2.469-.32 3.078-.23a5.2 5.2 0 01-.28-2.658c.139-.868.558-1.596.948-2.361.18-.353.382-.703.674-.967.298-.27.669-.441 1.054-.516.396-.073.803-.06 1.193.04.172.043.325.127.493.177.173.05.26-.054.39-.159.315-.25.766-.365 1.153-.397a2.94 2.94 0 011.287.199c.397.15.774.387 1.053.722.124.15.236.318.306.502.028.076.032.12.106.15.068.028.15.031.22.058a2.788 2.788 0 011.555 1.5c.174.404.239 1.107.187 1.89-.052.783-.837 2.804-1.53 3.527-.62.645-1.51 1.054-2.362 1.218.539.655.885 1.463 1.132 2.281.27.889.423 1.808.46 2.74.034.886.007 1.82-.232 2.677-.223.802-.664 1.45-1.376 1.847-.328.175-.671.32-1.025.435a6.684 6.684 0 01-1.05.294c-.68.115-1.456.064-1.958-.488a3.695 3.695 0 01-.507-.687c-.046-.086-.074-.142-.011-.222.075-.097.193-.169.288-.243.54-.422.884-1 .99-1.696.108-.707-.052-1.63-.736-1.964-.845-.412-1.806-.006-2.583.376-.285-1.147-.915-2.192-1.94-2.75-1.135-.616-2.458-.73-3.627-1.266-.305-.14-.615-.297-.833-.567-.092-.113-.198-.26-.231-.406-.044-.192.086-.348.187-.493.535-.77 2.515-2.295 3.527-2.563z" fill="#191847"/><path d="M105.748 79.906l-10.278 35.97-7.5 26.513H82.5l7.97-62.483h15.278z" fill="#0C8751"/><path d="M108.497 79.906c.238 18.54 1.048 28.652 1.298 30.336.25 1.684 4.024 12.4 11.323 32.147h-5.666c-9.292-18.944-14.48-29.66-15.562-32.147-1.082-2.488-4.421-12.6-9.451-30.336h18.058z" fill="#1FB573"/><path d="M121.625 147.522l-.283-5.961h-5.954c-2.823 1.987-6.509 3.595-11.057 4.825v1.136h10.773l3.686-.568v.568h2.835zm-32.887 0l-.283-5.961H82.5c-2.823 1.987-6.509 3.595-11.057 4.825v1.136h10.774l3.685-.568v.568h2.836z" fill="#191847"/><path d="M81.095 74.216l-9.486-4.173c-1.661-1.66-3.266-2.92-4.813-3.783-.463-.148-1.254-.192-.41 1.042.843 1.234 1.675 2.57 1.338 3.003-.337.433-1.313-.045-1.699.659-.257.469 1.389 1.03 4.937 1.683l7.104 5.456 3.029-3.887zm38.349 1.15l-5.364 1.066c5.394 10.072 8.287 15.41 8.679 16.015.88 1.36.059 3.852-.245 5.165 1.905.444 1.154-2.428 3.564-1.828 2.2.547 4.065 1.951 6.116.057.252-.233.437-.96-.423-1.334-2.142-.93-5.307-2.672-5.82-3.348-.7-.922-2.869-6.187-6.507-15.794v.001z" fill="#E1BD9B"/><path d="M99.493 55.29l-2.264-.39C92.298 59.69 90.286 71.193 87 72.716c-3.107 1.44-7.511.046-12.747-1.835l-1.603 3.585c4.757 5.151 14.89 9.504 18.999 7.019 6.567-3.972 8.083-18.16 7.845-26.196l-.001.001z" fill="#FF9B21"/><path d="M109.401 83.79H89.328c-.917 0-.744-1.323-.612-1.991 1.53-7.711 7.504-16.023 7.504-27l5.79-.907c4.79 7.7 6.446 17.18 7.391 29.899v-.001z" fill="#fff"/><path d="M111.39 75.974c4.079 7.376 7.507 12.686 10.284 15.93l4.193-.823c-2.7-16.796-10.523-29.192-23.465-37.189h-2.285c-5.18 17.705-6.608 29.502-4.284 35.391h18.007c-.285-4.309-1.198-8.866-2.45-13.309z" fill="#F9C346"/></g><defs><clipPath id="clip0"><path fill="#fff" transform="translate(66)" d="M0 0h82v148H0z"/></clipPath></defs></svg>