<svg width="234" height="158" viewBox="0 0 234 158" fill="none" xmlns="http://www.w3.org/2000/svg">
<path d="M120.798 4.97766H52.0001V146.386H120.798V4.97766Z" fill="#4A2CB1"/>
<path d="M86.2878 39.0518C84.6939 37.3203 83.5809 35.1689 83.6686 32.7116C83.9213 25.6313 93.8777 26.839 95.9282 30.3363C97.9788 33.8337 98.0654 42.8839 95.5982 43.608C94.6143 43.8968 92.4777 43.3483 90.2802 42.1354L91.9624 51.5784L83.9849 51.8573L86.2878 39.0518Z" fill="#E1BD9B"/>
<path d="M92.6296 26.5932C91.5281 26.3015 89.942 26.2449 89.2791 26.3438C89.6263 25.4304 89.7415 24.4223 89.5849 23.4502C89.4327 22.5055 88.9772 21.7126 88.5525 20.8798C88.3568 20.496 88.1368 20.1151 87.8186 19.8274C87.4945 19.5342 87.0906 19.3474 86.6711 19.2661C86.2419 19.183 85.7968 19.2067 85.3734 19.3105C85.1861 19.3565 85.0198 19.448 84.8364 19.502C84.6486 19.5574 84.5526 19.4429 84.4109 19.3295C84.0695 19.056 83.5787 18.9323 83.1576 18.8966C82.6851 18.8566 82.1994 18.944 81.756 19.1132C81.3245 19.2778 80.9134 19.5351 80.61 19.8995C80.4749 20.0618 80.3535 20.2453 80.2775 20.4459C80.2463 20.5282 80.2424 20.5765 80.1618 20.6091C80.0873 20.6392 79.9991 20.6431 79.9221 20.672C79.1779 20.9514 78.5542 21.5512 78.2295 22.3048C78.0401 22.7444 77.9698 23.5092 78.0262 24.3617C78.0825 25.2142 78.9369 27.414 79.6916 28.2009C80.3653 28.9033 81.335 29.3485 82.2621 29.5258C81.6758 30.2395 81.2996 31.1189 81.0299 32.0093C80.7369 32.9766 80.5695 33.9768 80.5303 34.9913C80.493 35.9553 80.522 36.9722 80.782 37.9052C81.0252 38.7777 81.5049 39.4837 82.2795 39.9152C82.6343 40.1128 83.0137 40.2574 83.3947 40.3883C83.7703 40.5173 84.1468 40.6423 84.5378 40.7084C85.2778 40.8334 86.1234 40.778 86.6691 40.178C86.8658 39.9616 87.0809 39.6909 87.2208 39.4302C87.2711 39.3364 87.3013 39.2752 87.2331 39.1876C87.1515 39.0828 87.0226 39.0047 86.9197 38.924C86.3324 38.4641 85.9569 37.8358 85.8413 37.0776C85.724 36.3083 85.8982 35.3039 86.6433 34.9404C87.5631 34.4916 88.6087 34.9333 89.4546 35.3496C89.7643 34.1013 90.4501 32.9632 91.5664 32.3566C92.8014 31.6855 94.2411 31.5617 95.5139 30.9785C95.8456 30.8265 96.1828 30.6553 96.4207 30.361C96.52 30.2379 96.6361 30.0788 96.6719 29.9194C96.719 29.71 96.5781 29.5408 96.4683 29.3827C95.886 28.5444 93.731 26.8849 92.6296 26.5932Z" fill="#191847"/>
<path d="M81.0112 72.5237L92.1984 111.674L100.361 140.53H106.314L97.6404 72.5237H81.0112Z" fill="#0C8751"/>
<path d="M78.0195 72.5237C77.7608 92.7023 76.8784 103.708 76.6067 105.542C76.335 107.375 72.227 119.038 64.2826 140.53H70.4498C80.5636 119.912 86.2094 108.249 87.3871 105.542C88.5649 102.834 92.1996 91.8282 97.6741 72.5237H78.0195Z" fill="#1FB573"/>
<path d="M63.7312 146.117L64.0398 139.63H70.5198C73.5924 141.792 77.6038 143.543 82.554 144.881V146.117H70.8283L66.8169 145.499V146.117H63.7312Z" fill="#191847"/>
<path d="M99.5254 146.117L99.834 139.63H106.314C109.387 141.792 113.398 143.543 118.348 144.881V146.117H106.622L102.611 145.499V146.117H99.5254Z" fill="#191847"/>
<path d="M107.845 66.3307L118.17 61.7882C119.978 59.9827 121.724 58.6104 123.409 57.6713C123.912 57.5107 124.773 57.4621 123.855 58.8055C122.937 60.1488 122.031 61.6032 122.398 62.074C122.765 62.5448 123.828 62.0252 124.247 62.7908C124.527 63.3012 122.736 63.9117 118.874 64.6224L111.142 70.5617L107.845 66.3307ZM66.1063 67.5818L71.9449 68.7424C66.0732 79.7054 62.9243 85.5158 62.4982 86.1736C61.5395 87.6536 62.434 90.3661 62.7644 91.7945C60.6916 92.2779 61.509 89.1523 58.8859 89.8049C56.4917 90.4005 54.4617 91.9292 52.2292 89.8676C51.9547 89.6141 51.7538 88.8218 52.6896 88.4154C55.0211 87.4031 58.4657 85.5074 59.0242 84.7714C59.7859 83.7678 62.1465 78.0379 66.1063 67.5818Z" fill="#E1BD9B"/>
<path d="M87.8196 45.7311L90.2838 45.308C95.651 50.5194 97.8412 63.0397 101.418 64.697C104.8 66.2639 109.594 64.7476 115.292 62.7003L117.037 66.603C111.86 72.2097 100.83 76.9465 96.3588 74.2424C89.2106 69.919 87.5605 54.4771 87.8196 45.7311Z" fill="#FF9B21"/>
<path d="M77.0372 76.7521C86.9377 76.7521 94.2203 76.7521 98.885 76.7521C99.8833 76.7521 99.6952 75.311 99.5509 74.5838C97.8853 66.1913 91.3836 57.1445 91.3836 45.198L85.0816 44.2101C79.8692 52.5906 78.0666 62.9088 77.0372 76.7521Z" fill="white"/>
<path d="M74.8716 68.2446C70.4331 76.2724 66.7022 82.052 63.6791 85.5834L59.1154 84.6871C62.0551 66.4063 70.5683 52.914 84.6549 44.2101H84.7266H87.1416C92.7796 63.4806 94.3339 76.3206 91.8045 82.7301H72.2055C72.5156 78.0402 73.5098 73.0804 74.8716 68.2446H74.8716Z" fill="#F9C346"/>
<path fill-rule="evenodd" clip-rule="evenodd" d="M125.881 0V146.386H120.798V4.97764H51.9999V146.386H46.8641V0H125.881Z" fill="#ADA7F9"/>
<path fill-rule="evenodd" clip-rule="evenodd" d="M2.31644 81.5156C6.07005 94.6995 10.2343 106.635 13.1038 115.275C16.2885 123.915 18.1774 129.258 24.6625 129.258C30.5198 129.258 39.8031 123.915 44.7068 115.275C49.9245 106.635 50.7627 94.6995 47.0091 81.5156C43.2549 68.3318 39.0901 56.396 36.2212 47.7563C33.037 39.1167 31.1481 33.7731 24.6625 33.7731C18.8063 33.7731 9.52184 39.1167 4.61876 47.7563C-0.599598 56.396 -1.43772 68.3318 2.31644 81.5156Z" fill="#1FB573"/>
<path fill-rule="evenodd" clip-rule="evenodd" d="M23.0576 144.94H23.6996V33.7731H23.0576V144.94Z" fill="#0C8751"/>
<path fill-rule="evenodd" clip-rule="evenodd" d="M23.5169 54.7006L35.8437 48.3049L35.438 47.8496L23.1112 54.2447L23.5169 54.7006Z" fill="#0C8751"/>
<path fill-rule="evenodd" clip-rule="evenodd" d="M23.4573 77.3408L41.9959 67.7898L41.5962 67.332L23.0576 76.8825L23.4573 77.3408Z" fill="#0C8751"/>
<path fill-rule="evenodd" clip-rule="evenodd" d="M23.7307 106.457L48.6296 93.4798L48.2239 93.0231L23.3251 106.001L23.7307 106.457Z" fill="#0C8751"/>
<path fill-rule="evenodd" clip-rule="evenodd" d="M23.2953 65.2446L23.6995 64.7913L2.91901 54.1118L2.51428 54.5651L23.2953 65.2446Z" fill="#0C8751"/>
<path fill-rule="evenodd" clip-rule="evenodd" d="M23.6163 91.8991L24.0205 91.4453L3.23952 80.7664L2.83533 81.2196L23.6163 91.8991Z" fill="#0C8751"/>
<path fill-rule="evenodd" clip-rule="evenodd" d="M23.227 120.695L23.5925 120.226L14.3284 116.092L13.9629 116.56L23.227 120.695Z" fill="#0C8751"/>
<path fill-rule="evenodd" clip-rule="evenodd" d="M35.8636 158H11.4291C10.4647 158 9.68311 157.22 9.68311 156.257V139.404C9.68311 138.442 10.4647 137.661 11.4291 137.661H35.8636C36.8275 137.661 37.609 138.442 37.609 139.404V156.257C37.609 157.22 36.8275 158 35.8636 158Z" fill="#CEC8FE"/>
<path d="M197.464 83.4496L182.153 122.141L171.884 154.852H167.829L183.528 83.4496L197.464 83.4496Z" fill="#F5CFAC"/>
<path d="M200.547 83.4496C200.71 97.0461 203.088 115.352 203.468 116.199C203.721 116.764 212.464 123.949 229.696 137.755L226.903 140.739C206.571 128.902 195.934 122.195 194.993 120.616C193.582 118.248 188.987 96.4571 185.298 83.4496H200.547Z" fill="#F5CFAC"/>
<path d="M230.086 136.765C231.025 137.098 231.673 137.413 232.028 137.711C232.459 138.073 233.029 138.674 233.737 139.513C233.317 140.013 229.548 144.508 222.428 152.997C220.974 152.374 220.517 151.646 221.058 150.813C221.598 149.98 222.041 149.283 222.385 148.721L224.844 140.105C224.891 139.939 225.064 139.843 225.23 139.891C225.232 139.892 225.235 139.893 225.238 139.894L226.555 140.312C227.467 139.888 228.107 139.457 228.473 139.02C228.771 138.665 229.039 138.054 229.276 137.187L229.276 137.187C229.367 136.855 229.711 136.66 230.044 136.751C230.058 136.755 230.072 136.76 230.086 136.765Z" fill="#6459E7"/>
<path d="M173.545 153.372C173.894 154.306 174.068 155.005 174.068 155.468C174.068 156.032 173.974 156.855 173.787 157.937C173.134 157.937 167.27 157.937 156.193 157.937C155.735 156.422 155.999 155.604 156.984 155.483C157.97 155.362 158.788 155.253 159.439 155.156L167.617 151.502C167.774 151.431 167.959 151.502 168.029 151.66C168.03 151.662 168.031 151.665 168.032 151.668L168.558 152.946C169.47 153.372 170.211 153.586 170.781 153.586C171.244 153.586 171.884 153.398 172.7 153.023L172.7 153.023C173.014 152.879 173.384 153.017 173.528 153.331C173.534 153.345 173.539 153.358 173.545 153.372Z" fill="#6459E7"/>
<path d="M187.17 151.482L167.89 149.393L182.179 83.4496H199.447L187.17 151.482Z" fill="#ADA7F9"/>
<path d="M225.708 132.941L213.062 147.886C199.742 133.361 191.976 123.883 189.765 119.453C187.553 115.023 185.566 103.022 183.801 83.4496H203.242C204.206 100.668 204.856 109.678 205.191 110.479C205.527 111.281 212.366 118.768 225.708 132.941Z" fill="#CEC8FE"/>
<path d="M202.497 46.7185C204.326 45.2116 205.736 43.2184 205.994 40.7521C206.739 33.646 196.666 33.4631 194.134 36.6698C191.603 39.8765 190.244 48.9025 192.596 49.9699C193.534 50.3955 195.736 50.1458 198.093 49.241L195.091 58.4369L202.987 59.8282L202.497 46.7185Z" fill="#F5CFAC"/>
<path d="M197.559 37.7541C198.524 38.5394 199.088 39.7918 199.746 41.4201C199.985 41.3719 200.236 41.3667 200.491 41.4115C201.58 41.6033 202.307 42.6388 202.116 43.7243C202.018 44.2753 201.703 44.7334 201.273 45.0257C201.616 45.748 202.009 46.5086 202.473 47.3038C204.89 46.3812 207.189 42.8565 205.751 38.8097C205.256 31.1238 194.27 33.9056 192.532 32.3178C191.631 34.9168 192.631 37.3162 197.559 37.7541Z" fill="#191847"/>
<path d="M197.653 53.0966L195.077 52.1735C183.724 58.922 176.802 74.5138 163.198 81.0198L165.473 85.1262C186.89 86.238 195.589 67.2651 197.653 53.0966Z" fill="#1FB573"/>
<path d="M203.37 88.4192C192.717 86.5394 184.882 85.1567 179.863 84.2711C178.789 84.0815 179.263 82.5712 179.556 81.8184C182.935 73.1305 191.64 64.659 193.899 51.8419L200.866 51.9785C204.89 61.9594 204.879 73.3717 203.37 88.4192Z" fill="#DDE3E9"/>
<path d="M207.774 62.31C208.809 62.2016 209.704 61.6811 210.462 60.7484C213.725 56.7281 213.263 54.1159 210.756 52.8418C208.25 51.5677 205.595 52.8127 201.375 52.068C201.146 52.0275 200.933 52.0048 200.737 51.9998L198.593 51.7459C188.878 71.2459 184.78 84.6766 186.299 92.038L204.8 95.3029C205.448 98.0444 205.577 96.5782 206.273 98.4946L211.314 99.3842C214.483 84.1755 213.664 74.3475 207.774 62.31Z" fill="#A5E7CA"/>
<path d="M202.632 84.0257C201.195 88.7762 199.629 92.1315 197.933 94.0917L204.799 95.3033C204.044 92.1055 203.322 88.3463 202.632 84.0257Z" fill="black" fill-opacity="0.1"/>
<path fill-rule="evenodd" clip-rule="evenodd" d="M160.215 69.8549H168.723V59.2234H160.215V69.8549Z" fill="#1FB573"/>
<path d="M161.287 67.7333H167.675V61.3451H161.287V67.7333Z" fill="#D8D8D8"/>
<path d="M161.287 67.7333H167.675V61.3451H161.287V67.7333Z" fill="#A5E7CA"/>
<path d="M163.946 53.3727V55.5005L160.224 59.2242H163.946H164.477V54.9685V52.8407C164.184 52.8407 163.946 53.0788 163.946 53.3727Z" fill="#D8D8D8"/>
<path d="M163.946 53.3727V55.5005L160.224 59.2242H163.946H164.477V54.9685V52.8407C164.184 52.8407 163.946 53.0788 163.946 53.3727Z" fill="#0C8751"/>
<path fill-rule="evenodd" clip-rule="evenodd" d="M165.009 55.5005V53.3727C165.009 53.0788 164.771 52.8407 164.477 52.8407V54.9685V59.2242H165.009H168.731L165.009 55.5005Z" fill="#0E9F5F"/>
<path fill-rule="evenodd" clip-rule="evenodd" d="M171.921 54.9685C169.572 54.9685 167.667 59.1719 167.667 65.6076V76.2467H176.174V65.6076C176.174 59.1719 174.27 54.9685 171.921 54.9685Z" fill="#F9C346"/>
<path fill-rule="evenodd" clip-rule="evenodd" d="M169.128 61.1244C169.295 61.2906 170.375 60.4793 171.541 59.3122C172.707 58.1455 173.519 57.0645 173.352 56.8984C173.186 56.7323 172.106 57.5436 170.94 58.7105C169.773 59.8775 168.962 60.9581 169.128 61.1244Z" fill="#FF9B21"/>
<path fill-rule="evenodd" clip-rule="evenodd" d="M168.819 65.1844C169.027 65.3921 170.434 64.321 171.962 62.7921C173.49 61.2631 174.561 59.8552 174.353 59.6475C174.146 59.4397 172.739 60.5107 171.21 62.0398C169.682 63.5688 168.612 64.9766 168.819 65.1844Z" fill="#FF9B21"/>
<path fill-rule="evenodd" clip-rule="evenodd" d="M168.731 69.8634C168.938 70.0711 170.535 68.8104 172.297 67.0477C174.059 65.285 175.319 63.6876 175.111 63.4799C174.903 63.2721 173.307 64.5328 171.545 66.2955C169.783 68.0583 168.523 69.6556 168.731 69.8634Z" fill="#FF9B21"/>
<path fill-rule="evenodd" clip-rule="evenodd" d="M168.731 74.119C168.938 74.3267 170.535 73.066 172.297 71.3033C174.059 69.5406 175.319 67.9432 175.111 67.7356C174.903 67.5277 173.307 68.7884 171.545 70.5511C169.783 72.3139 168.523 73.9112 168.731 74.119Z" fill="#FF9B21"/>
<path fill-rule="evenodd" clip-rule="evenodd" d="M181.036 64.0149C181.113 63.9849 181.19 63.9512 181.264 63.9085C182.077 63.4385 182.312 62.3203 182.312 62.3203C182.312 62.3203 181.227 61.9644 180.413 62.4344C179.599 62.9045 179.365 64.0226 179.365 64.0226C179.365 64.0226 179.567 64.0888 179.862 64.1264C180.217 64.01 180.623 63.9695 181.036 64.0149Z" stroke="black"/>
<path fill-rule="evenodd" clip-rule="evenodd" d="M179.365 64.4413C179.271 64.4413 179.195 64.3651 179.195 64.2711V62.3205C179.195 62.2264 179.271 62.1503 179.365 62.1503C179.459 62.1503 179.535 62.2264 179.535 62.3205V64.2711C179.535 64.3651 179.459 64.4413 179.365 64.4413Z" stroke="black"/>
<path fill-rule="evenodd" clip-rule="evenodd" d="M183.618 67.0868C183.618 64.3066 181.051 63.5714 179.638 64.2125C179.464 64.2911 179.265 64.2908 179.091 64.2115C177.677 63.5653 175.111 64.2586 175.111 67.0868C175.111 69.3882 176.743 72.5684 179.206 71.9009C179.31 71.8728 179.42 71.8728 179.523 71.9009C181.987 72.5684 183.618 69.3882 183.618 67.0868Z" fill="#FF7A00"/>
<path fill-rule="evenodd" clip-rule="evenodd" d="M181.036 59.7593C181.113 59.7293 181.19 59.6956 181.264 59.6529C182.077 59.1829 182.312 58.0647 182.312 58.0647C182.312 58.0647 181.227 57.7087 180.413 58.1787C179.599 58.6489 179.365 59.767 179.365 59.767C179.365 59.767 179.567 59.8332 179.862 59.8708C180.217 59.7544 180.623 59.7138 181.036 59.7593Z" fill="#0C8751"/>
<path fill-rule="evenodd" clip-rule="evenodd" d="M179.365 60.1857C179.271 60.1857 179.195 60.1095 179.195 60.0155V58.0649C179.195 57.9707 179.271 57.8947 179.365 57.8947C179.459 57.8947 179.535 57.9707 179.535 58.0649V60.0155C179.535 60.1095 179.459 60.1857 179.365 60.1857Z" fill="#0C8751"/>
<path fill-rule="evenodd" clip-rule="evenodd" d="M183.618 62.8311C183.618 60.051 181.051 59.3158 179.638 59.9569C179.464 60.0355 179.265 60.0352 179.091 59.9559C177.677 59.3097 175.111 60.003 175.111 62.8311C175.111 65.1326 176.743 68.3127 179.206 67.6453C179.31 67.6172 179.42 67.6172 179.523 67.6453C181.987 68.3127 183.618 65.1326 183.618 62.8311Z" fill="#A5E7CA"/>
<path fill-rule="evenodd" clip-rule="evenodd" d="M185.29 64.0149C185.367 63.9849 185.443 63.9512 185.517 63.9085C186.331 63.4385 186.565 62.3203 186.565 62.3203C186.565 62.3203 185.48 61.9644 184.666 62.4344C183.853 62.9045 183.618 64.0226 183.618 64.0226C183.618 64.0226 183.821 64.0888 184.116 64.1264C184.471 64.01 184.877 63.9695 185.29 64.0149Z" fill="#0C8751"/>
<path fill-rule="evenodd" clip-rule="evenodd" d="M183.618 64.4413C183.524 64.4413 183.448 64.3651 183.448 64.2711V62.3205C183.448 62.2264 183.524 62.1503 183.618 62.1503C183.712 62.1503 183.788 62.2264 183.788 62.3205V64.2711C183.788 64.3651 183.712 64.4413 183.618 64.4413Z" fill="#0C8751"/>
<path fill-rule="evenodd" clip-rule="evenodd" d="M187.872 67.0868C187.872 64.3066 185.305 63.5714 183.891 64.2125C183.718 64.2911 183.518 64.2908 183.345 64.2115C181.931 63.5653 179.365 64.2586 179.365 67.0868C179.365 69.3882 180.996 72.5684 183.46 71.9009C183.563 71.8728 183.673 71.8728 183.777 71.9009C186.241 72.5684 187.872 69.3882 187.872 67.0868Z" fill="#FF9B21"/>
<path fill-rule="evenodd" clip-rule="evenodd" d="M176.782 64.0149C176.86 63.9849 176.936 63.9512 177.01 63.9085C177.824 63.4385 178.058 62.3203 178.058 62.3203C178.058 62.3203 176.973 61.9644 176.159 62.4344C175.345 62.9045 175.111 64.0226 175.111 64.0226C175.111 64.0226 175.314 64.0888 175.609 64.1264C175.964 64.01 176.37 63.9695 176.782 64.0149Z" fill="#0C8751"/>
<path fill-rule="evenodd" clip-rule="evenodd" d="M175.111 64.4413C175.017 64.4413 174.941 64.3651 174.941 64.2711V62.3205C174.941 62.2264 175.017 62.1503 175.111 62.1503C175.205 62.1503 175.281 62.2264 175.281 62.3205V64.2711C175.281 64.3651 175.205 64.4413 175.111 64.4413Z" fill="#0C8751"/>
<path fill-rule="evenodd" clip-rule="evenodd" d="M179.365 67.0868C179.365 64.3066 176.798 63.5714 175.384 64.2125C175.21 64.2911 175.011 64.2908 174.838 64.2115C173.423 63.5653 170.858 64.2586 170.858 67.0868C170.858 69.3882 172.489 72.5684 174.953 71.9009C175.056 71.8728 175.166 71.8728 175.27 71.9009C177.733 72.5684 179.365 69.3882 179.365 67.0868Z" fill="#1FB573"/>
<path fill-rule="evenodd" clip-rule="evenodd" d="M157.544 63.4799H165.03C165.312 63.4799 165.541 63.7085 165.541 63.9905V69.8633H157.033V63.9905C157.033 63.7085 157.262 63.4799 157.544 63.4799Z" fill="#FF7A00"/>
<path fill-rule="evenodd" clip-rule="evenodd" d="M157.544 63.4799H165.03C165.312 63.4799 165.541 63.7085 165.541 63.9905V69.8633H157.033V63.9905C157.033 63.7085 157.262 63.4799 157.544 63.4799Z" fill="#ADA7F9"/>
<path fill-rule="evenodd" clip-rule="evenodd" d="M158.097 69.8633H164.477V65.6077H158.097V69.8633Z" fill="white"/>
<path fill-rule="evenodd" clip-rule="evenodd" d="M164.307 62.4159H162.52C162.426 62.4159 162.35 62.4922 162.35 62.5861V63.4798H164.477V62.5861C164.477 62.4922 164.401 62.4159 164.307 62.4159Z" fill="white"/>
<path fill-rule="evenodd" clip-rule="evenodd" d="M189.999 71.9912H153.843V70.8848C153.843 70.3206 154.3 69.8634 154.864 69.8634H188.978C189.542 69.8634 189.999 70.3206 189.999 70.8848V71.9912Z" fill="#6459E7"/>
<path fill-rule="evenodd" clip-rule="evenodd" d="M155.97 71.9912L156.966 85.9373C157.004 86.4716 157.448 86.886 157.984 86.886H185.858C186.394 86.886 186.838 86.4716 186.876 85.9373L187.872 71.9912H155.97Z" fill="url(#paint0_linear)"/>
<path fill-rule="evenodd" clip-rule="evenodd" d="M182.555 74.1189C181.968 74.1189 181.492 74.5954 181.492 75.1828V83.6941C181.492 84.2817 181.968 84.758 182.555 84.758C183.142 84.758 183.618 84.2817 183.618 83.6941V75.1828C183.618 74.5954 183.142 74.1189 182.555 74.1189ZM178.301 74.1189C177.714 74.1189 177.238 74.5954 177.238 75.1828V83.6941C177.238 84.2817 177.714 84.758 178.301 84.758C178.889 84.758 179.365 84.2817 179.365 83.6941V75.1828C179.365 74.5954 178.889 74.1189 178.301 74.1189ZM174.048 74.1189C173.46 74.1189 172.984 74.5954 172.984 75.1828V83.6941C172.984 84.2817 173.46 84.758 174.048 84.758C174.635 84.758 175.111 84.2817 175.111 83.6941V75.1828C175.111 74.5954 174.635 74.1189 174.048 74.1189ZM169.794 74.1189C169.207 74.1189 168.731 74.5954 168.731 75.1828V83.6941C168.731 84.2817 169.207 84.758 169.794 84.758C170.382 84.758 170.858 84.2817 170.858 83.6941V75.1828C170.858 74.5954 170.382 74.1189 169.794 74.1189ZM165.541 74.1189C164.953 74.1189 164.477 74.5954 164.477 75.1828V83.6941C164.477 84.2817 164.953 84.758 165.541 84.758C166.128 84.758 166.604 84.2817 166.604 83.6941V75.1828C166.604 74.5954 166.128 74.1189 165.541 74.1189ZM161.287 74.1189C160.7 74.1189 160.224 74.5954 160.224 75.1828V83.6941C160.224 84.2817 160.7 84.758 161.287 84.758C161.874 84.758 162.35 84.2817 162.35 83.6941V75.1828C162.35 74.5954 161.874 74.1189 161.287 74.1189Z" fill="white"/>
<path d="M172.597 66.2796C173.012 66.2796 173.349 65.9428 173.349 65.5274C173.349 65.1119 173.012 64.7751 172.597 64.7751C172.181 64.7751 171.844 65.1119 171.844 65.5274C171.844 65.9428 172.181 66.2796 172.597 66.2796Z" fill="white"/>
<path d="M181.23 66.2924C181.646 66.2924 181.983 65.9556 181.983 65.5402C181.983 65.1247 181.646 64.788 181.23 64.788C180.814 64.788 180.477 65.1247 180.477 65.5402C180.477 65.9556 180.814 66.2924 181.23 66.2924Z" fill="white"/>
<path d="M177.271 61.7166C177.686 61.7166 178.023 61.3798 178.023 60.9644C178.023 60.5489 177.686 60.2122 177.271 60.2122C176.855 60.2122 176.518 60.5489 176.518 60.9644C176.518 61.3798 176.855 61.7166 177.271 61.7166Z" fill="white"/>
<path d="M171.416 75.0047L166.731 72.4301C166.074 69.9278 165.288 68.6688 164.374 68.6531C163.672 68.3262 164.895 71.4881 163.563 71.2139C162.232 70.9397 158.983 68.522 158.423 69.0129C157.594 69.7391 158.333 71.969 159.203 73.0783C160.83 75.1515 162.176 75.8605 165.505 76.7889C167.245 77.2743 169.126 78.2473 171.149 79.7079L171.416 75.0047Z" fill="#FFD8B5"/>
<path d="M188.284 76.2409C184.318 77.2303 177.667 76.0635 168.332 72.7403C166.017 77.5326 164.946 80.9491 165.121 82.9899C173.129 87.1748 179.993 89.0406 185.648 89.1638C185.468 92.5204 185.876 95.7144 187.248 98.6328C190.069 104.633 206.584 99.0761 212.137 100.17C215.615 88.8717 208.891 84.2802 208.886 77.051C208.88 69.1342 202.525 56.9485 201.591 56.9485H196.98C196.51 62.9946 190.227 69.658 188.284 76.2409Z" fill="#A5E7CA"/>
<defs>
<linearGradient id="paint0_linear" x1="187.562" y1="75.3383" x2="156.536" y2="75.3383" gradientUnits="userSpaceOnUse">
<stop stop-color="#6255DC"/>
<stop offset="1" stop-color="#ADA7F9"/>
</linearGradient>
</defs>
</svg>
