<svg width="160" height="143" viewBox="0 0 160 143" fill="none" xmlns="http://www.w3.org/2000/svg">
<path d="M18.2827 35.3026C2.74438 57.887 -0.3749 92.0997 19.6573 113.816C32.898 128.169 51.2122 131.598 60.6867 133.372C67.1028 134.573 97.2922 139.492 122.806 122.617C124.976 121.182 127.724 119.364 130.627 116.547C152.629 95.1946 154.958 44.1407 122.236 18.8686C109.203 8.80362 92.0241 4.01685 75.949 4.01685C72.7954 4.01685 69.6814 4.20134 66.6528 4.56629C36.1382 8.24328 21.1249 31.1716 18.2827 35.3026Z" fill="white"/>
<path d="M120.554 121.325V143H97.2249V121.325H120.554ZM109.407 0C124.326 0 136.209 4.3568 145.055 13.0715C153.861 21.7663 158.271 31.9047 158.287 43.4877C158.287 49.8705 156.644 55.9349 153.42 61.6351C150.165 67.3353 143.235 75.1126 132.63 84.967C127.124 90.0743 123.733 94.1629 122.394 97.2786C121.041 100.379 120.433 105.913 120.57 113.923H96.9664C96.9246 111.625 96.8943 109.327 96.8754 107.029V106.977C96.8754 98.4487 98.1374 91.4375 100.662 85.9399C103.201 80.4077 108.281 74.2358 115.855 67.3196C123.444 60.4347 127.992 55.9349 129.436 53.792C131.708 50.5208 132.914 46.6301 132.888 42.6505C132.888 37.0119 130.871 32.1729 126.836 28.1345C122.79 24.1075 117.361 22.1013 110.502 22.1013C103.902 22.1013 98.3708 24.2035 93.9096 28.409C89.4829 32.604 86.4272 39.0035 84.7381 47.6054L60.8916 44.2924C61.5614 31.9506 66.2601 21.4824 74.99 12.8898C83.7345 4.28687 95.1717 0 109.407 0Z" fill="#6459E7"/>
<path d="M36.761 47.7872C35.2938 47.2705 34.2766 46.305 34.3792 44.6913C34.6753 40.0422 43.9264 37.0841 45.8038 38.5642C47.6812 40.0454 47.6843 45.8332 45.3831 47.2246C44.4653 47.7799 42.4822 48.2287 40.4489 48.2726L41.9317 53.7149L34.5089 56.887L36.761 47.7872Z" fill="#DFB995"/>
<path d="M41.3768 37.4335C40.5019 37.5451 38.1619 38.0451 37.7318 38.1495C37.4566 38.2163 37.1615 38.3322 36.9846 38.1965C36.8402 38.0848 36.8705 37.8311 36.8172 37.6735C36.7532 37.4921 36.6791 37.3144 36.5953 37.1412C36.3604 36.6328 36.0218 36.1788 35.6012 35.8083C34.7807 35.0807 33.6264 34.6361 32.2063 34.5588C30.6387 34.4733 28.8952 34.7906 27.2533 35.2843C25.4951 35.8124 23.9296 36.6057 22.2929 37.3917C20.7325 38.1401 19.0801 38.6871 17.4057 38.9136C15.7188 39.1421 14.4065 38.8196 12.9487 38.5639C11.4574 38.3029 9.77467 38.3029 8.07412 38.8113C6.48658 39.2841 5.05184 40.0993 3.78035 41.0304C2.59048 41.9019 1.62561 42.8372 1.12538 43.9457C0.587486 45.1367 0.675392 46.2796 1.7627 46.9529C3.33872 47.9288 6.10043 47.6094 8.37342 47.0217C9.69117 46.6796 10.9696 46.2014 12.1879 45.5949C13.8141 44.787 15.1934 43.7526 16.7014 42.8184C17.4089 42.38 18.1456 41.9834 18.9211 41.6358C19.6745 41.2997 20.4228 41.0481 21.1396 41.2005C21.8994 41.3623 22.5817 41.5366 23.4367 41.545C24.2914 41.5537 25.1438 41.4541 25.9734 41.2485C27.6394 40.8341 29.2552 40.0743 30.8553 39.4386C32.1613 38.9209 33.5584 38.3802 34.9188 38.2434C35.4871 38.186 36.3201 38.1495 36.5535 38.5054C33.1733 39.7653 32.0567 43.0251 33.1837 44.9456C33.7928 45.9811 37.0202 46.5813 38.1881 45.6753C38.9269 45.1012 38.4215 44.7066 38.0939 44.4436C37.466 43.9426 37.2044 43.1649 38.2404 42.4572C39.1352 41.8466 40.1764 42.5272 40.1942 42.522C40.4475 42.4458 42.575 41.0502 43.9899 39.425C45.4864 39.1244 45.6601 38.3854 45.2614 37.9136C44.8616 37.4418 42.5855 37.279 41.3768 37.4335Z" fill="#191847"/>
<path d="M38.6201 78.6292L48.4195 112.411L53.0293 137.775H57.6548L53.0377 78.6282H38.6212L38.6201 78.6292Z" fill="#DFB995"/>
<path d="M34.216 78.6292C34.9004 96.1785 34.6304 105.75 34.4776 107.345C34.3238 108.939 33.4552 119.618 27.5352 138.31H32.3469C40.1873 120.378 42.9239 109.699 43.8228 107.345C44.7228 104.99 47.3788 95.4176 51.2561 78.6281H34.216V78.6292Z" fill="#DFB995"/>
<path d="M38.4092 78.6292C40.9584 90.2529 45.3673 108.808 51.6348 134.296H58.4014C58.9017 108.135 56.7752 90.9178 53.0936 78.6282H38.4092V78.6292Z" fill="#4A2CB1"/>
<path d="M34.1814 78.6292C34.8512 96.1785 33.1161 113.468 27.7402 134.568H34.96C42.814 116.904 48.4441 99.7003 52.2921 78.6282H34.1814V78.6292Z" fill="#ADA7F9"/>
<path d="M26.8497 141.789L27.1145 137.508C28.6686 137.962 30.6161 137.783 32.955 136.972C35.4708 138.754 38.6375 139.972 42.4551 140.623C42.5292 140.636 42.5997 140.664 42.6622 140.706C42.7247 140.748 42.7777 140.802 42.8177 140.866C42.8578 140.929 42.884 141 42.8947 141.075C42.9055 141.149 42.9004 141.224 42.88 141.297L42.5137 142.592H27.3793L26.8477 141.789H26.8497ZM51.996 141.789L52.2618 137.508C53.8159 137.962 55.7634 137.783 58.1023 136.972C60.6181 138.754 63.7848 139.972 67.6024 140.623C67.6765 140.636 67.7471 140.664 67.8095 140.706C67.872 140.748 67.925 140.802 67.965 140.866C68.0051 140.929 68.0313 141 68.042 141.075C68.0528 141.149 68.0477 141.224 68.0273 141.297L67.66 142.592H52.5266L51.996 141.789Z" fill="#191847"/>
<path d="M26.766 90.9329L32.4904 89.1741C29.8888 97.4378 28.4749 101.832 28.251 102.358C27.7455 103.542 29.2818 104.63 29.9599 105.26C28.16 106.363 28.1076 104.357 25.8399 105.776C23.7709 107.07 22.2828 108.716 19.6729 108.522C19.3516 108.498 18.9592 108.157 19.7221 107.557C21.6246 106.065 24.3319 103.645 24.6594 103.024C25.1052 102.176 25.8074 98.1455 26.766 90.9329Z" fill="#DFB995"/>
<path d="M69.0249 65.073L78.2864 66.3986C80.7069 66.0667 82.7518 65.954 84.4188 66.0594C84.8228 66.1585 85.3335 66.4529 83.7658 66.86C82.1992 67.2671 80.551 67.7409 80.3794 68.1418C80.2077 68.5415 81.2019 68.649 80.8262 69.2346C80.5751 69.6239 79.11 69.2951 76.4278 68.2461L67.4834 68.671L69.0249 65.073Z" fill="#DFB995"/>
<path d="M42.1641 52.0922L44.6338 50.9221C54.5713 53.4272 59.6301 63.0834 71.6774 64.9643L69.2097 68.3295C49.2541 73.4107 42.8422 61.715 42.1641 52.0922Z" fill="#0C8751"/>
<path d="M34.7278 60.8634C33.7337 61.0043 32.9132 60.7924 32.2644 60.2278C29.4702 57.7968 30.1588 55.6559 32.707 54.1142C35.2553 52.5736 37.7145 52.9692 41.8754 51.4693C42.1014 51.3878 42.3097 51.3231 42.5002 51.2772L44.6036 50.6123C52.2294 63.736 54.9671 73.3389 52.8165 79.4211L34.5729 85.9959C33.6928 88.2787 32.8274 90.2442 31.9766 91.8934L27.0057 93.6845C25.3334 82.4909 27.9068 71.5498 34.7268 60.8634H34.7278Z" fill="#1FB573"/>
<path d="M34.4297 77.927C35.3726 81.2724 36.5656 83.5176 38.0098 84.6626L31.3311 87.0613C32.3441 84.4413 33.377 81.3966 34.4297 77.927Z" fill="black" fill-opacity="0.1"/>
<path d="M27.585 15.8992C28.4002 15.9002 29.1747 16.2541 29.7115 16.8689L32.0944 19.6537C32.0977 19.6574 32.1008 19.6613 32.1038 19.6652C32.107 19.6694 32.1111 19.6728 32.1158 19.6751C32.1205 19.6775 32.1257 19.6787 32.131 19.6788C32.1437 19.6802 32.1565 19.6777 32.1676 19.6715C32.1825 19.6563 32.1933 19.6376 32.199 19.6172V15.2165C32.1935 14.5186 32.453 13.8444 32.9253 13.3294C34.2033 11.9163 34.9077 10.0791 34.9011 8.17613C34.8959 3.90388 31.4456 0.441608 27.1874 0.438477H17.7898C13.5306 0.438477 10.0771 3.90388 10.0771 8.17718C10.0771 12.4515 13.5306 15.9169 17.7898 15.9169H27.1874C27.2832 15.9197 27.3791 15.9148 27.4741 15.9023L27.585 15.9002V15.8992Z" fill="#A5E7CA"/>
<path d="M25.9217 9.47461C26.0878 9.47928 26.2531 9.45066 26.4079 9.39046C26.5627 9.33025 26.7039 9.23968 26.8229 9.1241C26.942 9.00852 27.0367 8.87029 27.1012 8.71758C27.1658 8.56488 27.199 8.4008 27.1989 8.23507C27.1987 8.06934 27.1652 7.90532 27.1004 7.75273C27.0356 7.60013 26.9407 7.46205 26.8214 7.34668C26.7022 7.2313 26.5609 7.14097 26.406 7.08102C26.2511 7.02107 26.0857 6.99274 25.9196 6.99768C25.5965 7.00731 25.2899 7.14215 25.0649 7.37357C24.8399 7.605 24.7142 7.91479 24.7145 8.23716C24.7147 8.55954 24.841 8.86911 25.0664 9.10016C25.2918 9.33121 25.5986 9.46553 25.9217 9.47461ZM22.4159 9.47461C22.582 9.47942 22.7474 9.45094 22.9022 9.39087C23.0571 9.33079 23.1983 9.24034 23.3175 9.12486C23.4367 9.00939 23.5314 8.87123 23.5961 8.71858C23.6608 8.56593 23.6942 8.40188 23.6942 8.23615C23.6942 8.07041 23.6608 7.90637 23.5961 7.75371C23.5314 7.60106 23.4367 7.46291 23.3175 7.34743C23.1983 7.23195 23.0571 7.1415 22.9022 7.08142C22.7474 7.02135 22.582 6.99287 22.4159 6.99768C22.0928 7.00704 21.7861 7.14162 21.5609 7.37286C21.3357 7.60409 21.2098 7.91377 21.2098 8.23615C21.2098 8.55852 21.3357 8.8682 21.5609 9.09943C21.7861 9.33067 22.0928 9.46525 22.4159 9.47461ZM19.0587 9.47461C19.2248 9.47935 19.3902 9.4508 19.545 9.39066C19.6999 9.33052 19.841 9.24001 19.9602 9.12448C20.0793 9.00896 20.174 8.87076 20.2386 8.71808C20.3033 8.5654 20.3365 8.40134 20.3365 8.23561C20.3364 8.06988 20.303 7.90584 20.2382 7.75322C20.1735 7.60059 20.0787 7.46248 19.9594 7.34705C19.8402 7.23163 19.6989 7.14123 19.5441 7.08122C19.3892 7.02121 19.2238 6.9928 19.0577 6.99768C18.7346 7.00704 18.4279 7.14162 18.2027 7.37286C17.9775 7.60409 17.8516 7.91377 17.8516 8.23615C17.8516 8.55852 17.9775 8.8682 18.2027 9.09943C18.4279 9.33067 18.7346 9.46525 19.0577 9.47461H19.0587Z" fill="#191847"/>
</svg>
