<svg xmlns="http://www.w3.org/2000/svg" fill="none" height="178" width="206"><path fill="#fff" d="M21.073 43.943c-20.92 28.112-25.119 70.699 1.851 97.729 17.826 17.867 42.483 22.135 55.239 24.343 8.638 1.496 49.283 7.619 83.633-13.387 2.922-1.787 6.62-4.049 10.529-7.556 29.622-26.578 32.759-90.128-11.297-121.585C143.482 10.958 120.353 5 98.711 5c-4.246 0-8.438.23-12.516.684C45.113 10.26 24.9 38.8 21.073 43.944Z"></path><path fill="#6459E7" d="M155.49 151.019V178h-28.892v-26.981h28.892ZM141.685 0c18.475 0 33.191 5.423 44.146 16.27 10.906 10.824 16.367 23.444 16.387 37.862 0 7.945-2.035 15.493-6.028 22.589-4.03 7.095-12.612 16.776-25.746 29.042-6.818 6.358-11.018 11.447-12.676 15.325-1.676 3.859-2.429 10.748-2.259 20.718h-29.231c-.052-2.86-.089-5.721-.113-8.581v-.065c0-10.615 1.563-19.343 4.689-26.186 3.146-6.886 9.436-14.569 18.815-23.178 9.399-8.57 15.031-14.17 16.82-16.838a24.121 24.121 0 0 0 4.275-13.868c0-7.02-2.498-13.043-7.496-18.07-5.01-5.012-11.734-7.51-20.227-7.51-8.174 0-15.024 2.617-20.548 7.852-5.482 5.222-9.267 13.188-11.358 23.895l-29.532-4.124c.83-15.362 6.648-28.393 17.46-39.088C109.892 5.336 124.055 0 141.685 0Z"></path><path fill="#DFB995" d="M61.42 65.845c2.05 1.237 4.065 1.835 5.011 1.59 2.372-.611 2.59-9.294.755-12.717-1.835-3.422-11.269-4.914-11.744 1.868-.165 2.353.822 4.454 2.281 6.168l-2.616 12.204h7.6l-1.287-9.113Z" clip-rule="evenodd" fill-rule="evenodd"></path><path fill="#191847" d="M62.854 50.773c-1.002-.164-3.699-.277-4.196-.277-.318 0-.663.073-.85-.22-.155-.238-.099-.643-.145-.92-.053-.323-.129-.641-.206-.959a9.746 9.746 0 0 0-1.01-2.57c-.868-1.513-2.138-2.699-3.742-3.389-1.77-.762-3.774-.936-5.68-.782-2.038.166-3.883.84-5.808 1.473-1.834.604-3.755.842-5.673.547-1.933-.297-3.393-1.346-5.024-2.34-1.669-1.02-3.576-1.685-5.549-1.532-1.841.143-3.539.904-5.062 1.92-1.424.951-2.6 2.096-3.264 3.706-.714 1.733-.713 3.634.46 5.165 1.703 2.22 4.863 2.794 7.491 2.737a14.3 14.3 0 0 0 4.45-.816c1.914-.674 3.568-1.816 5.36-2.743.84-.435 1.709-.792 2.62-1.05.883-.249 1.753-.364 2.553.17.847.566 1.605 1.121 2.574 1.475.928.34 1.912.53 2.902.521 1.926-.015 3.824-.615 5.694-1.017 1.525-.328 3.157-.655 4.712-.34.648.132 1.596.404 1.83 1.078-3.944.716-5.493 5.597-4.38 9.18.6 1.934 4.206 4.195 5.609 3.178.889-.644.35-1.49 0-2.048-.669-1.069-.897-2.442.34-3.186 1.067-.642 2.189.882 2.21.88.293-.023 2.828-1.457 4.574-3.55 1.722.102 1.983-1.034 1.572-1.964-.411-.93-2.978-2.1-4.362-2.327Z" clip-rule="evenodd" fill-rule="evenodd"></path><path fill="#DFB995" d="m53.206 101.261 11.6 40.001 5.456 30.034h5.476l-5.466-70.035H53.206Z" clip-rule="evenodd" fill-rule="evenodd"></path><path fill="#DFB995" d="M47.993 101.261c.81 20.78.49 32.114.31 34.002-.182 1.888-1.21 14.533-8.218 36.667h5.696c9.28-21.234 12.52-33.878 13.585-36.667 1.064-2.788 4.208-14.122 8.798-34.002h-20.17Z" clip-rule="evenodd" fill-rule="evenodd"></path><path fill="#4A2CB1" d="M52.958 101.261c3.017 13.764 8.235 35.736 15.655 65.915h8.01c.591-30.976-1.925-51.363-6.283-65.915H52.957Z" clip-rule="evenodd" fill-rule="evenodd"></path><path fill="#ADA7F9" d="M47.953 101.261c.793 20.78-1.261 41.253-7.625 66.239h8.546c9.298-20.917 15.962-41.289 20.516-66.239H47.953Z" clip-rule="evenodd" fill-rule="evenodd"></path><path fill="#191847" d="m39.273 176.049.237-3.82c.04-.641.669-1.085 1.308-1.032 2.615.213 5.684-.852 5.684-.852 3.06 2.17 7.208 3.397 9.723 3.988 1.171.275 1.93 1.471 1.601 2.628l-.01.039H39.901l-.629-.951ZM69.04 176.049l.237-3.82c.04-.641.668-1.085 1.308-1.032 2.615.213 5.683-.852 5.683-.852 3.061 2.17 7.209 3.397 9.724 3.988 1.17.275 1.929 1.471 1.6 2.628l-.01.039H69.668l-.628-.951Z" clip-rule="evenodd" fill-rule="evenodd"></path><path fill="#DFB995" d="m93.181 87.54-11.474 5.043 3.664 4.697 8.593-6.593c4.293-.79 6.283-1.467 5.972-2.034-.262-.478-.75-.505-1.2-.53-.35-.019-.677-.037-.855-.266-.408-.522.598-2.137 1.619-3.628 1.02-1.492.064-1.438-.496-1.26-1.872 1.043-3.813 2.567-5.823 4.571Zm-51.374 7.72-6.49-1.288c-4.4 11.608-7.024 17.969-7.87 19.083-.621.817-4.45 2.922-7.04 4.046-1.04.451-.817 1.33-.512 1.612 1.924 1.775 3.713 1.152 5.66.475.564-.196 1.14-.396 1.738-.545 1.546-.384 2.017.412 2.462 1.164.393.665.767 1.297 1.849 1.045-.05-.213-.11-.451-.175-.708-.422-1.66-1.044-4.109-.121-5.532.473-.73 3.973-7.181 10.499-19.352Z" clip-rule="evenodd" fill-rule="evenodd"></path><path fill="#0C8751" d="m59.444 69.676 2.738-.47c5.964 5.79 8.398 19.7 12.373 21.54 3.758 1.741 9.085.057 15.417-2.218l1.94 4.336c-5.754 6.23-18.011 11.492-22.98 8.487-7.942-4.803-9.776-21.959-9.488-31.675Z" clip-rule="evenodd" fill-rule="evenodd"></path><path fill="#DDE3E9" d="M47.507 104.113h24.229c1.107 0 .898-1.6.738-2.407-1.847-9.317-9.057-19.36-9.057-32.623l-6.99-1.097c-5.78 9.304-7.779 20.758-8.92 36.127Z" clip-rule="evenodd" fill-rule="evenodd"></path><path fill="#1FB573" d="M56.057 67.986h-.08c-15.676 9.667-25.149 24.652-28.42 44.955l5.078.996C36 110.015 40.151 103.595 45.09 94.68c-1.515 5.37-2.622 10.879-2.967 16.088h21.81c4.222-10.678-5.189-42.782-5.189-42.782H56.057Z" clip-rule="evenodd" fill-rule="evenodd"></path><path fill="#A5E7CA" d="M40.357 19.792a3.495 3.495 0 0 1 2.633 1.207l2.951 3.466a.26.26 0 0 1 .012.014.043.043 0 0 0 .033.017.075.075 0 0 0 .046-.009.156.156 0 0 0 .039-.067v-5.478a3.445 3.445 0 0 1 .9-2.35 9.542 9.542 0 0 0 2.446-6.414C49.41 4.86 45.137.551 39.864.547H28.226c-5.274 0-9.551 4.313-9.551 9.633 0 5.32 4.277 9.634 9.551 9.634h11.638a2.22 2.22 0 0 0 .355-.018l.138-.003v-.001Z"></path><path fill="#191847" d="M38.296 11.795a1.534 1.534 0 0 0 1.461-.943 1.548 1.548 0 0 0-.346-1.706 1.538 1.538 0 0 0-2.61 1.108 1.544 1.544 0 0 0 1.495 1.54Zm-4.341 0a1.536 1.536 0 0 0 1.583-1.542 1.544 1.544 0 0 0-1.583-1.541 1.537 1.537 0 0 0-1.494 1.541 1.544 1.544 0 0 0 1.494 1.542Zm-4.158 0a1.535 1.535 0 0 0 1.461-.942 1.548 1.548 0 0 0-.345-1.707 1.536 1.536 0 0 0-2.61 1.107 1.545 1.545 0 0 0 1.493 1.542h.001Z"></path></svg>
