<svg width="19" height="24" viewBox="0 0 19 24" fill="none" xmlns="http://www.w3.org/2000/svg">
<g clip-path="url(#clip0)">
<path fill-rule="evenodd" clip-rule="evenodd" d="M10.4821 2.72598C12.0134 0.708445 14.142 0.69696 14.142 0.69696C14.142 0.69696 14.4597 2.59581 12.9361 4.42193C11.3129 6.37437 9.4676 6.05279 9.4676 6.05279C9.4676 6.05279 9.11922 4.51763 10.4821 2.72598Z" fill="#606060"/>
<path fill-rule="evenodd" clip-rule="evenodd" d="M9.6627 7.38505C10.4513 7.38505 11.9138 6.30164 13.8164 6.30164C17.0935 6.30164 18.3798 8.63309 18.3798 8.63309C18.3798 8.63309 15.8608 9.92324 15.8608 13.0472C15.8608 16.573 19 17.7905 19 17.7905C19 17.7905 16.8064 23.9694 13.8394 23.9694C12.4765 23.9694 11.4199 23.0506 9.98428 23.0506C8.52186 23.0506 7.07092 24.0038 6.12533 24.0038C3.4187 24 0 18.1427 0 13.43C0 8.79388 2.89422 6.36289 5.6085 6.36289C7.37336 6.36672 8.7439 7.38505 9.6627 7.38505Z" fill="#606060"/>
</g>
<defs>
<clipPath id="clip0">
<rect width="19" height="23.303" fill="white" transform="translate(0 0.69696)"/>
</clipPath>
</defs>
</svg>
