<svg width="25" height="26" viewBox="0 0 25 26" fill="none" xmlns="http://www.w3.org/2000/svg">
<path d="M25.0004 12.7603C25.0004 11.9334 24.929 11.127 24.7861 10.3512H23.7959H19.9269H12.7607V15.1797H20.0392C19.5696 16.8538 18.5692 18.283 17.2422 19.263L20.9988 22.254C23.4794 19.9163 25.0004 16.5272 25.0004 12.7603Z" fill="#3284FF"/>
<path d="M12.9137 5.17558C14.741 5.17558 16.3947 5.83912 17.6707 6.94161L21.1415 3.41976C18.9774 1.29645 16.0476 0 12.7606 0C7.86061 0 3.49148 2.87873 1.36816 7.06411L5.63521 10.3205C6.7275 7.31931 9.62664 5.17558 12.9137 5.17558Z" fill="#FF3424"/>
<path d="M1.44957 18.6096L5.5635 15.3328C5.30829 14.5774 5.17558 13.7709 5.17558 12.9339C5.17558 12.0151 5.33891 11.1372 5.63495 10.3205L1.36791 7.06412C0.500204 8.7791 0 10.7085 0 12.7603C0 14.8734 0.530829 16.8538 1.44957 18.6096Z" fill="#FFBB00"/>
<path d="M5.56412 15.3328L1.4502 18.6096C3.60414 22.7134 7.92222 25.5206 12.7609 25.5206C15.9765 25.5206 18.8451 24.2854 20.999 22.254L17.2424 19.263C16.0378 20.1613 14.5474 20.6921 12.9141 20.6921C9.54534 20.6921 6.59515 18.4463 5.56412 15.3328Z" fill="#26B14C"/>
</svg>
