<svg width="18" height="18" viewBox="0 0 18 18" fill="none" xmlns="http://www.w3.org/2000/svg">
<path d="M17.1966 2.29389C17.0679 1.52083 16.4797 0.932677 15.7065 0.80379C13.4711 0.431152 9.74548 0.431152 9.00043 0.431152C8.25538 0.431152 4.52972 0.431152 2.29438 0.80379C1.52113 0.932677 0.932978 1.52083 0.804278 2.29389C0.431641 4.52923 0.431641 8.25489 0.431641 8.99994C0.431641 9.74499 0.431641 13.4707 0.804278 15.706C0.932978 16.4791 1.52113 17.0672 2.29438 17.1961C4.52972 17.5687 8.25538 17.5687 9.00043 17.5687C9.74548 17.5687 13.4711 17.5687 15.7065 17.1961C16.4797 17.0672 17.0679 16.4791 17.1966 15.706C17.5692 13.4707 17.5692 9.74499 17.5692 8.99994C17.5692 6.76348 17.5692 4.52923 17.1966 2.29389ZM10.1254 14.9999H7.66374L7.87543 9.74994V6.74994H10.1254V14.9999ZM9.00902 5.24994C8.16842 5.24994 7.68793 4.77992 7.68793 3.92132C7.68793 3.19202 8.13399 2.62494 8.99184 2.62494C9.83248 2.62494 10.3129 3.0785 10.3129 3.92132C10.3129 4.66655 9.86687 5.24994 9.00902 5.24994Z" fill="#CA005D"/>
</svg>
