<svg width="10" height="11" viewBox="0 0 10 11" fill="none" xmlns="http://www.w3.org/2000/svg">
<path d="M8.2945 0.774634L3.93241 0.759586C3.53044 0.7582 3.19651 1.12958 3.19776 1.57661C3.199 2.02365 3.53501 2.39734 3.93698 2.39873L6.52002 2.41592L0.708998 8.8785C0.419589 9.20036 0.421021 9.71363 0.712231 10.0375C1.00344 10.3614 1.46496 10.3629 1.75437 10.0411L7.56539 3.5785L7.57338 6.44286C7.57462 6.88989 7.91064 7.26358 8.3126 7.26497C8.52103 7.26569 8.70687 7.17527 8.84045 7.02672C8.97402 6.87816 9.05532 6.67149 9.05468 6.43969L9.04119 1.60505C9.04059 1.38981 8.96556 1.17431 8.82368 1.01653C8.68181 0.858754 8.49546 0.767049 8.2945 0.774634Z" fill="black"/>
</svg>
