<svg width="27" height="34" viewBox="0 0 27 34" fill="none" xmlns="http://www.w3.org/2000/svg">
<path d="M11.3573 11.078C11.3573 9.89666 12.3232 8.92706 13.5 8.92706C14.6768 8.92706 15.6316 9.88552 15.6316 11.0669L15.5427 13.2959H11.3573V11.078Z" fill="#34C759"/>
<path fill-rule="evenodd" clip-rule="evenodd" d="M21.5084 2.2826C22.5739 2.69162 23.558 3.06939 23.9581 3.20973C24.0167 3.23029 24.0802 3.25176 24.1477 3.27458C25.1407 3.61037 26.9986 4.2386 26.9778 6.58663V20.0942C26.9778 22.5461 26.5448 25.0537 23.403 27.3384C20.2611 29.6342 17.2747 31.3728 16.3532 31.8632C16.2379 31.9246 16.12 31.9886 16.0002 32.0535C15.1629 32.5079 14.2354 33.0111 13.4778 33.0111C12.7321 33.0111 11.8382 32.5235 11.0159 32.075C10.8833 32.0026 10.7525 31.9313 10.6246 31.8632C9.70312 31.3728 6.71669 29.6231 3.57484 27.3384C0.432977 25.0537 0 22.5461 0 20.0942V6.58663C0 4.25057 1.84029 3.61682 2.81911 3.27974C2.89099 3.25499 2.95822 3.23184 3.01974 3.20973C3.41984 3.06939 4.40393 2.69162 5.4694 2.2826C6.85776 1.74963 8.38432 1.16362 8.93709 0.98075C9.10605 0.922927 9.28132 0.85577 9.46801 0.784238C10.3608 0.442155 11.5148 0 13.4889 0C15.4316 0 16.58 0.435572 17.4669 0.771949C17.6698 0.848868 17.8589 0.920599 18.0407 0.98075C18.5935 1.16361 20.12 1.74963 21.5084 2.2826ZM18.3294 22.769C18.8512 22.769 19.273 22.3455 19.273 21.8217H19.2841V14.2432C19.2841 13.7194 18.8623 13.2958 18.3405 13.2958H17.1081L17.197 11.1114V11.078C17.197 9.02736 15.5428 7.36677 13.5 7.36677C11.4572 7.36677 9.80304 9.02736 9.80304 11.078V13.2958H8.67064C8.14885 13.2958 7.72697 13.7194 7.72697 14.2432V21.8217C7.72697 22.3455 8.14885 22.769 8.67064 22.769H18.3294Z" fill="#34C759"/>
</svg>
