<svg width="24" height="24" viewBox="0 0 24 24" fill="none"
    xmlns="http://www.w3.org/2000/svg">
    <path d="M23.3802 19.6401L13.6702 2.47012C12.9402 1.17012 11.0702 1.17012 10.3302 2.47012L0.620204 19.6401C-0.0997961 20.9201 0.820204 22.5001 2.2902 22.5001H21.7202C23.1802 22.5001 24.1002 20.9201 23.3802 19.6401Z" fill="#154273"/>
    <path d="M10.54 17.4502C10.54 17.0102 10.66 16.6302 10.9 16.3302C11.14 16.0202 11.5 15.8702 11.99 15.8702C12.47 15.8702 12.84 16.0102 13.09 16.2702C13.34 16.5402 13.47 16.9302 13.47 17.4502C13.47 17.8802 13.35 18.2502 13.11 18.5402C12.87 18.8302 12.51 18.9802 12.02 18.9802C11.54 18.9802 11.17 18.8502 10.92 18.5902C10.67 18.3402 10.54 17.9602 10.54 17.4502ZM10.85 7.18022L13.33 6.98022L13.11 12.4902V15.1202L10.84 15.1702V7.18022H10.85Z" fill="white"/>
</svg>
